<svg viewBox="0 0 1536 343.59" xmlns="http://www.w3.org/2000/svg"><path d="m1536 324.83h-1536" fill="none" stroke="#2c4c61" stroke-miterlimit="10"/><path d="m698.2 324.82a24 24 0 0 1 48 0" fill="none" stroke="#2c4c61" stroke-miterlimit="10"/><path d="m32.67 324.82a24 24 0 0 1 48 0" fill="none" stroke="#2c4c61" stroke-miterlimit="10"/><path d="m127.75 324.82a24 24 0 0 1 48 0" fill="none" stroke="#2c4c61" stroke-miterlimit="10"/><path d="m222.83 324.82a24 24 0 0 1 48 0" fill="none" stroke="#2c4c61" stroke-miterlimit="10"/><path d="m317.9 324.82a24 24 0 0 1 48 0" fill="none" stroke="#2c4c61" stroke-miterlimit="10"/><path d="m413 324.82a24 24 0 0 1 48 0" fill="none" stroke="#2c4c61" stroke-miterlimit="10"/><path d="m508.05 324.82a24 24 0 0 1 48 0" fill="none" stroke="#2c4c61" stroke-miterlimit="10"/><path d="m603.13 324.82a24 24 0 0 1 48 0" fill="none" stroke="#2c4c61" stroke-miterlimit="10"/><path d="m0 284.69h1536" fill="none" stroke="#2c4c61" stroke-miterlimit="10"/><path d="m837.8 324.82a24 24 0 0 0 -48 0" fill="none" stroke="#2c4c61" stroke-miterlimit="10"/><path d="m1503.33 324.82a24 24 0 1 0 -48 0" fill="none" stroke="#2c4c61" stroke-miterlimit="10"/><path d="m1408.25 324.82a24 24 0 1 0 -48 0" fill="none" stroke="#2c4c61" stroke-miterlimit="10"/><path d="m1313.17 324.82a24 24 0 0 0 -48 0" fill="none" stroke="#2c4c61" stroke-miterlimit="10"/><path d="m1218.1 324.82a24 24 0 0 0 -48 0" fill="none" stroke="#2c4c61" stroke-miterlimit="10"/><path d="m1123 324.82a24 24 0 1 0 -48 0" fill="none" stroke="#2c4c61" stroke-miterlimit="10"/><path d="m1027.95 324.82a24 24 0 0 0 -48 0" fill="none" stroke="#2c4c61" stroke-miterlimit="10"/><path d="m932.87 324.82a24 24 0 0 0 -48 0" fill="none" stroke="#2c4c61" stroke-miterlimit="10"/><path d="m1535 275.13v67.46h-1534v-67.46zm1-1h-1536v69.46h1536z" fill="#2c4c61"/><g fill="none" stroke="#2c4c61"><path d="m227.8 274.13v-24.83h73.55" stroke-miterlimit="10"/><path d="m227.8 256.04h73.55" stroke-miterlimit="10"/><path d="m317.3 274.13v-24.83h-15.95" stroke-miterlimit="10"/><path d="m317.3 256.04h-15.95" stroke-miterlimit="10"/><path d="m590.65 272.75v-173.98l54-56 56.79 56v36.06 8.75 5.99 11.56 4 4.47 103.15" stroke-miterlimit="10"/><path d="m590.65 98.77h110.78" stroke-miterlimit="10"/><path d="m600.68 98.77 45.18-45.19 45.46 45.46" stroke-miterlimit="10"/><path d="m685.08 92.8h-78.43" stroke-miterlimit="10"/><path d="m633.76 72.03h22.58v15.45h-22.58z" stroke-miterlimit="10" transform="matrix(-1 0 0 -1 1290.09 159.5)"/><path d="m663.4 116.99h16.37v35.39h-16.37z" stroke-miterlimit="10" transform="matrix(-1 0 0 -1 1343.18 269.37)"/><path d="m679.78 134.68h-16.38" stroke-miterlimit="10"/><path d="m600.02 116.99h48.07v35.39h-48.07z" stroke-miterlimit="10" transform="matrix(-1 0 0 -1 1248.1 269.37)"/><path d="m637.26 116.99v35.39" stroke-miterlimit="10"/><path d="m611.9 116.99v35.39" stroke-miterlimit="10"/><path d="m600.02 170.86h48.07v35.39h-48.07z" stroke-miterlimit="10" transform="matrix(-1 0 0 -1 1248.1 377.12)"/><path d="m637.26 170.86v35.39" stroke-miterlimit="10"/><path d="m611.9 170.86v35.39" stroke-miterlimit="10"/><path d="m600.02 224.74h48.07v35.39h-48.07z" stroke-miterlimit="10" transform="matrix(-1 0 0 -1 1248.1 484.87)"/><path d="m637.26 224.74v35.39" stroke-miterlimit="10"/><path d="m611.9 224.74v35.39" stroke-miterlimit="10"/><path d="m660.5 272.76v-84.2s-1.71-14.07 14.07-14.07" stroke-miterlimit="10"/><path d="m687.19 272.76v-84.2s1.71-14.07-14.07-14.07" stroke-miterlimit="10"/><path d="m687.24 265.54h-26.8" stroke-miterlimit="10"/><path d="m687.24 259.21h-26.8" stroke-miterlimit="10"/><path d="m687.24 252.87h-26.8" stroke-miterlimit="10"/><path d="m687.24 246.53h-26.8" stroke-miterlimit="10"/><path d="m687.24 240.19h-26.8" stroke-miterlimit="10"/><path d="m687.24 233.85h-26.8" stroke-miterlimit="10"/><path d="m687.24 227.51h-26.8" stroke-miterlimit="10"/><path d="m687.24 221.18h-26.8" stroke-miterlimit="10"/><path d="m666.24 203.74v4.76" stroke-miterlimit="10"/><path d="m623.1 65.12v-12.51h5.9v6.26" stroke-miterlimit="10"/><path d="m491.83 272.53v-205.65l21.49-22.28 16.86-17.49 25.48-26.4 67.12 66.17" stroke-miterlimit="10"/><path d="m622.78 66.88h-12.26-106.83-11.86" stroke-miterlimit="10"/><path d="m610.84 67.2-.32-.32-7.07-7.06-46.36-46.34-46.34 46.34-7.06 7.06" stroke-miterlimit="10"/><path d="m603.45 59.83h-92.71" stroke-miterlimit="10"/><path d="m542.79 35.28h26.69v18.26h-26.69z" stroke-miterlimit="10" transform="matrix(-1 0 0 -1 1112.26 88.82)"/><path d="m502.91 88.42h56.81v41.83h-56.81z" stroke-miterlimit="10" transform="matrix(-1 0 0 -1 1062.63 218.67)"/><path d="m546.92 88.42v41.83" stroke-miterlimit="10"/><path d="m516.96 88.42v41.83" stroke-miterlimit="10"/><path d="m530.19 27.12v-14.78h6.98v7.39" stroke-miterlimit="10"/><path d="m539.79 151.8h19.35v41.83h-19.35z" stroke-miterlimit="10" transform="matrix(-1 0 0 -1 1098.94 345.43)"/><path d="m559.14 172.72h-19.35" stroke-miterlimit="10"/><path d="m501.76 151.8h19.35v41.83h-19.35z" stroke-miterlimit="10" transform="matrix(-1 0 0 -1 1022.88 345.43)"/><path d="m521.11 172.72h-19.35" stroke-miterlimit="10"/><path d="m539.79 215.19h19.35v41.83h-19.35z" stroke-miterlimit="10" transform="matrix(-1 0 0 -1 1098.94 472.2)"/><path d="m559.14 236.1h-19.35" stroke-miterlimit="10"/><path d="m501.76 215.19h19.35v41.83h-19.35z" stroke-miterlimit="10" transform="matrix(-1 0 0 -1 1022.88 472.2)"/><path d="m521.11 236.1h-19.35" stroke-miterlimit="10"/><path d="m349.79 272.75v-173.98l54-56 49.95 49.25 5.58 5.51 1.26 1.24v16.22 5.96 151.8" stroke-miterlimit="10"/><path d="m349.79 98.77h110.78" stroke-miterlimit="10"/><path d="m450.47 99.05-24.84-24.85-20.16-20.15-.47-.48-45.16 45.2" stroke-miterlimit="10"/><path d="m444.22 92.8h-78.43" stroke-miterlimit="10"/><path d="m392.89 72.02h22.6v15.47h-22.6z" stroke-miterlimit="10"/><path d="m422.54 116.99h16.37v35.39h-16.37z" stroke-miterlimit="10" transform="matrix(-1 0 0 -1 861.46 269.37)"/><path d="m438.92 134.68h-16.38" stroke-miterlimit="10"/><path d="m359.16 116.99h48.07v35.39h-48.07z" stroke-miterlimit="10" transform="matrix(-1 0 0 -1 766.39 269.37)"/><path d="m396.4 116.99v35.39" stroke-miterlimit="10"/><path d="m371.04 116.99v35.39" stroke-miterlimit="10"/><path d="m359.16 170.86h48.07v35.39h-48.07z" stroke-miterlimit="10" transform="matrix(-1 0 0 -1 766.39 377.12)"/><path d="m396.4 170.86v35.39" stroke-miterlimit="10"/><path d="m371.04 170.86v35.39" stroke-miterlimit="10"/><path d="m359.16 224.74h48.07v35.39h-48.07z" stroke-miterlimit="10" transform="matrix(-1 0 0 -1 766.39 484.87)"/><path d="m396.4 224.74v35.39" stroke-miterlimit="10"/><path d="m371.04 224.74v35.39" stroke-miterlimit="10"/><path d="m419.64 272.76v-84.2s-1.71-14.07 14.07-14.07" stroke-miterlimit="10"/><path d="m446.33 272.76v-84.2s1.71-14.07-14.07-14.07" stroke-miterlimit="10"/><path d="m446.38 265.54h-26.8" stroke-miterlimit="10"/><path d="m446.38 259.21h-26.8" stroke-miterlimit="10"/><path d="m446.38 252.87h-26.8" stroke-miterlimit="10"/><path d="m446.38 246.53h-26.8" stroke-miterlimit="10"/><path d="m446.38 240.19h-26.8" stroke-miterlimit="10"/><path d="m446.38 233.85h-26.8" stroke-miterlimit="10"/><path d="m446.38 227.51h-26.8" stroke-miterlimit="10"/><path d="m446.38 221.18h-26.8" stroke-miterlimit="10"/><path d="m425.38 203.74v4.76" stroke-miterlimit="10"/><path d="m382.24 65.12v-12.51h5.9v6.26" stroke-miterlimit="10"/><path d="m537.15 16.08h3.68" stroke-miterlimit="10"/><path d="m405.47 54.05 20.16 20.15" stroke-miterlimit="10"/><path d="m405.47 72.02h10.02v10.36" stroke-miterlimit="10"/><path d="m197.91 221.89v51.45" stroke-miterlimit="10"/><path d="m191.72 273.34v-51.45" stroke-miterlimit="10"/><path d="m197.91 241.13 17.01-13.43" stroke-miterlimit="10"/><circle cx="194.79" cy="196.38" r="24.61" stroke-linecap="round" stroke-linejoin="round"/><path d="m176.89 196.38a17.9 17.9 0 0 1 17.9-17.9" stroke-linecap="round" stroke-linejoin="round"/><path d="m144.41 253.42v21.84" stroke-miterlimit="10"/><path d="m149.92 275.26v-21.84" stroke-miterlimit="10"/><path d="m144.41 263.69-6.82-5.38" stroke-miterlimit="10"/><path d="m128 253.12 16.27-18.21h-13.59l13.59-15.22h-10.18l13.66-15.28 13.65 15.28h-10.18l13.59 15.22h-13.59l16.28 18.21z" stroke-miterlimit="10"/><path d="m199 125.77h-12a8 8 0 0 1 -.8-3.51 8.14 8.14 0 0 1 8.13-8.13 8 8 0 0 1 2.56.42" stroke-linecap="round" stroke-linejoin="round"/><path d="m196.88 114.54a14.64 14.64 0 0 1 14.32-11.59 11.84 11.84 0 0 1 1.89.13" stroke-linecap="round" stroke-linejoin="round"/><path d="m213.09 103.08a21.11 21.11 0 0 1 41.1.45" stroke-linecap="round" stroke-linejoin="round"/><path d="m254.19 103.53a14.93 14.93 0 0 1 22.75 11.24" stroke-linecap="round" stroke-linejoin="round"/><path d="m276.94 114.78a8.22 8.22 0 0 1 3.21-.65 8.44 8.44 0 0 1 8.43 8.45 8.13 8.13 0 0 1 -.64 3.2h-14.41" stroke-linecap="round" stroke-linejoin="round"/><path d="m186.99 125.77h20.88" stroke-linecap="round" stroke-linejoin="round"/><path d="m255.97 125.77h9.2" stroke-linecap="round" stroke-linejoin="round"/><path d="m1308.2 274.13v-24.83h-73.55" stroke-miterlimit="10"/><path d="m1308.2 256.04h-73.55" stroke-miterlimit="10"/><path d="m1218.7 274.13v-24.83h15.95" stroke-miterlimit="10"/><path d="m1218.7 256.04h15.95" stroke-miterlimit="10"/><path d="m945.35 272.75v-173.98l-54-56-56.79 56v36.06 8.75 5.99 11.56 4 4.47 103.15" stroke-miterlimit="10"/><path d="m945.35 98.77h-110.78" stroke-miterlimit="10"/><path d="m935.32 98.77-45.18-45.19-45.46 45.46" stroke-miterlimit="10"/><path d="m850.92 92.8h78.43" stroke-miterlimit="10"/><path d="m879.66 72.03h22.58v15.45h-22.58z" stroke-miterlimit="10"/><path d="m856.22 116.99h16.37v35.39h-16.37z" stroke-miterlimit="10"/><path d="m856.22 134.68h16.38" stroke-miterlimit="10"/><path d="m887.92 116.99h48.07v35.39h-48.07z" stroke-miterlimit="10"/><path d="m898.74 116.99v35.39" stroke-miterlimit="10"/><path d="m924.1 116.99v35.39" stroke-miterlimit="10"/><path d="m887.92 170.86h48.07v35.39h-48.07z" stroke-miterlimit="10"/><path d="m898.74 170.86v35.39" stroke-miterlimit="10"/><path d="m924.1 170.86v35.39" stroke-miterlimit="10"/><path d="m887.92 224.74h48.07v35.39h-48.07z" stroke-miterlimit="10"/><path d="m898.74 224.74v35.39" stroke-miterlimit="10"/><path d="m924.1 224.74v35.39" stroke-miterlimit="10"/><path d="m875.5 272.76v-84.2s1.71-14.07-14.07-14.07" stroke-miterlimit="10"/><path d="m848.81 272.76v-84.2s-1.71-14.07 14.07-14.07" stroke-miterlimit="10"/><path d="m848.76 265.54h26.8" stroke-miterlimit="10"/><path d="m848.76 259.21h26.8" stroke-miterlimit="10"/><path d="m848.76 252.87h26.8" stroke-miterlimit="10"/><path d="m848.76 246.53h26.8" stroke-miterlimit="10"/><path d="m848.76 240.19h26.8" stroke-miterlimit="10"/><path d="m848.76 233.85h26.8" stroke-miterlimit="10"/><path d="m848.76 227.51h26.8" stroke-miterlimit="10"/><path d="m848.76 221.18h26.8" stroke-miterlimit="10"/><path d="m869.76 203.74v4.76" stroke-miterlimit="10"/><path d="m912.9 65.12v-12.51h-5.9v6.26" stroke-miterlimit="10"/><path d="m1044.17 272.53v-205.65l-21.49-22.28-16.86-17.49-25.48-26.4-67.12 66.17" stroke-miterlimit="10"/><path d="m913.22 66.88h12.26 106.84 11.85" stroke-miterlimit="10"/><path d="m925.16 67.2.32-.32 7.07-7.06 46.36-46.34 46.34 46.34 7.07 7.06" stroke-miterlimit="10"/><path d="m932.55 59.83h92.71" stroke-miterlimit="10"/><path d="m966.53 35.28h26.69v18.26h-26.69z" stroke-miterlimit="10"/><path d="m976.28 88.42h56.81v41.83h-56.81z" stroke-miterlimit="10"/><path d="m989.08 88.42v41.83" stroke-miterlimit="10"/><path d="m1019.04 88.42v41.83" stroke-miterlimit="10"/><path d="m1005.81 27.12v-14.78h-6.98v7.39" stroke-miterlimit="10"/><path d="m976.86 151.8h19.35v41.83h-19.35z" stroke-miterlimit="10"/><path d="m976.86 172.72h19.35" stroke-miterlimit="10"/><path d="m1014.89 151.8h19.35v41.83h-19.35z" stroke-miterlimit="10"/><path d="m1014.89 172.72h19.35" stroke-miterlimit="10"/><path d="m976.86 215.19h19.35v41.83h-19.35z" stroke-miterlimit="10"/><path d="m976.86 236.1h19.35" stroke-miterlimit="10"/><path d="m1014.89 215.19h19.35v41.83h-19.35z" stroke-miterlimit="10"/><path d="m1014.89 236.1h19.35" stroke-miterlimit="10"/><path d="m1186.21 272.75v-173.98l-54-56-49.95 49.25-5.58 5.51-1.26 1.24v16.22 5.96 151.8" stroke-miterlimit="10"/><path d="m1186.21 98.77h-110.78" stroke-miterlimit="10"/><path d="m1085.53 99.05 24.84-24.85 20.16-20.15.47-.48 45.16 45.2" stroke-miterlimit="10"/><path d="m1091.78 92.8h78.43" stroke-miterlimit="10"/><path d="m1120.51 72.02h22.6v15.47h-22.6z" stroke-miterlimit="10"/><path d="m1097.08 116.99h16.37v35.39h-16.37z" stroke-miterlimit="10"/><path d="m1097.08 134.68h16.38" stroke-miterlimit="10"/><path d="m1128.77 116.99h48.07v35.39h-48.07z" stroke-miterlimit="10"/><path d="m1139.6 116.99v35.39" stroke-miterlimit="10"/><path d="m1164.96 116.99v35.39" stroke-miterlimit="10"/><path d="m1128.77 170.86h48.07v35.39h-48.07z" stroke-miterlimit="10"/><path d="m1139.6 170.86v35.39" stroke-miterlimit="10"/><path d="m1164.96 170.86v35.39" stroke-miterlimit="10"/><path d="m1128.77 224.74h48.07v35.39h-48.07z" stroke-miterlimit="10"/><path d="m1139.6 224.74v35.39" stroke-miterlimit="10"/><path d="m1164.96 224.74v35.39" stroke-miterlimit="10"/><path d="m1116.36 272.76v-84.2s1.71-14.07-14.07-14.07" stroke-miterlimit="10"/><path d="m1089.67 272.76v-84.2s-1.71-14.07 14.07-14.07" stroke-miterlimit="10"/><path d="m1089.62 265.54h26.8" stroke-miterlimit="10"/><path d="m1089.62 259.21h26.8" stroke-miterlimit="10"/><path d="m1089.62 252.87h26.8" stroke-miterlimit="10"/><path d="m1089.62 246.53h26.8" stroke-miterlimit="10"/><path d="m1089.62 240.19h26.8" stroke-miterlimit="10"/><path d="m1089.62 233.85h26.8" stroke-miterlimit="10"/><path d="m1089.62 227.51h26.8" stroke-miterlimit="10"/><path d="m1089.62 221.18h26.8" stroke-miterlimit="10"/><path d="m1110.62 203.74v4.76" stroke-miterlimit="10"/><path d="m1153.76 65.12v-12.51h-5.9v6.26" stroke-miterlimit="10"/><path d="m998.85 16.08h-3.68" stroke-miterlimit="10"/><path d="m1130.53 54.05-20.16 20.15" stroke-miterlimit="10"/><path d="m1130.53 72.02h-10.02v10.36" stroke-miterlimit="10"/><path d="m1338.09 221.89v51.45" stroke-miterlimit="10"/><path d="m1344.28 273.34v-51.45" stroke-miterlimit="10"/><path d="m1338.09 241.13-17.01-13.43" stroke-miterlimit="10"/><circle cx="1341.21" cy="196.38" r="24.61" stroke-linecap="round" stroke-linejoin="round"/><path d="m1359.11 196.38a17.9 17.9 0 0 0 -17.9-17.9" stroke-linecap="round" stroke-linejoin="round"/><path d="m1391.59 253.42v21.84" stroke-miterlimit="10"/><path d="m1386.08 275.26v-21.84" stroke-miterlimit="10"/><path d="m1391.59 263.69 6.82-5.38" stroke-miterlimit="10"/><path d="m1408 253.12-16.27-18.21h13.59l-13.59-15.22h10.17l-13.65-15.28-13.65 15.28h10.18l-13.59 15.22h13.59l-16.27 18.21z" stroke-miterlimit="10"/><path d="m1336.62 125.77h11.94a7.9 7.9 0 0 0 .8-3.48 8.07 8.07 0 0 0 -8.06-8.06 8 8 0 0 0 -2.54.41" stroke-linecap="round" stroke-linejoin="round"/><path d="m1338.76 114.64a14.51 14.51 0 0 0 -14.19-11.49 11.73 11.73 0 0 0 -1.87.13" stroke-linecap="round" stroke-linejoin="round"/><path d="m1322.7 103.28a20.92 20.92 0 0 0 -40.74.45" stroke-linecap="round" stroke-linejoin="round"/><path d="m1282 103.73a14.79 14.79 0 0 0 -22.55 11.14" stroke-linecap="round" stroke-linejoin="round"/><path d="m1259.41 114.87a8.15 8.15 0 0 0 -3.18-.65 8.37 8.37 0 0 0 -8.36 8.37 8.06 8.06 0 0 0 .63 3.17h14.29" stroke-linecap="round" stroke-linejoin="round"/><path d="m1348.56 125.77h-20.69" stroke-linecap="round" stroke-linejoin="round"/><path d="m1280.2 125.77h-9.12" stroke-linecap="round" stroke-linejoin="round"/><path d="m744.09 250.91v21.85" stroke-miterlimit="10"/><path d="m738.59 272.76v-21.85" stroke-miterlimit="10"/><path d="m744.09 261.19 6.82-5.39" stroke-miterlimit="10"/><path d="m760.5 250.62-16.27-18.22h13.59l-13.59-15.21h10.18l-13.66-15.28-13.65 15.28h10.18l-13.59 15.21h13.59l-16.27 18.22z" stroke-miterlimit="10"/><path d="m793.72 244.44v28.32" stroke-miterlimit="10"/><path d="m786.58 272.76v-28.32" stroke-miterlimit="10"/><path d="m793.72 257.76 8.85-6.99" stroke-miterlimit="10"/><path d="m814.99 244.06-21.09-23.62h17.62l-17.62-19.72h13.19l-17.7-19.81-17.7 19.81h13.2l-17.62 19.72h17.62l-21.1 23.62z" stroke-miterlimit="10"/></g></svg>