<?xml version="1.0" encoding="utf-8"?>
<!-- Generator: Adobe Illustrator 19.0.0, SVG Export Plug-In . SVG Version: 6.00 Build 0)  -->
<svg version="1.1" id="Layer_1" xmlns="http://www.w3.org/2000/svg" xmlns:xlink="http://www.w3.org/1999/xlink" x="0px" y="0px"
	 viewBox="0 0 585 408" style="enable-background:new 0 0 585 408;" xml:space="preserve">
<style type="text/css">
	.st0{clip-path:url(#XMLID_403_);}
	.st1{fill:none;stroke:#2D4D61;stroke-miterlimit:10;}
	.st2{fill:#2D4D61;}
	.st3{fill:none;stroke:#2D4D61;stroke-linecap:round;stroke-linejoin:round;stroke-miterlimit:10;}
</style>
<g id="img_5_">
	<defs>
		<rect id="XMLID_3_" width="585" height="382"/>
	</defs>
	<clipPath id="XMLID_403_">
		<use xlink:href="#XMLID_3_"  style="overflow:visible;"/>
	</clipPath>
	<g id="skyline_1_" class="st0">
		<g id="XMLID_400_">
			<line id="XMLID_423_" class="st1" x1="1212" y1="367.4" x2="12" y2="367.4"/>
			<path id="XMLID_422_" class="st1" d="M557.5,367.3c0-10.3,8.4-18.8,18.8-18.8c10.4,0,18.8,8.4,18.8,18.8"/>
			<path id="XMLID_421_" class="st1" d="M37.5,367.3c0-10.3,8.4-18.8,18.8-18.8c10.4,0,18.8,8.4,18.8,18.8"/>
			<path id="XMLID_420_" class="st1" d="M111.8,367.3c0-10.3,8.4-18.8,18.8-18.8c10.4,0,18.8,8.4,18.8,18.8"/>
			<path id="XMLID_419_" class="st1" d="M186.1,367.3c0-10.3,8.4-18.8,18.8-18.8c10.4,0,18.8,8.4,18.8,18.8"/>
			<path id="XMLID_418_" class="st1" d="M260.4,367.3c0-10.3,8.4-18.8,18.8-18.8c10.4,0,18.8,8.4,18.8,18.8"/>
			<path id="XMLID_417_" class="st1" d="M334.6,367.3c0-10.3,8.4-18.8,18.8-18.8c10.4,0,18.8,8.4,18.8,18.8"/>
			<path id="XMLID_416_" class="st1" d="M408.9,367.3c0-10.3,8.4-18.8,18.8-18.8c10.4,0,18.8,8.4,18.8,18.8"/>
			<path id="XMLID_415_" class="st1" d="M483.2,367.3c0-10.3,8.4-18.8,18.8-18.8c10.4,0,18.8,8.4,18.8,18.8"/>
			<line id="XMLID_414_" class="st1" x1="12" y1="336" x2="1212" y2="336"/>
			<path id="XMLID_413_" class="st1" d="M666.5,367.3c0-10.3-8.4-18.8-18.8-18.8c-10.4,0-18.8,8.4-18.8,18.8"/>
			<path id="XMLID_412_" class="st1" d="M1186.5,367.3c0-10.3-8.4-18.8-18.8-18.8c-10.4,0-18.8,8.4-18.8,18.8"/>
			<path id="XMLID_411_" class="st1" d="M1112.2,367.3c0-10.3-8.4-18.8-18.8-18.8c-10.4,0-18.8,8.4-18.8,18.8"/>
			<path id="XMLID_410_" class="st1" d="M1037.9,367.3c0-10.3-8.4-18.8-18.8-18.8c-10.4,0-18.8,8.4-18.8,18.8"/>
			<path id="XMLID_409_" class="st1" d="M963.6,367.3c0-10.3-8.4-18.8-18.8-18.8c-10.4,0-18.8,8.4-18.8,18.8"/>
			<path id="XMLID_408_" class="st1" d="M889.4,367.3c0-10.3-8.4-18.8-18.8-18.8c-10.4,0-18.8,8.4-18.8,18.8"/>
			<path id="XMLID_407_" class="st1" d="M815.1,367.3c0-10.3-8.4-18.8-18.8-18.8c-10.4,0-18.8,8.4-18.8,18.8"/>
			<path id="XMLID_406_" class="st1" d="M740.8,367.3c0-10.3-8.4-18.8-18.8-18.8c-10.4,0-18.8,8.4-18.8,18.8"/>
			<g id="XMLID_401_">
				<path id="XMLID_19_" class="st2" d="M1211,328.7V381H13v-52.3H1211 M1212,327.7H12V382h1200V327.7L1212,327.7z"/>
			</g>
		</g>
		<g id="XMLID_371_">
			<polyline id="XMLID_399_" class="st1" points="1199.8,273.4 1094,273.4 1027.1,273.4 1027.1,287.1 1027.1,327.7 			"/>
			<polyline id="XMLID_398_" class="st1" points="1079.1,273.4 1079.1,157 1199.8,157 			"/>
			<polyline id="XMLID_397_" class="st1" points="1139.5,157.4 1139.5,62.5 1199.8,62.5 1199.8,327.7 			"/>
			<line id="XMLID_396_" class="st1" x1="1101.8" y1="157.4" x2="1101.8" y2="271.6"/>
			<line id="XMLID_395_" class="st1" x1="1126.6" y1="157.4" x2="1126.6" y2="271.6"/>
			<line id="XMLID_394_" class="st1" x1="1151.3" y1="157.4" x2="1151.3" y2="271.6"/>
			<line id="XMLID_393_" class="st1" x1="1176.1" y1="157.4" x2="1176.1" y2="271.6"/>
			<line id="XMLID_392_" class="st1" x1="1079.3" y1="251.6" x2="1201" y2="251.6"/>
			<line id="XMLID_391_" class="st1" x1="1079.3" y1="226.9" x2="1201" y2="226.9"/>
			<line id="XMLID_390_" class="st1" x1="1079.3" y1="202.1" x2="1201" y2="202.1"/>
			<line id="XMLID_389_" class="st1" x1="1079.3" y1="177.4" x2="1201" y2="177.4"/>
			<line id="XMLID_388_" class="st1" x1="1139.5" y1="75.6" x2="1199.8" y2="75.6"/>
			<line id="XMLID_387_" class="st1" x1="1139.5" y1="85.5" x2="1199.8" y2="85.5"/>
			<line id="XMLID_386_" class="st1" x1="1139.5" y1="125.1" x2="1199.8" y2="125.1"/>
			<line id="XMLID_385_" class="st1" x1="1139.5" y1="135" x2="1199.8" y2="135"/>
			<line id="XMLID_384_" class="st1" x1="1139.5" y1="100.4" x2="1199.8" y2="100.4"/>
			<line id="XMLID_383_" class="st1" x1="1139.5" y1="110.3" x2="1199.8" y2="110.3"/>
			<line id="XMLID_382_" class="st1" x1="1151.3" y1="75.6" x2="1151.3" y2="85.5"/>
			<line id="XMLID_381_" class="st1" x1="1166.2" y1="125.1" x2="1166.2" y2="135"/>
			<line id="XMLID_380_" class="st1" x1="1178.5" y1="100.4" x2="1178.5" y2="110.3"/>
			<line id="XMLID_379_" class="st1" x1="1183.5" y1="62.5" x2="1183.5" y2="50.5"/>
			<polyline id="XMLID_378_" class="st1" points="1040.7,327.7 1040.7,288.1 1199.8,288.1 			"/>
			<polyline id="XMLID_377_" class="st1" points="1053.1,327.7 1079.8,301 1199.8,301 			"/>
			<polyline id="XMLID_376_" class="st1" points="1075.4,327.7 1089.7,313.4 1199.8,313.4 			"/>
			<line id="XMLID_375_" class="st1" x1="1101.8" y1="313.4" x2="1101.8" y2="327.7"/>
			<line id="XMLID_374_" class="st1" x1="1126.6" y1="313.4" x2="1126.6" y2="327.7"/>
			<line id="XMLID_373_" class="st1" x1="1151.3" y1="313.4" x2="1151.3" y2="327.7"/>
			<line id="XMLID_372_" class="st1" x1="1176.1" y1="313.4" x2="1176.1" y2="327.7"/>
		</g>
		<g id="XMLID_226_">
			<polyline id="XMLID_370_" class="st1" points="226.7,326.7 226.7,190.7 184.6,147 140.2,190.7 140.2,218.9 140.2,225.7 
				140.2,230.4 140.2,239.5 140.2,242.6 140.2,246.1 140.2,326.7 			"/>
			<line id="XMLID_369_" class="st1" x1="226.7" y1="190.7" x2="140.2" y2="190.7"/>
			<path id="XMLID_368_" class="st1" d="M212.9,183.7"/>
			<path id="XMLID_367_" class="st1" d="M184.2,154"/>
			<path id="XMLID_366_" class="st1" d="M184.2,154"/>
			<path id="XMLID_365_" class="st1" d="M154.1,183.7"/>
			<path id="XMLID_364_" class="st1" d="M154.1,183.7"/>
			<path id="XMLID_363_" class="st1" d="M212.9,183.7"/>
			<polyline id="XMLID_362_" class="st1" points="218.9,190.7 183.6,155.4 148.1,190.9 			"/>
			<line id="XMLID_361_" class="st1" x1="153" y1="186.1" x2="214.2" y2="186.1"/>
			<rect id="XMLID_360_" x="175.4" y="169.8" class="st1" width="17.6" height="12.1"/>
			<rect id="XMLID_359_" x="157.1" y="205" class="st1" width="12.8" height="27.6"/>
			<line id="XMLID_358_" class="st1" x1="157.1" y1="218.8" x2="169.9" y2="218.8"/>
			<rect id="XMLID_357_" x="181.9" y="205" class="st1" width="37.6" height="27.6"/>
			<line id="XMLID_356_" class="st1" x1="190.3" y1="205" x2="190.3" y2="232.6"/>
			<line id="XMLID_355_" class="st1" x1="210.1" y1="205" x2="210.1" y2="232.6"/>
			<rect id="XMLID_354_" x="181.9" y="247.1" class="st1" width="37.6" height="27.6"/>
			<line id="XMLID_353_" class="st1" x1="190.3" y1="247.1" x2="190.3" y2="274.7"/>
			<line id="XMLID_352_" class="st1" x1="210.1" y1="247.1" x2="210.1" y2="274.7"/>
			<rect id="XMLID_351_" x="181.9" y="289.2" class="st1" width="37.6" height="27.6"/>
			<line id="XMLID_350_" class="st1" x1="190.3" y1="289.2" x2="190.3" y2="316.8"/>
			<line id="XMLID_349_" class="st1" x1="210.1" y1="289.2" x2="210.1" y2="316.8"/>
			<path id="XMLID_348_" class="st1" d="M172.2,326.7v-65.8c0,0,1.3-11-11-11"/>
			<path id="XMLID_347_" class="st1" d="M151.3,326.7v-65.8c0,0-1.3-11,11-11"/>
			<line id="XMLID_346_" class="st1" x1="151.3" y1="321" x2="172.2" y2="321"/>
			<line id="XMLID_345_" class="st1" x1="151.3" y1="316.1" x2="172.2" y2="316.1"/>
			<line id="XMLID_344_" class="st1" x1="151.3" y1="311.1" x2="172.2" y2="311.1"/>
			<line id="XMLID_343_" class="st1" x1="151.3" y1="306.2" x2="172.2" y2="306.2"/>
			<line id="XMLID_342_" class="st1" x1="151.3" y1="301.2" x2="172.2" y2="301.2"/>
			<line id="XMLID_341_" class="st1" x1="151.3" y1="296.3" x2="172.2" y2="296.3"/>
			<line id="XMLID_340_" class="st1" x1="151.3" y1="291.3" x2="172.2" y2="291.3"/>
			<line id="XMLID_339_" class="st1" x1="151.3" y1="286.4" x2="172.2" y2="286.4"/>
			<line id="XMLID_338_" class="st1" x1="167.7" y1="272.7" x2="167.7" y2="276.5"/>
			<polyline id="XMLID_337_" class="st1" points="201.4,164.4 201.4,154.7 196.8,154.7 196.8,159.6 			"/>
			<polyline id="XMLID_336_" class="st1" points="128.1,326.5 128.1,165.8 119.5,156.9 103.8,140.6 78.3,114.1 25.8,165.8 
				25.8,326.5 			"/>
			<polyline id="XMLID_335_" class="st1" points="25.8,165.8 35.4,165.8 103.8,165.8 118.9,165.8 119.5,165.8 128.1,165.8 			"/>
			<path id="XMLID_334_" class="st1" d="M111.7,157.5"/>
			<path id="XMLID_333_" class="st1" d="M77.9,122.4"/>
			<path id="XMLID_332_" class="st1" d="M77.9,122.4"/>
			<path id="XMLID_331_" class="st1" d="M42.3,157.5"/>
			<path id="XMLID_330_" class="st1" d="M42.3,157.5"/>
			<path id="XMLID_329_" class="st1" d="M111.7,157.5"/>
			<polyline id="XMLID_328_" class="st1" points="35.2,166.1 35.4,165.8 40.9,160.3 77.2,124.1 103.8,150.7 113.4,160.3 
				118.9,165.8 			"/>
			<polyline id="XMLID_327_" class="st1" points="40.9,160.3 103.8,160.3 113.4,160.3 			"/>
			<rect id="XMLID_326_" x="67.5" y="141.1" class="st1" width="20.8" height="14.3"/>
			<rect id="XMLID_325_" x="45.9" y="182.7" class="st1" width="15.1" height="32.7"/>
			<line id="XMLID_324_" class="st1" x1="45.9" y1="199" x2="61" y2="199"/>
			<rect id="XMLID_323_" x="75.1" y="182.7" class="st1" width="44.4" height="32.7"/>
			<line id="XMLID_322_" class="st1" x1="85.1" y1="182.7" x2="85.1" y2="215.3"/>
			<line id="XMLID_321_" class="st1" x1="108.5" y1="182.7" x2="108.5" y2="215.3"/>
			<path id="XMLID_320_" class="st1" d="M63.7,326.5v-77.7c0,0,1.6-13-13-13"/>
			<path id="XMLID_319_" class="st1" d="M39,326.5v-77.7c0,0-1.6-13,13-13"/>
			<line id="XMLID_318_" class="st1" x1="39" y1="319.8" x2="63.7" y2="319.8"/>
			<line id="XMLID_317_" class="st1" x1="39" y1="314" x2="63.7" y2="314"/>
			<line id="XMLID_316_" class="st1" x1="39" y1="308.1" x2="63.7" y2="308.1"/>
			<line id="XMLID_315_" class="st1" x1="39" y1="302.3" x2="63.7" y2="302.3"/>
			<line id="XMLID_314_" class="st1" x1="39" y1="296.4" x2="63.7" y2="296.4"/>
			<line id="XMLID_313_" class="st1" x1="39" y1="290.6" x2="63.7" y2="290.6"/>
			<line id="XMLID_312_" class="st1" x1="39" y1="284.7" x2="63.7" y2="284.7"/>
			<line id="XMLID_311_" class="st1" x1="39" y1="278.9" x2="63.7" y2="278.9"/>
			<polyline id="XMLID_310_" class="st1" points="98.2,134.8 98.2,123.2 92.7,123.2 92.7,129 			"/>
			<line id="XMLID_309_" class="st1" x1="78.3" y1="114.1" x2="78.3" y2="103.6"/>
			<rect id="XMLID_308_" x="75.6" y="232.2" class="st1" width="15.1" height="32.7"/>
			<line id="XMLID_307_" class="st1" x1="75.6" y1="248.5" x2="90.7" y2="248.5"/>
			<rect id="XMLID_306_" x="105.3" y="232.2" class="st1" width="15.1" height="32.7"/>
			<line id="XMLID_305_" class="st1" x1="105.3" y1="248.5" x2="120.4" y2="248.5"/>
			<circle id="XMLID_304_" class="st1" cx="50.9" cy="254.6" r="8.6"/>
			<rect id="XMLID_303_" x="75.6" y="281.7" class="st1" width="15.1" height="32.7"/>
			<line id="XMLID_302_" class="st1" x1="75.6" y1="298" x2="90.7" y2="298"/>
			<rect id="XMLID_301_" x="105.3" y="281.7" class="st1" width="15.1" height="32.7"/>
			<line id="XMLID_300_" class="st1" x1="105.3" y1="298" x2="120.4" y2="298"/>
			<polyline id="XMLID_299_" class="st1" points="303.9,326.5 303.9,165.8 287.2,148.4 274,134.8 254.1,114.1 201.6,165.8 			"/>
			<polyline id="XMLID_298_" class="st1" points="201.6,165.8 211.2,165.8 294.7,165.8 303.9,165.8 			"/>
			<path id="XMLID_297_" class="st1" d="M287.5,157.5"/>
			<path id="XMLID_296_" class="st1" d="M253.7,122.4"/>
			<path id="XMLID_295_" class="st1" d="M253.7,122.4"/>
			<path id="XMLID_294_" class="st1" d="M218.1,157.5"/>
			<path id="XMLID_293_" class="st1" d="M218.1,157.5"/>
			<path id="XMLID_292_" class="st1" d="M287.5,157.5"/>
			<polyline id="XMLID_291_" class="st1" points="211,166.1 211.2,165.8 216.7,160.3 253,124.1 289.2,160.3 294.7,165.8 			"/>
			<line id="XMLID_290_" class="st1" x1="216.7" y1="160.3" x2="289.2" y2="160.3"/>
			<rect id="XMLID_289_" x="243.3" y="141.1" class="st1" width="20.8" height="14.3"/>
			<rect id="XMLID_288_" x="250.9" y="182.7" class="st1" width="44.4" height="32.7"/>
			<line id="XMLID_287_" class="st1" x1="260.9" y1="182.7" x2="260.9" y2="215.3"/>
			<line id="XMLID_286_" class="st1" x1="284.3" y1="182.7" x2="284.3" y2="215.3"/>
			<polyline id="XMLID_285_" class="st1" points="274,134.8 274,123.2 268.5,123.2 268.5,129 			"/>
			<rect id="XMLID_284_" x="251.4" y="232.2" class="st1" width="15.1" height="32.7"/>
			<line id="XMLID_283_" class="st1" x1="251.4" y1="248.5" x2="266.5" y2="248.5"/>
			<rect id="XMLID_282_" x="281.1" y="232.2" class="st1" width="15.1" height="32.7"/>
			<line id="XMLID_281_" class="st1" x1="281.1" y1="248.5" x2="296.2" y2="248.5"/>
			<rect id="XMLID_280_" x="251.4" y="281.7" class="st1" width="15.1" height="32.7"/>
			<line id="XMLID_279_" class="st1" x1="251.4" y1="298" x2="266.5" y2="298"/>
			<rect id="XMLID_278_" x="281.1" y="281.7" class="st1" width="15.1" height="32.7"/>
			<line id="XMLID_277_" class="st1" x1="281.1" y1="298" x2="296.2" y2="298"/>
			<polyline id="XMLID_276_" class="st1" points="414.9,326.7 414.9,190.7 372.7,147 333.7,185.5 329.3,189.8 328.4,190.7 
				328.4,203.4 328.4,208.1 328.4,326.7 			"/>
			<line id="XMLID_275_" class="st1" x1="414.9" y1="190.7" x2="328.4" y2="190.7"/>
			<path id="XMLID_274_" class="st1" d="M401,183.7"/>
			<path id="XMLID_273_" class="st1" d="M372.4,154"/>
			<path id="XMLID_272_" class="st1" d="M372.4,154"/>
			<path id="XMLID_271_" class="st1" d="M342.2,183.7"/>
			<path id="XMLID_270_" class="st1" d="M342.2,183.7"/>
			<path id="XMLID_269_" class="st1" d="M401,183.7"/>
			<polyline id="XMLID_268_" class="st1" points="336.3,191 355.7,171.5 371.4,155.8 371.8,155.4 407.1,190.7 			"/>
			<line id="XMLID_267_" class="st1" x1="341.1" y1="186.1" x2="402.4" y2="186.1"/>
			<rect id="XMLID_266_" x="363.6" y="169.8" class="st1" width="17.7" height="12.1"/>
			<rect id="XMLID_265_" x="345.3" y="205" class="st1" width="12.8" height="27.6"/>
			<line id="XMLID_264_" class="st1" x1="345.3" y1="218.8" x2="358.1" y2="218.8"/>
			<rect id="XMLID_263_" x="370" y="205" class="st1" width="37.6" height="27.6"/>
			<line id="XMLID_262_" class="st1" x1="378.5" y1="205" x2="378.5" y2="232.6"/>
			<line id="XMLID_261_" class="st1" x1="398.3" y1="205" x2="398.3" y2="232.6"/>
			<rect id="XMLID_260_" x="370" y="247.1" class="st1" width="37.6" height="27.6"/>
			<line id="XMLID_259_" class="st1" x1="378.5" y1="247.1" x2="378.5" y2="274.7"/>
			<line id="XMLID_258_" class="st1" x1="398.3" y1="247.1" x2="398.3" y2="274.7"/>
			<rect id="XMLID_257_" x="370" y="289.2" class="st1" width="37.6" height="27.6"/>
			<line id="XMLID_256_" class="st1" x1="378.5" y1="289.2" x2="378.5" y2="316.8"/>
			<line id="XMLID_255_" class="st1" x1="398.3" y1="289.2" x2="398.3" y2="316.8"/>
			<path id="XMLID_254_" class="st1" d="M360.3,326.7v-65.8c0,0,1.3-11-11-11"/>
			<path id="XMLID_253_" class="st1" d="M339.5,326.7v-65.8c0,0-1.3-11,11-11"/>
			<line id="XMLID_252_" class="st1" x1="339.4" y1="321" x2="360.4" y2="321"/>
			<line id="XMLID_251_" class="st1" x1="339.4" y1="316.1" x2="360.4" y2="316.1"/>
			<line id="XMLID_250_" class="st1" x1="339.4" y1="311.1" x2="360.4" y2="311.1"/>
			<line id="XMLID_249_" class="st1" x1="339.4" y1="306.2" x2="360.4" y2="306.2"/>
			<line id="XMLID_248_" class="st1" x1="339.4" y1="301.2" x2="360.4" y2="301.2"/>
			<line id="XMLID_247_" class="st1" x1="339.4" y1="296.3" x2="360.4" y2="296.3"/>
			<line id="XMLID_246_" class="st1" x1="339.4" y1="291.3" x2="360.4" y2="291.3"/>
			<line id="XMLID_245_" class="st1" x1="339.4" y1="286.4" x2="360.4" y2="286.4"/>
			<line id="XMLID_244_" class="st1" x1="355.9" y1="272.7" x2="355.9" y2="276.5"/>
			<polyline id="XMLID_243_" class="st1" points="389.6,164.4 389.6,154.7 384.9,154.7 384.9,159.6 			"/>
			<path id="XMLID_242_" class="st1" d="M341.6,201.1"/>
			<path id="XMLID_241_" class="st1" d="M282.8,201.1"/>
			<path id="XMLID_240_" class="st1" d="M282.8,201.1"/>
			<path id="XMLID_239_" class="st1" d="M341.6,201.1"/>
			<path id="XMLID_238_" class="st1" d="M156,240.8"/>
			<path id="XMLID_237_" class="st1" d="M134.5,218.5"/>
			<path id="XMLID_236_" class="st1" d="M134.5,218.5"/>
			<path id="XMLID_235_" class="st1" d="M111.9,240.8"/>
			<path id="XMLID_234_" class="st1" d="M111.9,240.8"/>
			<path id="XMLID_233_" class="st1" d="M156,240.8"/>
			<path id="XMLID_232_" class="st1" d="M355.7,110.4"/>
			<line id="XMLID_231_" class="st1" x1="268.5" y1="126.1" x2="265.7" y2="126.1"/>
			<line id="XMLID_230_" class="st1" x1="371.4" y1="155.8" x2="355.7" y2="171.5"/>
			<polyline id="XMLID_229_" class="st1" points="371.4,169.8 363.6,169.8 363.6,177.9 			"/>
			<path id="XMLID_228_" class="st1" d="M103.8,110.4"/>
			<path id="XMLID_227_" class="st1" d="M103.8,109.7"/>
		</g>
		<g id="XMLID_221_">
			<polyline id="XMLID_225_" class="st1" points="505,327.7 505,308.3 562.5,308.3 			"/>
			<line id="XMLID_224_" class="st1" x1="505" y1="313.6" x2="562.5" y2="313.6"/>
			<polyline id="XMLID_223_" class="st1" points="575,327.7 575,308.3 562.5,308.3 			"/>
			<line id="XMLID_222_" class="st1" x1="575" y1="313.6" x2="562.5" y2="313.6"/>
		</g>
		<g id="XMLID_216_">
			<line id="XMLID_220_" class="st3" x1="348.4" y1="93.5" x2="339.8" y2="93.5"/>
			<line id="XMLID_219_" class="st3" x1="412.1" y1="93.5" x2="404.6" y2="93.5"/>
			<line id="XMLID_218_" class="st3" x1="436.1" y1="93.5" x2="418.5" y2="93.5"/>
			<path id="XMLID_217_" class="st3" d="M331.5,93.5h-33.4c-1-1.2-1.6-2.8-1.6-4.5c0-4.1,3.3-7.4,7.4-7.4c0.7,0,1.4,0.1,2.1,0.3
				c1-5.1,5.4-8.9,10.8-8.9c3.3,0,6.4,1.5,8.4,3.9c1.1-0.4,2.3-0.6,3.5-0.6c2.3,0,4.5,0.8,6.2,2.1c1.5-8,8.6-14.1,17.1-14.1
				c3.4,0,6.6,1,9.3,2.7c1.7-14.1,13.7-25,28.3-25c12.9,0,23.8,8.6,27.3,20.3c2.9-2.1,6.4-3.3,10.2-3.3c9.5,0,17.3,7.7,17.3,17.3
				c0,1.3-0.1,2.6-0.4,3.8c0.7-0.2,1.5-0.3,2.3-0.3c2.1,0,4,0.8,5.4,2c0.4-5.6,5.1-10,10.8-10c6,0,10.9,4.9,10.9,10.9
				c0,0.5,0,1-0.1,1.5c0.4-0.1,0.9-0.1,1.4-0.1c4.1,0,7.5,3.4,7.5,7.5c0,0.7-0.1,1.4-0.3,2h-37.4"/>
		</g>
		<g id="XMLID_207_">
			<path id="XMLID_215_" class="st3" d="M132.1,125.8h-10.8c-0.5-0.9-0.7-2-0.7-3.2c0-4,3.3-7.3,7.3-7.3c0.8,0,1.6,0.1,2.3,0.4"/>
			<path id="XMLID_214_" class="st3" d="M130.2,115.8c1.3-5.9,6.5-10.4,12.8-10.4c0.6,0,1.1,0,1.7,0.1"/>
			<path id="XMLID_213_" class="st3" d="M144.7,105.5c2-8.3,9.5-14.4,18.4-14.4c9,0,16.6,6.3,18.5,14.8"/>
			<path id="XMLID_212_" class="st3" d="M197.9,125.8"/>
			<path id="XMLID_211_" class="st3" d="M181.6,105.9c2.1-1.3,4.5-2,7.1-2c6.9,0,12.7,5.3,13.3,12.1"/>
			<path id="XMLID_210_" class="st3" d="M202,116c0.9-0.4,1.9-0.6,2.9-0.6c4.2,0,7.6,3.4,7.6,7.6c0,1-0.2,2-0.6,2.9h-12.9"/>
			<line id="XMLID_209_" class="st3" x1="121.3" y1="125.8" x2="140.1" y2="125.8"/>
			<line id="XMLID_208_" class="st3" x1="183.2" y1="125.8" x2="191.4" y2="125.8"/>
		</g>
		<g id="XMLID_62_">
			<polyline id="XMLID_206_" class="st1" points="788.5,326.7 788.5,190.7 830.7,147 875.1,190.7 875.1,218.9 875.1,225.7 
				875.1,230.4 875.1,239.5 875.1,242.6 875.1,246.1 875.1,326.7 			"/>
			<line id="XMLID_205_" class="st1" x1="788.5" y1="190.7" x2="875.1" y2="190.7"/>
			<path id="XMLID_204_" class="st1" d="M802.4,183.7"/>
			<path id="XMLID_203_" class="st1" d="M831.1,154"/>
			<path id="XMLID_202_" class="st1" d="M831.1,154"/>
			<path id="XMLID_201_" class="st1" d="M861.2,183.7"/>
			<path id="XMLID_200_" class="st1" d="M861.2,183.7"/>
			<path id="XMLID_199_" class="st1" d="M802.4,183.7"/>
			<polyline id="XMLID_198_" class="st1" points="796.4,190.7 831.7,155.4 867.2,190.9 			"/>
			<line id="XMLID_197_" class="st1" x1="862.3" y1="186.1" x2="801" y2="186.1"/>
			<rect id="XMLID_196_" x="822.2" y="169.8" class="st1" width="17.6" height="12.1"/>
			<rect id="XMLID_195_" x="845.4" y="205" class="st1" width="12.8" height="27.6"/>
			<line id="XMLID_194_" class="st1" x1="858.1" y1="218.8" x2="845.4" y2="218.8"/>
			<rect id="XMLID_193_" x="795.8" y="205" class="st1" width="37.6" height="27.6"/>
			<line id="XMLID_192_" class="st1" x1="824.9" y1="205" x2="824.9" y2="232.6"/>
			<line id="XMLID_191_" class="st1" x1="805.1" y1="205" x2="805.1" y2="232.6"/>
			<rect id="XMLID_190_" x="795.8" y="247.1" class="st1" width="37.6" height="27.6"/>
			<line id="XMLID_189_" class="st1" x1="824.9" y1="247.1" x2="824.9" y2="274.7"/>
			<line id="XMLID_188_" class="st1" x1="805.1" y1="247.1" x2="805.1" y2="274.7"/>
			<rect id="XMLID_187_" x="795.8" y="289.2" class="st1" width="37.6" height="27.6"/>
			<line id="XMLID_186_" class="st1" x1="824.9" y1="289.2" x2="824.9" y2="316.8"/>
			<line id="XMLID_185_" class="st1" x1="805.1" y1="289.2" x2="805.1" y2="316.8"/>
			<path id="XMLID_184_" class="st1" d="M843.1,326.7v-65.8c0,0-1.3-11,11-11"/>
			<path id="XMLID_183_" class="st1" d="M863.9,326.7v-65.8c0,0,1.3-11-11-11"/>
			<line id="XMLID_182_" class="st1" x1="864" y1="321" x2="843" y2="321"/>
			<line id="XMLID_181_" class="st1" x1="864" y1="316.1" x2="843" y2="316.1"/>
			<line id="XMLID_180_" class="st1" x1="864" y1="311.1" x2="843" y2="311.1"/>
			<line id="XMLID_179_" class="st1" x1="864" y1="306.2" x2="843" y2="306.2"/>
			<line id="XMLID_178_" class="st1" x1="864" y1="301.2" x2="843" y2="301.2"/>
			<line id="XMLID_177_" class="st1" x1="864" y1="296.3" x2="843" y2="296.3"/>
			<line id="XMLID_176_" class="st1" x1="864" y1="291.3" x2="843" y2="291.3"/>
			<line id="XMLID_175_" class="st1" x1="864" y1="286.4" x2="843" y2="286.4"/>
			<line id="XMLID_174_" class="st1" x1="847.6" y1="272.7" x2="847.6" y2="276.5"/>
			<polyline id="XMLID_173_" class="st1" points="813.9,164.4 813.9,154.7 818.5,154.7 818.5,159.6 			"/>
			<polyline id="XMLID_172_" class="st1" points="887.1,326.5 887.1,165.8 895.7,156.9 911.5,140.6 937,114.1 989.4,165.8 
				989.4,326.5 			"/>
			<polyline id="XMLID_171_" class="st1" points="989.4,165.8 979.8,165.8 911.5,165.8 896.4,165.8 895.7,165.8 887.1,165.8 			"/>
			<path id="XMLID_170_" class="st1" d="M903.5,157.5"/>
			<path id="XMLID_169_" class="st1" d="M937.4,122.4"/>
			<path id="XMLID_168_" class="st1" d="M937.4,122.4"/>
			<path id="XMLID_167_" class="st1" d="M973,157.5"/>
			<path id="XMLID_166_" class="st1" d="M973,157.5"/>
			<path id="XMLID_165_" class="st1" d="M903.5,157.5"/>
			<polyline id="XMLID_164_" class="st1" points="980.1,166.1 979.8,165.8 974.3,160.3 938.1,124.1 911.5,150.7 901.9,160.3 
				896.4,165.8 			"/>
			<polyline id="XMLID_163_" class="st1" points="974.3,160.3 911.5,160.3 901.9,160.3 			"/>
			<rect id="XMLID_162_" x="926.9" y="141.1" class="st1" width="20.8" height="14.3"/>
			<rect id="XMLID_161_" x="954.3" y="182.7" class="st1" width="15.1" height="32.7"/>
			<line id="XMLID_160_" class="st1" x1="969.4" y1="199" x2="954.3" y2="199"/>
			<rect id="XMLID_159_" x="895.8" y="182.7" class="st1" width="44.4" height="32.7"/>
			<line id="XMLID_158_" class="st1" x1="930.1" y1="182.7" x2="930.1" y2="215.3"/>
			<line id="XMLID_157_" class="st1" x1="906.7" y1="182.7" x2="906.7" y2="215.3"/>
			<path id="XMLID_156_" class="st1" d="M951.6,326.5v-77.7c0,0-1.6-13,13-13"/>
			<path id="XMLID_155_" class="st1" d="M976.2,326.5v-77.7c0,0,1.6-13-13-13"/>
			<line id="XMLID_154_" class="st1" x1="976.3" y1="319.8" x2="951.6" y2="319.8"/>
			<line id="XMLID_153_" class="st1" x1="976.3" y1="314" x2="951.6" y2="314"/>
			<line id="XMLID_152_" class="st1" x1="976.3" y1="308.1" x2="951.6" y2="308.1"/>
			<line id="XMLID_151_" class="st1" x1="976.3" y1="302.3" x2="951.6" y2="302.3"/>
			<line id="XMLID_150_" class="st1" x1="976.3" y1="296.4" x2="951.6" y2="296.4"/>
			<line id="XMLID_149_" class="st1" x1="976.3" y1="290.6" x2="951.6" y2="290.6"/>
			<line id="XMLID_148_" class="st1" x1="976.3" y1="284.7" x2="951.6" y2="284.7"/>
			<line id="XMLID_147_" class="st1" x1="976.3" y1="278.9" x2="951.6" y2="278.9"/>
			<polyline id="XMLID_146_" class="st1" points="917.1,134.8 917.1,123.2 922.5,123.2 922.5,129 			"/>
			<line id="XMLID_145_" class="st1" x1="937" y1="114.1" x2="937" y2="103.6"/>
			<rect id="XMLID_144_" x="924.6" y="232.2" class="st1" width="15.1" height="32.7"/>
			<line id="XMLID_143_" class="st1" x1="939.7" y1="248.5" x2="924.6" y2="248.5"/>
			<rect id="XMLID_142_" x="894.9" y="232.2" class="st1" width="15.1" height="32.7"/>
			<line id="XMLID_141_" class="st1" x1="910" y1="248.5" x2="894.9" y2="248.5"/>
			<circle id="XMLID_140_" class="st1" cx="964.4" cy="254.6" r="8.6"/>
			<rect id="XMLID_139_" x="924.6" y="281.7" class="st1" width="15.1" height="32.7"/>
			<line id="XMLID_138_" class="st1" x1="939.7" y1="298" x2="924.6" y2="298"/>
			<rect id="XMLID_137_" x="894.9" y="281.7" class="st1" width="15.1" height="32.7"/>
			<line id="XMLID_136_" class="st1" x1="910" y1="298" x2="894.9" y2="298"/>
			<polyline id="XMLID_135_" class="st1" points="711.3,326.5 711.3,165.8 728.1,148.4 741.3,134.8 761.2,114.1 813.6,165.8 			"/>
			<polyline id="XMLID_134_" class="st1" points="813.6,165.8 804,165.8 720.6,165.8 711.3,165.8 			"/>
			<path id="XMLID_133_" class="st1" d="M727.7,157.5"/>
			<path id="XMLID_132_" class="st1" d="M761.6,122.4"/>
			<path id="XMLID_131_" class="st1" d="M761.6,122.4"/>
			<path id="XMLID_130_" class="st1" d="M797.2,157.5"/>
			<path id="XMLID_129_" class="st1" d="M797.2,157.5"/>
			<path id="XMLID_128_" class="st1" d="M727.7,157.5"/>
			<polyline id="XMLID_127_" class="st1" points="804.3,166.1 804,165.8 798.5,160.3 762.3,124.1 726.1,160.3 720.6,165.8 			"/>
			<line id="XMLID_126_" class="st1" x1="798.5" y1="160.3" x2="726.1" y2="160.3"/>
			<rect id="XMLID_125_" x="751.1" y="141.1" class="st1" width="20.8" height="14.3"/>
			<rect id="XMLID_124_" x="720" y="182.7" class="st1" width="44.4" height="32.7"/>
			<line id="XMLID_123_" class="st1" x1="754.4" y1="182.7" x2="754.4" y2="215.3"/>
			<line id="XMLID_122_" class="st1" x1="730.9" y1="182.7" x2="730.9" y2="215.3"/>
			<polyline id="XMLID_121_" class="st1" points="741.3,134.8 741.3,123.2 746.7,123.2 746.7,129 			"/>
			<rect id="XMLID_120_" x="748.8" y="232.2" class="st1" width="15.1" height="32.7"/>
			<line id="XMLID_119_" class="st1" x1="763.9" y1="248.5" x2="748.8" y2="248.5"/>
			<rect id="XMLID_118_" x="719.1" y="232.2" class="st1" width="15.1" height="32.7"/>
			<line id="XMLID_117_" class="st1" x1="734.2" y1="248.5" x2="719.1" y2="248.5"/>
			<rect id="XMLID_116_" x="748.8" y="281.7" class="st1" width="15.1" height="32.7"/>
			<line id="XMLID_115_" class="st1" x1="763.9" y1="298" x2="748.8" y2="298"/>
			<rect id="XMLID_114_" x="719.1" y="281.7" class="st1" width="15.1" height="32.7"/>
			<line id="XMLID_113_" class="st1" x1="734.2" y1="298" x2="719.1" y2="298"/>
			<polyline id="XMLID_112_" class="st1" points="600.3,326.7 600.3,190.7 642.5,147 681.6,185.5 685.9,189.8 686.9,190.7 
				686.9,203.4 686.9,208.1 686.9,326.7 			"/>
			<line id="XMLID_111_" class="st1" x1="600.3" y1="190.7" x2="686.9" y2="190.7"/>
			<path id="XMLID_110_" class="st1" d="M614.2,183.7"/>
			<path id="XMLID_109_" class="st1" d="M642.9,154"/>
			<path id="XMLID_108_" class="st1" d="M642.9,154"/>
			<path id="XMLID_107_" class="st1" d="M673,183.7"/>
			<path id="XMLID_106_" class="st1" d="M673,183.7"/>
			<path id="XMLID_105_" class="st1" d="M614.2,183.7"/>
			<polyline id="XMLID_104_" class="st1" points="679,191 659.6,171.5 643.8,155.8 643.5,155.4 608.2,190.7 			"/>
			<line id="XMLID_103_" class="st1" x1="674.1" y1="186.1" x2="612.8" y2="186.1"/>
			<rect id="XMLID_102_" x="634" y="169.8" class="st1" width="17.7" height="12.1"/>
			<rect id="XMLID_101_" x="657.2" y="205" class="st1" width="12.8" height="27.6"/>
			<line id="XMLID_100_" class="st1" x1="670" y1="218.8" x2="657.2" y2="218.8"/>
			<rect id="XMLID_99_" x="607.7" y="205" class="st1" width="37.6" height="27.6"/>
			<line id="XMLID_98_" class="st1" x1="636.8" y1="205" x2="636.8" y2="232.6"/>
			<line id="XMLID_97_" class="st1" x1="617" y1="205" x2="617" y2="232.6"/>
			<rect id="XMLID_96_" x="607.7" y="247.1" class="st1" width="37.6" height="27.6"/>
			<line id="XMLID_95_" class="st1" x1="636.8" y1="247.1" x2="636.8" y2="274.7"/>
			<line id="XMLID_94_" class="st1" x1="617" y1="247.1" x2="617" y2="274.7"/>
			<rect id="XMLID_93_" x="607.7" y="289.2" class="st1" width="37.6" height="27.6"/>
			<line id="XMLID_92_" class="st1" x1="636.8" y1="289.2" x2="636.8" y2="316.8"/>
			<line id="XMLID_91_" class="st1" x1="617" y1="289.2" x2="617" y2="316.8"/>
			<path id="XMLID_90_" class="st1" d="M654.9,326.7v-65.8c0,0-1.3-11,11-11"/>
			<path id="XMLID_89_" class="st1" d="M675.8,326.7v-65.8c0,0,1.3-11-11-11"/>
			<line id="XMLID_88_" class="st1" x1="675.8" y1="321" x2="654.9" y2="321"/>
			<line id="XMLID_87_" class="st1" x1="675.8" y1="316.1" x2="654.9" y2="316.1"/>
			<line id="XMLID_86_" class="st1" x1="675.8" y1="311.1" x2="654.9" y2="311.1"/>
			<line id="XMLID_85_" class="st1" x1="675.8" y1="306.2" x2="654.9" y2="306.2"/>
			<line id="XMLID_84_" class="st1" x1="675.8" y1="301.2" x2="654.9" y2="301.2"/>
			<line id="XMLID_83_" class="st1" x1="675.8" y1="296.3" x2="654.9" y2="296.3"/>
			<line id="XMLID_82_" class="st1" x1="675.8" y1="291.3" x2="654.9" y2="291.3"/>
			<line id="XMLID_81_" class="st1" x1="675.8" y1="286.4" x2="654.9" y2="286.4"/>
			<line id="XMLID_80_" class="st1" x1="659.4" y1="272.7" x2="659.4" y2="276.5"/>
			<polyline id="XMLID_79_" class="st1" points="625.7,164.4 625.7,154.7 630.3,154.7 630.3,159.6 			"/>
			<path id="XMLID_78_" class="st1" d="M673.6,201.1"/>
			<path id="XMLID_77_" class="st1" d="M732.4,201.1"/>
			<path id="XMLID_76_" class="st1" d="M732.4,201.1"/>
			<path id="XMLID_75_" class="st1" d="M673.6,201.1"/>
			<path id="XMLID_74_" class="st1" d="M859.3,240.8"/>
			<path id="XMLID_73_" class="st1" d="M880.8,218.5"/>
			<path id="XMLID_72_" class="st1" d="M880.8,218.5"/>
			<path id="XMLID_71_" class="st1" d="M903.4,240.8"/>
			<path id="XMLID_70_" class="st1" d="M903.4,240.8"/>
			<path id="XMLID_69_" class="st1" d="M859.3,240.8"/>
			<path id="XMLID_68_" class="st1" d="M659.6,110.4"/>
			<line id="XMLID_67_" class="st1" x1="746.7" y1="126.1" x2="749.6" y2="126.1"/>
			<line id="XMLID_66_" class="st1" x1="643.8" y1="155.8" x2="659.6" y2="171.5"/>
			<polyline id="XMLID_65_" class="st1" points="643.8,169.8 651.7,169.8 651.7,177.9 			"/>
			<path id="XMLID_64_" class="st1" d="M911.5,110.4"/>
			<path id="XMLID_63_" class="st1" d="M911.5,109.7"/>
		</g>
		<g id="XMLID_56_">
			<line id="XMLID_61_" class="st1" x1="481.7" y1="286.9" x2="481.7" y2="327.1"/>
			<line id="XMLID_60_" class="st1" x1="476.9" y1="327.1" x2="476.9" y2="286.9"/>
			<line id="XMLID_59_" class="st1" x1="481.7" y1="302" x2="495" y2="291.5"/>
			<circle id="XMLID_58_" class="st3" cx="479.3" cy="267" r="19.2"/>
			<path id="XMLID_57_" class="st3" d="M465.3,267c0-7.7,6.3-14,14-14"/>
		</g>
		<g id="XMLID_50_">
			<g id="XMLID_52_">
				<line id="XMLID_55_" class="st1" x1="439.9" y1="311.6" x2="439.9" y2="328.6"/>
				<line id="XMLID_54_" class="st1" x1="444.2" y1="328.6" x2="444.2" y2="311.6"/>
				<line id="XMLID_53_" class="st1" x1="439.9" y1="319.6" x2="434.6" y2="315.4"/>
			</g>
			<polygon id="XMLID_51_" class="st1" points="427.1,311.3 439.8,297.1 429.2,297.1 439.8,285.2 431.8,285.2 442.5,273.3 
				453.2,285.2 445.2,285.2 455.8,297.1 445.2,297.1 457.9,311.3 			"/>
		</g>
		<g id="XMLID_41_">
			<path id="XMLID_49_" class="st3" d="M1013.3,116.3h-10.8c-0.5-0.9-0.7-2-0.7-3.2c0-4,3.3-7.3,7.3-7.3c0.8,0,1.6,0.1,2.3,0.4"/>
			<path id="XMLID_48_" class="st3" d="M1011.3,106.3c1.3-5.9,6.5-10.4,12.8-10.4c0.6,0,1.1,0,1.7,0.1"/>
			<path id="XMLID_47_" class="st3" d="M1025.9,96c2-8.3,9.5-14.4,18.4-14.4c9,0,16.6,6.3,18.5,14.8"/>
			<path id="XMLID_46_" class="st3" d="M1079,116.3"/>
			<path id="XMLID_45_" class="st3" d="M1062.7,96.4c2.1-1.3,4.5-2,7.1-2c6.9,0,12.7,5.3,13.3,12.1"/>
			<path id="XMLID_44_" class="st3" d="M1083.1,106.5c0.9-0.4,1.9-0.6,2.9-0.6c4.2,0,7.6,3.4,7.6,7.6c0,1-0.2,2-0.6,2.9h-12.9"/>
			<line id="XMLID_43_" class="st3" x1="1002.5" y1="116.3" x2="1021.2" y2="116.3"/>
			<line id="XMLID_42_" class="st3" x1="1064.3" y1="116.3" x2="1072.6" y2="116.3"/>
		</g>
		<g id="XMLID_4_">
			<path id="XMLID_40_" class="st3" d="M498.1,171.8h-10.8c-0.5-0.9-0.7-2-0.7-3.1c0-4,3.3-7.3,7.3-7.3c0.8,0,1.6,0.1,2.3,0.4"/>
			<path id="XMLID_35_" class="st3" d="M496.2,161.8c1.3-5.9,6.5-10.4,12.8-10.4c0.6,0,1.1,0,1.7,0.1"/>
			<path id="XMLID_30_" class="st3" d="M510.7,151.5c2-8.3,9.5-14.4,18.4-14.4c9,0,16.6,6.3,18.5,14.8"/>
			<path id="XMLID_23_" class="st3" d="M563.9,171.8"/>
			<path id="XMLID_8_" class="st3" d="M547.6,151.9c2.1-1.3,4.5-2,7.1-2c6.9,0,12.7,5.3,13.3,12.1"/>
			<path id="XMLID_7_" class="st3" d="M568,162c0.9-0.4,1.9-0.6,2.9-0.6c4.2,0,7.6,3.4,7.6,7.6c0,1-0.2,2-0.6,2.9h-12.9"/>
			<line id="XMLID_6_" class="st3" x1="487.3" y1="171.8" x2="506.1" y2="171.8"/>
			<line id="XMLID_5_" class="st3" x1="549.2" y1="171.8" x2="557.4" y2="171.8"/>
		</g>
	</g>
</g>
</svg>
