<svg viewBox="0 0 192 53.33" xmlns="http://www.w3.org/2000/svg"><path d="M0 0h192v53.33H0z" fill="none"/><path d="M33.78 15.83h10.51a5.36 5.36 0 0 1 5.27 4.4 5 5 0 0 1-3.22 5.9.8.8 0 0 0-.18.12A5 5 0 0 1 50 30.49c.6 3.54-1.35 6.45-5 6.86a23.46 23.46 0 0 1-2.47.09h-8.68q-.07-10.79-.07-21.61zm4.66 17.5a.62.62 0 0 0 .18.06c1.45 0 2.91.05 4.35 0a2.44 2.44 0 0 0 .18-4.87 26.83 26.83 0 0 0-2.81-.07h-1.9zm0-8.93h3.92a3.85 3.85 0 0 0 .74 0 2.12 2.12 0 0 0 1.83-1.59 2.24 2.24 0 0 0-2.14-2.89h-4.35v.35c-.04 1.31-.04 2.68-.04 4.13zm78.91 13.45c-.55-.1-1.1-.18-1.64-.31a7.8 7.8 0 0 1-6-8.69 7.6 7.6 0 0 1 5.25-7c4.52-1.59 9.77.56 10.54 6.57.1.79.1 1.6.15 2.48H113.9a3.83 3.83 0 0 0 2.33 3.1 6.1 6.1 0 0 0 6-.75l.32-.23h.11l1.83 2.69c-.6.38-1.16.78-1.76 1.09a9.65 9.65 0 0 1-3.56 1 2.8 2.8 0 0 0-.42.1zm4.24-9.78c.08-1.94-1.77-3.43-4.11-3.33-1.95.08-3.68 1.73-3.47 3.33zm12.53 9.78c-.67-.14-1.36-.23-2-.41a7.65 7.65 0 0 1-5.62-6.8 8.17 8.17 0 0 1 3.03-7.64c3.74-2.94 11.1-2.27 12.56 4.69a10.61 10.61 0 0 1 .2 1.52v1.71H130.7a3.57 3.57 0 0 0 1 2.15 4.84 4.84 0 0 0 4.61 1.27 6.17 6.17 0 0 0 3-1.4l1.87 2.74c-.49.33-.93.67-1.41.93a9.87 9.87 0 0 1-3.87 1.13 3.82 3.82 0 0 0-.47.1zm-3.35-9.78h7.59c.1-1.88-1.71-3.38-4-3.33-2.03.05-3.78 1.64-3.63 3.34zm-71.3 9.79a5 5 0 0 1 .52-.11 6.12 6.12 0 0 0 5.82-6.44v-9.49h-4.07v9.1a3 3 0 0 1-1.15 2.67 3.72 3.72 0 0 1-3.91.29 2.9 2.9 0 0 1-1.61-2.94v-9.1h-4.12v9.54a6 6 0 0 0 4.86 6.15c.49.12 1 .21 1.49.31zm41.35-.45v-9h7.83v-3.47c0-.43-.1-.57-.55-.56h-7.26v-4.52h9.82c.42 0 .6-.09.57-.54s0-.93 0-1.39v-2.08h-15v21.56zm42.53 0V22.36c0-.63 0-.64.65-.63 2.26 0 4.54-.08 6.79.1 3.21.25 5.72 1.69 6.91 4.86a8 8 0 0 1-2.17 8.9 8.15 8.15 0 0 1-5 1.84c-2.33.08-4.66 0-7 0a1.33 1.33 0 0 1-.18-.03zm3.93-3.31h2.27a4.3 4.3 0 0 0 4.64-4.15 4.32 4.32 0 0 0-2.45-4.47c-1.44-.59-3-.28-4.45-.36-.01 3.02-.01 5.95-.01 8.97zm-73.46-8.29L67.41 34c-.12.15-.29.33-.29.5v3h12.74v-3.7h-7.25l.39-.52c2.08-2.63 4.15-5.27 6.25-7.89a2.14 2.14 0 0 0 .53-1.57v-2H67.14v3.54h7c-.14.22-.24.34-.32.45zM88 25.36l-.55.71L81.23 34c-.09.11-.22.25-.22.37v3h12.75v-3.1c0-.41-.13-.5-.51-.5h-6.78c.17-.23.26-.38.37-.51l6.51-8.25c.1-.13.24-.28.24-.42v-2.82H81v3.53z" fill="#82939f"/></svg>