<svg version="1.1" xmlns="http://www.w3.org/2000/svg" xmlns:xlink="http://www.w3.org/1999/xlink" x="0px" y="0px" viewBox="0 0 496 600" style="enable-background:new 0 0 496 600;" xml:space="preserve" id="el_M5cOpLHpJ" height="600" width="496"><style>@-webkit-keyframes el_G8cS9ngtsfN_Animation{10%{opacity: 0;}23.33%{opacity: 1;}100%{opacity: 1;}0%{opacity: 0;}}@keyframes el_G8cS9ngtsfN_Animation{10%{opacity: 0;}23.33%{opacity: 1;}100%{opacity: 1;}0%{opacity: 0;}}@-webkit-keyframes el_G8cS9ngtsfN_GJu8ImVOq_Animation{10%{-webkit-transform: translate(-40px, 0px);transform: translate(-40px, 0px);}66.11%{-webkit-transform: translate(0px, 0px);transform: translate(0px, 0px);}100%{-webkit-transform: translate(0px, 0px);transform: translate(0px, 0px);}0%{-webkit-transform: translate(-40px, 0px);transform: translate(-40px, 0px);}}@keyframes el_G8cS9ngtsfN_GJu8ImVOq_Animation{10%{-webkit-transform: translate(-40px, 0px);transform: translate(-40px, 0px);}66.11%{-webkit-transform: translate(0px, 0px);transform: translate(0px, 0px);}100%{-webkit-transform: translate(0px, 0px);transform: translate(0px, 0px);}0%{-webkit-transform: translate(-40px, 0px);transform: translate(-40px, 0px);}}@-webkit-keyframes el_ZZ9yzDn9KId_Animation{5.56%{opacity: 0;}18.33%{opacity: 1;}100%{opacity: 1;}0%{opacity: 0;}}@keyframes el_ZZ9yzDn9KId_Animation{5.56%{opacity: 0;}18.33%{opacity: 1;}100%{opacity: 1;}0%{opacity: 0;}}@-webkit-keyframes el_ZZ9yzDn9KId_TW_0e1xe8_Animation{5.56%{-webkit-transform: translate(-40px, 0px);transform: translate(-40px, 0px);}66.11%{-webkit-transform: translate(0px, 0px);transform: translate(0px, 0px);}100%{-webkit-transform: translate(0px, 0px);transform: translate(0px, 0px);}0%{-webkit-transform: translate(-40px, 0px);transform: translate(-40px, 0px);}}@keyframes el_ZZ9yzDn9KId_TW_0e1xe8_Animation{5.56%{-webkit-transform: translate(-40px, 0px);transform: translate(-40px, 0px);}66.11%{-webkit-transform: translate(0px, 0px);transform: translate(0px, 0px);}100%{-webkit-transform: translate(0px, 0px);transform: translate(0px, 0px);}0%{-webkit-transform: translate(-40px, 0px);transform: translate(-40px, 0px);}}@-webkit-keyframes el_Cb3qGU8ptn8_gjHNs-sMo_Animation{5.56%{-webkit-transform: scale(1, 0.7);transform: scale(1, 0.7);}23.33%{-webkit-transform: scale(1, 1);transform: scale(1, 1);}0%{-webkit-transform: scale(1, 0.7);transform: scale(1, 0.7);}100%{-webkit-transform: scale(1, 1);transform: scale(1, 1);}}@keyframes el_Cb3qGU8ptn8_gjHNs-sMo_Animation{5.56%{-webkit-transform: scale(1, 0.7);transform: scale(1, 0.7);}23.33%{-webkit-transform: scale(1, 1);transform: scale(1, 1);}0%{-webkit-transform: scale(1, 0.7);transform: scale(1, 0.7);}100%{-webkit-transform: scale(1, 1);transform: scale(1, 1);}}@-webkit-keyframes el_Cb3qGU8ptn8_1oKnKpQfX_Animation{5.56%{-webkit-transform: translate(-20px, 0px);transform: translate(-20px, 0px);}66.67%{-webkit-transform: translate(40px, 0px);transform: translate(40px, 0px);}100%{-webkit-transform: translate(30px, 0px);transform: translate(30px, 0px);}0%{-webkit-transform: translate(-20px, 0px);transform: translate(-20px, 0px);}}@keyframes el_Cb3qGU8ptn8_1oKnKpQfX_Animation{5.56%{-webkit-transform: translate(-20px, 0px);transform: translate(-20px, 0px);}66.67%{-webkit-transform: translate(40px, 0px);transform: translate(40px, 0px);}100%{-webkit-transform: translate(30px, 0px);transform: translate(30px, 0px);}0%{-webkit-transform: translate(-20px, 0px);transform: translate(-20px, 0px);}}@-webkit-keyframes el_Cb3qGU8ptn8_Animation{5.56%{opacity: 0;}18.89%{opacity: 0.1;}0%{opacity: 0;}100%{opacity: 0.1;}}@keyframes el_Cb3qGU8ptn8_Animation{5.56%{opacity: 0;}18.89%{opacity: 0.1;}0%{opacity: 0;}100%{opacity: 0.1;}}@-webkit-keyframes el_9tbXR7IlyqW_bwgICPUnQAK_Animation{20.56%{-webkit-transform: rotate(30deg);transform: rotate(30deg);}59.44%{-webkit-transform: rotate(0deg);transform: rotate(0deg);}0%{-webkit-transform: rotate(30deg);transform: rotate(30deg);}100%{-webkit-transform: rotate(0deg);transform: rotate(0deg);}}@keyframes el_9tbXR7IlyqW_bwgICPUnQAK_Animation{20.56%{-webkit-transform: rotate(30deg);transform: rotate(30deg);}59.44%{-webkit-transform: rotate(0deg);transform: rotate(0deg);}0%{-webkit-transform: rotate(30deg);transform: rotate(30deg);}100%{-webkit-transform: rotate(0deg);transform: rotate(0deg);}}@-webkit-keyframes el_9tbXR7IlyqW_JvxlER0yT_Animation{20.56%{-webkit-transform: scale(1.5, 2);transform: scale(1.5, 2);}59.44%{-webkit-transform: scale(1, 1);transform: scale(1, 1);}0%{-webkit-transform: scale(1.5, 2);transform: scale(1.5, 2);}100%{-webkit-transform: scale(1, 1);transform: scale(1, 1);}}@keyframes el_9tbXR7IlyqW_JvxlER0yT_Animation{20.56%{-webkit-transform: scale(1.5, 2);transform: scale(1.5, 2);}59.44%{-webkit-transform: scale(1, 1);transform: scale(1, 1);}0%{-webkit-transform: scale(1.5, 2);transform: scale(1.5, 2);}100%{-webkit-transform: scale(1, 1);transform: scale(1, 1);}}@-webkit-keyframes el_9tbXR7IlyqW_AEkYYMigG_Animation{20.56%{-webkit-transform: translate(-350px, -100px);transform: translate(-350px, -100px);}59.44%{-webkit-transform: translate(0px, 0px);transform: translate(0px, 0px);}0%{-webkit-transform: translate(-350px, -100px);transform: translate(-350px, -100px);}100%{-webkit-transform: translate(0px, 0px);transform: translate(0px, 0px);}}@keyframes el_9tbXR7IlyqW_AEkYYMigG_Animation{20.56%{-webkit-transform: translate(-350px, -100px);transform: translate(-350px, -100px);}59.44%{-webkit-transform: translate(0px, 0px);transform: translate(0px, 0px);}0%{-webkit-transform: translate(-350px, -100px);transform: translate(-350px, -100px);}100%{-webkit-transform: translate(0px, 0px);transform: translate(0px, 0px);}}@-webkit-keyframes el_fAaVs_jArSI_pROLTvUy9_Animation{44.44%{-webkit-transform: scale(0, 0);transform: scale(0, 0);}50%{-webkit-transform: scale(1, 1);transform: scale(1, 1);}0%{-webkit-transform: scale(0, 0);transform: scale(0, 0);}100%{-webkit-transform: scale(1, 1);transform: scale(1, 1);}}@keyframes el_fAaVs_jArSI_pROLTvUy9_Animation{44.44%{-webkit-transform: scale(0, 0);transform: scale(0, 0);}50%{-webkit-transform: scale(1, 1);transform: scale(1, 1);}0%{-webkit-transform: scale(0, 0);transform: scale(0, 0);}100%{-webkit-transform: scale(1, 1);transform: scale(1, 1);}}@-webkit-keyframes el_fAaVs_jArSI_Animation{44.44%{opacity: 0;}50%{opacity: 1;}0%{opacity: 0;}100%{opacity: 1;}}@keyframes el_fAaVs_jArSI_Animation{44.44%{opacity: 0;}50%{opacity: 1;}0%{opacity: 0;}100%{opacity: 1;}}@-webkit-keyframes el_mTqdKGFulfN_GnNkiqUBe_Animation{48.89%{-webkit-transform: scale(0, 0);transform: scale(0, 0);}55.00%{-webkit-transform: scale(1, 1);transform: scale(1, 1);}0%{-webkit-transform: scale(0, 0);transform: scale(0, 0);}}@keyframes el_mTqdKGFulfN_GnNkiqUBe_Animation{48.89%{-webkit-transform: scale(0, 0);transform: scale(0, 0);}55.00%{-webkit-transform: scale(1, 1);transform: scale(1, 1);}0%{-webkit-transform: scale(0, 0);transform: scale(0, 0);}}@-webkit-keyframes el_mTqdKGFulfN_Animation{48.89%{opacity: 0;}55.00%{opacity: 1;}0%{opacity: 0;}}@keyframes el_mTqdKGFulfN_Animation{48.89%{opacity: 0;}55.00%{opacity: 1;}0%{opacity: 0;}}@-webkit-keyframes el_C8y2gGxtjQM_H9VJEoZWv_Animation{47.22%{-webkit-transform: scale(0, 0);transform: scale(0, 0);}52.22%{-webkit-transform: scale(1, 1);transform: scale(1, 1);}0%{-webkit-transform: scale(0, 0);transform: scale(0, 0);}100%{-webkit-transform: scale(1, 1);transform: scale(1, 1);}}@keyframes el_C8y2gGxtjQM_H9VJEoZWv_Animation{47.22%{-webkit-transform: scale(0, 0);transform: scale(0, 0);}52.22%{-webkit-transform: scale(1, 1);transform: scale(1, 1);}0%{-webkit-transform: scale(0, 0);transform: scale(0, 0);}100%{-webkit-transform: scale(1, 1);transform: scale(1, 1);}}@-webkit-keyframes el_C8y2gGxtjQM_Animation{47.22%{opacity: 0;}52.22%{opacity: 1;}0%{opacity: 0;}100%{opacity: 1;}}@keyframes el_C8y2gGxtjQM_Animation{47.22%{opacity: 0;}52.22%{opacity: 1;}0%{opacity: 0;}100%{opacity: 1;}}@-webkit-keyframes el_MOFwExmMnu_8l6Sg7488_Animation{51.67%{-webkit-transform: scale(0, 0);transform: scale(0, 0);}57.78%{-webkit-transform: scale(1, 1);transform: scale(1, 1);}0%{-webkit-transform: scale(0, 0);transform: scale(0, 0);}100%{-webkit-transform: scale(1, 1);transform: scale(1, 1);}}@keyframes el_MOFwExmMnu_8l6Sg7488_Animation{51.67%{-webkit-transform: scale(0, 0);transform: scale(0, 0);}57.78%{-webkit-transform: scale(1, 1);transform: scale(1, 1);}0%{-webkit-transform: scale(0, 0);transform: scale(0, 0);}100%{-webkit-transform: scale(1, 1);transform: scale(1, 1);}}@-webkit-keyframes el_MOFwExmMnu_Animation{51.67%{opacity: 0;}57.78%{opacity: 1;}0%{opacity: 0;}100%{opacity: 1;}}@keyframes el_MOFwExmMnu_Animation{51.67%{opacity: 0;}57.78%{opacity: 1;}0%{opacity: 0;}100%{opacity: 1;}}@-webkit-keyframes el_mQjT3SVlIP_Z_otvFSXn_Animation{0%{-webkit-transform: translate(-50px, 0px);transform: translate(-50px, 0px);}100%{-webkit-transform: translate(30px, 0px);transform: translate(30px, 0px);}}@keyframes el_mQjT3SVlIP_Z_otvFSXn_Animation{0%{-webkit-transform: translate(-50px, 0px);transform: translate(-50px, 0px);}100%{-webkit-transform: translate(30px, 0px);transform: translate(30px, 0px);}}@-webkit-keyframes el_EISQ5ssEm0_A3XLCLJry_Animation{0%{-webkit-transform: translate(-30px, 0px);transform: translate(-30px, 0px);}100%{-webkit-transform: translate(20px, 0px);transform: translate(20px, 0px);}}@keyframes el_EISQ5ssEm0_A3XLCLJry_Animation{0%{-webkit-transform: translate(-30px, 0px);transform: translate(-30px, 0px);}100%{-webkit-transform: translate(20px, 0px);transform: translate(20px, 0px);}}@-webkit-keyframes el_BWXmomJu7f_nwKRJeC52_Animation{29.44%{-webkit-transform: rotate(-30deg);transform: rotate(-30deg);}44.44%{-webkit-transform: rotate(0deg);transform: rotate(0deg);}0%{-webkit-transform: rotate(-30deg);transform: rotate(-30deg);}100%{-webkit-transform: rotate(0deg);transform: rotate(0deg);}}@keyframes el_BWXmomJu7f_nwKRJeC52_Animation{29.44%{-webkit-transform: rotate(-30deg);transform: rotate(-30deg);}44.44%{-webkit-transform: rotate(0deg);transform: rotate(0deg);}0%{-webkit-transform: rotate(-30deg);transform: rotate(-30deg);}100%{-webkit-transform: rotate(0deg);transform: rotate(0deg);}}@-webkit-keyframes el_BWXmomJu7f_oEAZj5Vfm_Animation{29.44%{-webkit-transform: translate(0px, 350px);transform: translate(0px, 350px);}44.44%{-webkit-transform: translate(0px, 0px);transform: translate(0px, 0px);}0%{-webkit-transform: translate(0px, 350px);transform: translate(0px, 350px);}100%{-webkit-transform: translate(0px, 0px);transform: translate(0px, 0px);}}@keyframes el_BWXmomJu7f_oEAZj5Vfm_Animation{29.44%{-webkit-transform: translate(0px, 350px);transform: translate(0px, 350px);}44.44%{-webkit-transform: translate(0px, 0px);transform: translate(0px, 0px);}0%{-webkit-transform: translate(0px, 350px);transform: translate(0px, 350px);}100%{-webkit-transform: translate(0px, 0px);transform: translate(0px, 0px);}}@-webkit-keyframes el_yNr2r2GhIS_9cG1S4mz9_Animation{20.56%{-webkit-transform: rotate(-30deg);transform: rotate(-30deg);}37.22%{-webkit-transform: rotate(0deg);transform: rotate(0deg);}0%{-webkit-transform: rotate(-30deg);transform: rotate(-30deg);}100%{-webkit-transform: rotate(0deg);transform: rotate(0deg);}}@keyframes el_yNr2r2GhIS_9cG1S4mz9_Animation{20.56%{-webkit-transform: rotate(-30deg);transform: rotate(-30deg);}37.22%{-webkit-transform: rotate(0deg);transform: rotate(0deg);}0%{-webkit-transform: rotate(-30deg);transform: rotate(-30deg);}100%{-webkit-transform: rotate(0deg);transform: rotate(0deg);}}@-webkit-keyframes el_yNr2r2GhIS_6IbtiVv35_Animation{20.56%{-webkit-transform: translate(100px, 350px);transform: translate(100px, 350px);}37.22%{-webkit-transform: translate(0px, 0px);transform: translate(0px, 0px);}0%{-webkit-transform: translate(100px, 350px);transform: translate(100px, 350px);}100%{-webkit-transform: translate(0px, 0px);transform: translate(0px, 0px);}}@keyframes el_yNr2r2GhIS_6IbtiVv35_Animation{20.56%{-webkit-transform: translate(100px, 350px);transform: translate(100px, 350px);}37.22%{-webkit-transform: translate(0px, 0px);transform: translate(0px, 0px);}0%{-webkit-transform: translate(100px, 350px);transform: translate(100px, 350px);}100%{-webkit-transform: translate(0px, 0px);transform: translate(0px, 0px);}}@-webkit-keyframes el_SDwNUbMWCt_Animation{3.89%{opacity: 0;}19.44%{opacity: 1;}0%{opacity: 0;}100%{opacity: 1;}}@keyframes el_SDwNUbMWCt_Animation{3.89%{opacity: 0;}19.44%{opacity: 1;}0%{opacity: 0;}100%{opacity: 1;}}#el_M5cOpLHpJ *{-webkit-animation-duration: 6s;animation-duration: 6s;-webkit-animation-timing-function: cubic-bezier(0, 0, 1, 1);animation-timing-function: cubic-bezier(0, 0, 1, 1);}#el_i7T9sCbmGJ{fill: #EBF6F4;}#el_yNr2r2GhIS{fill: #D0EBE5;}#el_BWXmomJu7f{fill: #B7E1D8;-webkit-transform: matrix(0.1317, -0.9913, 0.9913, 0.1317, -343.2443, 850.4156);transform: matrix(0.1317, -0.9913, 0.9913, 0.1317, -343.2443, 850.4156);}#el_EISQ5ssEm0{fill: #FFFFFF;}#el_mQjT3SVlIP{fill: #FFFFFF;}#el_2pRED1acHQ{fill: none;stroke: #D0EBE5;stroke-width: 2;stroke-miterlimit: 10;}#el_7UWfm1f0F7{fill: none;stroke: #D0EBE5;stroke-width: 2;stroke-miterlimit: 10;}#el_udvGLl1YYC{fill: none;stroke: #D0EBE5;stroke-width: 2;stroke-miterlimit: 10;}#el_FwM7l0o3P8{fill: #D0EBE5;}#el_kSsP3o95-v4{fill: none;stroke: #FFFFFF;stroke-linecap: round;stroke-miterlimit: 10;}#el_xgoGYlMTpA0{fill: none;stroke: #FFFFFF;stroke-linecap: round;stroke-miterlimit: 10;}#el_x-7Eu9mQeJk{fill: none;stroke: #FFFFFF;stroke-linecap: round;stroke-miterlimit: 10;}#el_BGhApXVhnc2{fill: none;stroke: #FFFFFF;stroke-linecap: round;stroke-miterlimit: 10;}#el_8bB9Du3ZRNF{fill: #D0EBE5;}#el_Rugg_SxeUz9{fill: none;stroke: #FFFFFF;stroke-linecap: round;stroke-miterlimit: 10;}#el_jKRhzTtq9a4{fill: none;stroke: #FFFFFF;stroke-linecap: round;stroke-miterlimit: 10;}#el_vUrpB_R7Ho3{fill: none;stroke: #FFFFFF;stroke-linecap: round;stroke-miterlimit: 10;}#el_7Ky7Y-Yh5hU{fill: none;stroke: #FFFFFF;stroke-linecap: round;stroke-miterlimit: 10;}#el_TMLXlJpxxam{fill: #D0EBE5;}#el_esLA75Ch_5q{fill: none;stroke: #FFFFFF;stroke-linecap: round;stroke-miterlimit: 10;}#el_1_3vqxXvnR9{fill: none;stroke: #FFFFFF;stroke-linecap: round;stroke-miterlimit: 10;}#el_XlD1Su7PuXv{fill: none;stroke: #FFFFFF;stroke-linecap: round;stroke-miterlimit: 10;}#el_saPwIUVDU6H{fill: none;stroke: #FFFFFF;stroke-linecap: round;stroke-miterlimit: 10;}#el_1FCtOI-s8yl{fill: #B7E1D8;}#el_hqDB7c9rCT-{fill: none;stroke: #FFFFFF;stroke-linecap: round;stroke-miterlimit: 10;}#el_ZLVcI1ibKCO{fill: none;stroke: #FFFFFF;stroke-linecap: round;stroke-miterlimit: 10;}#el_OAAx_O8w339{fill: none;stroke: #FFFFFF;stroke-linecap: round;stroke-miterlimit: 10;}#el_67YWrGAG93H{fill: none;stroke: #FFFFFF;stroke-linecap: round;stroke-miterlimit: 10;}#el_4OsMKbXfnga{fill: #FFFFFF;}#el_Cb3qGU8ptn8{fill: #3E7F70;-webkit-animation-name: el_Cb3qGU8ptn8_Animation;animation-name: el_Cb3qGU8ptn8_Animation;-webkit-animation-timing-function: cubic-bezier(0, 0, 0.58, 1);animation-timing-function: cubic-bezier(0, 0, 0.58, 1);opacity: 0.1;}#el_MsGJjlz2UQq{fill: #DE9486;}#el_y0WSHQBkVIs{fill: url(#SVGID_1_);}#el_FXO41vp4cRN{fill: #E54941;}#el_9sYC-4yEZRq{opacity: 0.25;fill: #376277;}#el_R1Bqk3ITSDn{fill: #FAA024;}#el_oYg9H0IKa0P{fill: url(#SVGID_2_);}#el_Jkj-Bcup1OF{fill: #E54941;}#el_Dz7OdwDqXaE{fill: #D88E80;}#el_EfdPUJZ3rXI{fill: #EFA897;}#el_cMMYhvv4dGE{fill: #EFA897;}#el_nJtGgJOQRwe{fill: url(#SVGID_3_);}#el_-COwcAvzbWf{fill: url(#SVGID_4_);}#el_YPOhSjVDEtC{fill: url(#SVGID_5_);}#el_tMdfVUtrAOS{fill: #D88E80;}#el_8g7LR1TxPNP{fill: #EFA897;}#el_UWmWvufyoEh{fill: #282625;}#el_7xR5GlT9RbS{fill: url(#SVGID_6_);}#el_A9ASlmvcCht{fill: url(#SVGID_7_);}#el_WVfcHHzhSEg{fill: #02B491;}#el_W06CYmS3hMT{fill: #2C4C61;}#el_XDvjJpqPI0a{opacity: 0.4;fill: #2C4C61;}#el_Iuq_FItUOSt{fill: #5E280A;}#el__2yGWcRRM6G{fill: #02B491;}#el_9IPInxIqq1G{fill: #2C4C61;}#el_f5ZfszW8P9X{fill: #7C4018;}#el_pevbpjBbgOQ{fill: #D38854;}#el__GhKJvsiNnM{fill: url(#SVGID_8_);}#el_Qf1dnulrVAr{fill: #E5955E;-webkit-transform: matrix(0.9592, -0.2827, 0.2827, 0.9592, -66.0764, 94.4911);transform: matrix(0.9592, -0.2827, 0.2827, 0.9592, -66.0764, 94.4911);}#el_Qr1UYanrms1{fill: url(#SVGID_9_);}#el_AU97pUP4duc{fill: url(#SVGID_10_);}#el_oxLusQ19Ua-{fill: url(#SVGID_11_);}#el_42TD88MuQL8{fill: #F4A66C;}#el_pfUxjTvT9zN{fill: #F4A66C;}#el_jGqvuYn2byH{fill: #F4A66C;}#el_JDHivv4QWJ_{fill: #415256;}#el_eTNsiy6rtlC{fill: url(#SVGID_12_);}#el_qIcnVSvEMn_{fill: #D66C54;}#el_dYZa2WMXoDR{fill: #F4A66C;}#el_qcE19eANoTQ{fill: #89471C;}#el_5OSx9vOr1Xe{fill: #89471C;}#el_NrkcKTTvWGR{fill: url(#SVGID_13_);}#el_SDwNUbMWCt{-webkit-animation-name: el_SDwNUbMWCt_Animation;animation-name: el_SDwNUbMWCt_Animation;-webkit-animation-timing-function: cubic-bezier(0, 0, 0.58, 1);animation-timing-function: cubic-bezier(0, 0, 0.58, 1);opacity: 1;}#el_yNr2r2GhIS_6IbtiVv35{-webkit-animation-name: el_yNr2r2GhIS_6IbtiVv35_Animation;animation-name: el_yNr2r2GhIS_6IbtiVv35_Animation;-webkit-animation-timing-function: cubic-bezier(0, 0, 0.58, 1);animation-timing-function: cubic-bezier(0, 0, 0.58, 1);-webkit-transform-origin: 100% 0%;transform-origin: 100% 0%;transform-box: fill-box;-webkit-transform: translate(0px, 0px);transform: translate(0px, 0px);}#el_yNr2r2GhIS_9cG1S4mz9{-webkit-animation-name: el_yNr2r2GhIS_9cG1S4mz9_Animation;animation-name: el_yNr2r2GhIS_9cG1S4mz9_Animation;-webkit-animation-timing-function: cubic-bezier(0, 0, 0.58, 1);animation-timing-function: cubic-bezier(0, 0, 0.58, 1);-webkit-transform-origin: 100% 0%;transform-origin: 100% 0%;transform-box: fill-box;-webkit-transform: rotate(0deg);transform: rotate(0deg);}#el_BWXmomJu7f_oEAZj5Vfm{-webkit-animation-name: el_BWXmomJu7f_oEAZj5Vfm_Animation;animation-name: el_BWXmomJu7f_oEAZj5Vfm_Animation;-webkit-animation-timing-function: cubic-bezier(0, 0, 0.58, 1);animation-timing-function: cubic-bezier(0, 0, 0.58, 1);-webkit-transform-origin: 100% 0%;transform-origin: 100% 0%;transform-box: fill-box;-webkit-transform: translate(0px, 0px);transform: translate(0px, 0px);}#el_BWXmomJu7f_nwKRJeC52{-webkit-animation-name: el_BWXmomJu7f_nwKRJeC52_Animation;animation-name: el_BWXmomJu7f_nwKRJeC52_Animation;-webkit-animation-timing-function: cubic-bezier(0, 0, 0.58, 1);animation-timing-function: cubic-bezier(0, 0, 0.58, 1);-webkit-transform-origin: 100% 0%;transform-origin: 100% 0%;transform-box: fill-box;-webkit-transform: rotate(0deg);transform: rotate(0deg);}#el_EISQ5ssEm0_A3XLCLJry{-webkit-animation-name: el_EISQ5ssEm0_A3XLCLJry_Animation;animation-name: el_EISQ5ssEm0_A3XLCLJry_Animation;-webkit-animation-timing-function: cubic-bezier(0, 0, 0.58, 1);animation-timing-function: cubic-bezier(0, 0, 0.58, 1);-webkit-transform-origin: 50% 50%;transform-origin: 50% 50%;transform-box: fill-box;-webkit-transform: translate(20px, 0px);transform: translate(20px, 0px);}#el_mQjT3SVlIP_Z_otvFSXn{-webkit-animation-name: el_mQjT3SVlIP_Z_otvFSXn_Animation;animation-name: el_mQjT3SVlIP_Z_otvFSXn_Animation;-webkit-animation-timing-function: cubic-bezier(0, 0, 0.58, 1);animation-timing-function: cubic-bezier(0, 0, 0.58, 1);-webkit-transform-origin: 50% 50%;transform-origin: 50% 50%;transform-box: fill-box;-webkit-transform: translate(30px, 0px);transform: translate(30px, 0px);}#el_MOFwExmMnu{-webkit-animation-name: el_MOFwExmMnu_Animation;animation-name: el_MOFwExmMnu_Animation;-webkit-animation-timing-function: cubic-bezier(0.42, 0, 1, 1);animation-timing-function: cubic-bezier(0.42, 0, 1, 1);opacity: 1;}#el_MOFwExmMnu_8l6Sg7488{-webkit-animation-name: el_MOFwExmMnu_8l6Sg7488_Animation;animation-name: el_MOFwExmMnu_8l6Sg7488_Animation;-webkit-animation-timing-function: cubic-bezier(0.42, 0, 1, 1);animation-timing-function: cubic-bezier(0.42, 0, 1, 1);-webkit-transform-origin: 50% 100%;transform-origin: 50% 100%;transform-box: fill-box;-webkit-transform: scale(1, 1);transform: scale(1, 1);}#el_C8y2gGxtjQM{-webkit-animation-name: el_C8y2gGxtjQM_Animation;animation-name: el_C8y2gGxtjQM_Animation;-webkit-animation-timing-function: cubic-bezier(0.42, 0, 1, 1);animation-timing-function: cubic-bezier(0.42, 0, 1, 1);opacity: 1;}#el_C8y2gGxtjQM_H9VJEoZWv{-webkit-animation-name: el_C8y2gGxtjQM_H9VJEoZWv_Animation;animation-name: el_C8y2gGxtjQM_H9VJEoZWv_Animation;-webkit-animation-timing-function: cubic-bezier(0.42, 0, 1, 1);animation-timing-function: cubic-bezier(0.42, 0, 1, 1);-webkit-transform-origin: 50% 100%;transform-origin: 50% 100%;transform-box: fill-box;-webkit-transform: scale(1, 1);transform: scale(1, 1);}#el_mTqdKGFulfN{-webkit-animation-name: el_mTqdKGFulfN_Animation;animation-name: el_mTqdKGFulfN_Animation;-webkit-animation-timing-function: cubic-bezier(0.42, 0, 1, 1);animation-timing-function: cubic-bezier(0.42, 0, 1, 1);}#el_mTqdKGFulfN_GnNkiqUBe{-webkit-animation-name: el_mTqdKGFulfN_GnNkiqUBe_Animation;animation-name: el_mTqdKGFulfN_GnNkiqUBe_Animation;-webkit-animation-timing-function: cubic-bezier(0.42, 0, 1, 1);animation-timing-function: cubic-bezier(0.42, 0, 1, 1);-webkit-transform-origin: 50% 100%;transform-origin: 50% 100%;transform-box: fill-box;}#el_fAaVs_jArSI{-webkit-animation-name: el_fAaVs_jArSI_Animation;animation-name: el_fAaVs_jArSI_Animation;-webkit-animation-timing-function: cubic-bezier(0.42, 0, 1, 1);animation-timing-function: cubic-bezier(0.42, 0, 1, 1);opacity: 1;}#el_fAaVs_jArSI_pROLTvUy9{-webkit-animation-name: el_fAaVs_jArSI_pROLTvUy9_Animation;animation-name: el_fAaVs_jArSI_pROLTvUy9_Animation;-webkit-animation-timing-function: cubic-bezier(0.42, 0, 1, 1);animation-timing-function: cubic-bezier(0.42, 0, 1, 1);-webkit-transform-origin: 50% 100%;transform-origin: 50% 100%;transform-box: fill-box;-webkit-transform: scale(1, 1);transform: scale(1, 1);}#el_9tbXR7IlyqW_AEkYYMigG{-webkit-animation-name: el_9tbXR7IlyqW_AEkYYMigG_Animation;animation-name: el_9tbXR7IlyqW_AEkYYMigG_Animation;-webkit-animation-timing-function: cubic-bezier(0, 0, 0.58, 1);animation-timing-function: cubic-bezier(0, 0, 0.58, 1);-webkit-transform-origin: 50% 50%;transform-origin: 50% 50%;transform-box: fill-box;-webkit-transform: translate(0px, 0px);transform: translate(0px, 0px);}#el_9tbXR7IlyqW_JvxlER0yT{-webkit-animation-name: el_9tbXR7IlyqW_JvxlER0yT_Animation;animation-name: el_9tbXR7IlyqW_JvxlER0yT_Animation;-webkit-animation-timing-function: cubic-bezier(0, 0, 0.58, 1);animation-timing-function: cubic-bezier(0, 0, 0.58, 1);-webkit-transform-origin: 50% 50%;transform-origin: 50% 50%;transform-box: fill-box;-webkit-transform: scale(1, 1);transform: scale(1, 1);}#el_9tbXR7IlyqW_bwgICPUnQAK{-webkit-animation-name: el_9tbXR7IlyqW_bwgICPUnQAK_Animation;animation-name: el_9tbXR7IlyqW_bwgICPUnQAK_Animation;-webkit-animation-timing-function: cubic-bezier(0, 0, 0.58, 1);animation-timing-function: cubic-bezier(0, 0, 0.58, 1);-webkit-transform-origin: 50% 50%;transform-origin: 50% 50%;transform-box: fill-box;-webkit-transform: rotate(0deg);transform: rotate(0deg);}#el_Cb3qGU8ptn8_1oKnKpQfX{-webkit-animation-name: el_Cb3qGU8ptn8_1oKnKpQfX_Animation;animation-name: el_Cb3qGU8ptn8_1oKnKpQfX_Animation;-webkit-animation-timing-function: cubic-bezier(0, 0, 0.58, 1);animation-timing-function: cubic-bezier(0, 0, 0.58, 1);-webkit-transform-origin: 100% 50%;transform-origin: 100% 50%;transform-box: fill-box;-webkit-transform: translate(30px, 0px);transform: translate(30px, 0px);}#el_Cb3qGU8ptn8_gjHNs-sMo{-webkit-animation-name: el_Cb3qGU8ptn8_gjHNs-sMo_Animation;animation-name: el_Cb3qGU8ptn8_gjHNs-sMo_Animation;-webkit-animation-timing-function: cubic-bezier(0, 0, 0.58, 1);animation-timing-function: cubic-bezier(0, 0, 0.58, 1);-webkit-transform-origin: 100% 50%;transform-origin: 100% 50%;transform-box: fill-box;-webkit-transform: scale(1, 1);transform: scale(1, 1);}#el_ZZ9yzDn9KId_TW_0e1xe8{-webkit-animation-name: el_ZZ9yzDn9KId_TW_0e1xe8_Animation;animation-name: el_ZZ9yzDn9KId_TW_0e1xe8_Animation;-webkit-animation-timing-function: cubic-bezier(0, 0, 0.58, 1);animation-timing-function: cubic-bezier(0, 0, 0.58, 1);-webkit-transform-origin: 50% 50%;transform-origin: 50% 50%;transform-box: fill-box;-webkit-transform: translate(0px, 0px);transform: translate(0px, 0px);}#el_ZZ9yzDn9KId{-webkit-animation-name: el_ZZ9yzDn9KId_Animation;animation-name: el_ZZ9yzDn9KId_Animation;-webkit-animation-timing-function: cubic-bezier(0, 0, 0.58, 1);animation-timing-function: cubic-bezier(0, 0, 0.58, 1);opacity: 1;}#el_G8cS9ngtsfN_GJu8ImVOq{-webkit-animation-name: el_G8cS9ngtsfN_GJu8ImVOq_Animation;animation-name: el_G8cS9ngtsfN_GJu8ImVOq_Animation;-webkit-animation-timing-function: cubic-bezier(0, 0, 0.58, 1);animation-timing-function: cubic-bezier(0, 0, 0.58, 1);-webkit-transform-origin: 50% 50%;transform-origin: 50% 50%;transform-box: fill-box;-webkit-transform: translate(0px, 0px);transform: translate(0px, 0px);}#el_G8cS9ngtsfN{-webkit-animation-name: el_G8cS9ngtsfN_Animation;animation-name: el_G8cS9ngtsfN_Animation;-webkit-animation-timing-function: cubic-bezier(0, 0, 0.58, 1);animation-timing-function: cubic-bezier(0, 0, 0.58, 1);opacity: 1;}</style>

<g id="el_SDwNUbMWCt">
	<rect x="-0.1" y="-0.7" width="495.9" height="600.5" id="el_i7T9sCbmGJ"/>
</g>
<g id="el_CKI1IuHXtG">
	<g id="el_yNr2r2GhIS_6IbtiVv35" data-animator-group="true" data-animator-type="0"><g id="el_yNr2r2GhIS_9cG1S4mz9" data-animator-group="true" data-animator-type="1"><ellipse id="el_yNr2r2GhIS" cx="-63.4" cy="518.4" rx="558.4" ry="227"/></g></g>
	
		<g id="el_BWXmomJu7f_oEAZj5Vfm" data-animator-group="true" data-animator-type="0"><g id="el_BWXmomJu7f_nwKRJeC52" data-animator-group="true" data-animator-type="1"><ellipse id="el_BWXmomJu7f" cx="313.8" cy="621.1" rx="227" ry="558.4"/></g></g>
</g>
<g id="el_GAVGHzHvCp">
	<g id="el_EISQ5ssEm0_A3XLCLJry" data-animator-group="true" data-animator-type="0"><path id="el_EISQ5ssEm0" d="M237.3,140.1c0-5,6.9-9.6,15.3-9.6c3.3,0,6.3,0.6,8.8,1.7c3.2-2.7,8.5-4.5,14.6-4.5&#10;&#9;&#9;c7.9,0,14.5,3,16.9,7.2c1.3-0.3,2.6-0.6,4.1-0.6c5.3,0,9.7,2.6,9.7,5.7H237.3z"/></g>
	<g id="el_mQjT3SVlIP_Z_otvFSXn" data-animator-group="true" data-animator-type="0"><path id="el_mQjT3SVlIP" d="M121.6,115.6c0-9.5-18.9-18.1-42.1-18.1c-9,0-17.4,1.2-24.2,3.1c-8.8-5.2-23.4-8.6-40.1-8.6&#10;&#9;&#9;c-21.6,0-39.9,5.8-46.3,13.7c-3.4-0.7-7.3-1-11.3-1c-14.7,0-26.6,4.9-26.6,10.9L121.6,115.6z"/></g>
	<g id="el_kQ6r6oorG9">
		<path id="el_2pRED1acHQ" d="M165.3,170.4c-4.5-4.2-9.1,0-9.1,0s-6.1-4.5-9.1,0"/>
		<path id="el_7UWfm1f0F7" d="M149.7,161.2c-4.5-4.2-9.1,0-9.1,0s-6.1-4.5-9.1,0"/>
		<path id="el_udvGLl1YYC" d="M116.8,175.6c-4.5-4.2-9.1,0-9.1,0s-6.1-4.5-9.1,0"/>
	</g>
	<g id="el_MOFwExmMnu_8l6Sg7488" data-animator-group="true" data-animator-type="2"><g id="el_MOFwExmMnu">
		<g id="el_w9R6TvP3Xf">
			<path d="M369.1,348.9c-0.8,14.8,6.2,23,15.4,24.8c9.1,1.7,16.2-5.1,15.4-23.7c-1.1-19.2-15.6-40.3-15.4-39.5&#10;&#9;&#9;&#9;&#9;C384.7,310.9,370.1,334.9,369.1,348.9z" id="el_FwM7l0o3P8"/>
			<g id="el_LEZGgBKMbhT">
				<path d="M384.5,318.7c0,22.1,0,44.2,0,66.3" id="el_kSsP3o95-v4"/>
				<g id="el_zuaFRDEhM4n">
					<path d="M391.8,355.6c-2.3,4.9-4.7,9.7-7.2,14.2c-2.5-5.2-4.9-10.3-7.2-15.2" id="el_xgoGYlMTpA0"/>
				</g>
				<g id="el_eOVy5dThnHg">
					<path d="M390.3,340.4c-1.9,4.2-3.8,8.3-5.8,12.3c-2-4.2-3.9-8.2-5.8-12" id="el_x-7Eu9mQeJk"/>
				</g>
				<g id="el_GjjgFQMuGjh">
					<path d="M389,328c-1.4,3.5-2.9,6.9-4.5,10.2c-1.5-3.2-3-6.3-4.5-9.2" id="el_BGhApXVhnc2"/>
				</g>
			</g>
		</g>
	</g></g>
	<g id="el_C8y2gGxtjQM_H9VJEoZWv" data-animator-group="true" data-animator-type="2"><g id="el_C8y2gGxtjQM">
		<g id="el_pHJEFiaV9Q0">
			<path d="M163.7,301.9c-0.5,8.5,3.6,13.2,8.8,14.2c5.2,1,9.3-2.9,8.8-13.6c-0.6-11.1-9-23.1-8.8-22.7&#10;&#9;&#9;&#9;&#9;C172.7,280.1,164.3,293.9,163.7,301.9z" id="el_8bB9Du3ZRNF"/>
			<g id="el_pjddSFZ5-ui">
				<path d="M172.6,284.5c0,12.7,0,25.4,0,38.1" id="el_Rugg_SxeUz9"/>
				<g id="el_TjMABtVB45a">
					<path d="M176.7,305.7c-1.3,2.8-2.7,5.6-4.1,8.2c-1.4-3-2.8-5.9-4.1-8.7" id="el_jKRhzTtq9a4"/>
				</g>
				<g id="el_S6VhFHUAR9o">
					<path d="M175.9,297c-1.1,2.4-2.2,4.8-3.3,7.1c-1.1-2.4-2.3-4.7-3.3-6.9" id="el_vUrpB_R7Ho3"/>
				</g>
				<g id="el_nr0GzPVZ7DS">
					<path d="M175.1,289.9c-0.8,2-1.7,3.9-2.6,5.8c-0.9-1.8-1.7-3.6-2.6-5.3" id="el_7Ky7Y-Yh5hU"/>
				</g>
			</g>
		</g>
	</g></g>
	<g id="el_mTqdKGFulfN_GnNkiqUBe" data-animator-group="true" data-animator-type="2"><g id="el_mTqdKGFulfN">
		<g id="el_bU5cId6wu2b">
			<path d="M131.4,287.3c-0.6,11.3,4.8,17.6,11.8,19c7,1.3,12.4-3.9,11.8-18.2c-0.8-14.7-11.9-30.8-11.8-30.2&#10;&#9;&#9;&#9;&#9;C143.4,258.2,132.2,276.5,131.4,287.3z" id="el_TMLXlJpxxam"/>
			<g id="el_07fef2_E72J">
				<path d="M143.3,264.1c0,16.9,0,33.8,0,50.8" id="el_esLA75Ch_5q"/>
				<g id="el_bTHrgU2dZLP">
					<path d="M148.8,292.4c-1.8,3.8-3.6,7.4-5.5,10.9c-1.9-4-3.8-7.9-5.5-11.6" id="el_1_3vqxXvnR9"/>
				</g>
				<g id="el_sbIEupD5_nB">
					<path d="M147.7,280.8c-1.4,3.2-2.9,6.4-4.4,9.4c-1.5-3.2-3-6.3-4.4-9.2" id="el_XlD1Su7PuXv"/>
				</g>
				<g id="el_aeyMF8oAwlK">
					<path d="M146.7,271.2c-1.1,2.6-2.3,5.2-3.4,7.8c-1.2-2.4-2.3-4.8-3.4-7.1" id="el_saPwIUVDU6H"/>
				</g>
			</g>
		</g>
	</g></g>
	<g id="el_fAaVs_jArSI_pROLTvUy9" data-animator-group="true" data-animator-type="2"><g id="el_fAaVs_jArSI">
		<g id="el_dBf2Jg8ILcM">
			<path d="M-18,298.4c-1.9,33.7,14.2,52.3,35,56.4c20.8,3.9,36.8-11.6,35-54c-2.4-43.8-35.5-91.6-35-89.9&#10;&#9;&#9;&#9;&#9;C17.6,212-15.5,266.4-18,298.4z" id="el_1FCtOI-s8yl"/>
			<g id="el_2tw9CrQQUXW">
				<path d="M17.3,229.5c0,50.3,0,100.6,0,150.9" id="el_hqDB7c9rCT-"/>
				<g id="el_BH7n-O_A8pB">
					<path d="M33.7,313.6c-5.3,11.2-10.7,22.1-16.4,32.3c-5.7-12-11.2-23.5-16.4-34.5" id="el_ZLVcI1ibKCO"/>
				</g>
				<g id="el_01cas2Nf8SV">
					<path d="M30.5,279.1c-4.2,9.6-8.6,19-13.2,28c-4.5-9.5-8.9-18.6-13.2-27.4" id="el_OAAx_O8w339"/>
				</g>
				<g id="el_sRmB0ddwa1_">
					<path d="M27.5,250.7c-3.3,7.9-6.7,15.6-10.2,23.1c-3.5-7.3-6.9-14.3-10.2-21" id="el_67YWrGAG93H"/>
				</g>
			</g>
		</g>
	</g></g>
</g>
<g id="el_9tbXR7IlyqW_AEkYYMigG" data-animator-group="true" data-animator-type="0"><g id="el_9tbXR7IlyqW_bwgICPUnQAK" data-animator-group="true" data-animator-type="1"><g id="el_9tbXR7IlyqW_JvxlER0yT" data-animator-group="true" data-animator-type="2"><g id="el_9tbXR7IlyqW">
	<path d="M-288.2-144.4v761.7l1524.2,0v-761.7L-288.2-144.4z M356.7,441.6l-94.5-0.3c-30-0.1-58.2,14.6-75.3,39.3&#10;&#9;&#9;l-53.8,77.7c-43.1,62.2-138.7,48-161.9-24l-28.9-90c-9.2-28.6-31.9-50.8-60.6-59.5l-90.5-27.2c-72.4-21.7-88.5-117.1-27.2-161.4&#10;&#9;&#9;l76.6-55.3c24.4-17.6,38.5-46,37.8-76l-2.1-94.5c-1.7-75.6,84-120.4,145.1-75.7l76.3,55.8c24.2,17.7,55.7,22.4,84,12.5l89.2-31.2&#10;&#9;&#9;c71.4-25,140.4,42.7,116.8,114.6l-29.5,89.8c-9.4,28.5-4.1,59.9,14.1,83.7l57.3,75.2C475.4,355.3,432.4,441.8,356.7,441.6z" id="el_4OsMKbXfnga"/>
</g></g></g></g>
<g id="el_5MZPB9bk_IH">
	<g id="el_Cb3qGU8ptn8_1oKnKpQfX" data-animator-group="true" data-animator-type="0"><g id="el_Cb3qGU8ptn8_gjHNs-sMo" data-animator-group="true" data-animator-type="2"><ellipse id="el_Cb3qGU8ptn8" cx="263.8" cy="503.5" rx="124.4" ry="10.7"/></g></g>
	<g id="el_ZZ9yzDn9KId_TW_0e1xe8" data-animator-group="true" data-animator-type="0"><g id="el_ZZ9yzDn9KId">
		<path d="M293,327.2c2.5-7.2,12.7,0.7,21.6,14.1c7.7,11.5,8,19.1,13,27.7C327.6,369,286.6,345.8,293,327.2z" id="el_MsGJjlz2UQq"/>
		<g id="el_7WkhZV3sp0D">
			
				<linearGradient id="SVGID_1_" gradientUnits="userSpaceOnUse" x1="919.0403" y1="507.7385" x2="919.0403" y2="408.6372" gradientTransform="matrix(-1 0 0 1 1245 0)">
				<stop offset="0" style="stop-color:#EFA897"/>
				<stop offset="0.3953" style="stop-color:#EAA292"/>
				<stop offset="0.9242" style="stop-color:#DB9183"/>
				<stop offset="1" style="stop-color:#D88E80"/>
			</linearGradient>
			<path d="M330.7,415c0,0-4.7,19.2-6.6,28.9c-1.9,9.7-11.2,45.4,6.6,51c12.4,3.9,13.9,8.5,12.5,10.5&#10;&#9;&#9;&#9;&#9;c-1.5,2.1-10.2,3.6-15.3,0.8c-5.1-2.9-10.9-5.3-14.3-5.5s-6.7-4.7-4.3-7.8c2.5-3.1,3-9.7,0.8-22.8c-2.2-13.1-3.1-36.8,2.3-44.6&#10;&#9;&#9;&#9;&#9;l-3.4-13.1C309,412.3,324.1,402.5,330.7,415z" id="el_y0WSHQBkVIs"/>
			<path d="M310.6,490.1c2.2,7.6,12.4,11.1,17.6,12.1c4.9,0.9,7.5-3.3,8.4-5c6.9,3.3,7.7,6.6,6.5,8.2&#10;&#9;&#9;&#9;&#9;c-1.5,2.1-10.2,3.6-15.3,0.8c-5.1-2.9-10.9-5.3-14.3-5.5c-3.4-0.3-6.7-4.7-4.3-7.8C309.8,492.1,310.3,491.2,310.6,490.1z" id="el_FXO41vp4cRN"/>
		</g>
		<path d="M338.5,498.3c0,0-4.8,6.6-13.3,2c-8.5-4.7-8-9.1-8-13.6c-0.1-4.5-1.7-10.1-1.7-10.1L338.5,498.3z" id="el_9sYC-4yEZRq"/>
		<path d="M366.7,404.9c2.5,3.5-3.9,18.3-34.9,7.9C300.7,402.4,360.6,396.3,366.7,404.9z" id="el_R1Bqk3ITSDn"/>
		<g id="el_fUa6XOc66j8">
			
				<linearGradient id="SVGID_2_" gradientUnits="userSpaceOnUse" x1="907.0095" y1="500.637" x2="907.0095" y2="398.459" gradientTransform="matrix(-1 0 0 1 1245 0)">
				<stop offset="0" style="stop-color:#EFA897"/>
				<stop offset="0.3953" style="stop-color:#EAA292"/>
				<stop offset="0.9242" style="stop-color:#DB9183"/>
				<stop offset="1" style="stop-color:#D88E80"/>
			</linearGradient>
			<path d="M354.3,400.7c0,0,8.7,20.4,5.7,27c-3,6.6-31.4,46.6-31.4,46.6s0.5,13.9,3.8,16.6c3.2,2.7,7.5,3.5,6.1,7.4&#10;&#9;&#9;&#9;&#9;c-1.4,3.9-16.2,3.6-19.1-5.7s-1.8-11.2-3.4-13.9c-1.6-2.7-0.6-11,5.5-10.4c0,0,12.9-40.1,22.5-46.1c0,0-11.7-10.5-12.3-13.2&#10;&#9;&#9;&#9;&#9;S342,393.3,354.3,400.7z" id="el_oYg9H0IKa0P"/>
			<path d="M330.7,493.2c2.1,0.2,2.4-0.8,2.3-1.8c3.1,2.3,6.8,3.2,5.4,6.9c-1.4,3.9-16.2,3.6-19.1-5.7&#10;&#9;&#9;&#9;&#9;s-1.8-11.2-3.4-13.9c-1.6-2.7-0.6-11,5.5-10.4C318.3,487.6,326.8,492.9,330.7,493.2z" id="el_Jkj-Bcup1OF"/>
		</g>
		<g id="el_GspWMTUo1kp">
			<path d="M423.2,264.9c0,0,2.5,3.2,2.5,3.9c0,0.7-5.2,13.1-2.5,1.6c0,0-2.2-3.6-4.6-4.7&#10;&#9;&#9;&#9;&#9;C418.6,265.7,419.8,263.5,423.2,264.9z" id="el_Dz7OdwDqXaE"/>
			<path d="M327.4,283.5l78.2-18.4l27.5-4.3c0,0,2.7,3-13.5,5.2l-80.3,30.5C339.3,296.6,324,293.5,327.4,283.5z" id="el_EfdPUJZ3rXI"/>
			<path d="M408.4,269.8c0,1.2,7.2,3.1,8.8,3.2c1.6,0.1,3.5,0.7,4.1,0.7s0.7-1.4-1-2c-1.7-0.6-4.1-1.7-3.7-3.1&#10;&#9;&#9;&#9;&#9;c0.4-1.4,3.7-2.7,4-2.7C420.9,265.8,408.4,264.9,408.4,269.8z" id="el_cMMYhvv4dGE"/>
		</g>
		
			<linearGradient id="SVGID_3_" gradientUnits="userSpaceOnUse" x1="878.3446" y1="347.7206" x2="1007.629" y2="347.7206" gradientTransform="matrix(-1 0 0 1 1245 0)">
			<stop offset="0" style="stop-color:#F46CE8"/>
			<stop offset="0.1388" style="stop-color:#EE6AE6"/>
			<stop offset="0.3248" style="stop-color:#DD63E0"/>
			<stop offset="0.5375" style="stop-color:#C159D7"/>
			<stop offset="0.7686" style="stop-color:#9A4ACA"/>
			<stop offset="0.8182" style="stop-color:#9147C7"/>
		</linearGradient>
		<path d="M323.9,277.8c1.7,0.9,7.1,10.8,15.3,16.5c8.1,5.7,5.9,10.9,2.1,28.9c-3.9,17.9-4.2,18.8,0.5,29.8&#10;&#9;&#9;&#9;c4.7,11,24.9,51.9,24.9,51.9s-6.3-6.1-15.5,3.1s-52.7,33.4-74.7-34.4c0,0,19.7,0.7,23.5-25.7c1.2-8.8-1.1-16.3,0-25.1&#10;&#9;&#9;&#9;C305.8,275.6,313.3,272.1,323.9,277.8z" id="el_nJtGgJOQRwe"/>
		
			<linearGradient id="SVGID_4_" gradientUnits="userSpaceOnUse" x1="878.3446" y1="347.7206" x2="1007.629" y2="347.7206" gradientTransform="matrix(-1 0 0 1 1245 0)">
			<stop offset="0" style="stop-color:#FECD18"/>
			<stop offset="0.1829" style="stop-color:#FEC71A"/>
			<stop offset="0.4279" style="stop-color:#FCB61F"/>
			<stop offset="0.7071" style="stop-color:#FA9A27"/>
			<stop offset="0.8182" style="stop-color:#F98D2B"/>
		</linearGradient>
		<path d="M323.9,277.8c1.7,0.9,7.1,10.8,15.3,16.5c8.1,5.7,5.9,10.9,2.1,28.9c-3.9,17.9-4.2,18.8,0.5,29.8&#10;&#9;&#9;&#9;c4.7,11,24.9,51.9,24.9,51.9s-6.3-6.1-15.5,3.1s-52.7,33.4-74.7-34.4c0,0,19.7,0.7,23.5-25.7c1.2-8.5-1.2-15.9,0-25.1&#10;&#9;&#9;&#9;C305.8,275.6,313.3,272.1,323.9,277.8z" id="el_-COwcAvzbWf"/>
		<g id="el_qHJthhISaMB">
			
				<linearGradient id="SVGID_5_" gradientUnits="userSpaceOnUse" x1="916.7927" y1="270.5966" x2="933.2188" y2="270.5966" gradientTransform="matrix(-1 0 0 1 1245 0)">
				<stop offset="0" style="stop-color:#EFA897"/>
				<stop offset="0.3953" style="stop-color:#EAA292"/>
				<stop offset="0.9242" style="stop-color:#DB9183"/>
				<stop offset="1" style="stop-color:#D88E80"/>
			</linearGradient>
			<path d="M326.4,275c0,0-0.6,10.4,1.6,14c2.2,3.7-13-0.4-15.3-7.9c-2.2-7.5,0.2-28.1,0.6-30.1&#10;&#9;&#9;&#9;&#9;C313.7,248.9,326.4,275,326.4,275z" id="el_YPOhSjVDEtC"/>
			<path d="M327.1,275.2c0,0-8.4,1.7-14.4-6c-6-7.7,3-10.6,3-10.6L327.1,275.2z" id="el_tMdfVUtrAOS"/>
			<path d="M319,234.3c11.7,0,22.6,9.3,19.7,25.9c-2.9,16.6-11.9,19.7-25.2,7.5C302.6,257.7,299.5,234.3,319,234.3z" id="el_8g7LR1TxPNP"/>
			<path d="M329.6,244.5c0,0-10.6-6.7-13.8,3.4c-3.2,10.1-1.9,19.8,4.8,27.1c0,0-11.3,2.6-21.9-13.4&#10;&#9;&#9;&#9;&#9;c-10.6-16,8-38.9,28.2-31.8c20.1,7.1,12.7,15,13.1,20.6c0.4,5.6,5.7,18.2,5.7,18.2s-7.3-0.2-8.6-1.8c0,0,3.9-8.7,0.4-19.2&#10;&#9;&#9;&#9;&#9;C335.2,240.9,329.6,244.5,329.6,244.5z" id="el_UWmWvufyoEh"/>
		</g>
		
			<linearGradient id="SVGID_6_" gradientUnits="userSpaceOnUse" x1="930.4298" y1="312.0316" x2="953.4048" y2="312.0316" gradientTransform="matrix(-1 0 0 1 1245 0)">
			<stop offset="0" style="stop-color:#EFA897"/>
			<stop offset="0.3953" style="stop-color:#EAA292"/>
			<stop offset="0.9242" style="stop-color:#DB9183"/>
			<stop offset="1" style="stop-color:#D88E80"/>
		</linearGradient>
		<path d="M310.1,286c7.5-1.4,5.3,10.9-4.1,26c-7.2,11.7-8.4,29.3-12,25.8C290.6,334.5,287.4,290.2,310.1,286z" id="el_7xR5GlT9RbS"/>
	</g></g>
	<g id="el_G8cS9ngtsfN_GJu8ImVOq" data-animator-group="true" data-animator-type="0"><g id="el_G8cS9ngtsfN">
		<g id="el_EF5_ilFP3Y6">
			
				<linearGradient id="SVGID_7_" gradientUnits="userSpaceOnUse" x1="971.081" y1="500.616" x2="971.081" y2="475.9442" gradientTransform="matrix(-1 0 0 1 1245 0)">
				<stop offset="0" style="stop-color:#70F46C"/>
				<stop offset="0.2213" style="stop-color:#72F06B"/>
				<stop offset="0.4464" style="stop-color:#78E46A"/>
				<stop offset="0.6733" style="stop-color:#81CF67"/>
				<stop offset="0.9001" style="stop-color:#8EB364"/>
				<stop offset="1" style="stop-color:#95A462"/>
			</linearGradient>
			<path d="M280.4,484.6c0.2,4-1,12.4-7,10.4s-7.5-12.9-5-20.9S280,472.7,280.4,484.6z" id="el_A9ASlmvcCht"/>
			<path d="M280.7,485.4c0,0-0.5,5.1,0.4,7.4c0,0-12.4-1.4-13.6-4.7c0.7-4.8,1.7-7.8,1.7-7.8L280.7,485.4z" id="el_WVfcHHzhSEg"/>
			<path d="M246.8,337.5c0,0-10.2,2.5-3.1,28.9c15,55.4,22.9,120.3,22.9,120.3l16.5,0.3c0,0,4.2-22.1-6.5-153.3&#10;&#9;&#9;&#9;&#9;C276.5,333.6,255.6,326.9,246.8,337.5z" id="el_W06CYmS3hMT"/>
			<path d="M260.5,359.5c0,0,2.5,35.9-3.2,67.9l-7.5-35.5L260.5,359.5z" id="el_XDvjJpqPI0a"/>
			<path d="M280.6,489.2c0,0,12.3,7.8,21.2,10.8c8.9,3,6,7,4,7s-33.8-1-39.7-2c-6-1,1.5-16.9,1.5-16.9&#10;&#9;&#9;&#9;&#9;S272.3,491.4,280.6,489.2z" id="el_Iuq_FItUOSt"/>
		</g>
		<g id="el_fiGTnS9MSxS">
			<path d="M243.5,485.4c0,0-0.5,5.1,0.4,7.4c0,0-12.4-1.4-13.6-4.7c0.7-4.8,1.7-7.8,1.7-7.8L243.5,485.4z" id="el__2yGWcRRM6G"/>
			<path d="M230.8,336.1c0,0-1,9.4-0.5,36.8c0.5,27.3-0.5,112.3-0.5,112.3l14.9,1.5c0,0,19.4-119.2,15.9-152.5&#10;&#9;&#9;&#9;&#9;C260.6,334.1,240.7,326.6,230.8,336.1z" id="el_9IPInxIqq1G"/>
			<path d="M243.4,489.2c0,0,12.3,7.8,21.2,10.8c8.9,3,6,7,4,7s-33.8-1-39.7-2s1.5-16.9,1.5-16.9&#10;&#9;&#9;&#9;&#9;S235.1,491.4,243.4,489.2z" id="el_f5ZfszW8P9X"/>
		</g>
		<g id="el_2iJhyNdNZTO">
			<path d="M280.9,268.2c0,0,9.4,19.2,9.4,23.7c0,4.5-8.4,13.2-15.4-7C265.6,257.6,277.5,260.9,280.9,268.2z" id="el_pevbpjBbgOQ"/>
			
				<linearGradient id="SVGID_8_" gradientUnits="userSpaceOnUse" x1="953.0736" y1="282.8201" x2="964.4059" y2="296.9122" gradientTransform="matrix(-1 0 0 1 1245 0)">
				<stop offset="0" style="stop-color:#E5955E"/>
				<stop offset="0.3219" style="stop-color:#E1925C"/>
				<stop offset="0.6163" style="stop-color:#D68A56"/>
				<stop offset="0.6769" style="stop-color:#D38854"/>
			</linearGradient>
			<path d="M298.3,278.8c0,0-3.5,19.9-13.9,18.7c-10.4-1.2,2-19,2-19L298.3,278.8z" id="el__GhKJvsiNnM"/>
			
				<ellipse cx="294.4" cy="276.2" rx="8.9" ry="5.2" id="el_Qf1dnulrVAr"/>
		</g>
		
			<linearGradient id="SVGID_9_" gradientUnits="userSpaceOnUse" x1="962.5645" y1="259.2131" x2="984.7263" y2="259.2131" gradientTransform="matrix(-1 0 0 1 1245 0)">
			<stop offset="0.1818" style="stop-color:#FFFFFF"/>
			<stop offset="0.2878" style="stop-color:#F8FBFF"/>
			<stop offset="0.6161" style="stop-color:#E7F1FF"/>
			<stop offset="0.8616" style="stop-color:#E1EDFF"/>
		</linearGradient>
		<path d="M260.8,240c0,0,9.1,6.8,14.4,15.4c6.2,10.1,7.2,15.1,7.2,15.1s-9.1,3.1-14.4,7.9c0,0-3.6-2-7.8-3.7&#10;&#9;&#9;&#9;L260.8,240z" id="el_Qr1UYanrms1"/>
		
			<linearGradient id="SVGID_10_" gradientUnits="userSpaceOnUse" x1="956.689" y1="278.2575" x2="1053.3857" y2="308.7346" gradientTransform="matrix(-1 0 0 1 1245 0)">
			<stop offset="0.3622" style="stop-color:#FFFFFF"/>
			<stop offset="0.4684" style="stop-color:#F0F6FF"/>
			<stop offset="0.5978" style="stop-color:#E5EFFF"/>
			<stop offset="0.7392" style="stop-color:#E1EDFF"/>
		</linearGradient>
		<path d="M252.6,234.5c-11.3,0-17.4,3.9-22,8.4c-5.6,5.5,0.9,55.1,0,93.4c0,0,25.2,9.4,46.1,2.5&#10;&#9;&#9;&#9;c0,0,10.1-83.2-16-98.8L252.6,234.5z" id="el_AU97pUP4duc"/>
		<g id="el_vVi4nzHK1yB">
			
				<linearGradient id="SVGID_11_" gradientUnits="userSpaceOnUse" x1="977.6176" y1="294.4146" x2="1013.5305" y2="251.5781" gradientTransform="matrix(-1 0 0 1 1245 0)">
				<stop offset="0" style="stop-color:#F4A66C"/>
				<stop offset="0.187" style="stop-color:#F2A26A"/>
				<stop offset="0.3582" style="stop-color:#EC9766"/>
				<stop offset="0.5228" style="stop-color:#E3855E"/>
				<stop offset="0.6769" style="stop-color:#D66C54"/>
			</linearGradient>
			<path d="M239,298.3c9.5,2.4,37.1-10.4,44.3-20.9c3.5-5.1,2.5-7.8-7.1-6.7c-13.8,8.3-29.8,6.3-43.3,11.7&#10;&#9;&#9;&#9;&#9;C233,282.4,221.6,294,239,298.3z" id="el_oxLusQ19Ua-"/>
			<path d="M278.1,278c2.3,3,22.6,4.8,25.6-6.5c1.4-5.5-8.9,6-18.9,0.2C276.7,267,274.5,273.2,278.1,278z" id="el_42TD88MuQL8"/>
			<path d="M291.1,270.8c0,0-4.6,1.9-3.5,4.2c1.2,2.4-3.9-4-3.9-4S285.6,270.1,291.1,270.8z" id="el_pfUxjTvT9zN"/>
			<path d="M277,269.7c3-2.9,6.1-3.9,10.8-3.3c3.2,0.4,4.8-1.2,5.6-2.3c0.3-0.5,1-0.5,1.3-0.1c1.1,1.3,2.5,3.8-0.8,5.7&#10;&#9;&#9;&#9;&#9;c-4.7,2.6-7.4,0-11.4,4.6C278.4,278.9,273.7,273,277,269.7z" id="el_jGqvuYn2byH"/>
			<path d="M287.4,272.8l1.3-14.8c0.1-1.4,1.3-2.4,2.7-2.4h8.5c1.6,0,2.8,1.4,2.7,2.9l-1.2,12&#10;&#9;&#9;&#9;&#9;C301.3,270.5,294.9,275.4,287.4,272.8z" id="el_JDHivv4QWJ_"/>
		</g>
		<g id="el_dAk1Sg11Eth">
			
				<linearGradient id="SVGID_12_" gradientUnits="userSpaceOnUse" x1="993.695" y1="242.7904" x2="991.2704" y2="221.0653" gradientTransform="matrix(-1 0 0 1 1245 0)">
				<stop offset="0" style="stop-color:#F4A66C"/>
				<stop offset="1" style="stop-color:#D66C54"/>
			</linearGradient>
			<path d="M243.2,219.3c0,0,1,9.9-1.5,18.9c0,0,11.9,11.9,16.4,12.4c4.5,0.5,3-0.5,3-7.9c0-7.5,2.5-13.4,2.5-13.4&#10;&#9;&#9;&#9;&#9;S251.1,215.8,243.2,219.3z" id="el_eTNsiy6rtlC"/>
			<path d="M261.8,235.7c0,0-1.8,4-9.1,0.5c-7.3-3.5-8.8-14.2-10.5-25.2C240.4,200.1,261.8,235.7,261.8,235.7z" id="el_qIcnVSvEMn_"/>
			<path d="M243.4,221.3c0,0-5.3-17.5,0.4-24.9c5.7-7.4,26.7-6.1,27.6,9.6s-3.1,30.6-13.1,30.2&#10;&#9;&#9;&#9;&#9;C248.2,235.8,245.6,230.5,243.4,221.3z" id="el_dYZa2WMXoDR"/>
			<g id="el_x6k0WspGQTV">
				<path d="M243.4,221.3c0,0-4.2-24.4,8.2-24.9c12.4-0.5,17.5,2.2,18.7,4.6c0,0,13.6,2.4,8.7-15.5&#10;&#9;&#9;&#9;&#9;&#9;c0,0,1.5,8.4-15.9,1.5S223.7,196,243.4,221.3z" id="el_qcE19eANoTQ"/>
				<path d="M268.3,199.1c0,0-27.1-7.6-22.2,16.7c0,0-7-5-5-12.5C243.2,195.7,258.7,189.3,268.3,199.1z" id="el_5OSx9vOr1Xe"/>
			</g>
		</g>
		
			<linearGradient id="SVGID_13_" gradientUnits="userSpaceOnUse" x1="954.9119" y1="266.0555" x2="1104.6705" y2="266.0555" gradientTransform="matrix(-1 0 0 1 1245 0)">
			<stop offset="0.3622" style="stop-color:#FFFFFF"/>
			<stop offset="0.4016" style="stop-color:#F8FBFF"/>
			<stop offset="0.5235" style="stop-color:#E7F1FF"/>
			<stop offset="0.6146" style="stop-color:#E1EDFF"/>
		</linearGradient>
		<path d="M236.3,239.2c0,0-10.3,4.2-13.7,11.7c-3.3,7.1-1.5,27.3,4,41.1c0.4,1.1,1.8,1.4,2.6,0.6l15.5-14.4&#10;&#9;&#9;&#9;c0,0-1.3-8.4-0.3-15.9" id="el_NrkcKTTvWGR"/>
	</g></g>
</g>
<script>(function(){var a=document.querySelector('#el_M5cOpLHpJ'),b=a.querySelectorAll('style'),c=function(d){b.forEach(function(f){var g=f.textContent;g&amp;&amp;(f.textContent=g.replace(/transform-box:[^;\r\n]*/gi,'transform-box: '+d))})};c('initial'),window.requestAnimationFrame(function(){return c('fill-box')})})();</script></svg>