<svg viewBox="0 0 192 53.33" xmlns="http://www.w3.org/2000/svg"><path d="M0 0h192v53.33H0z" fill="none"/><path d="M45.77 28.62h-4.38l-1 5.8h-5L38 18.93h5l-1 5.55h4.38l1-5.55h5L49.8 34.42h-5zm9.6-9.71l-1.54 8.62a9.9 9.9 0 0 0-.19 1.94c0 4.57 4 5.26 6.39 5.26 5 0 7.2-1.67 8-6.18l1.69-9.66h-5L63.22 27c-.46 2.53-.79 3.86-2.67 3.86-1.23 0-1.82-.65-1.82-2a10.42 10.42 0 0 1 .27-1.94l1.46-8h-5zm43.73 0h6.45c3.71 0 5.82 1.75 5.82 4.8 0 4.34-2.44 6.72-6.83 6.72h-2.38l-.71 4h-5zm7.45 5.62c0-1-.6-1.57-1.71-1.57h-1.36l-.67 3.65h1.46a2 2 0 0 0 2.28-2.07zm21.62.69c0 6-3.28 9.52-8.77 9.52-4.38 0-7-2.5-7-6.64 0-6 3.28-9.52 8.77-9.52 4.4 0 7.01 2.48 7 6.65zm-5.38 1.61a8.6 8.6 0 0 0 .17-1.71c0-1.57-.77-2.51-2.07-2.51-2.05 0-2.71 1.86-3.09 3.9a8.6 8.6 0 0 0-.17 1.71c0 1.57.77 2.51 2.07 2.51 2.05.01 2.71-1.87 3.09-3.89zm22.94 7.58h5l2-11.35h3.8l.73-4.15h-12.87l-.73 4.15h4zm-8.37-9.77c-1.59-.5-2.25-.71-2.25-1.46 0-.5.33-1.09 1.29-1.09a1.61 1.61 0 0 1 1.54 1l4.45-1.21c-.52-2.19-2.4-3.3-5.64-3.3-6.1 0-6.58 4.09-6.58 5.34 0 2.53 1.34 4.09 4.26 4.9.77.21 1.65.44 1.65 1.29 0 .67-.5 1.09-1.36 1.09a2 2 0 0 1-1.92-1.27l-4.4 1.19c.48 2.3 2.65 3.61 6 3.61 2.59 0 6.93-.69 6.93-5.38.06-2.35-1.26-3.87-3.97-4.7zM32.5 34.42l2.73-15.49h-8.35v15.49zm127-15.49l-2.71 15.49h8.35V18.93zm-86.89 0l-2.73 15.49h5l.81-4.57H80l.69-3.9h-4.26l.48-2.88h5.93l.73-4.17zm13.25 0l-2.73 15.49h5l.87-4.57h4.26l.69-3.9h-4.28l.48-2.88h5.93l.73-4.17z" fill="#82939f"/></svg>