<?xml version="1.0" encoding="utf-8"?>
<!-- Generator: Adobe Illustrator 19.0.0, SVG Export Plug-In . SVG Version: 6.00 Build 0)  -->
<svg version="1.1" id="Layer_1" xmlns="http://www.w3.org/2000/svg" xmlns:xlink="http://www.w3.org/1999/xlink" x="0px" y="0px"
	 viewBox="0 0 130 100" style="enable-background:new 0 0 130 100;" xml:space="preserve">
<style type="text/css">
	.st0{fill:none;stroke:#2D4D61;stroke-linejoin:round;stroke-miterlimit:10;}
	.st1{fill:#FFFFFF;}
	.st2{fill:#2D4D61;}
	.st3{fill:none;stroke:#2D4D61;stroke-width:1.5;stroke-miterlimit:10;}
</style>
<g id="icon_5_">
	<g id="lines_4_">
		<line id="XMLID_30_" class="st0" x1="15" y1="50" x2="0" y2="50"/>
		<line id="XMLID_29_" class="st0" x1="130" y1="50" x2="115" y2="50"/>
	</g>
	<g id="XMLID_14_">
		<g id="XMLID_26_">
			<circle id="XMLID_13_" class="st1" cx="65" cy="50" r="50"/>
		</g>
		<g id="XMLID_15_">
			<g id="XMLID_22_">
				<path id="XMLID_23_" class="st2" d="M32.8,50.8c-0.4-0.8-0.4-1.8-0.1-2.7l7.7-20.9c0.3-0.9,1-1.6,1.8-2c0.9-0.4,1.8-0.4,2.7-0.1
					l51.1,18.9c0.9,0.3,1.6,1,2,1.8c0.4,0.9,0.4,1.8,0.1,2.7l-7.7,20.9c-0.3,0.9-1,1.6-1.8,2c-0.9,0.4-1.8,0.4-2.7,0.1L34.8,52.6
					C33.9,52.3,33.2,51.6,32.8,50.8z M96.7,46.4c-0.2-0.5-0.6-0.8-1.1-1L44.5,26.6c-0.5-0.2-1-0.2-1.5,0.1c-0.5,0.2-0.8,0.6-1,1.1
					l-7.7,20.9c-0.4,1,0.1,2.1,1.1,2.5L86.5,70c0.5,0.2,1,0.2,1.5-0.1c0.5-0.2,0.8-0.6,1-1.1l7.7-20.9
					C96.9,47.4,96.9,46.9,96.7,46.4z"/>
			</g>
			
				<ellipse id="XMLID_21_" transform="matrix(0.9381 0.3463 -0.3463 0.9381 20.6819 -19.6342)" class="st3" cx="65.3" cy="48.1" rx="9.8" ry="13"/>
			<g id="XMLID_16_">
				<path id="XMLID_17_" class="st2" d="M62.5,50.9c-0.3-0.2-0.4-0.5-0.6-0.8c-0.1-0.3-0.2-0.6-0.2-0.9c0-0.3,0.1-0.6,0.2-1l1.2,0.4
					c-0.1,0.5-0.1,0.8,0,1.1c0.1,0.3,0.4,0.5,0.7,0.7l0.9-2.4c-0.3-0.2-0.6-0.4-0.9-0.6c-0.2-0.2-0.4-0.4-0.6-0.7
					c-0.1-0.2-0.2-0.5-0.2-0.8c0-0.3,0-0.6,0.1-0.9c0-0.1,0-0.1,0.1-0.2c0-0.1,0.1-0.1,0.1-0.2c0.2-0.5,0.6-0.8,1.1-1
					c0.5-0.2,1.1-0.2,1.8,0l0.3-0.9l0.6,0.2L67,44c0.4,0.2,0.7,0.4,1,0.6c0.2,0.2,0.4,0.5,0.5,0.7c0.1,0.3,0.1,0.5,0.1,0.8
					s0,0.5-0.1,0.7l-1.2-0.3c0.1-0.4,0-0.8,0-1c-0.1-0.3-0.3-0.5-0.6-0.7l-0.9,2.3l0.2,0.1c0.7,0.4,1.1,0.8,1.3,1.3
					c0.2,0.5,0.2,1,0,1.7c-0.1,0.3-0.2,0.5-0.4,0.7c-0.2,0.2-0.4,0.4-0.7,0.5c-0.3,0.1-0.6,0.2-0.9,0.2c-0.3,0-0.7,0-1.1-0.2
					l-0.4,1.1l-0.6-0.2l0.4-1.1C63.1,51.3,62.8,51.1,62.5,50.9z M65,44.8c-0.2,0.1-0.4,0.3-0.5,0.5l-0.1,0.2c-0.1,0.3-0.1,0.6,0,0.8
					c0.1,0.2,0.3,0.5,0.7,0.7l0.8-2.2C65.6,44.6,65.3,44.6,65,44.8z M65.5,50.7c0.3-0.1,0.4-0.4,0.6-0.7c0-0.1,0.1-0.2,0.1-0.4
					c0-0.1,0-0.3-0.1-0.4c0-0.1-0.1-0.3-0.2-0.4c-0.1-0.1-0.3-0.3-0.5-0.4l-0.8,2.3C64.9,50.9,65.3,50.9,65.5,50.7z"/>
			</g>
		</g>
	</g>
	<g id="XMLID_2_">
		<g id="XMLID_10_">
			<ellipse id="XMLID_12_" class="st0" cx="39.5" cy="73.8" rx="6.5" ry="2"/>
			<path id="XMLID_11_" class="st0" d="M46,73.8v3c0,1.1-2.9,2-6.5,2s-6.5-0.9-6.5-2v-3"/>
		</g>
		<g id="XMLID_7_">
			<ellipse id="XMLID_9_" class="st0" cx="54.5" cy="78.8" rx="6.5" ry="2"/>
			<path id="XMLID_8_" class="st0" d="M61,78.8v3c0,1.1-2.9,2-6.5,2s-6.5-0.9-6.5-2v-3"/>
		</g>
		<g id="XMLID_3_">
			<ellipse id="XMLID_5_" class="st0" cx="55.5" cy="70.2" rx="4.6" ry="1.4"/>
			<path id="XMLID_4_" class="st0" d="M60.1,70.2v2.1c0,0.8-2.1,1.4-4.6,1.4c-2.6,0-4.6-0.6-4.6-1.4v-2.1"/>
		</g>
	</g>
</g>
</svg>
