<svg viewBox="0 0 166.4 128" xmlns="http://www.w3.org/2000/svg"><circle cx="83.2" cy="64" fill="#f0f2f3" r="64"/><g fill="none" stroke="#2c4c61" stroke-linejoin="round"><path d="m83.2 77.41-15.1 8.35 2.88-17.68-12.22-12.53 16.89-2.57 7.55-16.09 7.55 16.09 16.89 2.57-12.22 12.53 2.88 17.68z" stroke-width="2"/><path d="m49.26 82.05-6.71 3.71 1.28-7.86-5.43-5.56 7.5-1.15 3.36-7.15 3.36 7.15 7.5 1.15-5.43 5.56 1.28 7.86z" stroke-width="2"/><path d="m117.14 82.05-6.71 3.71 1.28-7.86-5.43-5.56 7.5-1.15 3.36-7.15 3.36 7.15 7.5 1.15-5.43 5.56 1.28 7.86z" stroke-width="2"/><path d="m19.2 64.64h-19.2"/><path d="m166.4 64.64h-19.2"/></g></svg>