<?xml version="1.0" encoding="utf-8"?>
<!-- Generator: Adobe Illustrator 19.0.0, SVG Export Plug-In . SVG Version: 6.00 Build 0)  -->
<svg version="1.1" id="Layer_1" xmlns="http://www.w3.org/2000/svg" xmlns:xlink="http://www.w3.org/1999/xlink" x="0px" y="0px"
	 viewBox="-280 372 50 50" style="enable-background:new -280 372 50 50;" xml:space="preserve">
<style type="text/css">
	.st0{display:none;}
	.st1{display:inline;}
	.st2{fill:#FFFFFF;}
	.st3{fill:#2D4D61;}
	.st4{display:inline;fill:#FFFFFF;}
	.st5{display:inline;fill:#2D4D61;}
	.st6{fill:none;stroke:#2D4D61;stroke-width:1.5;stroke-linecap:round;stroke-linejoin:round;stroke-miterlimit:10;}
</style>
<g id="cta_13_" class="st0">
	<g id="bg_30_" class="st1">
		<path id="XMLID_194_" class="st2" d="M-66,1163.5c-10.7,0-19.5-8.7-19.5-19.5s8.7-19.5,19.5-19.5h88c10.7,0,19.5,8.7,19.5,19.5
			s-8.7,19.5-19.5,19.5H-66z"/>
		<path id="XMLID_190_" class="st3" d="M22,1125c10.4,0,19,8.5,19,19s-8.5,19-19,19h-88c-10.4,0-19-8.5-19-19s8.5-19,19-19H22
			 M22,1124h-88c-11,0-20,9-20,20l0,0c0,11,8.9,20,20,20h88c11,0,20-9,20-20l0,0C42,1133,33.1,1124,22,1124L22,1124z"/>
	</g>
	<g class="st1">
		
			<text id="XMLID_118_" transform="matrix(1 0 0 1 -64.0596 1147.5659)" class="st3" style="font-family:'AktivGrotesk-Bold'; font-size:15px;">Learn more</text>
	</g>
</g>
<g id="cta_2_" class="st0">
	<g id="bg_8_" class="st1">
		<path id="XMLID_221_" class="st2" d="M-66,764c-10.7,0-19.5-8.7-19.5-19.5S-76.8,725-66,725h88c10.7,0,19.5,8.7,19.5,19.5
			S32.8,764,22,764H-66z"/>
		<path id="XMLID_129_" class="st3" d="M22,725.5c10.4,0,19,8.5,19,19s-8.5,19-19,19h-88c-10.4,0-19-8.5-19-19s8.5-19,19-19H22
			 M22,724.5h-88c-11,0-20,9-20,20l0,0c0,11,8.9,20,20,20h88c11,0,20-9,20-20l0,0C42,733.5,33.1,724.5,22,724.5L22,724.5z"/>
	</g>
	<g class="st1">
		
			<text id="XMLID_119_" transform="matrix(1 0 0 1 -64.0596 748.0659)" class="st3" style="font-family:'AktivGrotesk-Bold'; font-size:15px;">Learn more</text>
	</g>
</g>
<g id="XMLID_228_" class="st0">
	<path id="XMLID_253_" class="st4" d="M17.4,527.4l-1.8-6.9c0-0.2-0.1-0.3-0.2-0.4L4,508.7l-8.9-8.9l-11.7-11.7
		c-0.8-0.8-1.8-1.2-2.9-1.2s-2.1,0.4-2.9,1.2l-0.6,0.6c-1.6,1.6-1.6,4.1,0,5.7l11.7,11.7l8.9,8.9L9,526.4l0,0
		c0.1,0.1,0.2,0.2,0.4,0.2l6.9,1.8c0.1,0,0.1,0,0.2,0c0.2,0,0.5-0.1,0.6-0.3C17.4,528,17.5,527.7,17.4,527.4z"/>
	<path id="XMLID_252_" class="st4" d="M-17.7,530.2c-0.7,0-1.5-0.3-2-0.8l-5.8-5.8c-0.5-0.5-0.8-1.3-0.8-2c0-0.8,0.3-1.5,0.8-2
		l30.8-30.8c0.5-0.5,1.3-0.8,2-0.8c0.8,0,1.5,0.3,2,0.8l5.8,5.8c0.5,0.5,0.8,1.3,0.8,2c0,0.8-0.3,1.5-0.8,2l-30.8,30.8
		C-16.2,529.9-17,530.2-17.7,530.2z"/>
	<path id="XMLID_249_" class="st5" d="M-17.7,530.2c-0.7,0-1.5-0.3-2-0.8l-5.8-5.8c-0.5-0.5-0.8-1.3-0.8-2c0-0.8,0.3-1.5,0.8-2
		l30.8-30.8c0.5-0.5,1.3-0.8,2-0.8c0.8,0,1.5,0.3,2,0.8l5.8,5.8c0.5,0.5,0.8,1.3,0.8,2c0,0.8-0.3,1.5-0.8,2l-30.8,30.8
		C-16.2,529.9-17,530.2-17.7,530.2z M7.3,489.1c-0.4,0-0.8,0.2-1.1,0.4l-30.8,30.8c-0.3,0.3-0.4,0.7-0.4,1.1s0.2,0.8,0.4,1.1
		l5.8,5.8c0.6,0.6,1.6,0.6,2.2,0l30.8-30.8c0.3-0.3,0.4-0.7,0.4-1.1c0-0.4-0.2-0.8-0.4-1.1l-5.8-5.8C8.1,489.3,7.7,489.1,7.3,489.1z
		"/>
	<path id="XMLID_248_" class="st5" d="M-15.6,529c-0.2,0-0.3-0.1-0.5-0.2l-3.8-3.8c-0.3-0.3-0.3-0.7,0-0.9c0.3-0.3,0.7-0.3,0.9,0
		l3.8,3.8c0.3,0.3,0.3,0.7,0,0.9C-15.3,529-15.5,529-15.6,529z"/>
	<path id="XMLID_247_" class="st5" d="M-12.7,526.1c-0.2,0-0.3-0.1-0.5-0.2l-2-2c-0.3-0.3-0.3-0.7,0-0.9c0.3-0.3,0.7-0.3,0.9,0l2,2
		c0.3,0.3,0.3,0.7,0,0.9C-12.4,526-12.5,526.1-12.7,526.1z"/>
	<path id="XMLID_246_" class="st5" d="M-9.7,523.1c-0.2,0-0.3-0.1-0.5-0.2l-3.8-3.8c-0.3-0.3-0.3-0.7,0-0.9c0.3-0.3,0.7-0.3,0.9,0
		l3.8,3.8c0.3,0.3,0.3,0.7,0,0.9C-9.4,523.1-9.5,523.1-9.7,523.1z"/>
	<path id="XMLID_245_" class="st5" d="M-6.8,520.2c-0.2,0-0.3-0.1-0.5-0.2l-2-2c-0.3-0.3-0.3-0.7,0-0.9c0.3-0.3,0.7-0.3,0.9,0l2,2
		c0.3,0.3,0.3,0.7,0,0.9C-6.4,520.1-6.6,520.2-6.8,520.2z"/>
	<path id="XMLID_244_" class="st5" d="M-3.7,517.1c-0.2,0-0.3-0.1-0.5-0.2l-3.8-3.8c-0.3-0.3-0.3-0.7,0-0.9c0.3-0.3,0.7-0.3,0.9,0
		l3.8,3.8c0.3,0.3,0.3,0.7,0,0.9C-3.4,517-3.5,517.1-3.7,517.1z"/>
	<path id="XMLID_243_" class="st5" d="M-0.7,514.2c-0.2,0-0.3-0.1-0.5-0.2l-2-2c-0.3-0.3-0.3-0.7,0-0.9c0.3-0.3,0.7-0.3,0.9,0l2,2
		c0.3,0.3,0.3,0.7,0,0.9C-0.4,514.1-0.6,514.2-0.7,514.2z"/>
	<path id="XMLID_242_" class="st5" d="M2.6,510.8c-0.2,0-0.3-0.1-0.5-0.2l-3.8-3.8c-0.3-0.3-0.3-0.7,0-0.9c0.3-0.3,0.7-0.3,0.9,0
		l3.8,3.8c0.3,0.3,0.3,0.7,0,0.9C2.9,510.8,2.7,510.8,2.6,510.8z"/>
	<path id="XMLID_241_" class="st5" d="M14.2,499.2c-0.2,0-0.3-0.1-0.5-0.2l-3.8-3.8c-0.3-0.3-0.3-0.7,0-0.9c0.3-0.3,0.7-0.3,0.9,0
		l3.8,3.8c0.3,0.3,0.3,0.7,0,0.9C14.5,499.2,14.3,499.2,14.2,499.2z"/>
	<path id="XMLID_240_" class="st5" d="M5.5,507.9c-0.2,0-0.3-0.1-0.5-0.2l-2-2c-0.3-0.3-0.3-0.7,0-0.9c0.3-0.3,0.7-0.3,0.9,0l2,2
		c0.3,0.3,0.3,0.7,0,0.9C5.8,507.8,5.7,507.9,5.5,507.9z"/>
	<path id="XMLID_239_" class="st5" d="M8.6,504.8c-0.2,0-0.3-0.1-0.5-0.2l-3.8-3.8c-0.3-0.3-0.3-0.7,0-0.9c0.3-0.3,0.7-0.3,0.9,0
		l3.8,3.8c0.3,0.3,0.3,0.7,0,0.9C8.9,504.8,8.8,504.8,8.6,504.8z"/>
	<path id="XMLID_238_" class="st5" d="M11.5,501.9c-0.2,0-0.3-0.1-0.5-0.2l-2-2c-0.3-0.3-0.3-0.7,0-0.9c0.3-0.3,0.7-0.3,0.9,0l2,2
		c0.3,0.3,0.3,0.7,0,0.9C11.9,501.8,11.7,501.9,11.5,501.9z"/>
	<path id="XMLID_237_" class="st5" d="M9.1,526.4L-2.3,515c-0.3-0.3-0.3-0.7,0-0.9c0.3-0.3,0.7-0.3,0.9,0L9,524.5l4.5-4.5L3.1,509.6
		c-0.3-0.3-0.3-0.7,0-0.9c0.3-0.3,0.7-0.3,0.9,0l11.4,11.4L9.1,526.4z"/>
	<path id="XMLID_236_" class="st5" d="M-10.8,506.3c-0.2,0-0.3-0.1-0.5-0.2L-23,494.4c-1.6-1.6-1.6-4.1,0-5.7l0.6-0.6
		c0.8-0.8,1.8-1.2,2.9-1.2s2.1,0.4,2.9,1.2l11.7,11.7c0.3,0.3,0.3,0.7,0,0.9c-0.3,0.3-0.7,0.3-0.9,0L-17.5,489
		c-0.5-0.5-1.2-0.8-1.9-0.8c-0.7,0-1.4,0.3-1.9,0.8l-0.6,0.6c-0.5,0.5-0.8,1.2-0.8,1.9c0,0.7,0.3,1.4,0.8,1.9l11.7,11.7
		c0.3,0.3,0.3,0.7,0,0.9C-10.4,506.3-10.6,506.3-10.8,506.3z"/>
	<path id="XMLID_232_" class="st5" d="M16.6,528.5c-0.1,0-0.1,0-0.2,0l-6.9-1.8c-0.3-0.1-0.5-0.3-0.6-0.6c-0.1-0.3,0-0.6,0.2-0.8
		l5.1-5.1c0.2-0.2,0.5-0.3,0.8-0.2c0.3,0.1,0.5,0.3,0.6,0.6l1.8,6.9c0.1,0.3,0,0.6-0.2,0.8C17,528.4,16.8,528.5,16.6,528.5z
		 M16.1,527.7L16.1,527.7L16.1,527.7z M10.6,525.6L16,527l-1.4-5.4L10.6,525.6z"/>
	<path id="XMLID_231_" class="st5" d="M-20.6,496.5c-0.2,0-0.3-0.1-0.5-0.2c-0.3-0.3-0.3-0.7,0-0.9l5.4-5.4c0.3-0.3,0.7-0.3,0.9,0
		c0.3,0.3,0.3,0.7,0,0.9l-5.4,5.4C-20.3,496.4-20.4,496.5-20.6,496.5z"/>
	<path id="XMLID_230_" class="st5" d="M-16.9,500.1c-0.2,0-0.3-0.1-0.5-0.2c-0.3-0.3-0.3-0.7,0-0.9l5.4-5.4c0.3-0.3,0.7-0.3,0.9,0
		c0.3,0.3,0.3,0.7,0,0.9l-5.4,5.4C-16.6,500.1-16.8,500.1-16.9,500.1z"/>
	<path id="XMLID_229_" class="st5" d="M13.4,527l2.5-2.5l0.9,3.2c0,0,0.1,0.2-0.2,0.2S13.4,527,13.4,527z"/>
</g>
<g id="cta_4_" class="st0">
	<g id="bg_6_" class="st1">
		<path id="XMLID_97_" class="st2" d="M-476,764c-10.7,0-19.5-8.7-19.5-19.5s8.7-19.5,19.5-19.5h88.1c10.7,0,19.5,8.7,19.5,19.5
			S-377.2,764-388,764H-476z"/>
		<path id="XMLID_94_" class="st3" d="M-388,725.5c10.4,0,19,8.5,19,19s-8.5,19-19,19h-88c-10.4,0-19-8.5-19-19s8.5-19,19-19H-388
			 M-388,724.5h-88c-11,0-20,9-20,20l0,0c0,11,8.9,20,20,20h88.1c11,0,20-9,20-20l0,0C-368,733.5-376.9,724.5-388,724.5L-388,724.5z
			"/>
	</g>
	<text transform="matrix(1 0 0 1 -474.0596 748.0659)" class="st5" style="font-family:'AktivGrotesk-Bold'; font-size:15px;">Learn more</text>
</g>
<g id="cta_11_" class="st0">
	<g id="bg_26_" class="st1">
		<path id="XMLID_45_" class="st2" d="M344,1163.5c-10.7,0-19.5-8.7-19.5-19.5s8.7-19.5,19.5-19.5h88c10.7,0,19.5,8.7,19.5,19.5
			s-8.7,19.5-19.5,19.5H344z"/>
		<path id="XMLID_41_" class="st3" d="M432,1125c10.4,0,19,8.5,19,19s-8.5,19-19,19h-88c-10.4,0-19-8.5-19-19s8.5-19,19-19H432
			 M432,1124h-88c-11,0-20,9-20,20l0,0c0,11,8.9,20,20,20h88c11,0,20-9,20-20l0,0C452,1133,443.1,1124,432,1124L432,1124z"/>
	</g>
	<g class="st1">
		
			<text id="XMLID_120_" transform="matrix(1 0 0 1 345.9404 1147.5659)" class="st3" style="font-family:'AktivGrotesk-Bold'; font-size:15px;">Learn more</text>
	</g>
</g>
<g id="XMLID_286_" class="st0">
	<path id="XMLID_311_" class="st4" d="M103.5,608.9l-1.8-6.9c0-0.2-0.1-0.3-0.2-0.4l-11.4-11.4l-8.9-8.9l-11.7-11.7
		c-0.8-0.8-1.8-1.2-2.9-1.2s-2.1,0.4-2.9,1.2l-0.6,0.6c-1.6,1.6-1.6,4.1,0,5.7l11.7,11.7l8.9,8.9l11.4,11.4l0,0
		c0.1,0.1,0.2,0.2,0.4,0.2l6.9,1.8c0.1,0,0.1,0,0.2,0c0.2,0,0.5-0.1,0.6-0.3C103.5,609.5,103.6,609.2,103.5,608.9z"/>
	<path id="XMLID_310_" class="st4" d="M68.4,611.6c-0.7,0-1.5-0.3-2-0.8l-5.8-5.8c-0.5-0.5-0.8-1.3-0.8-2c0-0.8,0.3-1.5,0.8-2
		l30.8-30.8c0.5-0.5,1.3-0.8,2-0.8c0.8,0,1.5,0.3,2,0.8l5.8,5.8c0.5,0.5,0.8,1.3,0.8,2c0,0.8-0.3,1.5-0.8,2l-30.8,30.8
		C69.9,611.4,69.2,611.6,68.4,611.6z"/>
	<path id="XMLID_307_" class="st5" d="M68.4,611.6c-0.7,0-1.5-0.3-2-0.8l-5.8-5.8c-0.5-0.5-0.8-1.3-0.8-2c0-0.8,0.3-1.5,0.8-2
		l30.8-30.8c0.5-0.5,1.3-0.8,2-0.8c0.8,0,1.5,0.3,2,0.8l5.8,5.8c0.5,0.5,0.8,1.3,0.8,2c0,0.8-0.3,1.5-0.8,2l-30.8,30.8
		C69.9,611.4,69.2,611.6,68.4,611.6z M93.4,570.6c-0.4,0-0.8,0.2-1.1,0.4l-30.8,30.8c-0.3,0.3-0.4,0.7-0.4,1.1s0.2,0.8,0.4,1.1
		l5.8,5.8c0.6,0.6,1.6,0.6,2.2,0l30.8-30.8c0.3-0.3,0.4-0.7,0.4-1.1s-0.2-0.8-0.4-1.1l-5.8-5.8C94.2,570.8,93.8,570.6,93.4,570.6z"
		/>
	<path id="XMLID_306_" class="st5" d="M70.5,610.5c-0.2,0-0.3-0.1-0.5-0.2l-3.8-3.8c-0.3-0.3-0.3-0.7,0-0.9c0.3-0.3,0.7-0.3,0.9,0
		l3.8,3.8c0.3,0.3,0.3,0.7,0,0.9C70.8,610.4,70.7,610.5,70.5,610.5z"/>
	<path id="XMLID_305_" class="st5" d="M73.4,607.6c-0.2,0-0.3-0.1-0.5-0.2l-2-2c-0.3-0.3-0.3-0.7,0-0.9c0.3-0.3,0.7-0.3,0.9,0l2,2
		c0.3,0.3,0.3,0.7,0,0.9C73.8,607.5,73.6,607.6,73.4,607.6z"/>
	<path id="XMLID_304_" class="st5" d="M76.4,604.6c-0.2,0-0.3-0.1-0.5-0.2l-3.8-3.8c-0.3-0.3-0.3-0.7,0-0.9c0.3-0.3,0.7-0.3,0.9,0
		l3.8,3.8c0.3,0.3,0.3,0.7,0,0.9C76.7,604.5,76.6,604.6,76.4,604.6z"/>
	<path id="XMLID_303_" class="st5" d="M79.3,601.6c-0.2,0-0.3-0.1-0.5-0.2l-2-2c-0.3-0.3-0.3-0.7,0-0.9c0.3-0.3,0.7-0.3,0.9,0l2,2
		c0.3,0.3,0.3,0.7,0,0.9C79.7,601.6,79.5,601.6,79.3,601.6z"/>
	<path id="XMLID_302_" class="st5" d="M82.4,598.6c-0.2,0-0.3-0.1-0.5-0.2l-3.8-3.8c-0.3-0.3-0.3-0.7,0-0.9c0.3-0.3,0.7-0.3,0.9,0
		l3.8,3.8c0.3,0.3,0.3,0.7,0,0.9C82.8,598.5,82.6,598.6,82.4,598.6z"/>
	<path id="XMLID_301_" class="st5" d="M85.4,595.6c-0.2,0-0.3-0.1-0.5-0.2l-2-2c-0.3-0.3-0.3-0.7,0-0.9c0.3-0.3,0.7-0.3,0.9,0l2,2
		c0.3,0.3,0.3,0.7,0,0.9C85.7,595.5,85.5,595.6,85.4,595.6z"/>
	<path id="XMLID_300_" class="st5" d="M88.7,592.3c-0.2,0-0.3-0.1-0.5-0.2l-3.8-3.8c-0.3-0.3-0.3-0.7,0-0.9c0.3-0.3,0.7-0.3,0.9,0
		l3.8,3.8c0.3,0.3,0.3,0.7,0,0.9C89,592.2,88.8,592.3,88.7,592.3z"/>
	<path id="XMLID_299_" class="st5" d="M100.3,580.7c-0.2,0-0.3-0.1-0.5-0.2l-3.8-3.8c-0.3-0.3-0.3-0.7,0-0.9c0.3-0.3,0.7-0.3,0.9,0
		l3.8,3.8c0.3,0.3,0.3,0.7,0,0.9C100.6,580.6,100.5,580.7,100.3,580.7z"/>
	<path id="XMLID_298_" class="st5" d="M91.6,589.4c-0.2,0-0.3-0.1-0.5-0.2l-2-2c-0.3-0.3-0.3-0.7,0-0.9c0.3-0.3,0.7-0.3,0.9,0l2,2
		c0.3,0.3,0.3,0.7,0,0.9C92,589.3,91.8,589.4,91.6,589.4z"/>
	<path id="XMLID_297_" class="st5" d="M94.7,586.3c-0.2,0-0.3-0.1-0.5-0.2l-3.8-3.8c-0.3-0.3-0.3-0.7,0-0.9c0.3-0.3,0.7-0.3,0.9,0
		l3.8,3.8c0.3,0.3,0.3,0.7,0,0.9C95,586.2,94.9,586.3,94.7,586.3z"/>
	<path id="XMLID_296_" class="st5" d="M97.6,583.3c-0.2,0-0.3-0.1-0.5-0.2l-2-2c-0.3-0.3-0.3-0.7,0-0.9c0.3-0.3,0.7-0.3,0.9,0l2,2
		c0.3,0.3,0.3,0.7,0,0.9C98,583.3,97.8,583.3,97.6,583.3z"/>
	<path id="XMLID_295_" class="st5" d="M95.2,607.9l-11.4-11.4c-0.3-0.3-0.3-0.7,0-0.9c0.3-0.3,0.7-0.3,0.9,0L95.1,606l4.5-4.5
		l-10.4-10.4c-0.3-0.3-0.3-0.7,0-0.9c0.3-0.3,0.7-0.3,0.9,0l11.4,11.4L95.2,607.9z"/>
	<path id="XMLID_294_" class="st5" d="M75.3,587.8c-0.2,0-0.3-0.1-0.5-0.2l-11.7-11.7c-1.6-1.6-1.6-4.1,0-5.7l0.6-0.6
		c0.8-0.8,1.8-1.2,2.9-1.2s2.1,0.4,2.9,1.2l11.7,11.7c0.3,0.3,0.3,0.7,0,0.9c-0.3,0.3-0.7,0.3-0.9,0l-11.7-11.7
		c-0.5-0.5-1.2-0.8-1.9-0.8c-0.7,0-1.4,0.3-1.9,0.8l-0.6,0.6c-0.5,0.5-0.8,1.2-0.8,1.9s0.3,1.4,0.8,1.9l11.7,11.7
		c0.3,0.3,0.3,0.7,0,0.9C75.7,587.7,75.5,587.8,75.3,587.8z"/>
	<path id="XMLID_290_" class="st5" d="M102.7,610c-0.1,0-0.1,0-0.2,0l-6.9-1.8c-0.3-0.1-0.5-0.3-0.6-0.6c-0.1-0.3,0-0.6,0.2-0.8
		l5.1-5.1c0.2-0.2,0.5-0.3,0.8-0.2c0.3,0.1,0.5,0.3,0.6,0.6l1.8,6.9c0.1,0.3,0,0.6-0.2,0.8C103.2,609.9,102.9,610,102.7,610z
		 M102.3,609.2L102.3,609.2L102.3,609.2z M96.7,607l5.4,1.4l-1.4-5.4L96.7,607z"/>
	<path id="XMLID_289_" class="st5" d="M65.5,577.9c-0.2,0-0.3-0.1-0.5-0.2c-0.3-0.3-0.3-0.7,0-0.9l5.4-5.4c0.3-0.3,0.7-0.3,0.9,0
		c0.3,0.3,0.3,0.7,0,0.9l-5.4,5.4C65.8,577.9,65.7,577.9,65.5,577.9z"/>
	<path id="XMLID_288_" class="st5" d="M69.2,581.6c-0.2,0-0.3-0.1-0.5-0.2c-0.3-0.3-0.3-0.7,0-0.9l5.4-5.4c0.3-0.3,0.7-0.3,0.9,0
		c0.3,0.3,0.3,0.7,0,0.9l-5.4,5.4C69.5,581.5,69.3,581.6,69.2,581.6z"/>
	<path id="XMLID_287_" class="st5" d="M99.5,608.4l2.5-2.5l0.9,3.2c0,0,0.1,0.2-0.2,0.2S99.5,608.4,99.5,608.4z"/>
</g>
<g id="XMLID_260_">
	<g id="XMLID_280_">
		<path id="XMLID_114_" class="st3" d="M-239.3,390.8v11.8h-24v-11.8H-239.3 M-237.8,389.3h-27v14.8h27V389.3L-237.8,389.3z"/>
	</g>
	<line id="XMLID_271_" class="st6" x1="-261" y1="385.2" x2="-261" y2="389.3"/>
	<line id="XMLID_270_" class="st6" x1="-241.5" y1="385.2" x2="-241.5" y2="389.3"/>
	<g id="XMLID_261_">
		<g>
			<polygon class="st3" points="-235.4,380.2 -268.4,380.2 -268.4,381.7 -236.1,381.7 -235.4,382.5 -236.1,383.3 -268.4,383.3 
				-268.4,384.8 -235.4,384.8 -233.5,382.5 			"/>
			<polygon class="st3" points="-272.5,383.3 -274.9,383.3 -274.9,381.7 -272.5,381.7 -272.5,380.2 -276.4,380.2 -276.4,384.8 
				-272.5,384.8 			"/>
		</g>
		<path id="XMLID_103_" class="st3" d="M-269.1,379.1v35.7h-2.6v-35.7H-269.1 M-267.6,377.6h-5.6v38.7h5.6V377.6L-267.6,377.6z"/>
	</g>
</g>
</svg>
