<svg viewBox="0 0 166.4 128" xmlns="http://www.w3.org/2000/svg"><path d="m19.2 64h-19.2" fill="none" stroke="#2c4c61" stroke-linejoin="round"/><path d="m166.4 64h-19.2" fill="none" stroke="#2c4c61" stroke-linejoin="round"/><circle cx="83.2" cy="64" fill="#fff" r="64"/><g fill="#2c4c61"><path d="m40 39.42a6.11 6.11 0 1 1 2.14-11.82 8.14 8.14 0 0 1 15.2 1.89 4.21 4.21 0 0 1 .74-.07 4.27 4.27 0 0 1 4.26 3.58 3.15 3.15 0 0 1 -1.24 6zm0-10a3.86 3.86 0 1 0 0 7.73l21-.37a.91.91 0 0 0 .16-1.78 1.12 1.12 0 0 1 -1-1.19v-.13a2 2 0 0 0 -3.11-1.68 1.12 1.12 0 0 1 -1.72-.91 5.89 5.89 0 0 0 -11.5-1.58 1.12 1.12 0 0 1 -1.69.6 3.85 3.85 0 0 0 -2.14-.67z"/><path d="m102.52 30.46a6.11 6.11 0 1 1 2.14-11.82 8.14 8.14 0 0 1 15.2 1.89 4.21 4.21 0 0 1 .74-.07 4.27 4.27 0 0 1 4.21 3.54 3.15 3.15 0 0 1 -1.24 6zm0-10a3.86 3.86 0 1 0 0 7.73l21-.37a.91.91 0 0 0 .08-1.81 1.12 1.12 0 0 1 -1-1.19v-.13a2 2 0 0 0 -3.09-1.7 1.12 1.12 0 0 1 -1.72-.91 5.89 5.89 0 0 0 -11.5-1.58 1.12 1.12 0 0 1 -1.69.6 3.85 3.85 0 0 0 -2.1-.62z"/><path d="m51.53 93.13a1.12 1.12 0 0 1 -1.13-1.13l-.26-32.87a1.12 1.12 0 0 1 .31-.79l21.79-22.69a1.12 1.12 0 0 1 .8-.35 1.12 1.12 0 0 1 .8.34l21.81 22.24a1.12 1.12 0 0 1 .32.78l.26 32.87a1.12 1.12 0 0 1 -1.11 1.13l-43.58.47zm.87-33.54.25 31.29 41.35-.45-.25-31.29-20.69-21.14z"/><path d="m121.46 59.79h-26.54a1.12 1.12 0 1 1 0-2.25h23.86l-19.69-20h-26.09a1.12 1.12 0 0 1 0-2.25h26.56a1.12 1.12 0 0 1 .8.33l21.9 22.24a1.12 1.12 0 0 1 -.8 1.91z"/><path d="m95.1 92.95a1.12 1.12 0 0 1 0-2.25l25.42-.28-.25-31.29-21.47-21.92a1.12 1.12 0 0 1 1.6-1.57l21.79 22.24a1.12 1.12 0 0 1 .32.78l.26 32.87a1.12 1.12 0 0 1 -1.11 1.13l-26.54.29z"/><path d="m74.85 92.85h-9a1.12 1.12 0 0 1 -1.12-1.12v-14.6a1.12 1.12 0 0 1 1.13-1.13h9a1.12 1.12 0 0 1 1.14 1.13v14.6a1.12 1.12 0 0 1 -1.15 1.12zm-7.85-2.25h6.74v-12.35h-6.74z"/><path d="m83.83 69.83h-9a1.12 1.12 0 0 1 -1.12-1.12v-9a1.12 1.12 0 0 1 1.12-1.12h9a1.12 1.12 0 0 1 1.17 1.14v9a1.12 1.12 0 0 1 -1.17 1.1zm-7.83-2.24h6.74v-6.74h-6.74z"/><path d="m79.34 69.83a1.12 1.12 0 0 1 -1.12-1.12v-9a1.12 1.12 0 1 1 2.25 0v9a1.12 1.12 0 0 1 -1.13 1.12z"/><path d="m67 69.83h-9a1.12 1.12 0 0 1 -1.12-1.12v-9a1.12 1.12 0 0 1 1.12-1.11h9a1.12 1.12 0 0 1 1.12 1.12v9a1.12 1.12 0 0 1 -1.12 1.11zm-7.86-2.25h6.74v-6.73h-6.75z"/><path d="m62.5 69.83a1.12 1.12 0 0 1 -1.12-1.12v-9a1.12 1.12 0 1 1 2.25 0v9a1.12 1.12 0 0 1 -1.13 1.12z"/><circle cx="71.76" cy="85.27" r="1.12"/><path d="m117 71.74h-6.1a1.12 1.12 0 0 1 -1.12-1.12v-6.06a1.12 1.12 0 0 1 1.12-1.12h6.1a1.12 1.12 0 0 1 1.12 1.12v6.05a1.12 1.12 0 0 1 -1.12 1.13zm-5-2.25h3.81v-3.81h-3.81z"/><path d="m105.6 71.74h-6.05a1.12 1.12 0 0 1 -1.12-1.12v-6.06a1.12 1.12 0 0 1 1.12-1.12h6.05a1.12 1.12 0 0 1 1.12 1.12v6.05a1.12 1.12 0 0 1 -1.12 1.13zm-4.93-2.25h3.81v-3.81h-3.81z"/><path d="m131.2 91h-89.6a1.1 1.1 0 1 0 0 2.17h89.6a1.1 1.1 0 1 0 0-2.17z"/></g></svg>