<?xml version="1.0" encoding="utf-8"?>
<!-- Generator: Adobe Illustrator 19.0.0, SVG Export Plug-In . SVG Version: 6.00 Build 0)  -->
<svg version="1.1" id="Layer_1" xmlns="http://www.w3.org/2000/svg" xmlns:xlink="http://www.w3.org/1999/xlink" x="0px" y="0px"
	 viewBox="-240 347 130 100" style="enable-background:new -240 347 130 100;" xml:space="preserve">
<style type="text/css">
	.st0{fill:none;stroke:#2C4C61;stroke-linejoin:round;stroke-miterlimit:10;}
	.st1{fill:#FFFFFF;}
	.st2{fill:#2C4C61;}
</style>
<g id="icon_2_">
	<g id="lines_1_">
		<line class="st0" x1="-224.5" y1="397" x2="-239.5" y2="397"/>
		<line class="st0" x1="-109.5" y1="397" x2="-124.5" y2="397"/>
	</g>
	<g>
		<g>
			<circle class="st1" cx="-174.5" cy="397" r="50"/>
		</g>
	</g>
	<g>
		<g>
			<g>
				<g>
					<path class="st2" d="M-203.8,403.3L-203.8,403.3c0.5,1,1.1,1.9,1.8,2.5c0.8,0.7,1.6,1.1,2.4,1.4c1.7,0.5,3.4,0.1,4.8-0.9
						c-0.5-0.7-1.2-1.3-1.8-1.8c-0.7-0.5-1.5-0.9-2.2-1.2C-200.5,402.8-202.2,402.7-203.8,403.3z"/>
				</g>
				<g>
					<path class="st2" d="M-193.9,405.6c1.4-1.1,2.2-2.5,2.6-3.8c0.2-0.7,0.4-1.4,0.4-2c0-0.6,0-1.2-0.3-1.8
						c-1.6,0.7-2.8,1.7-3.3,3.2c-0.3,0.7-0.3,1.5-0.2,2.2C-194.8,404.2-194.4,404.9-193.9,405.6z"/>
				</g>
			</g>
			<g>
				<g>
					<path class="st2" d="M-206.1,394.8c0.2,1.1,0.5,2.1,1,2.9c0.5,0.8,1.2,1.5,1.9,2c1.5,1,3.2,1.1,4.8,0.5c-0.6-1.6-1.7-3-3-4
						C-202.7,395.3-204.4,394.7-206.1,394.8z"/>
				</g>
				<g>
					<path class="st2" d="M-197.2,399.8c1.6-0.6,2.8-1.8,3.6-2.9c0.4-0.6,0.7-1.2,0.9-1.8c0.2-0.6,0.3-1.2,0.2-1.8
						c-1.7,0.2-3.2,0.9-4.1,2.1C-197.5,396.6-197.8,398.2-197.2,399.8z"/>
				</g>
			</g>
			<g>
				<g>
					<path class="st2" d="M-205.8,386L-205.8,386c-0.1,0.5-0.1,1.1-0.1,1.6c0,0.5,0.1,1,0.2,1.5c0.3,1,0.7,1.8,1.2,2.5
						c1.2,1.3,2.8,2,4.5,1.8c0-0.9-0.3-1.7-0.6-2.5c-0.3-0.8-0.7-1.5-1.2-2.2C-202.8,387.4-204.2,386.3-205.8,386z"/>
				</g>
				<g>
					<path class="st2" d="M-198.7,393.2c1.7-0.2,3.2-0.9,4.3-1.8c0.6-0.5,1.1-0.9,1.4-1.5c0.2-0.3,0.3-0.5,0.4-0.8
						c0.1-0.3,0.2-0.6,0.2-0.9c-1.7-0.3-3.3,0-4.5,0.9c-0.6,0.5-1.1,1.1-1.4,1.8C-198.7,391.6-198.7,392.4-198.7,393.2z"/>
				</g>
			</g>
			<g>
				<g>
					<path class="st2" d="M-203.2,377.5L-203.2,377.5c-1,2-0.9,4.1-0.2,5.7c0.8,1.6,2.1,2.7,3.8,3c0.2-0.8,0.2-1.7,0.1-2.5
						c-0.1-0.8-0.3-1.6-0.6-2.4C-200.6,379.7-201.6,378.3-203.2,377.5z"/>
				</g>
				<g>
					<path class="st2" d="M-198.4,386.5c1.7,0.3,3.3,0,4.6-0.6c1.3-0.6,2.3-1.4,2.9-2.5c-1.5-0.8-3.2-0.9-4.6-0.4
						c-0.7,0.3-1.3,0.7-1.8,1.3C-197.9,384.9-198.2,385.7-198.4,386.5z"/>
				</g>
			</g>
			<g>
				<path class="st2" d="M-197.3,381.2c1.6-0.6,2.8-1.6,3.6-2.8c0.4-0.6,0.7-1.3,0.9-2c0.2-0.7,0.3-1.5,0.3-2.4
					c-0.8,0-1.7,0.3-2.4,0.7c-0.8,0.4-1.3,1-1.9,1.7C-197.7,377.8-198,379.6-197.3,381.2z"/>
			</g>
			<g>
				<g>
					<path class="st2" d="M-184.9,420.8L-184.9,420.8c0.5,0.2,1,0.3,1.6,0.4c0.5,0,1,0,1.5,0c0.5,0,1-0.1,1.4-0.3
						c0.4-0.2,0.9-0.4,1.2-0.6c0.7-0.5,1.3-1.1,1.8-1.8c0.4-0.7,0.7-1.5,0.7-2.4c-0.9,0-1.7,0-2.5,0.2c-0.8,0.2-1.6,0.4-2.3,0.9
						c-0.4,0.2-0.7,0.4-1.1,0.7c-0.3,0.2-0.6,0.5-0.9,0.8C-184.2,419.3-184.6,420-184.9,420.8z"/>
				</g>
				<g>
					<path class="st2" d="M-176.6,414.9c0.1-0.9-0.1-1.7-0.3-2.4c-0.2-0.8-0.5-1.5-0.9-2.1c-0.2-0.3-0.4-0.6-0.6-0.8
						c-0.2-0.3-0.4-0.5-0.7-0.7c-0.2-0.2-0.5-0.4-0.7-0.5c-0.3-0.1-0.5-0.3-0.8-0.4c-0.3,0.8-0.4,1.6-0.4,2.4c0,0.4,0.1,0.8,0.2,1.2
						c0.1,0.4,0.2,0.7,0.4,1c0.4,0.6,0.9,1.3,1.5,1.7C-178.2,414.5-177.5,414.9-176.6,414.9z"/>
				</g>
			</g>
			<g>
				<g>
					<path class="st2" d="M-192.7,416.9L-192.7,416.9c0.9,0.7,1.9,1,2.9,1.2c0.9,0.2,1.9,0.1,2.8-0.1c1.7-0.4,2.9-1.7,3.5-3.3
						c-1.6-0.6-3.3-0.7-5-0.3C-190.2,414.7-191.7,415.5-192.7,416.9z"/>
				</g>
				<g>
					<path class="st2" d="M-183.2,413.5c0.6-1.6,0.5-3.2,0.2-4.7c-0.2-0.7-0.4-1.3-0.8-1.9c-0.3-0.6-0.8-0.9-1.2-1.3
						c-1,1.4-1.4,3-1.1,4.5C-185.8,411.6-184.7,412.9-183.2,413.5z"/>
				</g>
			</g>
			<g>
				<g>
					<path class="st2" d="M-199.2,410.9L-199.2,410.9c0.7,0.8,1.6,1.5,2.4,1.9c0.9,0.4,1.8,0.6,2.7,0.7c0.9,0,1.7-0.2,2.4-0.5
						c0.7-0.4,1.4-0.9,1.9-1.6c-0.7-0.5-1.5-0.9-2.2-1.2c-0.4-0.1-0.8-0.2-1.2-0.3c-0.4-0.1-0.8-0.2-1.2-0.2
						C-196.2,409.5-197.9,409.9-199.2,410.9z"/>
				</g>
				<g>
					<path class="st2" d="M-189.1,410.3c0.5-0.7,0.9-1.4,1.1-2.2c0.2-0.7,0.3-1.5,0.4-2.2c0-0.7-0.1-1.4-0.2-2
						c-0.1-0.6-0.4-1.2-0.8-1.6c-1.3,1.1-2.2,2.5-2.3,4c0,0.4,0,0.8,0,1.1c0.1,0.4,0.2,0.7,0.4,1.1
						C-190.3,409.2-189.8,409.9-189.1,410.3z"/>
				</g>
			</g>
		</g>
		<g>
			<g>
				<g>
					<path class="st2" d="M-146.2,403.3L-146.2,403.3c-0.5,1-1.1,1.9-1.8,2.5c-0.8,0.7-1.6,1.1-2.4,1.4c-1.7,0.5-3.4,0.1-4.8-0.9
						c0.5-0.7,1.2-1.3,1.8-1.8c0.7-0.5,1.5-0.9,2.2-1.2C-149.5,402.8-147.8,402.7-146.2,403.3z"/>
				</g>
				<g>
					<path class="st2" d="M-156.1,405.6c-1.4-1.1-2.2-2.5-2.6-3.8c-0.2-0.7-0.4-1.4-0.4-2c0-0.6,0-1.2,0.3-1.8
						c1.6,0.7,2.8,1.7,3.3,3.2c0.3,0.7,0.3,1.5,0.2,2.2C-155.2,404.2-155.6,404.9-156.1,405.6z"/>
				</g>
			</g>
			<g>
				<g>
					<path class="st2" d="M-143.9,394.8c-0.2,1.1-0.5,2.1-1,2.9c-0.5,0.8-1.2,1.5-1.9,2c-1.5,1-3.2,1.1-4.8,0.5c0.6-1.6,1.7-3,3-4
						C-147.3,395.3-145.6,394.7-143.9,394.8z"/>
				</g>
				<g>
					<path class="st2" d="M-152.8,399.8c-1.6-0.6-2.8-1.8-3.6-2.9c-0.4-0.6-0.7-1.2-0.9-1.8c-0.2-0.6-0.3-1.2-0.2-1.8
						c1.7,0.2,3.2,0.9,4.1,2.1C-152.5,396.6-152.2,398.2-152.8,399.8z"/>
				</g>
			</g>
			<g>
				<g>
					<path class="st2" d="M-144.2,386L-144.2,386c0.1,0.5,0.1,1.1,0.1,1.6c0,0.5-0.1,1-0.2,1.5c-0.3,1-0.7,1.8-1.2,2.5
						c-1.2,1.3-2.8,2-4.5,1.8c0-0.9,0.3-1.7,0.6-2.5c0.3-0.8,0.7-1.5,1.2-2.2C-147.2,387.4-145.8,386.3-144.2,386z"/>
				</g>
				<g>
					<path class="st2" d="M-151.3,393.2c-1.7-0.2-3.2-0.9-4.3-1.8c-0.6-0.5-1.1-0.9-1.4-1.5c-0.2-0.3-0.3-0.5-0.4-0.8
						c-0.1-0.3-0.2-0.6-0.2-0.9c1.7-0.3,3.3,0,4.5,0.9c0.6,0.5,1.1,1.1,1.4,1.8C-151.3,391.6-151.3,392.4-151.3,393.2z"/>
				</g>
			</g>
			<g>
				<g>
					<path class="st2" d="M-146.8,377.5L-146.8,377.5c1,2,0.9,4.1,0.2,5.7c-0.8,1.6-2.1,2.7-3.8,3c-0.2-0.8-0.2-1.7-0.1-2.5
						c0.1-0.8,0.3-1.6,0.6-2.4C-149.4,379.7-148.4,378.3-146.8,377.5z"/>
				</g>
				<g>
					<path class="st2" d="M-151.6,386.5c-1.7,0.3-3.3,0-4.6-0.6c-1.3-0.6-2.3-1.4-2.9-2.5c1.5-0.8,3.2-0.9,4.6-0.4
						c0.7,0.3,1.3,0.7,1.8,1.3C-152.1,384.9-151.8,385.7-151.6,386.5z"/>
				</g>
			</g>
			<g>
				<path class="st2" d="M-152.7,381.2c-1.6-0.6-2.8-1.6-3.6-2.8c-0.4-0.6-0.7-1.3-0.9-2c-0.2-0.7-0.3-1.5-0.3-2.4
					c0.8,0,1.7,0.3,2.4,0.7c0.8,0.4,1.3,1,1.9,1.7C-152.3,377.8-152,379.6-152.7,381.2z"/>
			</g>
			<g>
				<g>
					<path class="st2" d="M-165.1,420.8L-165.1,420.8c-0.5,0.2-1,0.3-1.6,0.4c-0.5,0-1,0-1.5,0c-0.5,0-1-0.1-1.4-0.3
						c-0.4-0.2-0.9-0.4-1.2-0.6c-0.7-0.5-1.3-1.1-1.8-1.8c-0.4-0.7-0.7-1.5-0.7-2.4c0.9,0,1.7,0,2.5,0.2c0.8,0.2,1.6,0.4,2.3,0.9
						c0.4,0.2,0.7,0.4,1.1,0.7c0.3,0.2,0.6,0.5,0.9,0.8C-165.8,419.3-165.4,420-165.1,420.8z"/>
				</g>
				<g>
					<path class="st2" d="M-173.4,414.9c-0.1-0.9,0.1-1.7,0.3-2.4c0.2-0.8,0.5-1.5,0.9-2.1c0.2-0.3,0.4-0.6,0.6-0.8
						c0.2-0.3,0.4-0.5,0.7-0.7c0.2-0.2,0.5-0.4,0.7-0.5c0.3-0.1,0.5-0.3,0.8-0.4c0.3,0.8,0.4,1.6,0.4,2.4c0,0.4-0.1,0.8-0.2,1.2
						c-0.1,0.4-0.2,0.7-0.4,1c-0.4,0.6-0.9,1.3-1.5,1.7C-171.8,414.5-172.5,414.9-173.4,414.9z"/>
				</g>
			</g>
			<g>
				<g>
					<path class="st2" d="M-157.3,416.9L-157.3,416.9c-0.9,0.7-1.9,1-2.9,1.2c-0.9,0.2-1.9,0.1-2.8-0.1c-1.7-0.4-2.9-1.7-3.5-3.3
						c1.6-0.6,3.3-0.7,5-0.3C-159.8,414.7-158.3,415.5-157.3,416.9z"/>
				</g>
				<g>
					<path class="st2" d="M-166.8,413.5c-0.6-1.6-0.5-3.2-0.2-4.7c0.2-0.7,0.4-1.3,0.8-1.9c0.3-0.6,0.8-0.9,1.2-1.3
						c1,1.4,1.4,3,1.1,4.5C-164.2,411.6-165.3,412.9-166.8,413.5z"/>
				</g>
			</g>
			<g>
				<g>
					<path class="st2" d="M-150.8,410.9L-150.8,410.9c-0.7,0.8-1.6,1.5-2.4,1.9c-0.9,0.4-1.8,0.6-2.7,0.7c-0.9,0-1.7-0.2-2.4-0.5
						c-0.7-0.4-1.4-0.9-1.9-1.6c0.7-0.5,1.5-0.9,2.2-1.2c0.4-0.1,0.8-0.2,1.2-0.3c0.4-0.1,0.8-0.2,1.2-0.2
						C-153.8,409.5-152.1,409.9-150.8,410.9z"/>
				</g>
				<g>
					<path class="st2" d="M-160.9,410.3c-0.5-0.7-0.9-1.4-1.1-2.2c-0.2-0.7-0.3-1.5-0.4-2.2c0-0.7,0.1-1.4,0.2-2
						c0.1-0.6,0.4-1.2,0.8-1.6c1.3,1.1,2.2,2.5,2.3,4c0,0.4,0,0.8,0,1.1c-0.1,0.4-0.2,0.7-0.4,1.1
						C-159.7,409.2-160.2,409.9-160.9,410.3z"/>
				</g>
			</g>
		</g>
	</g>
</g>
</svg>
