<svg xmlns="http://www.w3.org/2000/svg" viewBox="0 0 166.4 128"><defs><style>.cls-1{fill:#fff;}.cls-2{fill:#3a4d60;}.cls-3{fill:none;stroke:#3a4d60;stroke-linejoin:round;}</style></defs><title>hand</title><g id="Layer_2" data-name="Layer 2"><g id="Layer_1-2" data-name="Layer 1"><g id="icon"><g id="icon-2" data-name="icon"><circle class="cls-1" cx="83.2" cy="64" r="64"/><path class="cls-2" d="M108.11,53.18a6.05,6.05,0,0,0-2.42-.68l.21-.41a6.1,6.1,0,0,0-2.57-8.22,6,6,0,0,0-2.62-.69,6.09,6.09,0,0,0-11-4.74,6,6,0,0,0-2-1.63,6.1,6.1,0,0,0-8.22,2.57L70,57.46l-2.9-3.94c-2-2.75-4.81-3.82-7.64-2.94a6.1,6.1,0,0,0-4,7.63l4.92,18.13A22,22,0,0,0,100.94,80l9.74-18.59A6.1,6.1,0,0,0,108.11,53.18ZM108,60,98.28,78.6a18.88,18.88,0,0,1-11.17,9.32,19.11,19.11,0,0,1-5.71.88,19,19,0,0,1-18.1-13.32l-5-18.26a3.09,3.09,0,0,1,2.07-3.77c1.55-.49,3.08.17,4.33,1.85L68.92,61,67.55,63.6a1.17,1.17,0,0,0,.5,1.59,1.18,1.18,0,0,0,1.59-.5l12.52-23.9a3.1,3.1,0,0,1,5.48,2.87l-9.41,18a1.18,1.18,0,0,0,2.08,1.09L92.07,40.3a3.1,3.1,0,0,1,5.49,2.87L85.8,65.6a1.18,1.18,0,0,0,.49,1.59,1.19,1.19,0,0,0,.9.08,1.18,1.18,0,0,0,.69-.58l9.88-18.87a3.1,3.1,0,1,1,5.48,2.87L93.37,69.56a1.16,1.16,0,0,0-.08.9,1.18,1.18,0,0,0,2.17.2l7.08-13.52A3.09,3.09,0,1,1,108,60Z"/></g><g id="lines"><line class="cls-3" x1="19.2" y1="64.64" y2="64.64"/><line class="cls-3" x1="166.4" y1="64.64" x2="147.2" y2="64.64"/></g></g></g></g></svg>