<svg xmlns="http://www.w3.org/2000/svg" viewBox="0 0 166.4 128"><defs><style>.cls-1{fill:#fff;}.cls-2,.cls-3,.cls-4{fill:none;stroke:#2c4c61;stroke-linejoin:round;}.cls-2,.cls-3{stroke-width:2px;}.cls-3{stroke-linecap:round;}</style></defs><title>heart</title><g id="Layer_2" data-name="Layer 2"><g id="_nav" data-name="*** nav"><g id="icon"><g id="icon-2" data-name="icon"><circle class="cls-1" cx="83.2" cy="64" r="64"/><path class="cls-2" d="M98.09,39.8a19.51,19.51,0,0,0-16.87,9.66A19.51,19.51,0,0,0,64.35,39.8c-3.51,0-6.81,2.05-9.65,4.82A17.68,17.68,0,0,0,54,69.38L78.84,94.63a3.84,3.84,0,0,0,5.76,0l24.16-25.27a17.73,17.73,0,0,0-.89-24.56C105,41.92,101.66,39.8,98.09,39.8Z"/><path class="cls-3" d="M57,54.4a7.68,7.68,0,0,1,7.68-7.68"/></g><g id="lines"><line class="cls-4" x1="19.2" y1="64.64" y2="64.64"/><line class="cls-4" x1="166.4" y1="64.64" x2="147.2" y2="64.64"/></g></g></g></g></svg>