<?xml version="1.0" encoding="utf-8"?>
<!-- Generator: Adobe Illustrator 19.0.0, SVG Export Plug-In . SVG Version: 6.00 Build 0)  -->
<svg version="1.1" id="Layer_1" xmlns="http://www.w3.org/2000/svg" xmlns:xlink="http://www.w3.org/1999/xlink" x="0px" y="0px"
	 viewBox="0 0 50 50" style="enable-background:new 0 0 50 50;" xml:space="preserve">
<style type="text/css">
	.st0{display:none;}
	.st1{display:inline;}
	.st2{fill:#FFFFFF;}
	.st3{fill:#2D4D61;}
	.st4{display:inline;fill:#FFFFFF;}
	.st5{display:inline;fill:#2D4D61;}
	.st6{fill:none;stroke:#2D4D61;stroke-width:1.5;stroke-linecap:round;stroke-linejoin:round;stroke-miterlimit:10;}
</style>
<g id="cta_13_" class="st0">
	<g id="bg_30_" class="st1">
		<path id="XMLID_194_" class="st2" d="M214,791.5c-10.7,0-19.5-8.7-19.5-19.5s8.7-19.5,19.5-19.5H302c10.7,0,19.5,8.7,19.5,19.5
			s-8.7,19.5-19.5,19.5H214z"/>
		<path id="XMLID_190_" class="st3" d="M302,753c10.4,0,19,8.5,19,19c0,10.5-8.5,19-19,19H214c-10.4,0-19-8.5-19-19s8.5-19,19-19
			H302 M302,752H214c-11,0-20,9-20,20v0c0,11,8.9,20,20,20H302c11,0,20-9,20-20v0C322,761,313.1,752,302,752L302,752z"/>
	</g>
	<g class="st1">
		
			<text id="XMLID_113_" transform="matrix(1 0 0 1 215.9404 775.5659)" class="st3" style="font-family:'AktivGrotesk-Bold'; font-size:15px;">Learn more</text>
	</g>
</g>
<g id="cta_2_" class="st0">
	<g id="bg_8_" class="st1">
		<path id="XMLID_221_" class="st2" d="M214,392c-10.7,0-19.5-8.7-19.5-19.5S203.2,353,214,353H302c10.7,0,19.5,8.7,19.5,19.5
			S312.8,392,302,392H214z"/>
		<path id="XMLID_129_" class="st3" d="M302,353.5c10.4,0,19,8.5,19,19s-8.5,19-19,19H214c-10.4,0-19-8.5-19-19c0-10.5,8.5-19,19-19
			H302 M302,352.5H214c-11,0-20,9-20,20v0c0,11,8.9,20,20,20H302c11,0,20-9,20-20v0C322,361.5,313.1,352.5,302,352.5L302,352.5z"/>
	</g>
	<g class="st1">
		
			<text id="XMLID_111_" transform="matrix(1 0 0 1 215.9404 376.0659)" class="st3" style="font-family:'AktivGrotesk-Bold'; font-size:15px;">Learn more</text>
	</g>
</g>
<g id="XMLID_228_" class="st0">
	<path id="XMLID_253_" class="st4" d="M297.4,155.4l-1.8-6.9c0-0.2-0.1-0.3-0.2-0.4L284,136.7l-8.9-8.9l-11.7-11.7
		c-0.8-0.8-1.8-1.2-2.9-1.2c-1.1,0-2.1,0.4-2.9,1.2l-0.6,0.6c-1.6,1.6-1.6,4.1,0,5.7l11.7,11.7l8.9,8.9l11.4,11.4l0,0
		c0.1,0.1,0.2,0.2,0.4,0.2l6.9,1.8c0.1,0,0.1,0,0.2,0c0.2,0,0.5-0.1,0.6-0.3C297.4,156,297.5,155.7,297.4,155.4z"/>
	<path id="XMLID_252_" class="st4" d="M262.3,158.2c-0.7,0-1.5-0.3-2-0.8l-5.8-5.8c-0.5-0.5-0.8-1.3-0.8-2c0-0.8,0.3-1.5,0.8-2
		l30.8-30.8c0.5-0.5,1.3-0.8,2-0.8c0.8,0,1.5,0.3,2,0.8l5.8,5.8c0.5,0.5,0.8,1.3,0.8,2c0,0.8-0.3,1.5-0.8,2l-30.8,30.8
		C263.8,157.9,263,158.2,262.3,158.2z"/>
	<path id="XMLID_249_" class="st5" d="M262.3,158.2c-0.7,0-1.5-0.3-2-0.8l-5.8-5.8c-0.5-0.5-0.8-1.3-0.8-2c0-0.8,0.3-1.5,0.8-2
		l30.8-30.8c0.5-0.5,1.3-0.8,2-0.8c0.8,0,1.5,0.3,2,0.8l5.8,5.8c0.5,0.5,0.8,1.3,0.8,2c0,0.8-0.3,1.5-0.8,2l-30.8,30.8
		C263.8,157.9,263,158.2,262.3,158.2z M287.3,117.1c-0.4,0-0.8,0.2-1.1,0.4l-30.8,30.8c-0.3,0.3-0.4,0.7-0.4,1.1s0.2,0.8,0.4,1.1
		l5.8,5.8c0.6,0.6,1.6,0.6,2.2,0l30.8-30.8c0.3-0.3,0.4-0.7,0.4-1.1c0-0.4-0.2-0.8-0.4-1.1l-5.8-5.8
		C288.1,117.3,287.7,117.1,287.3,117.1z"/>
	<path id="XMLID_248_" class="st5" d="M264.4,157c-0.2,0-0.3-0.1-0.5-0.2l-3.8-3.8c-0.3-0.3-0.3-0.7,0-0.9c0.3-0.3,0.7-0.3,0.9,0
		l3.8,3.8c0.3,0.3,0.3,0.7,0,0.9C264.7,157,264.5,157,264.4,157z"/>
	<path id="XMLID_247_" class="st5" d="M267.3,154.1c-0.2,0-0.3-0.1-0.5-0.2l-2-2c-0.3-0.3-0.3-0.7,0-0.9c0.3-0.3,0.7-0.3,0.9,0l2,2
		c0.3,0.3,0.3,0.7,0,0.9C267.6,154,267.5,154.1,267.3,154.1z"/>
	<path id="XMLID_246_" class="st5" d="M270.3,151.1c-0.2,0-0.3-0.1-0.5-0.2l-3.8-3.8c-0.3-0.3-0.3-0.7,0-0.9c0.3-0.3,0.7-0.3,0.9,0
		l3.8,3.8c0.3,0.3,0.3,0.7,0,0.9C270.6,151.1,270.5,151.1,270.3,151.1z"/>
	<path id="XMLID_245_" class="st5" d="M273.2,148.2c-0.2,0-0.3-0.1-0.5-0.2l-2-2c-0.3-0.3-0.3-0.7,0-0.9c0.3-0.3,0.7-0.3,0.9,0l2,2
		c0.3,0.3,0.3,0.7,0,0.9C273.6,148.1,273.4,148.2,273.2,148.2z"/>
	<path id="XMLID_244_" class="st5" d="M276.3,145.1c-0.2,0-0.3-0.1-0.5-0.2l-3.8-3.8c-0.3-0.3-0.3-0.7,0-0.9c0.3-0.3,0.7-0.3,0.9,0
		l3.8,3.8c0.3,0.3,0.3,0.7,0,0.9C276.6,145,276.5,145.1,276.3,145.1z"/>
	<path id="XMLID_243_" class="st5" d="M279.3,142.2c-0.2,0-0.3-0.1-0.5-0.2l-2-2c-0.3-0.3-0.3-0.7,0-0.9c0.3-0.3,0.7-0.3,0.9,0l2,2
		c0.3,0.3,0.3,0.7,0,0.9C279.6,142.1,279.4,142.2,279.3,142.2z"/>
	<path id="XMLID_242_" class="st5" d="M282.6,138.8c-0.2,0-0.3-0.1-0.5-0.2l-3.8-3.8c-0.3-0.3-0.3-0.7,0-0.9c0.3-0.3,0.7-0.3,0.9,0
		l3.8,3.8c0.3,0.3,0.3,0.7,0,0.9C282.9,138.8,282.7,138.8,282.6,138.8z"/>
	<path id="XMLID_241_" class="st5" d="M294.2,127.2c-0.2,0-0.3-0.1-0.5-0.2l-3.8-3.8c-0.3-0.3-0.3-0.7,0-0.9c0.3-0.3,0.7-0.3,0.9,0
		l3.8,3.8c0.3,0.3,0.3,0.7,0,0.9C294.5,127.2,294.3,127.2,294.2,127.2z"/>
	<path id="XMLID_240_" class="st5" d="M285.5,135.9c-0.2,0-0.3-0.1-0.5-0.2l-2-2c-0.3-0.3-0.3-0.7,0-0.9c0.3-0.3,0.7-0.3,0.9,0l2,2
		c0.3,0.3,0.3,0.7,0,0.9C285.8,135.8,285.7,135.9,285.5,135.9z"/>
	<path id="XMLID_239_" class="st5" d="M288.6,132.8c-0.2,0-0.3-0.1-0.5-0.2l-3.8-3.8c-0.3-0.3-0.3-0.7,0-0.9c0.3-0.3,0.7-0.3,0.9,0
		l3.8,3.8c0.3,0.3,0.3,0.7,0,0.9C288.9,132.8,288.8,132.8,288.6,132.8z"/>
	<path id="XMLID_238_" class="st5" d="M291.5,129.9c-0.2,0-0.3-0.1-0.5-0.2l-2-2c-0.3-0.3-0.3-0.7,0-0.9c0.3-0.3,0.7-0.3,0.9,0l2,2
		c0.3,0.3,0.3,0.7,0,0.9C291.9,129.8,291.7,129.9,291.5,129.9z"/>
	<path id="XMLID_237_" class="st5" d="M289.1,154.4l-11.4-11.4c-0.3-0.3-0.3-0.7,0-0.9c0.3-0.3,0.7-0.3,0.9,0l10.4,10.4l4.5-4.5
		l-10.4-10.4c-0.3-0.3-0.3-0.7,0-0.9c0.3-0.3,0.7-0.3,0.9,0l11.4,11.4L289.1,154.4z"/>
	<path id="XMLID_236_" class="st5" d="M269.2,134.3c-0.2,0-0.3-0.1-0.5-0.2l-11.7-11.7c-1.6-1.6-1.6-4.1,0-5.7l0.6-0.6
		c0.8-0.8,1.8-1.2,2.9-1.2c1.1,0,2.1,0.4,2.9,1.2l11.7,11.7c0.3,0.3,0.3,0.7,0,0.9c-0.3,0.3-0.7,0.3-0.9,0l-11.7-11.7
		c-0.5-0.5-1.2-0.8-1.9-0.8c-0.7,0-1.4,0.3-1.9,0.8l-0.6,0.6c-0.5,0.5-0.8,1.2-0.8,1.9s0.3,1.4,0.8,1.9l11.7,11.7
		c0.3,0.3,0.3,0.7,0,0.9C269.6,134.3,269.4,134.3,269.2,134.3z"/>
	<path id="XMLID_232_" class="st5" d="M296.6,156.5c-0.1,0-0.1,0-0.2,0l-6.9-1.8c-0.3-0.1-0.5-0.3-0.6-0.6c-0.1-0.3,0-0.6,0.2-0.8
		l5.1-5.1c0.2-0.2,0.5-0.3,0.8-0.2c0.3,0.1,0.5,0.3,0.6,0.6l1.8,6.9c0.1,0.3,0,0.6-0.2,0.8C297,156.4,296.8,156.5,296.6,156.5z
		 M296.1,155.7L296.1,155.7L296.1,155.7z M290.6,153.6l5.4,1.4l-1.4-5.4L290.6,153.6z"/>
	<path id="XMLID_231_" class="st5" d="M259.4,124.5c-0.2,0-0.3-0.1-0.5-0.2c-0.3-0.3-0.3-0.7,0-0.9l5.4-5.4c0.3-0.3,0.7-0.3,0.9,0
		c0.3,0.3,0.3,0.7,0,0.9l-5.4,5.4C259.7,124.4,259.6,124.5,259.4,124.5z"/>
	<path id="XMLID_230_" class="st5" d="M263.1,128.1c-0.2,0-0.3-0.1-0.5-0.2c-0.3-0.3-0.3-0.7,0-0.9l5.4-5.4c0.3-0.3,0.7-0.3,0.9,0
		c0.3,0.3,0.3,0.7,0,0.9l-5.4,5.4C263.4,128.1,263.2,128.1,263.1,128.1z"/>
	<path id="XMLID_229_" class="st5" d="M293.4,155l2.5-2.5l0.9,3.2c0,0,0.1,0.2-0.2,0.2S293.4,155,293.4,155z"/>
</g>
<g id="cta_4_" class="st0">
	<g id="bg_6_" class="st1">
		<path id="XMLID_97_" class="st2" d="M-196,392c-10.7,0-19.5-8.7-19.5-19.5s8.7-19.5,19.5-19.5h88.1c10.7,0,19.5,8.7,19.5,19.5
			S-97.2,392-108,392H-196z"/>
		<path id="XMLID_94_" class="st3" d="M-108,353.5c10.4,0,19,8.5,19,19s-8.5,19-19,19H-196c-10.4,0-19-8.5-19-19
			c0-10.5,8.5-19,19-19H-108 M-108,352.5H-196c-11,0-20,9-20,20v0c0,11,8.9,20,20,20h88.1c11,0,20-9,20-20v0
			C-88,361.5-96.9,352.5-108,352.5L-108,352.5z"/>
	</g>
	<text transform="matrix(1 0 0 1 -194.0596 376.0659)" class="st5" style="font-family:'AktivGrotesk-Bold'; font-size:15px;">Learn more</text>
</g>
<g id="cta_11_" class="st0">
	<g id="bg_26_" class="st1">
		<path id="XMLID_45_" class="st2" d="M624,791.5c-10.7,0-19.5-8.7-19.5-19.5s8.7-19.5,19.5-19.5H712c10.7,0,19.5,8.7,19.5,19.5
			s-8.7,19.5-19.5,19.5H624z"/>
		<path id="XMLID_41_" class="st3" d="M712,753c10.4,0,19,8.5,19,19c0,10.5-8.5,19-19,19H624c-10.4,0-19-8.5-19-19s8.5-19,19-19H712
			 M712,752H624c-11,0-20,9-20,20v0c0,11,8.9,20,20,20H712c11,0,20-9,20-20v0C732,761,723.1,752,712,752L712,752z"/>
	</g>
	<g class="st1">
		
			<text id="XMLID_108_" transform="matrix(1 0 0 1 625.9404 775.5659)" class="st3" style="font-family:'AktivGrotesk-Bold'; font-size:15px;">Learn more</text>
	</g>
</g>
<g id="XMLID_286_" class="st0">
	<path id="XMLID_311_" class="st4" d="M383.5,236.9l-1.8-6.9c0-0.2-0.1-0.3-0.2-0.4l-11.4-11.4l-8.9-8.9l-11.7-11.7
		c-0.8-0.8-1.8-1.2-2.9-1.2c-1.1,0-2.1,0.4-2.9,1.2l-0.6,0.6c-1.6,1.6-1.6,4.1,0,5.7l11.7,11.7l8.9,8.9l11.4,11.4l0,0
		c0.1,0.1,0.2,0.2,0.4,0.2l6.9,1.8c0.1,0,0.1,0,0.2,0c0.2,0,0.5-0.1,0.6-0.3C383.5,237.5,383.6,237.2,383.5,236.9z"/>
	<path id="XMLID_310_" class="st4" d="M348.4,239.6c-0.7,0-1.5-0.3-2-0.8l-5.8-5.8c-0.5-0.5-0.8-1.3-0.8-2c0-0.8,0.3-1.5,0.8-2
		l30.8-30.8c0.5-0.5,1.3-0.8,2-0.8c0.8,0,1.5,0.3,2,0.8l5.8,5.8c0.5,0.5,0.8,1.3,0.8,2c0,0.8-0.3,1.5-0.8,2l-30.8,30.8
		C349.9,239.4,349.2,239.6,348.4,239.6z"/>
	<path id="XMLID_307_" class="st5" d="M348.4,239.6c-0.7,0-1.5-0.3-2-0.8l-5.8-5.8c-0.5-0.5-0.8-1.3-0.8-2c0-0.8,0.3-1.5,0.8-2
		l30.8-30.8c0.5-0.5,1.3-0.8,2-0.8c0.8,0,1.5,0.3,2,0.8l5.8,5.8c0.5,0.5,0.8,1.3,0.8,2c0,0.8-0.3,1.5-0.8,2l-30.8,30.8
		C349.9,239.4,349.2,239.6,348.4,239.6z M373.4,198.6c-0.4,0-0.8,0.2-1.1,0.4l-30.8,30.8c-0.3,0.3-0.4,0.7-0.4,1.1s0.2,0.8,0.4,1.1
		l5.8,5.8c0.6,0.6,1.6,0.6,2.2,0l30.8-30.8c0.3-0.3,0.4-0.7,0.4-1.1s-0.2-0.8-0.4-1.1l-5.8-5.8C374.2,198.8,373.8,198.6,373.4,198.6
		z"/>
	<path id="XMLID_306_" class="st5" d="M350.5,238.5c-0.2,0-0.3-0.1-0.5-0.2l-3.8-3.8c-0.3-0.3-0.3-0.7,0-0.9c0.3-0.3,0.7-0.3,0.9,0
		l3.8,3.8c0.3,0.3,0.3,0.7,0,0.9C350.8,238.4,350.7,238.5,350.5,238.5z"/>
	<path id="XMLID_305_" class="st5" d="M353.4,235.6c-0.2,0-0.3-0.1-0.5-0.2l-2-2c-0.3-0.3-0.3-0.7,0-0.9c0.3-0.3,0.7-0.3,0.9,0l2,2
		c0.3,0.3,0.3,0.7,0,0.9C353.8,235.5,353.6,235.6,353.4,235.6z"/>
	<path id="XMLID_304_" class="st5" d="M356.4,232.6c-0.2,0-0.3-0.1-0.5-0.2l-3.8-3.8c-0.3-0.3-0.3-0.7,0-0.9c0.3-0.3,0.7-0.3,0.9,0
		l3.8,3.8c0.3,0.3,0.3,0.7,0,0.9C356.7,232.5,356.6,232.6,356.4,232.6z"/>
	<path id="XMLID_303_" class="st5" d="M359.3,229.6c-0.2,0-0.3-0.1-0.5-0.2l-2-2c-0.3-0.3-0.3-0.7,0-0.9c0.3-0.3,0.7-0.3,0.9,0l2,2
		c0.3,0.3,0.3,0.7,0,0.9C359.7,229.6,359.5,229.6,359.3,229.6z"/>
	<path id="XMLID_302_" class="st5" d="M362.4,226.6c-0.2,0-0.3-0.1-0.5-0.2l-3.8-3.8c-0.3-0.3-0.3-0.7,0-0.9c0.3-0.3,0.7-0.3,0.9,0
		l3.8,3.8c0.3,0.3,0.3,0.7,0,0.9C362.8,226.5,362.6,226.6,362.4,226.6z"/>
	<path id="XMLID_301_" class="st5" d="M365.4,223.6c-0.2,0-0.3-0.1-0.5-0.2l-2-2c-0.3-0.3-0.3-0.7,0-0.9c0.3-0.3,0.7-0.3,0.9,0l2,2
		c0.3,0.3,0.3,0.7,0,0.9C365.7,223.5,365.5,223.6,365.4,223.6z"/>
	<path id="XMLID_300_" class="st5" d="M368.7,220.3c-0.2,0-0.3-0.1-0.5-0.2l-3.8-3.8c-0.3-0.3-0.3-0.7,0-0.9c0.3-0.3,0.7-0.3,0.9,0
		l3.8,3.8c0.3,0.3,0.3,0.7,0,0.9C369,220.2,368.8,220.3,368.7,220.3z"/>
	<path id="XMLID_299_" class="st5" d="M380.3,208.7c-0.2,0-0.3-0.1-0.5-0.2l-3.8-3.8c-0.3-0.3-0.3-0.7,0-0.9c0.3-0.3,0.7-0.3,0.9,0
		l3.8,3.8c0.3,0.3,0.3,0.7,0,0.9C380.6,208.6,380.5,208.7,380.3,208.7z"/>
	<path id="XMLID_298_" class="st5" d="M371.6,217.4c-0.2,0-0.3-0.1-0.5-0.2l-2-2c-0.3-0.3-0.3-0.7,0-0.9c0.3-0.3,0.7-0.3,0.9,0l2,2
		c0.3,0.3,0.3,0.7,0,0.9C372,217.3,371.8,217.4,371.6,217.4z"/>
	<path id="XMLID_297_" class="st5" d="M374.7,214.3c-0.2,0-0.3-0.1-0.5-0.2l-3.8-3.8c-0.3-0.3-0.3-0.7,0-0.9c0.3-0.3,0.7-0.3,0.9,0
		l3.8,3.8c0.3,0.3,0.3,0.7,0,0.9C375,214.2,374.9,214.3,374.7,214.3z"/>
	<path id="XMLID_296_" class="st5" d="M377.6,211.3c-0.2,0-0.3-0.1-0.5-0.2l-2-2c-0.3-0.3-0.3-0.7,0-0.9c0.3-0.3,0.7-0.3,0.9,0l2,2
		c0.3,0.3,0.3,0.7,0,0.9C378,211.3,377.8,211.3,377.6,211.3z"/>
	<path id="XMLID_295_" class="st5" d="M375.2,235.9l-11.4-11.4c-0.3-0.3-0.3-0.7,0-0.9c0.3-0.3,0.7-0.3,0.9,0l10.4,10.4l4.5-4.5
		l-10.4-10.4c-0.3-0.3-0.3-0.7,0-0.9c0.3-0.3,0.7-0.3,0.9,0l11.4,11.4L375.2,235.9z"/>
	<path id="XMLID_294_" class="st5" d="M355.3,215.8c-0.2,0-0.3-0.1-0.5-0.2l-11.7-11.7c-1.6-1.6-1.6-4.1,0-5.7l0.6-0.6
		c0.8-0.8,1.8-1.2,2.9-1.2c1.1,0,2.1,0.4,2.9,1.2l11.7,11.7c0.3,0.3,0.3,0.7,0,0.9c-0.3,0.3-0.7,0.3-0.9,0l-11.7-11.7
		c-0.5-0.5-1.2-0.8-1.9-0.8c-0.7,0-1.4,0.3-1.9,0.8l-0.6,0.6c-0.5,0.5-0.8,1.2-0.8,1.9s0.3,1.4,0.8,1.9l11.7,11.7
		c0.3,0.3,0.3,0.7,0,0.9C355.7,215.7,355.5,215.8,355.3,215.8z"/>
	<path id="XMLID_290_" class="st5" d="M382.7,238c-0.1,0-0.1,0-0.2,0l-6.9-1.8c-0.3-0.1-0.5-0.3-0.6-0.6c-0.1-0.3,0-0.6,0.2-0.8
		l5.1-5.1c0.2-0.2,0.5-0.3,0.8-0.2c0.3,0.1,0.5,0.3,0.6,0.6l1.8,6.9c0.1,0.3,0,0.6-0.2,0.8C383.2,237.9,382.9,238,382.7,238z
		 M382.3,237.2L382.3,237.2L382.3,237.2z M376.7,235l5.4,1.4l-1.4-5.4L376.7,235z"/>
	<path id="XMLID_289_" class="st5" d="M345.5,205.9c-0.2,0-0.3-0.1-0.5-0.2c-0.3-0.3-0.3-0.7,0-0.9l5.4-5.4c0.3-0.3,0.7-0.3,0.9,0
		c0.3,0.3,0.3,0.7,0,0.9l-5.4,5.4C345.8,205.9,345.7,205.9,345.5,205.9z"/>
	<path id="XMLID_288_" class="st5" d="M349.2,209.6c-0.2,0-0.3-0.1-0.5-0.2c-0.3-0.3-0.3-0.7,0-0.9l5.4-5.4c0.3-0.3,0.7-0.3,0.9,0
		c0.3,0.3,0.3,0.7,0,0.9l-5.4,5.4C349.5,209.5,349.3,209.6,349.2,209.6z"/>
	<path id="XMLID_287_" class="st5" d="M379.5,236.4l2.5-2.5l0.9,3.2c0,0,0.1,0.2-0.2,0.2S379.5,236.4,379.5,236.4z"/>
</g>
<g id="icon_37_">
	<g id="XMLID_2_">
		<circle id="XMLID_7_" class="st6" cx="25" cy="25" r="20"/>
		<path id="XMLID_6_" class="st6" d="M26,22.7c0,1.8-1.5,3.3-3.3,3.3s-3.3-1.5-3.3-3.3c0-2.7,0-4.4,0-4.4"/>
		<path id="XMLID_5_" class="st6" d="M30.8,30.3c0,3.4-2.8,5.4-6.2,5.4s-6.2-2-6.2-5.4"/>
		<path id="XMLID_4_" class="st6" d="M13.9,18.4c0-1.5,1.2-2.8,2.8-2.8c1.5,0,2.8,1.2,2.8,2.8"/>
		<path id="XMLID_3_" class="st6" d="M30.4,18.4c0-1.5,1.2-2.8,2.8-2.8c1.5,0,2.8,1.2,2.8,2.8"/>
	</g>
</g>
</svg>
