<?xml version="1.0" encoding="utf-8"?>
<!-- Generator: Adobe Illustrator 19.0.0, SVG Export Plug-In . SVG Version: 6.00 Build 0)  -->
<svg version="1.1" id="Layer_1" xmlns="http://www.w3.org/2000/svg" xmlns:xlink="http://www.w3.org/1999/xlink" x="0px" y="0px"
	 viewBox="0 0 298.5 429.5" style="enable-background:new 0 0 298.5 429.5;" xml:space="preserve">
<style type="text/css">
	.st0{fill:#F1F2F3;}
	.st1{fill-rule:evenodd;clip-rule:evenodd;fill:url(#XMLID_78_);}
	.st2{fill-rule:evenodd;clip-rule:evenodd;fill:#EFA998;}
	.st3{fill-rule:evenodd;clip-rule:evenodd;fill:url(#XMLID_79_);}
	.st4{fill-rule:evenodd;clip-rule:evenodd;fill:url(#XMLID_80_);}
	.st5{opacity:0.3;fill-rule:evenodd;clip-rule:evenodd;fill:#D88F81;}
	.st6{fill:url(#XMLID_81_);}
	.st7{fill:url(#XMLID_82_);}
	.st8{fill:#EFA998;}
	.st9{fill:#4B4D58;}
	.st10{fill-rule:evenodd;clip-rule:evenodd;fill:#2D4D61;}
	.st11{fill-rule:evenodd;clip-rule:evenodd;fill:#784B2A;}
	.st12{opacity:0.4;fill-rule:evenodd;clip-rule:evenodd;fill:#2D4D61;}
	.st13{fill-rule:evenodd;clip-rule:evenodd;fill:url(#XMLID_83_);}
	.st14{opacity:0.3;fill-rule:evenodd;clip-rule:evenodd;fill:#00B491;}
	.st15{fill-rule:evenodd;clip-rule:evenodd;fill:#00B491;}
	.st16{fill-rule:evenodd;clip-rule:evenodd;fill:url(#XMLID_84_);}
	.st17{fill-rule:evenodd;clip-rule:evenodd;fill:#7C2F18;}
	.st18{fill-rule:evenodd;clip-rule:evenodd;fill:url(#XMLID_85_);}
	.st19{fill-rule:evenodd;clip-rule:evenodd;fill:url(#XMLID_86_);}
	.st20{opacity:0.3;fill:#D88F81;}
	.st21{fill-rule:evenodd;clip-rule:evenodd;fill:url(#XMLID_87_);}
	.st22{fill-rule:evenodd;clip-rule:evenodd;fill:url(#XMLID_88_);}
	.st23{fill:#C0C8CE;}
	.st24{opacity:0.3;}
	.st25{fill-rule:evenodd;clip-rule:evenodd;fill:url(#XMLID_89_);}
	.st26{fill-rule:evenodd;clip-rule:evenodd;fill:url(#XMLID_90_);}
	.st27{fill-rule:evenodd;clip-rule:evenodd;fill:url(#XMLID_91_);}
	.st28{fill-rule:evenodd;clip-rule:evenodd;fill:url(#XMLID_92_);}
	.st29{fill-rule:evenodd;clip-rule:evenodd;fill:url(#XMLID_93_);}
	.st30{fill-rule:evenodd;clip-rule:evenodd;fill:url(#XMLID_94_);}
	.st31{fill-rule:evenodd;clip-rule:evenodd;fill:url(#XMLID_95_);}
	.st32{fill:#FFFFFF;}
</style>
<g id="couple_hooray">
	<ellipse id="shadow_12_" class="st0" cx="149.3" cy="415.8" rx="149.3" ry="13.7"/>
	<g id="boy_6_">
		<g id="XMLID_49_">
			<linearGradient id="XMLID_78_" gradientUnits="userSpaceOnUse" x1="123.6385" y1="74.05" x2="205.7946" y2="74.05">
				<stop  offset="0" style="stop-color:#EFA998"/>
				<stop  offset="0.3699" style="stop-color:#EAA393"/>
				<stop  offset="0.8646" style="stop-color:#DD9485"/>
				<stop  offset="1" style="stop-color:#D88F81"/>
			</linearGradient>
			<path id="XMLID_51_" class="st1" d="M204.9,85.1l-11-47.2l0.1,0l-1.4-14.3c0,0-2.2-11.1-5.4-12.4c-3.5-1.4-12.5,1.6-14.2,5
				c-0.8,1.5,2.8,7.4,2.8,7.4c-1-0.5-3.3-6.3-5.4-4.2c-1.3,1.3,1.2,5.5,1.2,5.5c1,1.4,2.3,3.2,3.6,4.9l0,0.1l7.5,10.6l3.6,45.6
				c-12.3,4.7-23.2,5.9-34.5,7.7c-5.4,0.8-6.5-0.5-10.1,0.7c-7.9,2.6-11.5,7.6-18.1,3.1l5.9,39.7c20.8-19.4,55.3-29.5,66.8-35.1
				C205.1,97.8,207.3,93.3,204.9,85.1z"/>
			<path id="XMLID_50_" class="st2" d="M189.3,17.4c0,0-0.7-5.5-2.2-6.2c-3.4-1.6-12.7,1.5-14.2,5c-0.6,1.4,2.7,5.5,2.7,5.5
				C177.6,23.8,188.3,20.1,189.3,17.4z"/>
		</g>
		<g id="XMLID_46_">
			
				<linearGradient id="XMLID_79_" gradientUnits="userSpaceOnUse" x1="1724.4885" y1="166.7815" x2="1806.6447" y2="166.7815" gradientTransform="matrix(-0.9897 -0.1432 -0.1432 0.9897 1825.2291 153.8809)">
				<stop  offset="0" style="stop-color:#EFA998"/>
				<stop  offset="0.3699" style="stop-color:#EAA393"/>
				<stop  offset="0.8646" style="stop-color:#DD9485"/>
				<stop  offset="1" style="stop-color:#D88F81"/>
			</linearGradient>
			<path id="XMLID_48_" class="st3" d="M12.7,71.2l18.2-45.1L30.7,26l1.7-12.4c0,0,2.8-11.9,6.3-13c3.8-1.2,12,2.4,13.3,6.2
				c0.6,1.6-2.1,7-2.1,7c1-2,3.5-6.7,5.2-4.3c1.1,1.5-2.2,6.9-2.2,6.9c-1.4,2.7-3.5,5.2-3.5,5.2l-8,8.6L30.9,74.8
				c11.5,6.4,22.1,9.2,33,12.6c5.2,1.6,6.5,0.5,9.9,2.2c7.5,3.7,10.3,9.1,17.5,5.7l-11.5,38.4C62,111.4,29.3,96.6,18.7,89.3
				C10.6,83.8,9.1,79,12.7,71.2z"/>
			<path id="XMLID_47_" class="st2" d="M36.5,5.9c0,0,0.7-5.1,2.1-5.6c3.5-1.4,12.5,3,13.4,6.7c0.4,1.4-3.3,4.8-3.3,4.8
				C46.6,13.5,37.1,8.5,36.5,5.9z"/>
		</g>
		<linearGradient id="XMLID_80_" gradientUnits="userSpaceOnUse" x1="106.2624" y1="124.1563" x2="106.2624" y2="75.1354">
			<stop  offset="0" style="stop-color:#EFA998"/>
			<stop  offset="0.5278" style="stop-color:#E19889"/>
			<stop  offset="1" style="stop-color:#D88F81"/>
		</linearGradient>
		<path id="XMLID_45_" class="st4" d="M84.7,92.1c-2.4-0.1-7.1-0.5-9.7,0.2c-12.8,3.8-2.6,28.3,0.1,28.9c24.6,5,38.2,2.2,62.1,2.2
			c0-21.9,17.9-30-5.5-29c-10.3-0.7-12.8-7.2-12.8-19.2c-7.4,0.2-14.4,0.2-21.8,0C97.1,87.3,95.1,91.4,84.7,92.1z"/>
		<path id="XMLID_44_" class="st5" d="M119.2,84.1c0,0-2,5.3-11.4,5.3s-11.3-6.2-11.3-6.2S111,73.1,119.2,84.1z"/>
		<g id="XMLID_40_">
			<linearGradient id="XMLID_81_" gradientUnits="userSpaceOnUse" x1="90.5789" y1="67.2992" x2="90.5789" y2="55.491">
				<stop  offset="0" style="stop-color:#EFA998"/>
				<stop  offset="0.3699" style="stop-color:#EAA393"/>
				<stop  offset="0.8646" style="stop-color:#DD9485"/>
				<stop  offset="1" style="stop-color:#D88F81"/>
			</linearGradient>
			<path id="XMLID_43_" class="st6" d="M92.3,57.7c0,0-1.3-2-3.5-2.2c-3.3-0.2,1.1,10.7,0.7,9.1c0.7,2.5,3.2,3.5,4.1,2L92.3,57.7z"
				/>
			<linearGradient id="XMLID_82_" gradientUnits="userSpaceOnUse" x1="126.5539" y1="67.2992" x2="126.5539" y2="55.4919">
				<stop  offset="0" style="stop-color:#EFA998"/>
				<stop  offset="0.3699" style="stop-color:#EAA393"/>
				<stop  offset="0.8646" style="stop-color:#DD9485"/>
				<stop  offset="1" style="stop-color:#D88F81"/>
			</linearGradient>
			<path id="XMLID_42_" class="st7" d="M124.9,57.7c0,0,1.3-2,3.5-2.2c2.2-0.2,0,6.5-0.7,9.1c-0.7,2.5-3.2,3.5-4.1,2L124.9,57.7z"/>
			<path id="XMLID_41_" class="st8" d="M126.7,40.6c-0.3-6.8-11.1-5.4-18.1-6.1c-7,0.7-17.8-0.7-18.1,6.1c-0.3,6.9,1.4,24.5,2,29.6
				c0.6,5,5.9,15.4,16,15.4c9.5,0,15.4-10.4,16-15.4C125.3,65.1,127,47.5,126.7,40.6z"/>
		</g>
		<g id="XMLID_34_">
			<g id="XMLID_37_">
				<path id="XMLID_39_" class="st9" d="M75.6,407.6c1-1.3,4.8-5.8,5.2-6.3c3.7-3.5,10.2-16.8,9.2-23.2c-1.3-8.3,13.3-8.3,13,3.4
					c-0.1,5.5,1,6.1,1.1,11.5c0,4.3-1.5,8.8-1.5,8.8s-1.6,5.4-4.5,9.8c-1.3,2-4.1,5.9-12.5,5.9c-9.5,0-11.5-3.3-11.6-5.2
					C73.7,411.3,74.4,409.1,75.6,407.6z"/>
				<path id="XMLID_38_" class="st9" d="M135.6,381.6c-0.3-11.7,14.3-20.4,13-12c-0.4,2.3,4.9,27.8,9.2,31.9c0.5,0.4,4.3,5,5.2,6.3
					c1.2,1.5,1.9,3.7,1.5,4.7c-0.1,1.9-2.1,5-11.6,5.2c-9.5,0.3-11.2-3.9-12.5-5.9c-2.8-4.4-4.5-9.8-4.5-9.8s-1.6-2.8-1.5-7.2
					C134.6,389.3,135.7,387.1,135.6,381.6z"/>
			</g>
			<g id="XMLID_35_">
				<path id="XMLID_36_" class="st10" d="M143.2,202c6.4,61,7.3,128.5,11.7,194.2c-7.4-0.3-17.7,1-24.6,1.2
					c-5.8-46.2-14.6-112-18.9-156.8c-1.9,44.2-2.4,95.8-3.9,156.2c-7,0.6-16.3-1.6-23.3-0.7c0,0-8.5-128.1-8.1-191.2L143.2,202z"/>
			</g>
		</g>
		<path id="XMLID_33_" class="st11" d="M122.3,23.9c2.9,3.5,0.9,6.1,2.1,7.8c1.8,2.5,3.7,4.1,4.1,7.7c0.6,5.8-0.4,12.4-2.8,21
			c0.4-9.3-2.4-18.7-3.6-20.1c-3.4-2.8-23.6-3.2-26.1-0.8c-3,5-4.4,13.2-4.5,18.9c-2.6-11.5-4.2-21.2,1.3-26.3
			C99.1,26.3,117.9,31.5,122.3,23.9z"/>
		<path id="XMLID_32_" class="st12" d="M76.6,209.3c0,0,19.4,6.4,41.8,5.7c24.7-0.8,25.4-3.2,26-7
			C145.4,200.9,88.4,202.7,76.6,209.3z"/>
		<g id="XMLID_28_">
			<path id="XMLID_29_" class="st11" d="M125.3,74c0.3-2.7-0.1-5,0.3-7.9c0.4,0.2-6.3,2.8-9.4,1.1c-1-0.6-2.6-2-3.8-2.4
				c-1-0.3-2.6-0.1-3.7,0c-1.1-0.1-2.7-0.3-3.7,0c-1.2,0.4-2.8,1.8-3.8,2.4c-3.1,1.7-9.1-0.9-8.7-1.1c0.3,2.8-0.7,5.6-0.6,8.5
				c0.2,4.7,5.2,11.9,15.8,12.4C120.4,87.5,124.8,79,125.3,74z M108.5,69.2c5,0,2.3,2.3,9.4,2.9c-3.5,3.5-4.3,4.4-9.4,4.8
				c-5.1-0.3-5.9-1.3-9.4-4.8C106.3,71.4,103.6,69.2,108.5,69.2z"/>
		</g>
		<linearGradient id="XMLID_83_" gradientUnits="userSpaceOnUse" x1="45.2212" y1="146.8026" x2="173.6118" y2="146.8026">
			<stop  offset="0" style="stop-color:#0B8877"/>
			<stop  offset="0.3105" style="stop-color:#069E84"/>
			<stop  offset="0.5666" style="stop-color:#04AD8C"/>
			<stop  offset="0.7342" style="stop-color:#00B491"/>
		</linearGradient>
		<path id="XMLID_27_" class="st13" d="M173.6,113.8c-0.2-0.3-0.3-0.6-0.5-1c-2.2-4.7-3.4-13.7-5.5-20.3c-0.2-0.5-0.3-0.9-0.5-1.4
			c-22.8,1.1-29.9,3-33.9,2.6c-2-0.2-6.5-2.4-7.2-3.1l-18.1,14.8c0,0,0,0,0,0l-0.1,0L90.9,90.2c-3.1,1.2-5.6,1.5-8.1,1.1
			c-4.9-0.9-5.9-1.9-12.5-4.4c-5.8-2.2-14.7-2.8-22.8-5.1c-0.7,9.4-1.3,20.2-2.3,26.4c4.1,3.1,19.6,14.9,20.7,17.6
			c4.5,10.7,9.5,82.3,9.5,82.3c-0.1,0.7,0.5,1.1,1.2,1.3c18.9,3.6,47.6,3.4,67.8-1.3c0.7-0.2,1.3-0.7,1.1-1.4c0,0,1-55.3,1.9-76.5
			C147.5,126,148,126.2,173.6,113.8C173.6,113.8,173.6,113.8,173.6,113.8C173.6,113.8,173.6,113.8,173.6,113.8z"/>
		<path id="XMLID_26_" class="st14" d="M131.7,95.3c0,0-9.5,17.1-11.1,18c-1.5,0.9-13-7.7-13-7.7L131.7,95.3z"/>
		<path id="XMLID_25_" class="st14" d="M86.6,94.5c0,0,7.1,17.9,8.6,18.8c1.5,0.9,12.2-7.7,12.2-7.7L86.6,94.5z"/>
		<polygon id="XMLID_24_" class="st15" points="92.6,89.2 83.9,91.1 95.5,110.8 107.8,105.5 		"/>
		<polygon id="XMLID_23_" class="st15" points="123.9,89.8 132.9,93.8 120.1,111.1 107.7,105.6 		"/>
	</g>
	<g id="girl_7_">
		<linearGradient id="XMLID_84_" gradientUnits="userSpaceOnUse" x1="204.7421" y1="220.6083" x2="252.8394" y2="220.6083">
			<stop  offset="0" style="stop-color:#D88F81"/>
			<stop  offset="0.1354" style="stop-color:#DD9485"/>
			<stop  offset="0.6301" style="stop-color:#EAA393"/>
			<stop  offset="1" style="stop-color:#EFA998"/>
		</linearGradient>
		<polygon id="XMLID_22_" class="st16" points="252.8,232.1 251,209.1 214.5,209.1 204.7,225.1 		"/>
		<path id="XMLID_21_" class="st17" d="M210.1,87.8c-5.1-8-18.6-13.1-28.9-9.5c-18.3,6.5-16.4,26.1-25.6,28.9
			c-11.8,3.5-16.2,1.7-23.9,11.5c-5,6.3-5.3,21.9-12.5,29.1c8.9,1.8,21.4-14.2,30.2-14c5.5,0.1,12.5,1.1,19.6,2
			c-4.5,1.6-9.2,2.5-13.7,1.6c-8.2-1.7-13.6,2.4-26.3,11.3c10.9-4.7,19.7-10.1,26.2-7.7c32.5,12.4,60.9-5.9,61.1-26.2
			C217.8,106.6,216,97.1,210.1,87.8z"/>
		<linearGradient id="XMLID_85_" gradientUnits="userSpaceOnUse" x1="218.9016" y1="112.0372" x2="284.1456" y2="112.0372">
			<stop  offset="0" style="stop-color:#EFA998"/>
			<stop  offset="0.3699" style="stop-color:#EAA393"/>
			<stop  offset="0.8646" style="stop-color:#DD9485"/>
			<stop  offset="1" style="stop-color:#D88F81"/>
		</linearGradient>
		<path id="XMLID_20_" class="st18" d="M237.3,130.6l32.3-20.6l-24.3-32.4l-7.6-3.2c0,0-3.8-4.1-3.9-5.9c0-0.4,0.7-0.9,0.7-1.3
			c0-1.8-4-4.4-3.8-6.2c0.1-1.2,2-3.5,3.2-3.7c3.4-0.5,10.7,3.3,13,5.8c1.8,2,5.1,9.7,5.1,9.7l31,35.5c2.1,2.7,0.5,6.5-3.1,9.2
			l-31.9,23.9c-19.6,16.2-7,4.6-8.3,25.8l-11.2-10.3l-9.8-21.3C226.3,136.8,227.2,131.8,237.3,130.6z"/>
		<linearGradient id="XMLID_86_" gradientUnits="userSpaceOnUse" x1="69.8081" y1="155.2966" x2="244.3019" y2="155.2966">
			<stop  offset="0" style="stop-color:#EFA998"/>
			<stop  offset="0.3699" style="stop-color:#EAA393"/>
			<stop  offset="0.8646" style="stop-color:#DD9485"/>
			<stop  offset="1" style="stop-color:#D88F81"/>
		</linearGradient>
		<path id="XMLID_19_" class="st19" d="M192.2,128c2.4,7.3,3,11.9,0.6,14.2c-2.5,2.4-8,1.7-12.3,4.4c-2.8,1.7-6.1,4.6-9.2,7.8
			l-33.1,19.2l-45.8-18.3l0,0c0,0-2.7-6.1-4.4-7.5c-1.6-1.4-5.7-3.4-7.7-3c-0.5,0.1-1,1-1.4,1.2c-1.3,0.5-4.3-0.1-5.5,0.6
			c-1.3,0.8-3.8,3.4-3.7,4.9c0.2,2.9,5.7,7,8.3,8.3c2.4,1.1,10.7,2.7,10.7,2.7l40.5,21.5c7.9,4.8,7.2,3.6,15.9,0.3l36.2-14.7
			c4.5,1.4,6.5,1.9,11.4,6.9l19.4,7.9l23.6-16.5l0.6-19.5l-1.1-14l9-7.9c-4.2,2-9.8,3.9-10.9,3.8c-11.9-0.9-13.5,4.8-19.2,5.6
			c-4.1,0.6-4.9-3.2-8.4-12.2L192.2,128z"/>
		<path id="XMLID_18_" class="st20" d="M207.4,120.5c0,0-1.7,8.2-5.3,10.1c-3.7,1.9-12.7-2.4-12.7-2.4L207.4,120.5z"/>
		<linearGradient id="XMLID_87_" gradientUnits="userSpaceOnUse" x1="185.4002" y1="379.115" x2="213.0016" y2="379.115">
			<stop  offset="0" style="stop-color:#EFA998"/>
			<stop  offset="0.3699" style="stop-color:#EAA393"/>
			<stop  offset="0.8646" style="stop-color:#DD9485"/>
			<stop  offset="1" style="stop-color:#D88F81"/>
		</linearGradient>
		<path id="XMLID_17_" class="st21" d="M208,358.5c-3.8,2.3-10.3,6.7-13.9,8.1c-5.4,2-4.7-0.2-8.3,6.3c-1.5,2.7,1.5,0,4.6,8.7
			c-0.7,8.1,1.4,11.4,5.5,18.1c1.6-9,1.1-6.4,5.2-16.7c4-7.5,5.7-9.1,12-14.9L208,358.5z"/>
		<linearGradient id="XMLID_88_" gradientUnits="userSpaceOnUse" x1="119.9791" y1="279.3202" x2="162.5182" y2="279.3202">
			<stop  offset="0" style="stop-color:#EFA998"/>
			<stop  offset="0.3699" style="stop-color:#EAA393"/>
			<stop  offset="0.8646" style="stop-color:#DD9485"/>
			<stop  offset="1" style="stop-color:#D88F81"/>
		</linearGradient>
		<path id="XMLID_16_" class="st22" d="M162.5,282.6c-3.7-2.5-7-4.6-9.8-7.3c-4-4.1-4.9-7.4-12.4-7.9c-3.1-0.2,0.4,2.5-6.2,8.9
			c-7.7,2.7-9.8,6-14.1,12.6c8.8-2.4,6.6-1.8,17.7-2.4c8.5,0.5,10.3,1.4,18.2,4.7L162.5,282.6z"/>
		<path id="XMLID_15_" class="st23" d="M202.4,380.2c0,0-1.2,16.6,1.2,27.2c2.3,10.3-3.9,8.7-6.3,6.3c-2.7-2.7-17.1-32.4-18.8-39.1
			c-1.9-7.7,18.2-9.5,18.2-9.5S195.6,373.2,202.4,380.2z"/>
		<path id="XMLID_14_" class="st23" d="M141.6,286.9c0,0-15.2,6.8-23.4,13.8c-8,6.9-9.5,0.6-8.5-2.5c1.1-3.7,20.5-30.4,25.7-35
			c5.9-5.4,17,11.5,17,11.5S144.6,277.6,141.6,286.9z"/>
		<path id="XMLID_13_" class="st8" d="M199,129.7c-3.7,0.9-8.1-0.9-9.7-1.6c-6.5-3.5-11.1-11.2-12.5-17.3c-1.3-5.8-0.4-7.2,3.7-12.2
			c2.7-3.4,4.4-8.6,4.4-8.6c2.7,3.8,10.1,4.4,14.4,4.3c5.7-0.1,6.4,1.8,8.4,7.5c2.1,5.9,2.6,15.6-1,22
			C205.8,125.2,203,128.8,199,129.7z"/>
		<g id="XMLID_6_" class="st24">
			<linearGradient id="XMLID_89_" gradientUnits="userSpaceOnUse" x1="218.9016" y1="112.0372" x2="284.1456" y2="112.0372">
				<stop  offset="0" style="stop-color:#EFA998"/>
				<stop  offset="0.3699" style="stop-color:#EAA393"/>
				<stop  offset="0.8646" style="stop-color:#DD9485"/>
				<stop  offset="1" style="stop-color:#D88F81"/>
			</linearGradient>
			<path id="XMLID_12_" class="st25" d="M237.3,130.6l32.3-20.6l-24.3-32.4l-7.6-3.2c0,0-3.8-4.1-3.9-5.9c0-0.4,0.7-0.9,0.7-1.3
				c0-1.8-4-4.4-3.8-6.2c0.1-1.2,2-3.5,3.2-3.7c3.4-0.5,10.7,3.3,13,5.8c1.8,2,5.1,9.7,5.1,9.7l31,35.5c2.1,2.7,0.5,6.5-3.1,9.2
				l-31.9,23.9c-19.6,16.2-7,4.6-8.3,25.8l-11.2-10.3l-9.8-21.3C226.3,136.8,227.2,131.8,237.3,130.6z"/>
			<linearGradient id="XMLID_90_" gradientUnits="userSpaceOnUse" x1="69.8081" y1="155.2966" x2="244.3019" y2="155.2966">
				<stop  offset="0" style="stop-color:#EFA998"/>
				<stop  offset="0.3699" style="stop-color:#EAA393"/>
				<stop  offset="0.8646" style="stop-color:#DD9485"/>
				<stop  offset="1" style="stop-color:#D88F81"/>
			</linearGradient>
			<path id="XMLID_11_" class="st26" d="M192.2,128c2.4,7.3,3,11.9,0.6,14.2c-2.5,2.4-8,1.7-12.3,4.4c-2.8,1.7-6.1,6.2-9.2,9.4
				l-33.1,17.6l-45.8-18.3l0,0c0,0-2.7-6.1-4.4-7.5c-1.6-1.4-5.7-3.4-7.7-3c-0.5,0.1-1,1-1.4,1.2c-1.3,0.5-4.3-0.1-5.5,0.6
				c-1.3,0.8-3.8,3.4-3.7,4.9c0.2,2.9,5.7,7,8.3,8.3c2.4,1.1,10.7,2.7,10.7,2.7l40.5,21.5c7.9,4.8,7.2,3.6,15.9,0.3l36.2-14.7
				c4.5,1.4,6.5,1.9,11.4,6.9l19.4,7.9l23.6-16.5l0.6-19.5l-1.1-14l9-7.9c-4.2,2-9.8,3.9-10.9,3.8c-11.9-0.9-13.5,4.8-19.2,5.6
				c-4.1,0.6-4.9-3.2-8.4-12.2L192.2,128z"/>
			<linearGradient id="XMLID_91_" gradientUnits="userSpaceOnUse" x1="204.7421" y1="220.6083" x2="252.8394" y2="220.6083">
				<stop  offset="0" style="stop-color:#EFA998"/>
				<stop  offset="0.3699" style="stop-color:#EAA393"/>
				<stop  offset="0.8646" style="stop-color:#DD9485"/>
				<stop  offset="1" style="stop-color:#D88F81"/>
			</linearGradient>
			<polygon id="XMLID_10_" class="st27" points="252.8,232.1 251,209.1 214.5,209.1 204.7,225.1 			"/>
			<linearGradient id="XMLID_92_" gradientUnits="userSpaceOnUse" x1="185.4002" y1="379.115" x2="213.0016" y2="379.115">
				<stop  offset="0" style="stop-color:#EFA998"/>
				<stop  offset="0.3699" style="stop-color:#EAA393"/>
				<stop  offset="0.8646" style="stop-color:#DD9485"/>
				<stop  offset="1" style="stop-color:#D88F81"/>
			</linearGradient>
			<path id="XMLID_9_" class="st28" d="M208,358.5c-3.8,2.3-10.3,6.7-13.9,8.1c-5.4,2-4.7-0.2-8.3,6.3c-1.5,2.7,1.5,0,4.6,8.7
				c-0.7,8.1,1.4,11.4,5.5,18.1c1.6-9,1.1-6.4,5.2-16.7c4-7.5,5.7-9.1,12-14.9L208,358.5z"/>
			<linearGradient id="XMLID_93_" gradientUnits="userSpaceOnUse" x1="119.9791" y1="279.3202" x2="162.5182" y2="279.3202">
				<stop  offset="0" style="stop-color:#EFA998"/>
				<stop  offset="0.3699" style="stop-color:#EAA393"/>
				<stop  offset="0.8646" style="stop-color:#DD9485"/>
				<stop  offset="1" style="stop-color:#D88F81"/>
			</linearGradient>
			<path id="XMLID_8_" class="st29" d="M162.5,282.6c-3.7-2.5-7-4.6-9.8-7.3c-4-4.1-4.9-7.4-12.4-7.9c-3.1-0.2,0.4,2.5-6.2,8.9
				c-7.7,2.7-9.8,6-14.1,12.6c8.8-2.4,6.6-1.8,17.7-2.4c8.5,0.5,10.3,1.4,18.2,4.7L162.5,282.6z"/>
			<path id="XMLID_7_" class="st8" d="M199,129.7c-3.7,0.9-8.1-0.9-9.7-1.6c-6.5-3.5-11.1-11.2-12.5-17.3c-1.3-5.8-0.4-7.2,3.7-12.2
				c2.7-3.4,4.4-8.6,4.4-8.6c2.7,3.8,10.1,4.4,14.4,4.3c5.7-0.1,6.4,1.8,8.4,7.5c2.1,5.9,2.6,15.6-1,22
				C205.8,125.2,203,128.8,199,129.7z"/>
		</g>
		<linearGradient id="XMLID_94_" gradientUnits="userSpaceOnUse" x1="143.5078" y1="169.823" x2="271.2094" y2="169.823">
			<stop  offset="0" style="stop-color:#D81E43"/>
			<stop  offset="0.1998" style="stop-color:#D92044"/>
			<stop  offset="0.3957" style="stop-color:#DB264A"/>
			<stop  offset="0.59" style="stop-color:#DF2F53"/>
			<stop  offset="0.7833" style="stop-color:#E43B60"/>
			<stop  offset="0.9743" style="stop-color:#ED4972"/>
			<stop  offset="1" style="stop-color:#EF4B75"/>
		</linearGradient>
		<path id="XMLID_5_" class="st30" d="M192.7,142.2c-2.5,2.4-8,1.7-12.3,4.4c-5.6,3.5-8.8,7.6-15.4,11.4l-21.5,12.2l6.7,12.3
			c0,0,23.9-11.2,32.5-11.4c3.4-0.1,3.7,0.3,6,2.1c0,0,6.8,7.2,11.4,13c3.9,4.9,12.2,14.8,12.1,21.9c0,3.3-4.1,11.1-4.1,11.1
			l44.8,4.6l-1.9-16.8c0,0-4.7-27.2-4.8-36.3c0-4.7-1.1-12-6.2-21.7l31.2-24.1l-10.6-8.9c-1.4,0.7-11.6,6-17.8,9.6
			c-8.2,4.7-7,3.3-14.8,4.3c-7.2,0.9-9.1,5.3-13.8,6C214.6,142.4,200.7,147,192.7,142.2z"/>
		<linearGradient id="XMLID_95_" gradientUnits="userSpaceOnUse" x1="145.7177" y1="300.6587" x2="280.8201" y2="300.6587">
			<stop  offset="0" style="stop-color:#BFBEC8"/>
			<stop  offset="0.3651" style="stop-color:#C7C8D0"/>
			<stop  offset="0.9829" style="stop-color:#DEE3E6"/>
			<stop  offset="1" style="stop-color:#DFE4E7"/>
		</linearGradient>
		<path id="XMLID_4_" class="st31" d="M145.7,288.4L154,276c0,0,42.9,16,49.9,25.2L193.6,264c-4.2-14-0.5-23.2,2.7-27.6l8.4-11.3
			l48.1,7c0,0,0.7,12,1.3,15.9c0.9,5.8,24.8,65.8,24.8,65.8c2.8,7.3,3.2,13.7-4.1,18.4l-68.7,43.9l-7.7-12.7c0,0,30-29.1,41.3-36.4
			c4.6-3,18.7-8.9,18.7-8.9l-33.2-56.9l-1-0.3l3,60.1c-1.1,9.1-5.1,14-9.7,12.1L145.7,288.4z"/>
		<path id="XMLID_3_" class="st32" d="M203.2,379.4c0,0-1.2,16.6,1.2,27.2c2.3,10.3-3.9,8.7-6.3,6.3c-2.7-2.7-17.1-32.4-18.8-39.1
			c-1.9-7.7,18.2-9.5,18.2-9.5S196.4,372.4,203.2,379.4z"/>
		<path id="XMLID_2_" class="st32" d="M142.4,286.9c0,0-15.2,6.8-23.4,13.8c-8,6.9-9.5,0.6-8.5-2.5c1.1-3.7,20.5-30.4,25.7-35
			c5.9-5.4,17,11.5,17,11.5S145.4,277.6,142.4,286.9z"/>
	</g>
</g>
</svg>
