<?xml version="1.0" encoding="utf-8"?>
<!-- Generator: Adobe Illustrator 19.0.0, SVG Export Plug-In . SVG Version: 6.00 Build 0)  -->
<svg version="1.1" id="Layer_1" xmlns="http://www.w3.org/2000/svg" xmlns:xlink="http://www.w3.org/1999/xlink" x="0px" y="0px"
	 viewBox="0 0 587.8 500" style="enable-background:new 0 0 587.8 500;" xml:space="preserve">
<style type="text/css">
	.st0{clip-path:url(#SVGID_2_);fill:#EBF6F4;}
	.st1{clip-path:url(#SVGID_2_);fill:#FFFFFF;}
	.st2{clip-path:url(#SVGID_2_);}
	.st3{fill:#D0EBE5;}
	.st4{fill:#B7E1D8;}
	.st5{fill:#FFFFFF;}
	.st6{fill:#FECD18;}
	.st7{fill:#F98D2B;}
	.st8{fill:#E54941;}
	.st9{fill:#36B5C2;}
	.st10{fill:#02B491;}
	.st11{fill:#F0F2F3;}
	.st12{fill-rule:evenodd;clip-rule:evenodd;fill:url(#SVGID_3_);}
	.st13{fill-rule:evenodd;clip-rule:evenodd;fill:#EFA897;}
	.st14{fill-rule:evenodd;clip-rule:evenodd;fill:url(#SVGID_4_);}
	.st15{fill-rule:evenodd;clip-rule:evenodd;fill:url(#SVGID_5_);}
	.st16{opacity:0.3;fill-rule:evenodd;clip-rule:evenodd;fill:#D88E80;}
	.st17{fill:url(#SVGID_6_);}
	.st18{fill:url(#SVGID_7_);}
	.st19{fill:#EFA897;}
	.st20{fill:#4A4C58;}
	.st21{fill-rule:evenodd;clip-rule:evenodd;fill:#2C4C61;}
	.st22{fill-rule:evenodd;clip-rule:evenodd;fill:#774A29;}
	.st23{opacity:0.4;fill-rule:evenodd;clip-rule:evenodd;fill:#2C4C61;}
	.st24{fill-rule:evenodd;clip-rule:evenodd;fill:url(#SVGID_8_);}
	.st25{opacity:0.3;fill-rule:evenodd;clip-rule:evenodd;fill:#02B491;}
	.st26{fill-rule:evenodd;clip-rule:evenodd;fill:#02B491;}
	.st27{fill-rule:evenodd;clip-rule:evenodd;fill:url(#SVGID_9_);}
	.st28{fill-rule:evenodd;clip-rule:evenodd;fill:#7C2D0E;}
	.st29{fill-rule:evenodd;clip-rule:evenodd;fill:url(#SVGID_10_);}
	.st30{fill-rule:evenodd;clip-rule:evenodd;fill:url(#SVGID_11_);}
	.st31{opacity:0.3;fill:#D88E80;}
	.st32{fill-rule:evenodd;clip-rule:evenodd;fill:url(#SVGID_12_);}
	.st33{fill-rule:evenodd;clip-rule:evenodd;fill:url(#SVGID_13_);}
	.st34{fill:#C0C8CE;}
	.st35{opacity:0.3;}
	.st36{fill-rule:evenodd;clip-rule:evenodd;fill:url(#SVGID_14_);}
	.st37{fill-rule:evenodd;clip-rule:evenodd;fill:url(#SVGID_15_);}
	.st38{fill-rule:evenodd;clip-rule:evenodd;fill:url(#SVGID_16_);}
	.st39{fill-rule:evenodd;clip-rule:evenodd;fill:url(#SVGID_17_);}
	.st40{fill-rule:evenodd;clip-rule:evenodd;fill:url(#SVGID_18_);}
	.st41{fill-rule:evenodd;clip-rule:evenodd;fill:url(#SVGID_19_);}
	.st42{fill-rule:evenodd;clip-rule:evenodd;fill:url(#SVGID_20_);}
</style>
<g>
	<g id="img">
		<g id="img_1_">
			<defs>
				<rect id="SVGID_1_" x="2.8" y="0" width="585.1" height="350"/>
			</defs>
			<clipPath id="SVGID_2_">
				<use xlink:href="#SVGID_1_"  style="overflow:visible;"/>
			</clipPath>
			<rect id="bg_6_" x="2.8" y="0.5" class="st0" width="585" height="349"/>
			<path id="cloud_3_" class="st1" d="M178.8,48.9c0-9.9-10.5-18.8-23.5-18.8c-5,0-9.7,1.2-13.5,3.3c-4.9-5.4-13.1-8.9-22.3-8.9
				c-12.1,0-22.3,6-25.8,14.2c-1.9-0.7-4-1.1-6.3-1.1c-8.2,0-14.8,5-14.8,11.3H178.8z"/>
			<path id="cloud_2_" class="st1" d="M374.8,60.4c0-6.8,13.6-13,30.3-13c6.5,0,12.5,0.8,17.4,2.3c6.3-3.7,16.9-6.2,28.8-6.2
				c15.5,0,28.7,4.1,33.3,9.9c2.5-0.5,5.2-0.7,8.1-0.7c10.6,0,19.1,3.5,19.1,7.8H374.8z"/>
			<g id="grass_1_" class="st2">
				<ellipse class="st3" cx="301" cy="342.2" rx="324.6" ry="131.9"/>
				
					<ellipse transform="matrix(0.9913 -0.1317 0.1317 0.9913 -47.5366 49.6498)" class="st4" cx="351.6" cy="384.3" rx="426.3" ry="131.9"/>
			</g>
			<path id="cloud_1_" class="st1" d="M87.1,85.5c0-4.9-6.7-9.4-15.1-9.4c-3.2,0-6.2,0.6-8.7,1.6c-3.2-2.7-8.4-4.5-14.3-4.5
				c-7.7,0-14.3,3-16.6,7.1c-1.2-0.3-2.6-0.5-4-0.5c-5.3,0-9.5,2.5-9.5,5.6H87.1z"/>
			<g id="tree_10_" class="st2">
				<g>
					<path class="st3" d="M55,236.3c0.7,15.8-5.3,21.5-13,20.1c-7.7-1.5-13.7-8.4-13-21c0.9-11.9,13.2-32.1,13-32.5
						C41.8,202.2,54.1,220,55,236.3z"/>
					<g>
						<path class="st5" d="M41.9,266.2c0.2,0.1,0.4-0.1,0.4-0.3c0-18.7,0-37.4,0-56.2c0-0.2-0.2-0.4-0.3-0.3c-0.2,0-0.3,0.2-0.3,0.4
							c0,18.6-0.1,37.2-0.1,55.9C41.5,265.9,41.6,266.2,41.9,266.2z"/>
						<g>
							<path class="st5" d="M41.9,253.8c2.2-4,4.4-8.2,6.5-12.6c0.1-0.2,0-0.4-0.2-0.5c-0.2-0.1-0.4,0-0.5,0.2
								c-1.8,3.9-3.8,7.7-5.8,11.3c-2-4.2-3.9-8.2-5.8-12.1c-0.1-0.2-0.3-0.3-0.5-0.2c-0.2,0.1-0.3,0.3-0.2,0.5
								C37.5,244.6,39.6,249.1,41.9,253.8z"/>
						</g>
						<g>
							<path class="st5" d="M41.9,239.4c1.8-3.5,3.5-7.3,5.2-11.1c0.1-0.2,0-0.4-0.2-0.5c-0.2-0.1-0.4,0-0.5,0.2
								c-1.5,3.3-3,6.6-4.6,9.7c-1.6-3.3-3.1-6.4-4.6-9.5c-0.1-0.2-0.3-0.2-0.5-0.1c-0.2,0.1-0.3,0.3-0.2,0.5
								C38.3,232.1,40.1,235.7,41.9,239.4z"/>
						</g>
						<g>
							<path class="st5" d="M41.9,227.1c1.4-3,2.8-6.1,4.1-9.3c0.1-0.2,0-0.4-0.2-0.5c-0.2-0.1-0.4,0-0.5,0.2
								c-1.1,2.7-2.3,5.3-3.5,7.9c-1.2-2.5-2.3-4.8-3.5-7.1c-0.1-0.2-0.3-0.2-0.5-0.1c-0.2,0.1-0.3,0.3-0.2,0.5
								C39.1,221.4,40.5,224.2,41.9,227.1z"/>
						</g>
					</g>
				</g>
			</g>
			<g id="tree_8_" class="st2">
				<g>
					<path class="st4" d="M570.6,177.2c2,46.4-15.5,63.4-38.3,59.1c-22.8-4.5-40.3-24.9-38.3-61.8c2.7-34.9,38.9-94.6,38.3-95.7
						C531.6,76.9,567.9,129.3,570.6,177.2z"/>
					<g>
						<path class="st5" d="M531.9,264.7c0.2,0.1,0.4-0.1,0.4-0.3c0-55,0-110.1,0-165.1c0-0.2-0.2-0.4-0.3-0.3
							c-0.2,0-0.3,0.2-0.3,0.4c0,54.9-0.1,109.9-0.1,164.8C531.5,264.4,531.7,264.6,531.9,264.7z"/>
						<g>
							<path class="st5" d="M531.9,227.3c6.4-11.3,12.5-23.4,18.3-35.9c0.1-0.2,0-0.4-0.2-0.5c-0.2-0.1-0.4,0-0.5,0.2
								c-5.7,12-11.5,23.7-17.7,34.6c-6.1-12.8-12-25.2-17.6-37c-0.1-0.2-0.3-0.3-0.5-0.2c-0.2,0.1-0.3,0.3-0.2,0.5
								C519.5,201.1,525.6,214,531.9,227.3z"/>
						</g>
						<g>
							<path class="st5" d="M532,184.9c5.1-10,10-20.5,14.8-31.2c0.1-0.2,0-0.4-0.2-0.5c-0.2-0.1-0.4,0-0.5,0.2
								c-4.5,10.3-9.2,20.3-14.1,29.9c-4.8-10.1-9.5-19.9-14.1-29.2c-0.1-0.2-0.3-0.2-0.5-0.1c-0.2,0.1-0.3,0.3-0.2,0.5
								C522,164.1,526.9,174.3,532,184.9z"/>
						</g>
						<g>
							<path class="st5" d="M532,148.6c3.9-8.4,7.8-17.1,11.5-26c0.1-0.2,0-0.4-0.2-0.5c-0.2-0.1-0.4,0-0.5,0.2
								c-3.5,8.4-7.1,16.6-10.8,24.6c-3.7-7.7-7.3-15.1-10.8-22.3c-0.1-0.2-0.3-0.2-0.5-0.1c-0.2,0.1-0.2,0.3-0.2,0.5
								C524.2,132.6,528,140.4,532,148.6z"/>
						</g>
					</g>
				</g>
			</g>
			<g id="birds_1_" class="st2">
				<path class="st3" d="M257.8,33.1l0.6-0.4c0,0,4.1-3,7.5-2.4c1.3,0.2,2.4,0.9,3.2,2.2l1.5-1c-1.1-1.6-2.6-2.6-4.4-2.9
					c-3.4-0.6-6.9,1.4-8.3,2.3c-1.7-1.3-7.2-4.6-12.6,0.5l1.2,1.3c5.3-4.9,10.5-0.2,10.7,0L257.8,33.1z"/>
				<path class="st3" d="M227.3,45.2l0.6-0.4c0,0,4.1-3,7.5-2.4c1.3,0.2,2.4,0.9,3.2,2.2l1.5-1c-1.1-1.6-2.6-2.6-4.4-2.9
					c-3.4-0.6-6.9,1.4-8.3,2.3c-1.7-1.3-7.2-4.6-12.6,0.5l1.2,1.3c5.3-4.9,10.5-0.2,10.7,0L227.3,45.2z"/>
				<path class="st3" d="M291.1,52.1l0.6-0.4c0,0,4.1-3,7.5-2.4c1.3,0.2,2.4,0.9,3.2,2.2l1.5-1c-1.1-1.6-2.6-2.6-4.4-2.9
					c-3.4-0.6-6.9,1.4-8.3,2.3c-1.7-1.3-7.2-4.6-12.6,0.5l1.2,1.3c5.3-4.9,10.5-0.2,10.7,0L291.1,52.1z"/>
			</g>
			<g id="tree_1_" class="st2">
				<g>
					<path class="st3" d="M106.4,202.3c1.1,24.7-8.2,33.7-20.3,31.4c-12.1-2.4-21.4-13.2-20.3-32.8c1.4-18.6,20.6-50.2,20.3-50.9
						C85.7,149.1,105,176.9,106.4,202.3z"/>
					<g>
						<path class="st5" d="M85.9,249.3c0.5,0.1,0.9-0.2,0.9-0.6c0-29.3-0.1-58.6-0.1-87.9c0-0.4-0.3-0.7-0.7-0.7
							c-0.4,0.1-0.7,0.5-0.7,0.9c-0.1,29.1-0.1,58.2-0.2,87.2C85,248.8,85.4,249.2,85.9,249.3z"/>
						<g>
							<path class="st5" d="M85.9,230.2c3.6-6.3,7-13.1,10.3-20.1c0.2-0.4,0-0.9-0.4-1.1c-0.4-0.2-0.9-0.1-1.1,0.3
								c-2.8,6-5.8,11.8-8.8,17.3c-3-6.4-6-12.6-8.8-18.5c-0.2-0.4-0.7-0.6-1.1-0.4c-0.4,0.2-0.6,0.6-0.4,1
								C78.9,215.5,82.3,222.8,85.9,230.2z"/>
						</g>
						<g>
							<path class="st5" d="M85.9,207.7c2.9-5.7,5.7-11.6,8.3-17.7c0.2-0.4,0-0.9-0.4-1.1c-0.4-0.2-0.8,0-1,0.4
								c-2.3,5.1-4.6,10-7,14.8c-2.4-5-4.7-9.8-7-14.4c-0.2-0.4-0.6-0.5-1-0.3c-0.4,0.2-0.5,0.7-0.4,1
								C80.2,195.9,83,201.7,85.9,207.7z"/>
						</g>
						<g>
							<path class="st5" d="M85.9,188.5c2.3-4.8,4.5-9.8,6.6-14.9c0.2-0.4,0-0.9-0.3-1.1c-0.4-0.2-0.8,0-1,0.5
								c-1.7,4.1-3.5,8-5.3,11.9c-1.8-3.7-3.5-7.3-5.2-10.8c-0.2-0.4-0.6-0.5-1-0.2c-0.4,0.2-0.5,0.7-0.3,1.1
								C81.5,179.2,83.7,183.8,85.9,188.5z"/>
						</g>
					</g>
				</g>
			</g>
		</g>
		<g>
			<circle class="st6" cx="295.3" cy="131" r="2.5"/>
			<circle class="st7" cx="318.3" cy="282" r="2.5"/>
			<g>
				<circle class="st6" cx="137.3" cy="113" r="7.5"/>
				<circle class="st6" cx="192.3" cy="237" r="2.5"/>
				<circle class="st8" cx="144.9" cy="210.9" r="5"/>
				<circle class="st9" cx="137" cy="166.5" r="2"/>
				<circle class="st10" cx="117.3" cy="153" r="7.5"/>
				<circle class="st9" cx="172.3" cy="277" r="2.5"/>
				<circle class="st9" cx="124.9" cy="250.9" r="5"/>
				<circle class="st7" cx="117" cy="206.5" r="2"/>
				<circle class="st6" cx="137.3" cy="113" r="7.5"/>
				<circle class="st6" cx="192.3" cy="237" r="2.5"/>
				<circle class="st8" cx="144.9" cy="210.9" r="5"/>
				<circle class="st9" cx="137" cy="166.5" r="2"/>
				<circle class="st10" cx="172.3" cy="277" r="2.5"/>
				<circle class="st9" cx="124.9" cy="250.9" r="5"/>
				<circle class="st7" cx="117" cy="206.5" r="2"/>
			</g>
			<circle class="st6" cx="437.3" cy="232" r="7.5"/>
			<circle class="st6" cx="382.3" cy="108" r="2.5"/>
			<circle class="st8" cx="429.7" cy="134.1" r="5"/>
			<circle class="st9" cx="437.6" cy="178.5" r="2"/>
			<circle class="st10" cx="457.3" cy="192" r="7.5"/>
			<circle class="st9" cx="402.3" cy="68" r="2.5"/>
			<circle class="st9" cx="449.7" cy="94.1" r="5"/>
			<circle class="st7" cx="457.6" cy="138.5" r="2"/>
			<circle class="st8" cx="235.8" cy="70.5" r="5"/>
			<circle class="st9" cx="289.8" cy="92.5" r="5"/>
			<circle class="st7" cx="215.3" cy="100.5" r="2"/>
			<circle class="st10" cx="350.3" cy="76" r="5.5"/>
		</g>
	</g>
	<g id="couple_hooray">
		<ellipse id="shadow_12_" class="st11" cx="288" cy="486.3" rx="149.3" ry="13.7"/>
		<g id="boy_6_">
			<g>
				<linearGradient id="SVGID_3_" gradientUnits="userSpaceOnUse" x1="262.3286" y1="144.55" x2="344.4847" y2="144.55">
					<stop  offset="0" style="stop-color:#EFA897"/>
					<stop  offset="0.3953" style="stop-color:#EAA292"/>
					<stop  offset="0.9242" style="stop-color:#DB9183"/>
					<stop  offset="1" style="stop-color:#D88E80"/>
				</linearGradient>
				<path class="st12" d="M343.6,155.6l-11-47.2l0.1,0l-1.4-14.3c0,0-2.2-11.1-5.4-12.4c-3.5-1.4-12.5,1.6-14.2,5
					c-0.8,1.5,2.8,7.4,2.8,7.4c-1-0.5-3.3-6.3-5.4-4.2c-1.3,1.3,1.2,5.5,1.2,5.5c1,1.4,2.3,3.2,3.6,4.9l0,0.1l7.5,10.6l3.6,45.6
					c-12.3,4.7-23.2,5.9-34.5,7.7c-5.4,0.8-6.5-0.5-10.1,0.7c-7.9,2.6-11.5,7.6-18.1,3.1l5.9,39.7c20.8-19.4,55.3-29.5,66.8-35.1
					C343.8,168.3,346,163.8,343.6,155.6z"/>
				<path class="st13" d="M327.9,87.9c0,0-0.7-5.5-2.2-6.2c-3.4-1.6-12.7,1.5-14.2,5c-0.6,1.4,2.7,5.5,2.7,5.5
					C316.3,94.3,327,90.6,327.9,87.9z"/>
			</g>
			<g>
				
					<linearGradient id="SVGID_4_" gradientUnits="userSpaceOnUse" x1="1584.0773" y1="217.1919" x2="1666.2334" y2="217.1919" gradientTransform="matrix(-0.9897 -0.1432 -0.1432 0.9897 1832.175 154.3809)">
					<stop  offset="0" style="stop-color:#EFA897"/>
					<stop  offset="0.3953" style="stop-color:#EAA292"/>
					<stop  offset="0.9242" style="stop-color:#DB9183"/>
					<stop  offset="1" style="stop-color:#D88E80"/>
				</linearGradient>
				<path class="st14" d="M151.3,141.7l18.2-45.1l-0.1-0.1l1.7-12.4c0,0,2.8-11.9,6.3-13c3.8-1.2,12,2.4,13.3,6.2
					c0.6,1.6-2.1,7-2.1,7c1-2,3.5-6.7,5.2-4.3c1.1,1.5-2.2,6.9-2.2,6.9c-1.4,2.7-3.5,5.2-3.5,5.2l-8,8.6l-10.6,44.6
					c11.5,6.4,22.1,9.2,33,12.6c5.2,1.6,6.5,0.5,9.9,2.2c7.5,3.7,10.3,9.1,17.5,5.7l-11.5,38.4c-17.8-22.2-50.5-37.1-61.1-44.4
					C149.3,154.3,147.8,149.5,151.3,141.7z"/>
				<path class="st13" d="M175.2,76.4c0,0,0.7-5.1,2.1-5.6c3.5-1.4,12.5,3,13.4,6.7c0.4,1.4-3.3,4.8-3.3,4.8
					C185.3,84,175.8,79,175.2,76.4z"/>
			</g>
			<linearGradient id="SVGID_5_" gradientUnits="userSpaceOnUse" x1="244.9525" y1="194.6563" x2="244.9525" y2="145.6354">
				<stop  offset="0" style="stop-color:#EFA897"/>
				<stop  offset="0.488" style="stop-color:#E2998A"/>
				<stop  offset="1" style="stop-color:#D88E80"/>
			</linearGradient>
			<path class="st15" d="M223.4,162.6c-2.4-0.1-7.1-0.5-9.7,0.2c-12.8,3.8-2.6,28.3,0.1,28.9c24.6,5,38.2,2.2,62.1,2.2
				c0-21.9,17.9-30-5.5-29c-10.3-0.7-12.8-7.2-12.8-19.2c-7.4,0.2-14.4,0.2-21.8,0C235.8,157.8,233.8,161.9,223.4,162.6z"/>
			<path class="st16" d="M257.9,154.6c0,0-2,5.3-11.4,5.3s-11.3-6.2-11.3-6.2S249.7,143.6,257.9,154.6z"/>
			<g>
				<linearGradient id="SVGID_6_" gradientUnits="userSpaceOnUse" x1="229.269" y1="137.7992" x2="229.269" y2="125.991">
					<stop  offset="0" style="stop-color:#EFA897"/>
					<stop  offset="0.3953" style="stop-color:#EAA292"/>
					<stop  offset="0.9242" style="stop-color:#DB9183"/>
					<stop  offset="1" style="stop-color:#D88E80"/>
				</linearGradient>
				<path class="st17" d="M231,128.2c0,0-1.3-2-3.5-2.2c-3.3-0.2,1.1,10.7,0.7,9.1c0.7,2.5,3.2,3.5,4.1,2L231,128.2z"/>
				<linearGradient id="SVGID_7_" gradientUnits="userSpaceOnUse" x1="265.244" y1="137.7992" x2="265.244" y2="125.9919">
					<stop  offset="0" style="stop-color:#EFA897"/>
					<stop  offset="0.3953" style="stop-color:#EAA292"/>
					<stop  offset="0.9242" style="stop-color:#DB9183"/>
					<stop  offset="1" style="stop-color:#D88E80"/>
				</linearGradient>
				<path class="st18" d="M263.6,128.2c0,0,1.3-2,3.5-2.2c2.2-0.2,0,6.5-0.7,9.1c-0.7,2.5-3.2,3.5-4.1,2L263.6,128.2z"/>
				<path class="st19" d="M265.4,111.1c-0.3-6.8-11.1-5.4-18.1-6.1c-7,0.7-17.8-0.7-18.1,6.1c-0.3,6.9,1.4,24.5,2,29.6
					c0.6,5,5.9,15.4,16,15.4c9.5,0,15.4-10.4,16-15.4C263.9,135.6,265.7,118,265.4,111.1z"/>
			</g>
			<g>
				<g>
					<path class="st20" d="M214.3,478.1c1-1.3,4.8-5.8,5.2-6.3c3.7-3.5,10.2-16.8,9.2-23.2c-1.3-8.3,13.3-8.3,13,3.4
						c-0.1,5.5,1,6.1,1.1,11.5c0,4.3-1.5,8.8-1.5,8.8s-1.6,5.4-4.5,9.8c-1.3,2-4.1,5.9-12.5,5.9c-9.5,0-11.5-3.3-11.6-5.2
						C212.4,481.8,213.1,479.6,214.3,478.1z"/>
					<path class="st20" d="M274.3,452.1c-0.3-11.7,14.3-20.4,13-12c-0.4,2.3,4.9,27.8,9.2,31.9c0.5,0.4,4.3,5,5.2,6.3
						c1.2,1.5,1.9,3.7,1.5,4.7c-0.1,1.9-2.1,5-11.6,5.2c-9.5,0.3-11.2-3.9-12.5-5.9c-2.8-4.4-4.5-9.8-4.5-9.8s-1.6-2.8-1.5-7.2
						C273.3,459.8,274.4,457.6,274.3,452.1z"/>
				</g>
				<g>
					<path class="st21" d="M281.9,272.5c6.4,61,7.3,128.5,11.7,194.2c-7.4-0.3-17.7,1-24.6,1.2c-5.8-46.2-14.6-112-18.9-156.8
						c-1.9,44.2-2.4,95.8-3.9,156.2c-7,0.6-16.3-1.6-23.3-0.7c0,0-8.5-128.1-8.1-191.2L281.9,272.5z"/>
				</g>
			</g>
			<path class="st22" d="M261,94.4c2.9,3.5,0.9,6.1,2.1,7.8c1.8,2.5,3.7,4.1,4.1,7.7c0.6,5.8-0.4,12.4-2.8,21
				c0.4-9.3-2.4-18.7-3.6-20.1c-3.4-2.8-23.6-3.2-26.1-0.8c-3,5-4.4,13.2-4.5,18.9c-2.6-11.5-4.2-21.2,1.3-26.3
				C237.8,96.8,256.6,102,261,94.4z"/>
			<path class="st23" d="M215.3,279.8c0,0,19.4,6.4,41.8,5.7c24.7-0.8,25.4-3.2,26-7C284.1,271.4,227.1,273.2,215.3,279.8z"/>
			<g>
				<path class="st22" d="M263.9,144.5c0.3-2.7-0.1-5,0.3-7.9c0.4,0.2-6.3,2.8-9.4,1.1c-1-0.6-2.6-2-3.8-2.4c-1-0.3-2.6-0.1-3.7,0
					c-1.1-0.1-2.7-0.3-3.7,0c-1.2,0.4-2.8,1.8-3.8,2.4c-3.1,1.7-9.1-0.9-8.7-1.1c0.3,2.8-0.7,5.6-0.6,8.5
					c0.2,4.7,5.2,11.9,15.8,12.4C259,158,263.5,149.5,263.9,144.5z M247.2,139.7c5,0,2.3,2.3,9.4,2.9c-3.5,3.5-4.3,4.4-9.4,4.8
					c-5.1-0.3-5.9-1.3-9.4-4.8C244.9,141.9,242.2,139.7,247.2,139.7z"/>
			</g>
			<linearGradient id="SVGID_8_" gradientUnits="userSpaceOnUse" x1="183.9113" y1="217.3026" x2="312.3019" y2="217.3026">
				<stop  offset="0" style="stop-color:#028776"/>
				<stop  offset="0.1963" style="stop-color:#029780"/>
				<stop  offset="0.5211" style="stop-color:#02AC8C"/>
				<stop  offset="0.7342" style="stop-color:#02B491"/>
			</linearGradient>
			<path class="st24" d="M312.3,184.3c-0.2-0.3-0.3-0.6-0.5-1c-2.2-4.7-3.4-13.7-5.5-20.3c-0.2-0.5-0.3-0.9-0.5-1.4
				c-22.8,1.1-29.9,3-33.9,2.6c-2-0.2-6.5-2.4-7.2-3.1l-18.1,14.8c0,0,0,0,0,0l-0.1,0l-16.9-15.3c-3.1,1.2-5.6,1.5-8.1,1.1
				c-4.9-0.9-5.9-1.9-12.5-4.4c-5.8-2.2-14.7-2.8-22.8-5.1c-0.7,9.4-1.3,20.2-2.3,26.4c4.1,3.1,19.6,14.9,20.7,17.6
				c4.5,10.7,9.5,82.3,9.5,82.3c-0.1,0.7,0.5,1.1,1.2,1.3c18.9,3.6,47.6,3.4,67.8-1.3c0.7-0.2,1.3-0.7,1.1-1.4c0,0,1-55.3,1.9-76.5
				C286.2,196.5,286.6,196.7,312.3,184.3C312.3,184.3,312.3,184.3,312.3,184.3C312.3,184.3,312.3,184.3,312.3,184.3z"/>
			<path class="st25" d="M270.4,165.8c0,0-9.5,17.1-11.1,18c-1.5,0.9-13-7.7-13-7.7L270.4,165.8z"/>
			<path class="st25" d="M225.3,165c0,0,7.1,17.9,8.6,18.8c1.5,0.9,12.2-7.7,12.2-7.7L225.3,165z"/>
			<polygon class="st26" points="231.3,159.7 222.6,161.6 234.2,181.3 246.5,176 			"/>
			<polygon class="st26" points="262.6,160.3 271.6,164.3 258.8,181.6 246.4,176.1 			"/>
		</g>
		<g id="girl_7_">
			<linearGradient id="SVGID_9_" gradientUnits="userSpaceOnUse" x1="343.4322" y1="291.1082" x2="391.5294" y2="291.1082">
				<stop  offset="0" style="stop-color:#D88E80"/>
				<stop  offset="7.577777e-002" style="stop-color:#DB9183"/>
				<stop  offset="0.6047" style="stop-color:#EAA292"/>
				<stop  offset="1" style="stop-color:#EFA897"/>
			</linearGradient>
			<polygon class="st27" points="391.5,302.6 389.7,279.6 353.2,279.6 343.4,295.6 			"/>
			<path class="st28" d="M348.8,158.3c-5.1-8-18.6-13.1-28.9-9.5c-18.3,6.5-16.4,26.1-25.6,28.9c-11.8,3.5-16.2,1.7-23.9,11.5
				c-5,6.3-5.3,21.9-12.5,29.1c8.9,1.8,21.4-14.2,30.2-14c5.5,0.1,12.5,1.1,19.6,2c-4.5,1.6-9.2,2.5-13.7,1.6
				c-8.2-1.7-13.6,2.4-26.3,11.3c10.9-4.7,19.7-10.1,26.2-7.7c32.5,12.4,60.9-5.9,61.1-26.2C356.4,177.1,354.7,167.6,348.8,158.3z"
				/>
			<linearGradient id="SVGID_10_" gradientUnits="userSpaceOnUse" x1="357.5917" y1="182.5372" x2="422.8357" y2="182.5372">
				<stop  offset="0" style="stop-color:#EFA897"/>
				<stop  offset="0.3953" style="stop-color:#EAA292"/>
				<stop  offset="0.9242" style="stop-color:#DB9183"/>
				<stop  offset="1" style="stop-color:#D88E80"/>
			</linearGradient>
			<path class="st29" d="M376,201.1l32.3-20.6L384.1,148l-7.6-3.2c0,0-3.8-4.1-3.9-5.9c0-0.4,0.7-0.9,0.7-1.3c0-1.8-4-4.4-3.8-6.2
				c0.1-1.2,2-3.5,3.2-3.7c3.4-0.5,10.7,3.3,13,5.8c1.8,2,5.1,9.7,5.1,9.7l31,35.5c2.1,2.7,0.5,6.5-3.1,9.2l-31.9,23.9
				c-19.6,16.2-7,4.6-8.3,25.8l-11.2-10.3l-9.8-21.3C365,207.3,365.9,202.3,376,201.1z"/>
			<linearGradient id="SVGID_11_" gradientUnits="userSpaceOnUse" x1="208.4982" y1="225.7966" x2="382.992" y2="225.7966">
				<stop  offset="0" style="stop-color:#EFA897"/>
				<stop  offset="0.3953" style="stop-color:#EAA292"/>
				<stop  offset="0.9242" style="stop-color:#DB9183"/>
				<stop  offset="1" style="stop-color:#D88E80"/>
			</linearGradient>
			<path class="st30" d="M330.9,198.5c2.4,7.3,3,11.9,0.6,14.2c-2.5,2.4-8,1.7-12.3,4.4c-2.8,1.7-6.1,4.6-9.2,7.8l-33.1,19.2
				l-45.8-18.3l0,0c0,0-2.7-6.1-4.4-7.5c-1.6-1.4-5.7-3.4-7.7-3c-0.5,0.1-1,1-1.4,1.2c-1.3,0.5-4.3-0.1-5.5,0.6
				c-1.3,0.8-3.8,3.4-3.7,4.9c0.2,2.9,5.7,7,8.3,8.3c2.4,1.1,10.7,2.7,10.7,2.7l40.5,21.5c7.9,4.8,7.2,3.6,15.9,0.3l36.2-14.7
				c4.5,1.4,6.5,1.9,11.4,6.9l19.4,7.9l23.6-16.5l0.6-19.5l-1.1-14l9-7.9c-4.2,2-9.8,3.9-10.9,3.8c-11.9-0.9-13.5,4.8-19.2,5.6
				c-4.1,0.6-4.9-3.2-8.4-12.2L330.9,198.5z"/>
			<path class="st31" d="M346.1,191c0,0-1.7,8.2-5.3,10.1c-3.7,1.9-12.7-2.4-12.7-2.4L346.1,191z"/>
			<linearGradient id="SVGID_12_" gradientUnits="userSpaceOnUse" x1="324.0903" y1="449.615" x2="351.6917" y2="449.615">
				<stop  offset="0" style="stop-color:#EFA897"/>
				<stop  offset="0.3953" style="stop-color:#EAA292"/>
				<stop  offset="0.9242" style="stop-color:#DB9183"/>
				<stop  offset="1" style="stop-color:#D88E80"/>
			</linearGradient>
			<path class="st32" d="M346.6,429c-3.8,2.3-10.3,6.7-13.9,8.1c-5.4,2-4.7-0.2-8.3,6.3c-1.5,2.7,1.5,0,4.6,8.7
				c-0.7,8.1,1.4,11.4,5.5,18.1c1.6-9,1.1-6.4,5.2-16.7c4-7.5,5.7-9.1,12-14.9L346.6,429z"/>
			<linearGradient id="SVGID_13_" gradientUnits="userSpaceOnUse" x1="258.6692" y1="349.8202" x2="301.2083" y2="349.8202">
				<stop  offset="0" style="stop-color:#EFA897"/>
				<stop  offset="0.3953" style="stop-color:#EAA292"/>
				<stop  offset="0.9242" style="stop-color:#DB9183"/>
				<stop  offset="1" style="stop-color:#D88E80"/>
			</linearGradient>
			<path class="st33" d="M301.2,353.1c-3.7-2.5-7-4.6-9.8-7.3c-4-4.1-4.9-7.4-12.4-7.9c-3.1-0.2,0.4,2.5-6.2,8.9
				c-7.7,2.7-9.8,6-14.1,12.6c8.8-2.4,6.6-1.8,17.7-2.4c8.5,0.5,10.3,1.4,18.2,4.7L301.2,353.1z"/>
			<path class="st34" d="M341,450.7c0,0-1.2,16.6,1.2,27.2c2.3,10.3-3.9,8.7-6.3,6.3c-2.7-2.7-17.1-32.4-18.8-39.1
				c-2-7.7,18.2-9.5,18.2-9.5S334.3,443.7,341,450.7z"/>
			<path class="st34" d="M280.3,357.4c0,0-15.2,6.8-23.4,13.8c-8,6.9-9.5,0.6-8.5-2.5c1.1-3.7,20.5-30.4,25.7-35
				c5.9-5.4,17,11.5,17,11.5S283.3,348.1,280.3,357.4z"/>
			<path class="st19" d="M337.7,200.2c-3.7,0.9-8.1-0.9-9.7-1.6c-6.5-3.5-11.1-11.2-12.5-17.3c-1.3-5.8-0.4-7.2,3.7-12.2
				c2.7-3.4,4.4-8.6,4.4-8.6c2.7,3.8,10.1,4.4,14.4,4.3c5.7-0.1,6.4,1.8,8.4,7.5c2.1,5.9,2.6,15.6-1,22
				C344.5,195.7,341.7,199.3,337.7,200.2z"/>
			<g class="st35">
				<linearGradient id="SVGID_14_" gradientUnits="userSpaceOnUse" x1="357.5917" y1="182.5372" x2="422.8357" y2="182.5372">
					<stop  offset="0" style="stop-color:#EFA897"/>
					<stop  offset="0.3953" style="stop-color:#EAA292"/>
					<stop  offset="0.9242" style="stop-color:#DB9183"/>
					<stop  offset="1" style="stop-color:#D88E80"/>
				</linearGradient>
				<path class="st36" d="M376,201.1l32.3-20.6L384.1,148l-7.6-3.2c0,0-3.8-4.1-3.9-5.9c0-0.4,0.7-0.9,0.7-1.3c0-1.8-4-4.4-3.8-6.2
					c0.1-1.2,2-3.5,3.2-3.7c3.4-0.5,10.7,3.3,13,5.8c1.8,2,5.1,9.7,5.1,9.7l31,35.5c2.1,2.7,0.5,6.5-3.1,9.2l-31.9,23.9
					c-19.6,16.2-7,4.6-8.3,25.8l-11.2-10.3l-9.8-21.3C365,207.3,365.9,202.3,376,201.1z"/>
				<linearGradient id="SVGID_15_" gradientUnits="userSpaceOnUse" x1="208.4982" y1="225.7966" x2="382.992" y2="225.7966">
					<stop  offset="0" style="stop-color:#EFA897"/>
					<stop  offset="0.3953" style="stop-color:#EAA292"/>
					<stop  offset="0.9242" style="stop-color:#DB9183"/>
					<stop  offset="1" style="stop-color:#D88E80"/>
				</linearGradient>
				<path class="st37" d="M330.9,198.5c2.4,7.3,3,11.9,0.6,14.2c-2.5,2.4-8,1.7-12.3,4.4c-2.8,1.7-6.1,6.2-9.2,9.4l-33.1,17.6
					l-45.8-18.3l0,0c0,0-2.7-6.1-4.4-7.5c-1.6-1.4-5.7-3.4-7.7-3c-0.5,0.1-1,1-1.4,1.2c-1.3,0.5-4.3-0.1-5.5,0.6
					c-1.3,0.8-3.8,3.4-3.7,4.9c0.2,2.9,5.7,7,8.3,8.3c2.4,1.1,10.7,2.7,10.7,2.7l40.5,21.5c7.9,4.8,7.2,3.6,15.9,0.3l36.2-14.7
					c4.5,1.4,6.5,1.9,11.4,6.9l19.4,7.9l23.6-16.5l0.6-19.5l-1.1-14l9-7.9c-4.2,2-9.8,3.9-10.9,3.8c-11.9-0.9-13.5,4.8-19.2,5.6
					c-4.1,0.6-4.9-3.2-8.4-12.2L330.9,198.5z"/>
				<linearGradient id="SVGID_16_" gradientUnits="userSpaceOnUse" x1="343.4322" y1="291.1082" x2="391.5294" y2="291.1082">
					<stop  offset="0" style="stop-color:#EFA897"/>
					<stop  offset="0.3953" style="stop-color:#EAA292"/>
					<stop  offset="0.9242" style="stop-color:#DB9183"/>
					<stop  offset="1" style="stop-color:#D88E80"/>
				</linearGradient>
				<polygon class="st38" points="391.5,302.6 389.7,279.6 353.2,279.6 343.4,295.6 				"/>
				<linearGradient id="SVGID_17_" gradientUnits="userSpaceOnUse" x1="324.0903" y1="449.615" x2="351.6917" y2="449.615">
					<stop  offset="0" style="stop-color:#EFA897"/>
					<stop  offset="0.3953" style="stop-color:#EAA292"/>
					<stop  offset="0.9242" style="stop-color:#DB9183"/>
					<stop  offset="1" style="stop-color:#D88E80"/>
				</linearGradient>
				<path class="st39" d="M346.6,429c-3.8,2.3-10.3,6.7-13.9,8.1c-5.4,2-4.7-0.2-8.3,6.3c-1.5,2.7,1.5,0,4.6,8.7
					c-0.7,8.1,1.4,11.4,5.5,18.1c1.6-9,1.1-6.4,5.2-16.7c4-7.5,5.7-9.1,12-14.9L346.6,429z"/>
				<linearGradient id="SVGID_18_" gradientUnits="userSpaceOnUse" x1="258.6692" y1="349.8202" x2="301.2083" y2="349.8202">
					<stop  offset="0" style="stop-color:#EFA897"/>
					<stop  offset="0.3953" style="stop-color:#EAA292"/>
					<stop  offset="0.9242" style="stop-color:#DB9183"/>
					<stop  offset="1" style="stop-color:#D88E80"/>
				</linearGradient>
				<path class="st40" d="M301.2,353.1c-3.7-2.5-7-4.6-9.8-7.3c-4-4.1-4.9-7.4-12.4-7.9c-3.1-0.2,0.4,2.5-6.2,8.9
					c-7.7,2.7-9.8,6-14.1,12.6c8.8-2.4,6.6-1.8,17.7-2.4c8.5,0.5,10.3,1.4,18.2,4.7L301.2,353.1z"/>
				<path class="st19" d="M337.7,200.2c-3.7,0.9-8.1-0.9-9.7-1.6c-6.5-3.5-11.1-11.2-12.5-17.3c-1.3-5.8-0.4-7.2,3.7-12.2
					c2.7-3.4,4.4-8.6,4.4-8.6c2.7,3.8,10.1,4.4,14.4,4.3c5.7-0.1,6.4,1.8,8.4,7.5c2.1,5.9,2.6,15.6-1,22
					C344.5,195.7,341.7,199.3,337.7,200.2z"/>
			</g>
			<linearGradient id="SVGID_19_" gradientUnits="userSpaceOnUse" x1="282.1978" y1="240.323" x2="409.8995" y2="240.323">
				<stop  offset="0" style="stop-color:#D81841"/>
				<stop  offset="0.283" style="stop-color:#DB1C45"/>
				<stop  offset="0.5603" style="stop-color:#E42651"/>
				<stop  offset="0.8345" style="stop-color:#F33964"/>
				<stop  offset="1" style="stop-color:#FF4774"/>
			</linearGradient>
			<path class="st41" d="M331.4,212.7c-2.5,2.4-8,1.7-12.3,4.4c-5.6,3.5-8.8,7.6-15.4,11.4l-21.5,12.2l6.7,12.3
				c0,0,23.9-11.2,32.5-11.4c3.4-0.1,3.7,0.3,6,2.1c0,0,6.8,7.2,11.4,13c3.9,4.9,12.2,14.8,12.1,21.9c0,3.3-4.1,11.1-4.1,11.1
				l44.8,4.6l-1.9-16.8c0,0-4.7-27.2-4.8-36.3c0-4.7-1.1-12-6.2-21.7l31.2-24.1l-10.6-8.9c-1.4,0.7-11.6,6-17.8,9.6
				c-8.2,4.7-7,3.3-14.8,4.3c-7.2,0.9-9.1,5.3-13.8,6C353.3,212.9,339.4,217.5,331.4,212.7z"/>
			<linearGradient id="SVGID_20_" gradientUnits="userSpaceOnUse" x1="284.4078" y1="371.1587" x2="419.5102" y2="371.1587">
				<stop  offset="0" style="stop-color:#BEBEC8"/>
				<stop  offset="0.3606" style="stop-color:#C7C8D0"/>
				<stop  offset="0.9709" style="stop-color:#DEE3E6"/>
				<stop  offset="1" style="stop-color:#DFE4E7"/>
			</linearGradient>
			<path class="st42" d="M284.4,358.9l8.3-12.4c0,0,42.9,16,49.9,25.2l-10.3-37.2c-4.2-14-0.5-23.2,2.7-27.6l8.4-11.3l48.1,7
				c0,0,0.7,12,1.3,15.9c0.9,5.8,24.8,65.8,24.8,65.8c2.8,7.3,3.2,13.7-4.1,18.4l-68.7,43.9l-7.7-12.7c0,0,30-29.1,41.3-36.4
				c4.6-3,18.7-8.9,18.7-8.9L364,331.8l-1-0.3l3,60.1c-1.1,9.1-5.1,14-9.7,12.1L284.4,358.9z"/>
			<path class="st5" d="M341.8,449.9c0,0-1.2,16.6,1.2,27.2c2.3,10.3-3.9,8.7-6.3,6.3c-2.7-2.7-17.1-32.4-18.8-39.1
				c-1.9-7.7,18.2-9.5,18.2-9.5S335.1,442.9,341.8,449.9z"/>
			<path class="st5" d="M281.1,357.4c0,0-15.2,6.8-23.4,13.8c-8,6.9-9.5,0.6-8.5-2.5c1.1-3.7,20.5-30.4,25.7-35
				c5.9-5.4,17,11.5,17,11.5S284.1,348.1,281.1,357.4z"/>
		</g>
	</g>
</g>
</svg>
