<?xml version="1.0" encoding="utf-8"?>
<!-- Generator: Adobe Illustrator 19.0.0, SVG Export Plug-In . SVG Version: 6.00 Build 0)  -->
<svg version="1.1" id="Layer_1" xmlns="http://www.w3.org/2000/svg" xmlns:xlink="http://www.w3.org/1999/xlink" x="0px" y="0px"
	 viewBox="0 0 380 366.2" style="enable-background:new 0 0 380 366.2;" xml:space="preserve">
<style type="text/css">
	.st0{fill:url(#SVGID_1_);}
	.st1{fill:url(#SVGID_2_);}
	.st2{fill:#352217;}
	.st3{fill:#F0F2F3;}
	.st4{fill:#DFE4E7;}
	.st5{fill:#C0C8CE;}
	.st6{fill:#82939F;}
	.st7{fill:#FFFFFF;}
	.st8{opacity:0.1;fill:#F0F2F3;}
	.st9{fill:url(#SVGID_3_);}
	.st10{fill:url(#SVGID_4_);}
	.st11{fill:url(#SVGID_5_);}
	.st12{fill:url(#SVGID_6_);}
	.st13{fill:url(#SVGID_7_);}
	.st14{opacity:0.4;clip-path:url(#SVGID_9_);fill:#2C4C61;}
	.st15{fill:#1B394C;}
	.st16{fill:url(#SVGID_10_);}
	.st17{fill:#D66C54;}
	.st18{fill:#F4A66C;}
	.st19{fill:url(#SVGID_11_);}
	.st20{opacity:0.4;fill:#2C4C61;}
	.st21{fill:url(#SVGID_12_);}
	.st22{fill:url(#SVGID_13_);}
	.st23{fill:url(#SVGID_14_);}
	.st24{fill:url(#SVGID_15_);}
	.st25{fill:url(#SVGID_16_);}
	.st26{fill:url(#SVGID_17_);}
	.st27{fill:url(#SVGID_18_);}
	.st28{fill:url(#SVGID_19_);}
	.st29{fill:url(#SVGID_20_);}
	.st30{fill:url(#SVGID_21_);}
	.st31{opacity:0.9;fill:#C0C8CE;}
	.st32{fill:#2C4C61;}
	.st33{fill:url(#SVGID_22_);}
	.st34{fill:url(#SVGID_23_);}
	.st35{fill:url(#SVGID_24_);}
</style>
<g id="img_15_">
	
		<radialGradient id="SVGID_1_" cx="-1618.5277" cy="92.1661" r="28.2879" gradientTransform="matrix(-1 0 0 1 -1311.9041 0)" gradientUnits="userSpaceOnUse">
		<stop  offset="0" style="stop-color:#FECD18"/>
		<stop  offset="2.982661e-002" style="stop-color:#EECB20"/>
		<stop  offset="0.1397" style="stop-color:#B7C63A"/>
		<stop  offset="0.2534" style="stop-color:#87C151"/>
		<stop  offset="0.3687" style="stop-color:#5EBD65"/>
		<stop  offset="0.4858" style="stop-color:#3DBA75"/>
		<stop  offset="0.6053" style="stop-color:#23B781"/>
		<stop  offset="0.7282" style="stop-color:#10B58A"/>
		<stop  offset="0.8567" style="stop-color:#06B48F"/>
		<stop  offset="0.9996" style="stop-color:#02B491"/>
	</radialGradient>
	<path class="st0" d="M300.1,88.7c0,2.1,0,11.6,0,13.7c-0.1,0-0.1,0.1-0.2,0.1c-0.1-0.3-0.3-0.5-0.4-0.8c-0.7-1.9-1.5-3.7-3.2-4.9
		c-1.8-1.3-3.9-1.8-6.1-1.7c-0.6,0-0.6,0.4-0.6,0.8c0.5,4.5,3.4,7.1,7.5,8.5c0.8,0.3,1.5,0.4,2.3,0.6c0.2,0.1,0.6,0.3,0.6,0.5
		c0,2.3,0,4.6-0.2,7c-0.1-0.3-0.2-0.5-0.3-0.8c-1.5-4.7-5.7-7-9.9-7.4c-0.8-0.1-1.1,0.3-1,1.1c0.3,4.8,2.8,7.9,7.2,9.7
		c2.8,1.2,5.7,1.4,8.6,0.7c4.4-1,6.8-4,7.9-8.2c0.2-0.8,0.3-1.7,0.5-2.8c-2.8-0.2-5,0.6-7,2.3c-1.9,1.6-3.2,3.7-4,6.1
		c-0.1,0-0.2-0.1-0.3-0.1c0-0.2-0.1-0.5-0.1-0.7c0-2.1,0-4.1,0-6.2c0-0.6,0.1-0.9,0.9-1c3.2-0.4,6-1.4,7.7-4.4
		c1-1.7,1.3-3.5,1.5-5.3c0.1-0.6-0.3-0.5-0.8-0.5c-4.1,0.6-7,2.7-8.3,6.7c-0.2,0.6-0.4,1.2-0.7,1.9c-0.1,0-0.2,0-0.2,0
		c0-0.3-0.1-0.6-0.1-0.9c0-1.8,0-12.1,0-13.9C301.5,81.9,301.5,88.6,300.1,88.7z"/>
	
		<radialGradient id="SVGID_2_" cx="-1603.6526" cy="90.0377" r="20.5223" gradientTransform="matrix(-1 0 0 1 -1311.9041 0)" gradientUnits="userSpaceOnUse">
		<stop  offset="0" style="stop-color:#F98D2B"/>
		<stop  offset="4.138333e-002" style="stop-color:#F99329"/>
		<stop  offset="0.2632" style="stop-color:#FBAC22"/>
		<stop  offset="0.4927" style="stop-color:#FDBF1C"/>
		<stop  offset="0.7327" style="stop-color:#FEC919"/>
		<stop  offset="1" style="stop-color:#FECD18"/>
	</radialGradient>
	<path class="st1" d="M295.3,73.4c0-1,0.1-2.2,0.3-3.2c0.1-1.2,1.7-1.8,2.5-0.9c0.7,0.8,1.5,1.6,2.2,2.4c0.5,0.7,1.5,0.7,2.2,0.1
		c0.7-0.7,1.6-1.4,2.5-2.1c1-0.8,2.4-0.1,2.4,1.2c0,1.1-0.1,2.2-0.2,3.2c-0.1,0.8,0.6,1.6,1.4,1.6c1,0,2.2,0.1,3.2,0.3
		c1.2,0.1,1.8,1.7,0.9,2.5c-0.8,0.7-1.6,1.5-2.4,2.2c-0.7,0.5-0.7,1.5-0.1,2.2c0.7,0.7,1.4,1.6,2.1,2.5c0.8,1,0.1,2.4-1.2,2.4
		c-1.1,0-2.2-0.1-3.2-0.2c-0.8-0.1-1.6,0.6-1.6,1.4c0,1-0.1,2.2-0.3,3.2c-0.1,1.2-1.7,1.8-2.5,0.9c-0.7-0.8-1.5-1.6-2.2-2.4
		c-0.5-0.7-1.5-0.7-2.2-0.1c-0.7,0.7-1.6,1.4-2.5,2.1c-1,0.8-2.4,0.1-2.4-1.2c0-1.1,0.1-2.2,0.2-3.2c0.1-0.8-0.6-1.6-1.4-1.6
		c-1,0-2.2-0.1-3.2-0.3c-1.2-0.1-1.8-1.7-0.9-2.5c0.8-0.7,1.6-1.5,2.4-2.2c0.7-0.5,0.7-1.5,0.1-2.2c-0.7-0.7-1.4-1.6-2.1-2.5
		c-0.8-1-0.1-2.4,1.2-2.4c1.1,0,2.2,0.1,3.2,0.2C294.5,74.9,295.3,74.3,295.3,73.4z"/>
	<circle class="st2" cx="300.7" cy="81.2" r="3.7"/>
	<ellipse id="shadow_5_" class="st3" cx="190" cy="347" rx="190" ry="19.2"/>
	<path class="st4" d="M195,144.2h59.7c0.3-0.5,0.6-1.6,0.8-2.2l13.4-48.9c1-3.8-3-5.8-5.3-5.8h-50.7c-1.6,0-3,3-3.5,4.5L195,144.2z"
		/>
	<path class="st5" d="M266.1,92l-13.4,48.2c-0.6,2.2-2.7,3.8-5,3.8h-56.1l15-53.9c0.4-1.6,1.8-2.6,3.5-2.6h52.5
		C265,87.4,266.7,89.7,266.1,92z"/>
	<path class="st6" d="M263.1,94.1l-10.9,39.3l-2.3,8.2h-55.6l2.3-8.2L208,92.3c0.4-1.4,1.7-2.4,3.2-2.4h48.7
		C262.1,89.9,263.7,92,263.1,94.1z"/>
	<polygon class="st7" points="230.4,95.2 213.2,95.2 213.6,94 230.7,94 	"/>
	<polygon class="st7" points="245.9,95.2 237.8,95.2 238.2,94 246.3,94 	"/>
	<polygon class="st7" points="257.6,95.2 249.5,95.2 249.9,94 258,94 	"/>
	<polygon class="st7" points="248.5,95.2 246.6,95.2 247,94 248.9,94 	"/>
	<polygon class="st7" points="236.8,95.2 231.2,95.2 231.5,94 237.2,94 	"/>
	<polygon class="st7" points="218,100.4 211.6,100.4 212,99.2 218.4,99.2 	"/>
	<polygon class="st7" points="233.6,100.4 230.8,100.4 231.2,99.2 233.9,99.2 	"/>
	<polygon class="st7" points="256,100.4 242.5,100.4 242.9,99.2 256.3,99.2 	"/>
	<polygon class="st7" points="241.5,100.4 234.3,100.4 234.7,99.2 241.9,99.2 	"/>
	<polygon class="st7" points="229.9,100.4 218.8,100.4 219.2,99.2 230.2,99.2 	"/>
	<polygon class="st7" points="216.4,105.5 210,105.5 210.4,104.3 216.8,104.3 	"/>
	<polygon class="st7" points="226.9,105.5 220.5,105.5 220.8,104.3 227.3,104.3 	"/>
	<polygon class="st7" points="252.5,105.5 241.5,105.5 241.9,104.3 252.9,104.3 	"/>
	<polygon class="st7" points="208.4,110.6 219.4,110.6 219.8,109.4 208.7,109.4 	"/>
	<polygon class="st5" points="252.9,133.4 250.6,141.7 193.6,141.7 195.9,133.4 	"/>
	<path class="st5" d="M222.2,144.1h-68.3c-1.6,0-2.9-1.3-2.9-2.9l0,0c0-1.6,1.3-2.9,2.9-2.9h68.3c1.6,0,2.9,1.3,2.9,2.9l0,0
		C225.1,142.8,223.8,144.1,222.2,144.1z"/>
	<path class="st4" d="M252.3,144h-43.7c-1.6,0-2.9-1.3-2.9-2.9l0,0c0-1.6,1.3-2.9,2.9-2.9h43.7c1.6,0,2.9,1.3,2.9,2.9l0,0
		C255.2,142.7,253.9,144,252.3,144z"/>
	<polygon class="st8" points="255.3,87.4 254.2,89.9 234.3,133.4 232.2,137.9 210.7,137.9 212.8,133.4 232.7,89.9 233.8,87.4 	"/>
	
		<linearGradient id="SVGID_3_" gradientUnits="userSpaceOnUse" x1="-1582.9702" y1="345.1796" x2="-1582.9702" y2="145.4503" gradientTransform="matrix(-1 0 0 1 -1311.9041 0)">
		<stop  offset="0.5512" style="stop-color:#82939F"/>
		<stop  offset="0.7693" style="stop-color:#80919E"/>
		<stop  offset="0.8479" style="stop-color:#798C98"/>
		<stop  offset="0.9039" style="stop-color:#6E828F"/>
		<stop  offset="0.9491" style="stop-color:#5D7382"/>
		<stop  offset="0.9874" style="stop-color:#476172"/>
		<stop  offset="1" style="stop-color:#3E596B"/>
	</linearGradient>
	<rect x="265" y="145.5" class="st9" width="12.1" height="199.7"/>
	
		<linearGradient id="SVGID_4_" gradientUnits="userSpaceOnUse" x1="-1432.9369" y1="345.1796" x2="-1432.9369" y2="145.4503" gradientTransform="matrix(-1 0 0 1 -1311.9041 0)">
		<stop  offset="0.5512" style="stop-color:#82939F"/>
		<stop  offset="0.7693" style="stop-color:#80919E"/>
		<stop  offset="0.8479" style="stop-color:#798C98"/>
		<stop  offset="0.9039" style="stop-color:#6E828F"/>
		<stop  offset="0.9491" style="stop-color:#5D7382"/>
		<stop  offset="0.9874" style="stop-color:#476172"/>
		<stop  offset="1" style="stop-color:#3E596B"/>
	</linearGradient>
	<rect x="115" y="145.5" class="st10" width="12.1" height="199.7"/>
	
		<linearGradient id="SVGID_5_" gradientUnits="userSpaceOnUse" x1="-1437.7102" y1="-48.8968" x2="-1402.3691" y2="12.3158" gradientTransform="matrix(-0.9856 -0.169 -0.169 0.9856 -1269.9055 -87.307)">
		<stop  offset="0" style="stop-color:#EC9766"/>
		<stop  offset="0.182" style="stop-color:#E88E62"/>
		<stop  offset="0.4725" style="stop-color:#DC7759"/>
		<stop  offset="0.5884" style="stop-color:#D66C54"/>
	</linearGradient>
	<path class="st11" d="M88,122.8c18.8-0.7,45.2,10,65.7,6.2c7.4-3.5,28.3-6.3,32.9,7c1.3,3.7-8.7,1.9-14.2,0.3
		c0,0.8-0.3,1.6-0.5,2.3c-0.2,0.7-1.1,0.9-1.6,0.5c-1.4-1-4.3-1.7-8,0.3c-4,2.1-7.2,2.5-10.6,1.7c-21.8,7-51.5,10.8-61.8,3.7
		C72,132.5,88,122.8,88,122.8z"/>
	<path class="st3" d="M177.3,324.9c-0.6-6.4-1.2-15.5-1.1-17.4c0.6-10.9,15.5-19.1,18.2,12.7c0.2,2.1,1,6.8,2.3,8.2
		c0,0-16.4,4.8-19.5-2.6C177.2,325.4,177.2,325.2,177.3,324.9z"/>
	
		<linearGradient id="SVGID_6_" gradientUnits="userSpaceOnUse" x1="-1542.5188" y1="333.2744" x2="-1484.6354" y2="333.2744" gradientTransform="matrix(-1 0 0 1 -1311.9041 0)">
		<stop  offset="0" style="stop-color:#192C4B"/>
		<stop  offset="2.010286e-003" style="stop-color:#192C4B"/>
		<stop  offset="0.3961" style="stop-color:#0D202F"/>
		<stop  offset="0.7419" style="stop-color:#06191E"/>
		<stop  offset="1" style="stop-color:#031618"/>
	</linearGradient>
	<path class="st12" d="M194.8,322.7c0,0,15.8,8.8,27.6,12.2c11.9,3.4,8.2,8.7,5.6,8.8c-2.6,0.1-44.2,0.7-52-0.2
		c-7.8-0.9,1.1-20.9,1.1-20.9S184.1,326,194.8,322.7z"/>
	<path class="st3" d="M200,321.5c-0.8-6.3-1.8-15.4-1.7-17.4c0.2-10.9,14.2-17.7,18.7,12c0.3,2.1,1.3,6.8,2.6,8.1
		c0,0-16.3,6-19.6-1.2C200,322.7,200,321.8,200,321.5z"/>
	
		<linearGradient id="SVGID_7_" gradientUnits="userSpaceOnUse" x1="-1565.2018" y1="334.121" x2="-1507.325" y2="334.121" gradientTransform="matrix(-1 0 0 1 -1311.9041 0)">
		<stop  offset="0" style="stop-color:#192C4B"/>
		<stop  offset="2.010286e-003" style="stop-color:#192C4B"/>
		<stop  offset="0.3961" style="stop-color:#0D202F"/>
		<stop  offset="0.7419" style="stop-color:#06191E"/>
		<stop  offset="1" style="stop-color:#031618"/>
	</linearGradient>
	<path class="st13" d="M218.9,323c0,0,14.8,9.6,26.5,13.4c11.7,3.9,7.8,9.1,5.2,9.1c-2.6,0-44.2-0.7-52-2s1.3-20.8,1.3-20.8
		S208,325.8,218.9,323z"/>
	<g>
		<defs>
			<path id="SVGID_8_" d="M79.8,185.4c106.5,19.9,110.5,33.5,115.1,125.9c0.3,6.1-18.5,7.4-19.9,1.9c-11.3-44.3-16.6-66.9-27.1-74.2
				c-8.1-5.6-26.5-4.1-43.4-6.9c-22.5-3.8-22.3-13.1-22.3-13.1C76.3,205.9,79.8,185.4,79.8,185.4z"/>
		</defs>
		<use xlink:href="#SVGID_8_"  style="overflow:visible;fill:#102D3A;"/>
		<clipPath id="SVGID_9_">
			<use xlink:href="#SVGID_8_"  style="overflow:visible;"/>
		</clipPath>
		<path class="st14" d="M196,290.5c-14.2-47.8-39.7-52.4-39.7-52.4l33.1-6.9L196,290.5z"/>
	</g>
	<path class="st15" d="M91.3,223.3c0,0,4.8,6.6,31.5,10.6c29.8,4.5,41.4,1.2,49.9,9.5c11,10.9,14.6,24.7,25,68.5
		c1.3,5.6,20.8,3.7,20.5-2.5c-5.6-96.6-7.7-92.8-84.4-122.5c-12.6-4.9-26.1,3.4-44.1,0.4C89.7,187.3,83.6,207.4,91.3,223.3z"/>
	
		<linearGradient id="SVGID_10_" gradientUnits="userSpaceOnUse" x1="-465.9727" y1="70.7208" x2="-477.0953" y2="51.4561" gradientTransform="matrix(-1 0 0 1 -365.7498 0)">
		<stop  offset="0" style="stop-color:#F4A66C"/>
		<stop  offset="0.2932" style="stop-color:#ED9967"/>
		<stop  offset="0.8304" style="stop-color:#DC7859"/>
		<stop  offset="1" style="stop-color:#D66C54"/>
	</linearGradient>
	<path class="st16" d="M92.3,44.1c0,0,1.3,13-1.9,24.7c0,0,15.6,15.6,21.4,16.2c5.8,0.6,3.9-0.6,3.9-10.4s3.2-17.5,3.2-17.5
		S102.7,39.5,92.3,44.1z"/>
	<path class="st17" d="M116.5,66c-11.5-1.5-10.8-11.3-10.8-11.3s-1.7-5.5,3.6-1.4c3.1,2.4,6.6,7.4,7.7,10.2L116.5,66"/>
	<path class="st18" d="M101.7,46.7c0,0-5.2-22.9,0.4-32.6s28.5-10.6,29.5,14.1c1.1,25.3-6.9,38.8-14.7,36.7
		C110,63.1,103.8,58.7,101.7,46.7z"/>
	<path class="st2" d="M92.5,52.4c0,0,4.3,2.2,8.8-2c2.5-2.4,5-7.6,6.9-14.8c16.2-0.6,17.6-15.6,19.5-15.4c0,0,11.9,3.5,10.3-4.2
		c-0.9-4.2-4.8-9.1-19.7-14.1C95.1-6,68.6,11.2,92.5,52.4z"/>
	<path class="st18" d="M107.3,45.7c-0.4-2.5-0.8-5.4-1.4-9.1c-1.3-8.1,3.8-2.2,8.4,4.4L107.3,45.7z"/>
	
		<linearGradient id="SVGID_11_" gradientUnits="userSpaceOnUse" x1="-507.872" y1="124.7245" x2="-403.3722" y2="139.411" gradientTransform="matrix(-1 0 0 1 -365.7498 0)">
		<stop  offset="0.2655" style="stop-color:#36B5C2"/>
		<stop  offset="0.3832" style="stop-color:#37AFC4"/>
		<stop  offset="0.5463" style="stop-color:#3B9DC9"/>
		<stop  offset="0.622" style="stop-color:#3D92CC"/>
	</linearGradient>
	<path class="st19" d="M90.3,68.7c-11.1,12.7-14.7,35-15.6,41.4c-2.8,20.8,1,26.3-0.1,76.3c0,0,34.2,10.5,61.6,1.4
		c-0.3,4.2,3.2-93.6-20.2-115.1c0,0-4.5-2.1-10.8-3.1C98.9,68.7,90.7,68.2,90.3,68.7z"/>
	<path class="st20" d="M115.8,147.1c13,9.7,41.8,5.7,65.2-4.1c17.7-7.4-20.7-3.7-47.9-4.1c-2.7,0-29.1-35.9-31.1-35.4
		C102,103.5,101.5,136.4,115.8,147.1z"/>
	
		<linearGradient id="SVGID_12_" gradientUnits="userSpaceOnUse" x1="-487.9901" y1="-116.3155" x2="-440.1842" y2="-173.3378" gradientTransform="matrix(-0.9399 -0.3415 -0.3415 0.9399 -341.0911 98.0934)">
		<stop  offset="0" style="stop-color:#F4A66C"/>
		<stop  offset="0.187" style="stop-color:#F2A26A"/>
		<stop  offset="0.3582" style="stop-color:#EC9766"/>
		<stop  offset="0.5228" style="stop-color:#E3855E"/>
		<stop  offset="0.6769" style="stop-color:#D66C54"/>
	</linearGradient>
	<path class="st21" d="M119.7,145c10.5,7.2,42.5,5,64.5-2.2c7.6-2.5,7.2-8.2-5.1-11.3c-20.7,4.1-40.9-7.3-59.9-6.6
		C119.2,124.9,101.9,132.8,119.7,145z"/>
	<path class="st18" d="M196.8,137.5c0,0-6.5,0.2-6.1,3.7s-3-6.6-3-6.6S190.4,134.2,196.8,137.5z"/>
	<path class="st18" d="M176,137.7c0-1.5,0.4-3.1,1.4-4.7c2.6-4.2,29.2-9.7,34.3,3.5c1.7,4.4-4,1.8-11.6,1.6
		c-1.1,0.4-2.2,1.1-3.3,2.2c-4.5,4.3-15.2,4.3-20.6,3.5C172.7,143.3,173.4,140.1,176,137.7z"/>
	
		<linearGradient id="SVGID_13_" gradientUnits="userSpaceOnUse" x1="737.3287" y1="497.7656" x2="1014.1674" y2="274.2496" gradientTransform="matrix(0.9331 -0.3597 0.3597 0.9331 -857.8013 91.5652)">
		<stop  offset="0.4877" style="stop-color:#3D92CC"/>
		<stop  offset="0.5237" style="stop-color:#3B9DC9"/>
		<stop  offset="0.6012" style="stop-color:#37AFC4"/>
		<stop  offset="0.6572" style="stop-color:#36B5C2"/>
	</linearGradient>
	<path class="st22" d="M101.4,100.4c4.6,24.7,10.3,38.4,10.3,38.4s24.2-10.4,24.1-11.9c-1.5-19.3-8.9-43.7-16.2-50.7
		c-4.7-4.4-8.7-5.2-15-5.9C104.6,70.3,97.3,77.9,101.4,100.4z"/>
	
		<linearGradient id="SVGID_14_" gradientUnits="userSpaceOnUse" x1="-1416.5078" y1="345.238" x2="-1416.5078" y2="241.7653" gradientTransform="matrix(-1 0 0 1 -1311.9041 0)">
		<stop  offset="0" style="stop-color:#192C4B"/>
		<stop  offset="2.010286e-003" style="stop-color:#192C4B"/>
		<stop  offset="0.3961" style="stop-color:#0D202F"/>
		<stop  offset="0.7419" style="stop-color:#06191E"/>
		<stop  offset="1" style="stop-color:#031618"/>
	</linearGradient>
	<path class="st23" d="M75.7,310.9h23.5V247c0-2.9,2.3-5.2,5.2-5.2h0.4c2.9,0,5.2,2.3,5.2,5.2v63.9h23.5c11.2,0,20.3,9.1,20.3,20.3
		v9c0,2.6-2.1,4.7-4.7,4.7c-2.6,0-4.7-2.1-4.7-4.7v-9c0-6.1-4.9-11-11-11H110V340c0,2.9-2.3,5.2-5.2,5.2h-0.4
		c-2.9,0-5.2-2.3-5.2-5.2v-19.8H75.7c-6.1,0-11,4.9-11,11v9c0,2.6-2.1,4.7-4.7,4.7s-4.7-2.1-4.7-4.7v-9
		C55.4,320,64.5,310.9,75.7,310.9z"/>
	
		<linearGradient id="SVGID_15_" gradientUnits="userSpaceOnUse" x1="-1416.6611" y1="311.0855" x2="-1416.6611" y2="300.4352" gradientTransform="matrix(-1 0 0 1 -1311.9041 0)">
		<stop  offset="0" style="stop-color:#172A37"/>
		<stop  offset="0.2368" style="stop-color:#11202A"/>
		<stop  offset="0.6809" style="stop-color:#081218"/>
		<stop  offset="1" style="stop-color:#050D12"/>
	</linearGradient>
	<rect x="97.2" y="300.4" class="st24" width="15.1" height="10.7"/>
	
		<linearGradient id="SVGID_16_" gradientUnits="userSpaceOnUse" x1="-1469.1774" y1="336.0936" x2="-1452.8724" y2="336.0936" gradientTransform="matrix(-1 0 0 1 -1311.9041 0)">
		<stop  offset="0" style="stop-color:#2C4C61"/>
		<stop  offset="0.3466" style="stop-color:#28465D"/>
		<stop  offset="0.8103" style="stop-color:#1E3551"/>
		<stop  offset="1" style="stop-color:#192C4B"/>
	</linearGradient>
	<path class="st25" d="M157.3,340.2c0-4.5-3.6-8.2-8.2-8.2c-4.5,0-8.2,3.6-8.2,8.2H157.3z"/>
	
		<linearGradient id="SVGID_17_" gradientUnits="userSpaceOnUse" x1="-1424.6603" y1="336.0936" x2="-1408.3553" y2="336.0936" gradientTransform="matrix(-1 0 0 1 -1311.9041 0)">
		<stop  offset="0" style="stop-color:#2C4C61"/>
		<stop  offset="0.3466" style="stop-color:#28465D"/>
		<stop  offset="0.8103" style="stop-color:#1E3551"/>
		<stop  offset="1" style="stop-color:#192C4B"/>
	</linearGradient>
	<path class="st26" d="M112.8,340.2c0-4.5-3.6-8.2-8.2-8.2c-4.5,0-8.2,3.6-8.2,8.2H112.8z"/>
	
		<linearGradient id="SVGID_18_" gradientUnits="userSpaceOnUse" x1="-1380.1432" y1="336.0936" x2="-1363.8381" y2="336.0936" gradientTransform="matrix(-1 0 0 1 -1311.9041 0)">
		<stop  offset="0" style="stop-color:#2C4C61"/>
		<stop  offset="0.3466" style="stop-color:#28465D"/>
		<stop  offset="0.8103" style="stop-color:#1E3551"/>
		<stop  offset="1" style="stop-color:#192C4B"/>
	</linearGradient>
	<path class="st27" d="M68.2,340.2c0-4.5-3.6-8.2-8.2-8.2s-8.2,3.6-8.2,8.2H68.2z"/>
	
		<linearGradient id="SVGID_19_" gradientUnits="userSpaceOnUse" x1="-1447.6335" y1="249.0039" x2="-1385.6887" y2="249.0039" gradientTransform="matrix(-1 0 0 1 -1311.9041 0)">
		<stop  offset="0" style="stop-color:#2C4C61"/>
		<stop  offset="0.1608" style="stop-color:#28445C"/>
		<stop  offset="0.6492" style="stop-color:#1D324F"/>
		<stop  offset="1" style="stop-color:#192C4B"/>
	</linearGradient>
	<path class="st28" d="M77,253.3h55.5c1.8,0,3.2-1.4,3.2-3.2v-2.3c0-1.8-1.4-3.2-3.2-3.2H77c-1.8,0-3.2,1.4-3.2,3.2v2.3
		C73.8,251.9,75.2,253.3,77,253.3z"/>
	
		<linearGradient id="SVGID_20_" gradientUnits="userSpaceOnUse" x1="-1393.5397" y1="169.2544" x2="-1335.8718" y2="190.2438" gradientTransform="matrix(-1 0 0 1 -1311.9041 0)">
		<stop  offset="0.2728" style="stop-color:#82939F"/>
		<stop  offset="0.5563" style="stop-color:#768894"/>
		<stop  offset="1" style="stop-color:#5C6E7B"/>
	</linearGradient>
	<path class="st29" d="M20.1,123.4l21.1,113.5c1,6.3,6.7,10.8,14.2,10.8h0c9.8,0,27.7,0.2,27.7,0.2L59.7,109c0,0-21.7,0.1-29.9,0.1
		h2.4C23.4,109.1,18.7,115.8,20.1,123.4z"/>
	
		<linearGradient id="SVGID_21_" gradientUnits="userSpaceOnUse" x1="-1448.7734" y1="162.4084" x2="-1364.7797" y2="210.9022" gradientTransform="matrix(-1 0 0 1 -1311.9041 0)">
		<stop  offset="0" style="stop-color:#C0C8CE"/>
		<stop  offset="0.1181" style="stop-color:#B5BEC6"/>
		<stop  offset="0.4663" style="stop-color:#99A7B0"/>
		<stop  offset="0.7719" style="stop-color:#8898A4"/>
		<stop  offset="1" style="stop-color:#82939F"/>
	</linearGradient>
	<path class="st30" d="M48.1,123.4c-1.2-6.6,3.1-12.9,9.7-14.1c6.6-1.2,12.9,3.1,14.1,9.7l17.6,95.2H157c9.3,0,16.8,7.5,16.8,16.8v0
		c0,9.3-7.5,16.8-16.8,16.8H84.9c-0.7,0-1.4,0-2.1-0.1c-6.4,0.9-12.4-3.4-13.6-9.8l-0.3-1.5c-0.5-1.5-0.8-3.1-0.9-4.8L48.1,123.4z"
		/>
	<path class="st31" d="M32.2,109.1h-2.4c8.3,0,29.9-0.1,29.9-0.1l0,0c5.8-0.1,11.1,4,12.2,9.9l17.6,95.2H157
		c9.3,0,16.8,7.5,16.8,16.8v0c0,9.3-7.5,16.8-16.8,16.8H84.9c-0.6,0-1.2,0-1.8-0.1l0,0.1c0,0-17.9-0.2-27.7-0.2l0,0
		c-7.6,0-13.2-4.5-14.2-10.8L20.1,123.4C18.7,115.8,23.4,109.1,32.2,109.1z"/>
	<path class="st32" d="M104.6,334.9"/>
	
		<linearGradient id="SVGID_22_" gradientUnits="userSpaceOnUse" x1="-1624.3231" y1="345.1796" x2="-1624.3231" y2="160.6032" gradientTransform="matrix(-1 0 0 1 -1311.9041 0)">
		<stop  offset="0.5512" style="stop-color:#5C6E7B"/>
		<stop  offset="0.7903" style="stop-color:#5A6D7A"/>
		<stop  offset="0.8765" style="stop-color:#536778"/>
		<stop  offset="0.9378" style="stop-color:#485E73"/>
		<stop  offset="0.9871" style="stop-color:#37516D"/>
		<stop  offset="1" style="stop-color:#314C6B"/>
	</linearGradient>
	<rect x="306.4" y="160.6" class="st33" width="12.1" height="184.6"/>
	
		<linearGradient id="SVGID_23_" gradientUnits="userSpaceOnUse" x1="-1468.0774" y1="345.1796" x2="-1468.0774" y2="160.6032" gradientTransform="matrix(-1 0 0 1 -1311.9041 0)">
		<stop  offset="0.5512" style="stop-color:#5C6E7B"/>
		<stop  offset="0.7903" style="stop-color:#5A6D7A"/>
		<stop  offset="0.8765" style="stop-color:#536778"/>
		<stop  offset="0.9378" style="stop-color:#485E73"/>
		<stop  offset="0.9871" style="stop-color:#37516D"/>
		<stop  offset="1" style="stop-color:#314C6B"/>
	</linearGradient>
	<rect x="150.1" y="160.6" class="st34" width="12.1" height="184.6"/>
	<polygon class="st5" points="290.8,144.7 308.8,144.7 314.2,125.7 285.3,125.7 	"/>
	<rect x="283.2" y="115.9" class="st6" width="33.2" height="10.4"/>
	<polygon class="st5" points="114.6,143.7 114.7,143.7 341.2,143.7 341.2,160.6 114.7,160.6 114.6,160.6 	"/>
	
		<linearGradient id="SVGID_24_" gradientUnits="userSpaceOnUse" x1="-1653.1469" y1="147.9354" x2="-1426.5483" y2="147.9354" gradientTransform="matrix(-1 0 0 1 -1311.9041 0)">
		<stop  offset="0.4894" style="stop-color:#82939F"/>
		<stop  offset="0.5318" style="stop-color:#748692"/>
		<stop  offset="0.6044" style="stop-color:#627481"/>
		<stop  offset="0.6569" style="stop-color:#5C6E7B"/>
	</linearGradient>
	<polygon class="st35" points="114.6,143.7 114.7,143.7 341.2,143.7 341.2,152.2 114.6,152.2 	"/>
</g>
</svg>
