<?xml version="1.0" encoding="utf-8"?>
<!-- Generator: Adobe Illustrator 19.0.0, SVG Export Plug-In . SVG Version: 6.00 Build 0)  -->
<svg version="1.1" id="Layer_1" xmlns="http://www.w3.org/2000/svg" xmlns:xlink="http://www.w3.org/1999/xlink" x="0px" y="0px"
	 viewBox="0 0 585.1 350" style="enable-background:new 0 0 585.1 350;" xml:space="preserve">
<style type="text/css">
	.st0{clip-path:url(#XMLID_114_);fill:#EBF6F4;}
	.st1{clip-path:url(#XMLID_114_);fill:#FFFFFF;}
	.st2{clip-path:url(#XMLID_114_);}
	.st3{fill:#D0EBE5;}
	.st4{fill:#B8E1D8;}
	.st5{fill:#D1EBE5;}
	.st6{fill:#FFFFFF;}
	.st7{fill:#FECE19;}
	.st8{fill:#F78D2D;}
	.st9{fill:#E54941;}
	.st10{fill:#34B4C2;}
	.st11{fill:#00B491;}
</style>
<g id="img">
	<g id="img_1_">
		<defs>
			<rect id="XMLID_33_" x="0" y="0" width="585.1" height="350"/>
		</defs>
		<clipPath id="XMLID_114_">
			<use xlink:href="#XMLID_33_"  style="overflow:visible;"/>
		</clipPath>
		<rect id="bg_6_" x="0" y="0.5" class="st0" width="585" height="349"/>
		<path id="cloud_3_" class="st1" d="M176.1,48.9c0-9.9-10.5-18.8-23.5-18.8c-5,0-9.7,1.2-13.5,3.3c-4.9-5.4-13.1-8.9-22.3-8.9
			c-12.1,0-22.3,6-25.8,14.2c-1.9-0.7-4-1.1-6.3-1.1c-8.2,0-14.8,5-14.8,11.3H176.1z"/>
		<path id="cloud_2_" class="st1" d="M372.1,60.4c0-6.8,13.6-13,30.3-13c6.5,0,12.5,0.8,17.4,2.3c6.3-3.7,16.9-6.2,28.8-6.2
			c15.5,0,28.7,4.1,33.3,9.9c2.5-0.5,5.2-0.7,8.1-0.7c10.6,0,19.1,3.5,19.1,7.8H372.1z"/>
		<g id="grass_1_" class="st2">
			<ellipse id="XMLID_131_" class="st3" cx="298.3" cy="342.2" rx="324.6" ry="131.9"/>
			
				<ellipse id="XMLID_130_" transform="matrix(0.9913 -0.1317 0.1317 0.9913 -47.5606 49.2876)" class="st4" cx="348.9" cy="384.3" rx="426.3" ry="131.9"/>
		</g>
		<path id="cloud_1_" class="st1" d="M84.4,85.5c0-4.9-6.7-9.4-15.1-9.4c-3.2,0-6.2,0.6-8.7,1.6c-3.2-2.7-8.4-4.5-14.3-4.5
			c-7.7,0-14.3,3-16.6,7.1c-1.2-0.3-2.6-0.5-4-0.5c-5.3,0-9.5,2.5-9.5,5.6H84.4z"/>
		<g id="tree_10_" class="st2">
			<g id="XMLID_85_">
				<path id="XMLID_94_" class="st5" d="M52.2,236.3c0.7,15.8-5.3,21.5-13,20.1c-7.7-1.5-13.7-8.4-13-21c0.9-11.9,13.2-32.1,13-32.5
					C39,202.2,51.3,220,52.2,236.3z"/>
				<g id="XMLID_86_">
					<path id="XMLID_93_" class="st6" d="M39.1,266.2c0.2,0.1,0.4-0.1,0.4-0.3c0-18.7,0-37.4,0-56.2c0-0.2-0.2-0.4-0.3-0.3
						c-0.2,0-0.3,0.2-0.3,0.4c0,18.6-0.1,37.2-0.1,55.9C38.7,265.9,38.9,266.2,39.1,266.2z"/>
					<g id="XMLID_91_">
						<path id="XMLID_92_" class="st6" d="M39.1,253.8c2.2-4,4.4-8.2,6.5-12.6c0.1-0.2,0-0.4-0.2-0.5c-0.2-0.1-0.4,0-0.5,0.2
							c-1.8,3.9-3.8,7.7-5.8,11.3c-2-4.2-3.9-8.2-5.8-12.1c-0.1-0.2-0.3-0.3-0.5-0.2c-0.2,0.1-0.3,0.3-0.2,0.5
							C34.7,244.6,36.9,249.1,39.1,253.8z"/>
					</g>
					<g id="XMLID_89_">
						<path id="XMLID_90_" class="st6" d="M39.1,239.4c1.8-3.5,3.5-7.3,5.2-11.1c0.1-0.2,0-0.4-0.2-0.5c-0.2-0.1-0.4,0-0.5,0.2
							c-1.5,3.3-3,6.6-4.6,9.7c-1.6-3.3-3.1-6.4-4.6-9.5c-0.1-0.2-0.3-0.2-0.5-0.1c-0.2,0.1-0.3,0.3-0.2,0.5
							C35.6,232.1,37.3,235.7,39.1,239.4z"/>
					</g>
					<g id="XMLID_87_">
						<path id="XMLID_88_" class="st6" d="M39.1,227.1c1.4-3,2.8-6.1,4.1-9.3c0.1-0.2,0-0.4-0.2-0.5c-0.2-0.1-0.4,0-0.5,0.2
							c-1.1,2.7-2.3,5.3-3.5,7.9c-1.2-2.5-2.3-4.8-3.5-7.1c-0.1-0.2-0.3-0.2-0.5-0.1c-0.2,0.1-0.3,0.3-0.2,0.5
							C36.4,221.4,37.7,224.2,39.1,227.1z"/>
					</g>
				</g>
			</g>
		</g>
		<g id="tree_8_" class="st2">
			<g id="XMLID_74_">
				<path id="XMLID_83_" class="st4" d="M567.8,177.2c2,46.4-15.5,63.4-38.3,59.1c-22.8-4.5-40.3-24.9-38.3-61.8
					c2.7-34.9,38.9-94.6,38.3-95.7C528.9,76.9,565.1,129.3,567.8,177.2z"/>
				<g id="XMLID_75_">
					<path id="XMLID_82_" class="st6" d="M529.2,264.7c0.2,0.1,0.4-0.1,0.4-0.3c0-55,0-110.1,0-165.1c0-0.2-0.2-0.4-0.3-0.3
						c-0.2,0-0.3,0.2-0.3,0.4c0,54.9-0.1,109.9-0.1,164.8C528.8,264.4,529,264.6,529.2,264.7z"/>
					<g id="XMLID_80_">
						<path id="XMLID_81_" class="st6" d="M529.2,227.3c6.4-11.3,12.5-23.4,18.3-35.9c0.1-0.2,0-0.4-0.2-0.5c-0.2-0.1-0.4,0-0.5,0.2
							c-5.7,12-11.5,23.7-17.7,34.6c-6.1-12.8-12-25.2-17.6-37c-0.1-0.2-0.3-0.3-0.5-0.2c-0.2,0.1-0.3,0.3-0.2,0.5
							C516.7,201.1,522.8,214,529.2,227.3z"/>
					</g>
					<g id="XMLID_78_">
						<path id="XMLID_79_" class="st6" d="M529.2,184.9c5.1-10,10-20.5,14.8-31.2c0.1-0.2,0-0.4-0.2-0.5c-0.2-0.1-0.4,0-0.5,0.2
							c-4.5,10.3-9.2,20.3-14.1,29.9c-4.8-10.1-9.5-19.9-14.1-29.2c-0.1-0.2-0.3-0.2-0.5-0.1c-0.2,0.1-0.3,0.3-0.2,0.5
							C519.2,164.1,524.1,174.3,529.2,184.9z"/>
					</g>
					<g id="XMLID_76_">
						<path id="XMLID_77_" class="st6" d="M529.2,148.6c3.9-8.4,7.8-17.1,11.5-26c0.1-0.2,0-0.4-0.2-0.5c-0.2-0.1-0.4,0-0.5,0.2
							c-3.5,8.4-7.1,16.6-10.8,24.6c-3.7-7.7-7.3-15.1-10.8-22.3c-0.1-0.2-0.3-0.2-0.5-0.1c-0.2,0.1-0.2,0.3-0.2,0.5
							C521.5,132.6,525.3,140.4,529.2,148.6z"/>
					</g>
				</g>
			</g>
		</g>
		<g id="birds_1_" class="st2">
			<path id="XMLID_59_" class="st3" d="M255,33.1l0.6-0.4c0,0,4.1-3,7.5-2.4c1.3,0.2,2.4,0.9,3.2,2.2l1.5-1
				c-1.1-1.6-2.6-2.6-4.4-2.9c-3.4-0.6-6.9,1.4-8.3,2.3c-1.7-1.3-7.2-4.6-12.6,0.5l1.2,1.3c5.3-4.9,10.5-0.2,10.7,0L255,33.1z"/>
			<path id="XMLID_58_" class="st3" d="M224.6,45.2l0.6-0.4c0,0,4.1-3,7.5-2.4c1.3,0.2,2.4,0.9,3.2,2.2l1.5-1
				c-1.1-1.6-2.6-2.6-4.4-2.9c-3.4-0.6-6.9,1.4-8.3,2.3c-1.7-1.3-7.2-4.6-12.6,0.5l1.2,1.3c5.3-4.9,10.5-0.2,10.7,0L224.6,45.2z"/>
			<path id="XMLID_57_" class="st3" d="M288.3,52.1l0.6-0.4c0,0,4.1-3,7.5-2.4c1.3,0.2,2.4,0.9,3.2,2.2l1.5-1
				c-1.1-1.6-2.6-2.6-4.4-2.9c-3.4-0.6-6.9,1.4-8.3,2.3c-1.7-1.3-7.2-4.6-12.6,0.5l1.2,1.3c5.3-4.9,10.5-0.2,10.7,0L288.3,52.1z"/>
		</g>
		<g id="tree_1_" class="st2">
			<g id="XMLID_63_">
				<path id="XMLID_72_" class="st5" d="M103.6,202.3c1.1,24.7-8.2,33.7-20.3,31.4c-12.1-2.4-21.4-13.2-20.3-32.8
					c1.4-18.6,20.6-50.2,20.3-50.9C83,149.1,102.2,176.9,103.6,202.3z"/>
				<g id="XMLID_64_">
					<path id="XMLID_71_" class="st6" d="M83.1,249.3c0.5,0.1,0.9-0.2,0.9-0.6c0-29.3-0.1-58.6-0.1-87.9c0-0.4-0.3-0.7-0.7-0.7
						c-0.4,0.1-0.7,0.5-0.7,0.9c-0.1,29.1-0.1,58.2-0.2,87.2C82.3,248.8,82.7,249.2,83.1,249.3z"/>
					<g id="XMLID_69_">
						<path id="XMLID_70_" class="st6" d="M83.1,230.2c3.6-6.3,7-13.1,10.3-20.1c0.2-0.4,0-0.9-0.4-1.1c-0.4-0.2-0.9-0.1-1.1,0.3
							c-2.8,6-5.8,11.8-8.8,17.3c-3-6.4-6-12.6-8.8-18.5c-0.2-0.4-0.7-0.6-1.1-0.4c-0.4,0.2-0.6,0.6-0.4,1
							C76.2,215.5,79.6,222.8,83.1,230.2z"/>
					</g>
					<g id="XMLID_67_">
						<path id="XMLID_68_" class="st6" d="M83.2,207.7c2.9-5.7,5.7-11.6,8.3-17.7c0.2-0.4,0-0.9-0.4-1.1c-0.4-0.2-0.8,0-1,0.4
							c-2.3,5.1-4.6,10-7,14.8c-2.4-5-4.7-9.8-7-14.4c-0.2-0.4-0.6-0.5-1-0.3c-0.4,0.2-0.5,0.7-0.4,1
							C77.5,195.9,80.3,201.7,83.2,207.7z"/>
					</g>
					<g id="XMLID_65_">
						<path id="XMLID_66_" class="st6" d="M83.2,188.5c2.3-4.8,4.5-9.8,6.6-14.9c0.2-0.4,0-0.9-0.3-1.1c-0.4-0.2-0.8,0-1,0.5
							c-1.7,4.1-3.5,8-5.3,11.9c-1.8-3.7-3.5-7.3-5.2-10.8c-0.2-0.4-0.6-0.5-1-0.2c-0.4,0.2-0.5,0.7-0.3,1.1
							C78.7,179.2,80.9,183.8,83.2,188.5z"/>
					</g>
				</g>
			</g>
		</g>
	</g>
	<g id="XMLID_2_">
		<circle id="XMLID_32_" class="st7" cx="292.6" cy="131" r="2.5"/>
		<circle id="XMLID_31_" class="st8" cx="315.6" cy="282" r="2.5"/>
		<g id="XMLID_15_">
			<circle id="XMLID_30_" class="st7" cx="134.6" cy="113" r="7.5"/>
			<circle id="XMLID_29_" class="st7" cx="189.6" cy="237" r="2.5"/>
			<circle id="XMLID_28_" class="st9" cx="142.1" cy="210.9" r="5"/>
			<circle id="XMLID_27_" class="st10" cx="134.3" cy="166.5" r="2"/>
			<circle id="XMLID_26_" class="st11" cx="114.6" cy="153" r="7.5"/>
			<circle id="XMLID_25_" class="st10" cx="169.6" cy="277" r="2.5"/>
			<circle id="XMLID_24_" class="st10" cx="122.1" cy="250.9" r="5"/>
			<circle id="XMLID_23_" class="st8" cx="114.3" cy="206.5" r="2"/>
			<circle id="XMLID_22_" class="st7" cx="134.6" cy="113" r="7.5"/>
			<circle id="XMLID_21_" class="st7" cx="189.6" cy="237" r="2.5"/>
			<circle id="XMLID_20_" class="st9" cx="142.1" cy="210.9" r="5"/>
			<circle id="XMLID_19_" class="st10" cx="134.3" cy="166.5" r="2"/>
			<circle id="XMLID_18_" class="st11" cx="169.6" cy="277" r="2.5"/>
			<circle id="XMLID_17_" class="st10" cx="122.1" cy="250.9" r="5"/>
			<circle id="XMLID_16_" class="st8" cx="114.3" cy="206.5" r="2"/>
		</g>
		<circle id="XMLID_14_" class="st7" cx="434.6" cy="232" r="7.5"/>
		<circle id="XMLID_13_" class="st7" cx="379.6" cy="108" r="2.5"/>
		<circle id="XMLID_12_" class="st9" cx="427" cy="134.1" r="5"/>
		<circle id="XMLID_11_" class="st10" cx="434.8" cy="178.5" r="2"/>
		<circle id="XMLID_10_" class="st11" cx="454.6" cy="192" r="7.5"/>
		<circle id="XMLID_9_" class="st10" cx="399.6" cy="68" r="2.5"/>
		<circle id="XMLID_8_" class="st10" cx="447" cy="94.1" r="5"/>
		<circle id="XMLID_7_" class="st8" cx="454.8" cy="138.5" r="2"/>
		<circle id="XMLID_6_" class="st9" cx="233.1" cy="70.5" r="5"/>
		<circle id="XMLID_5_" class="st10" cx="287.1" cy="92.5" r="5"/>
		<circle id="XMLID_4_" class="st8" cx="212.5" cy="100.5" r="2"/>
		<circle id="XMLID_3_" class="st11" cx="347.6" cy="76" r="5.5"/>
	</g>
</g>
</svg>
