<svg viewBox="0 0 192 53.33" xmlns="http://www.w3.org/2000/svg"><path d="M0 0h192v53.33H0z" fill="none"/><path d="M94.34 38.06h-4.25V26.12a2.65 2.65 0 0 0-3.62-2.55 8 8 0 0 0-2.3 1.43c-.18.13-.21.54-.21.82v12.27h-4.15V24.15c0-.62-.15-1.17-.74-1.35-1.26-.36-1.3-1.24-1.09-2.38h3.13c2.32 0 2.07 0 2.61 2a6.5 6.5 0 0 1 4.92-2.28c2.17.06 3.39 1.32 4.22 3.21.24-.35.42-.63.62-.91 2.21-3.12 8.7-3.29 10.44.72a8 8 0 0 1 .72 2.93c.08 4 0 7.94 0 12h-4.25V27.08a6.71 6.71 0 0 0-.07-1.1 2.62 2.62 0 0 0-2.79-2.5 3 3 0 0 0-3.11 2.48 6.4 6.4 0 0 0-.09 1.17v10.11c.01.21.01.48.01.82zm45.41-.81v-10a15.3 15.3 0 0 0-.13-2 5.55 5.55 0 0 0-4.89-5.06 7.21 7.21 0 0 0-5.9 1.81l-.57.49c-.09-.37-.16-.66-.22-.94-.22-1-.44-1.15-1.41-1.15h-4.43v1a.87.87 0 0 0 .71 1c1.1.38 1.24.6 1.24 1.77V38h4.39v-.8c0-3.49.08-7 0-10.45a2.64 2.64 0 0 1 1.59-2.75l.37-.19c2.76-1.32 5 0 5 3.09v11.14h4.24zM59.26 21.43c0 .51.21.75.65.91 1.16.42 1.29.63 1.29 1.88v13.79h4.4v-.82c0-3.46.1-6.93 0-10.39a2.71 2.71 0 0 1 1.69-2.8l.37-.19c2.73-1.23 4.86.13 4.88 3.11v11.22h3.61c.52 0 .66-.16.66-.67v-9.9c0-.69 0-1.39-.09-2.07a5.58 5.58 0 0 0-4.07-5.14 7 7 0 0 0-6.06 1.12c-.42.31-.81.65-1.28 1-.1-.47-.16-.85-.26-1.22a1 1 0 0 0-1-.86h-4.78c0 .39.02.71-.01 1.03zm61.36 16.64h.07c.42 0 .56-.14.56-.56V26.36a6 6 0 0 0-4.18-6 9.73 9.73 0 0 0-3-.35 9.89 9.89 0 0 0-5.81 1.75 2.25 2.25 0 0 0 1.53 4.07 2.34 2.34 0 0 0 2.07-1.83c.22-1.1.3-1.19 1.43-1.16a4.41 4.41 0 0 1 1.42.24c1.92.72 2.74 2.44 2.3 4.76-1.19.1-2.38.15-3.56.32a10.82 10.82 0 0 0-5.31 2 4.29 4.29 0 0 0-1.57 4.51 4 4 0 0 0 3.12 3.35 7.54 7.54 0 0 0 6.52-1.15c.41-.29.8-.61 1.25-1 .93 2.26.93 2.26 3.17 2.19zm-3.55-4.78a.79.79 0 0 1-.25.46 5.18 5.18 0 0 1-4.37 1.63 1.9 1.9 0 0 1-1.88-1.53 2 2 0 0 1 1.08-2.32 11.13 11.13 0 0 1 5.43-.95c.01.92.02 1.82 0 2.71zM51 20.43c-.22 1.33-.17 1.65.52 1.86a1.85 1.85 0 0 1 1.37 2.1V38h4.29V20.43zm3.7-7.23a2.49 2.49 0 1 0 2.49 2.49 2.49 2.49 0 0 0-2.51-2.49z" fill="#82939f"/></svg>