<?xml version="1.0" encoding="utf-8"?>
<!-- Generator: Adobe Illustrator 19.0.0, SVG Export Plug-In . SVG Version: 6.00 Build 0)  -->
<svg version="1.1" id="Layer_1" xmlns="http://www.w3.org/2000/svg" xmlns:xlink="http://www.w3.org/1999/xlink" x="0px" y="0px"
	 viewBox="0 0 120.1 26.4" style="enable-background:new 0 0 120.1 26.4;" xml:space="preserve">
<style type="text/css">
	.st0{fill:#28282A;}
	.st1{fill:#2976BB;}
</style>
<g id="XMLID_2_">
	<g id="XMLID_3_">
		<path id="XMLID_4_" class="st0" d="M13.3,21.2l-4-7.1H6.1v7.1H0V0h11.9c5.3,0,8.3,3.1,8.3,7.1c0,3.7-2.5,5.7-4.7,6.4l4.9,7.8H13.3
			z M14,7c0-1.5-1.3-2.3-3-2.3H6.1v4.5H11C12.6,9.3,14,8.5,14,7z"/>
		<path id="XMLID_7_" class="st0" d="M22.9,21.2V0h17.5v4.8H29.1v3.3h11.1v4.8H29.1v3.6h11.3v4.8H22.9z"/>
	</g>
	<g id="XMLID_1_">
		<path id="XMLID_9_" class="st1" d="M46.4,18.2v-9h-2.3V7.3h2.3V3.5h2.2v3.8h2.8v1.9h-2.8v8.6c0,1,0.5,1.8,1.4,1.8
			c0.6,0,1.2-0.3,1.5-0.6l0.6,1.6c-0.5,0.5-1.3,0.9-2.5,0.9C47.4,21.5,46.4,20.3,46.4,18.2z"/>
		<path id="XMLID_11_" class="st1" d="M53.7,3.9c0-0.8,0.7-1.5,1.5-1.5s1.4,0.7,1.4,1.5c0,0.8-0.6,1.4-1.4,1.4S53.7,4.7,53.7,3.9z
			 M54.1,21.1V7.3h2.1v13.8H54.1z"/>
		<path id="XMLID_14_" class="st1" d="M62.4,19v7.4h-2.1V7.3h2.1v2.1C63.4,8,65.1,7,67.1,7c3.6,0,6.2,2.7,6.2,7.2
			c0,4.5-2.5,7.3-6.2,7.3C65.2,21.5,63.6,20.6,62.4,19z M71,14.2c0-3.1-1.7-5.3-4.4-5.3c-1.7,0-3.4,1-4.1,2.2v6.2
			c0.7,1.2,2.4,2.2,4.1,2.2C69.3,19.6,71,17.3,71,14.2z"/>
		<path id="XMLID_17_" class="st1" d="M75.2,19.3l1.1-1.5c0.9,1.1,2.7,2,4.5,2c2.1,0,3.3-1,3.3-2.4c0-3.3-8.6-1.3-8.6-6.4
			c0-2.2,1.8-4,5.1-4c2.4,0,4,0.9,5.1,2l-1,1.5c-0.8-1-2.3-1.7-4.1-1.7c-1.9,0-3.1,0.9-3.1,2.2c0,3,8.6,1,8.6,6.4
			c0,2.3-1.9,4.2-5.4,4.2C78.5,21.5,76.6,20.8,75.2,19.3z"/>
		<path id="XMLID_19_" class="st1" d="M89.8,18.2v-9h-2.3V7.3h2.3V3.5H92v3.8h2.8v1.9H92v8.6c0,1,0.5,1.8,1.4,1.8
			c0.6,0,1.2-0.3,1.5-0.6l0.6,1.6c-0.5,0.5-1.3,0.9-2.5,0.9C90.8,21.5,89.8,20.3,89.8,18.2z"/>
		<path id="XMLID_21_" class="st1" d="M96.7,14.2c0-4,2.9-7.2,6.8-7.2c4.2,0,6.6,3.3,6.6,7.4v0.5H99c0.2,2.6,2,4.8,4.9,4.8
			c1.6,0,3.2-0.6,4.3-1.8l1,1.4c-1.4,1.4-3.3,2.1-5.5,2.1C99.6,21.5,96.7,18.5,96.7,14.2z M103.5,8.7c-2.9,0-4.4,2.5-4.5,4.6h9.1
			C108,11.3,106.6,8.7,103.5,8.7z"/>
		<path id="XMLID_24_" class="st1" d="M113.3,21.1V7.3h2.1v2.2c1.1-1.4,2.7-2.5,4.6-2.5v2.2c-0.3,0-0.5-0.1-0.8-0.1
			c-1.3,0-3.1,1.1-3.8,2.2v9.8H113.3z"/>
	</g>
</g>
</svg>
