<svg viewBox="0 0 192 53.33" xmlns="http://www.w3.org/2000/svg"><path d="M96.54 34.84c0 .37 0 .45.25.68l1.4 1.38v.1H92v-2.69a4.32 4.32 0 0 1-4.11 2.88c-3.19 0-5.5-2.53-5.5-7.17 0-4.35 2.5-7.26 6-7.26A3.66 3.66 0 0 1 92 25v-5.84a.73.73 0 0 0-.28-.71l-1.33-1.3v-.05l6.18-.73zM92 34v-8.73a2.31 2.31 0 0 0-1.85-.88c-1.51 0-3 1.38-3 5.48 0 3.84 1.26 5.2 2.82 5.2A2.49 2.49 0 0 0 92 34zm8.67 3V25.18a.8.8 0 0 0-.25-.71L99 23h6.2v12c0 .37 0 .45.25.68l1.37 1.3V37zm-.22-18.3a2.5 2.5 0 1 1 2.5 2.53 2.51 2.51 0 0 1-2.5-2.53zM122 34.82c0 .37 0 .48.25.71l1.4 1.38V37h-6.24v-3a4.52 4.52 0 0 1-4.27 3.25c-2.76 0-4.25-2-4.25-5.89 0-1.86 0-3.9.06-6.19a.72.72 0 0 0-.25-.68L107.3 23h6.15v7.69c0 2.53.37 4.21 1.93 4.21a2.5 2.5 0 0 0 2-1.27v-8.45a.8.8 0 0 0-.25-.71L115.77 23H122zM143.1 37c0-.45.08-6.25.08-7.58 0-2.53-.39-4.27-2.15-4.27a2.78 2.78 0 0 0-2.21 1.21 10.38 10.38 0 0 1 .25 2.4c0 1.75-.06 4-.08 6.21a.72.72 0 0 0 .25.68l1.4 1.3V37h-6.26c0-.42.08-6.25.08-7.58 0-2.57-.39-4.27-2.12-4.27a2.49 2.49 0 0 0-2.07 1.25V35c0 .37 0 .45.25.68l1.37 1.3V37h-6.2V25.22a.8.8 0 0 0-.25-.71L124.07 23h6.2v3a4.45 4.45 0 0 1 4.45-3.23c2.07 0 3.46 1.16 4.06 3.37a4.83 4.83 0 0 1 4.66-3.37c2.76 0 4.33 2.06 4.33 6 0 1.86-.06 4-.08 6.21a.68.68 0 0 0 .28.68l1.37 1.3V37zm-77.95-1.87L67 36.91V37h-9.34v-.06l1.87-1.78a.72.72 0 0 0 .25-.68V23.09a11.93 11.93 0 0 1 .08-1.68l-6.3 15.79h-.07L47 22.67c-.14-.36-.18-.39-.27-.63v9.52a3.34 3.34 0 0 0 .27 1.86l2.62 3.49V37h-7v-.06l2.62-3.49a3.35 3.35 0 0 0 .31-1.85V21a2.05 2.05 0 0 0-.43-1.44l-1.86-2.43v-.03H50l5.58 12.3 4.91-12.3H67v.06l-1.83 2.06a.73.73 0 0 0-.28.71v14.52a.68.68 0 0 0 .26.68zm7.3-5.69v.06c0 3.6 1.84 5.05 4 5.05a4.53 4.53 0 0 0 4.25-2.6h.06c-.75 3.56-2.93 5.25-6.2 5.25-3.52 0-6.85-2.15-6.85-7.12 0-5.23 3.33-7.32 7-7.32 3 0 6.12 1.41 6.12 6v.72zm0-.72h4.11V28c0-3.71-.76-4.69-1.9-4.69-1.38 0-2.22 1.47-2.22 5.42z" fill="#82939f"/><path d="M0 0h192v53.33H0z" fill="none"/></svg>