<svg viewBox="0 0 166.4 128" xmlns="http://www.w3.org/2000/svg"><path d="M19.2 64H0m166.4 0h-19.2" fill="none" stroke="#2c4c61" stroke-linejoin="round"/><circle cx="83.2" cy="64" fill="#fff" r="64"/><path d="M42 65a4.54 4.54 0 0 1-.14-3.48l9.89-26.8A4.56 4.56 0 0 1 57.64 32l65.44 24.16a4.56 4.56 0 0 1 2.7 5.85l-9.89 26.8a4.56 4.56 0 0 1-5.85 2.7L44.59 67.36A4.54 4.54 0 0 1 42 65zm81.69-5.57a2.43 2.43 0 0 0-1.37-1.27L56.91 34a2.45 2.45 0 0 0-3.14 1.45l-9.89 26.8a2.45 2.45 0 0 0 1.45 3.14l65.44 24.16a2.44 2.44 0 0 0 3.14-1.45l9.89-26.8a2.43 2.43 0 0 0-.08-1.87z" fill="#2c4c61"/><ellipse cx="83.56" cy="61.51" fill="none" rx="16.64" ry="12.48" stroke="#2c4c61" stroke-miterlimit="10" stroke-width="1.5" transform="rotate(-69.74 83.552 61.505)"/><path d="M80 65.12a3.16 3.16 0 0 1-.72-1 2.69 2.69 0 0 1-.21-1.12 4.16 4.16 0 0 1 .21-1.25l1.53.57a2.12 2.12 0 0 0 0 1.42 2 2 0 0 0 1 .92l1.14-3.08a7.72 7.72 0 0 1-1.13-.78 3 3 0 0 1-.72-.86 2.43 2.43 0 0 1-.28-1 3.07 3.07 0 0 1 .18-1.2l.1-.24.11-.24a2.5 2.5 0 0 1 1.4-1.26 3.76 3.76 0 0 1 2.34 0l.44-1.19.82.3-.44 1.19a4.14 4.14 0 0 1 1.24.83 2.89 2.89 0 0 1 .64.95 2.61 2.61 0 0 1 .18 1 5.29 5.29 0 0 1-.1 1l-1.56-.33a3.12 3.12 0 0 0-.05-1.32 1.48 1.48 0 0 0-.81-.85l-1.09 3 .31.18a4.12 4.12 0 0 1 1.7 1.68 2.78 2.78 0 0 1 0 2.18 3 3 0 0 1-.56 1 2.72 2.72 0 0 1-.87.66 3 3 0 0 1-1.18.28 4.23 4.23 0 0 1-1.46-.21l-.5 1.37-.82-.3.51-1.38a4.52 4.52 0 0 1-1.35-.92zm3.22-7.82a1.2 1.2 0 0 0-.62.65l-.08.22a1.43 1.43 0 0 0 0 1 2.17 2.17 0 0 0 .91.87l1-2.8a1.79 1.79 0 0 0-1.18.06zm.62 7.62a1.64 1.64 0 0 0 .71-.9 1.79 1.79 0 0 0 .1-.47 1.2 1.2 0 0 0-.07-.51 1.56 1.56 0 0 0-.32-.51 2.66 2.66 0 0 0-.63-.5L82.58 65a1.68 1.68 0 0 0 1.29-.08z" fill="#2c4c61"/><g fill="none" stroke="#2c4c61" stroke-linejoin="round"><ellipse cx="50.5" cy="94.4" rx="8.32" ry="2.56"/><path d="M58.82 94.4v3.84c0 1.41-3.72 2.56-8.32 2.56s-8.32-1.15-8.32-2.56V94.4"/><ellipse cx="69.7" cy="100.8" rx="8.32" ry="2.56"/><path d="M78 100.8v3.84c0 1.41-3.72 2.56-8.32 2.56s-8.32-1.15-8.32-2.56v-3.84"/><ellipse cx="70.98" cy="89.83" rx="5.94" ry="1.83"/><path d="M76.93 89.83v2.74c0 1-2.66 1.83-5.94 1.83S65 93.58 65 92.57v-2.74"/></g></svg>