<?xml version="1.0" encoding="utf-8"?>
<!-- Generator: Adobe Illustrator 21.0.2, SVG Export Plug-In . SVG Version: 6.00 Build 0)  -->
<svg version="1.1" id="Layer_1" xmlns="http://www.w3.org/2000/svg" xmlns:xlink="http://www.w3.org/1999/xlink" x="0px" y="0px"
	 viewBox="0 0 210.4 100.5" style="enable-background:new 0 0 210.4 100.5;" xml:space="preserve">
<style type="text/css">
	.st0{fill:none;stroke:#2C4C61;stroke-miterlimit:10;}
	.st1{fill:none;stroke:#2C4C61;stroke-linecap:round;stroke-linejoin:round;}
</style>
<title>building_small</title>
<g id="Layer_2">
	<g id="Layer_1-2">
		<g id="disclaimer_graphic">
			<line class="st0" x1="35" y1="90.5" x2="35" y2="99.8"/>
			<line class="st0" x1="37.6" y1="99.8" x2="37.6" y2="90.5"/>
			<line class="st0" x1="35" y1="95.4" x2="31.7" y2="92.8"/>
			<polygon class="st0" points="27.2,90.3 34.9,81.6 28.4,81.6 34.9,74.4 30.1,74.4 36.6,67.1 43.1,74.4 38.3,74.4 44.8,81.6 
				38.3,81.6 46,90.3 			"/>
			<line class="st0" x1="11.3" y1="87.4" x2="11.3" y2="99.8"/>
			<line class="st0" x1="14.7" y1="99.8" x2="14.7" y2="87.4"/>
			<line class="st0" x1="11.3" y1="93.8" x2="7.1" y2="90.4"/>
			<polygon class="st0" points="1.1,87.2 11.2,75.9 2.8,75.9 11.2,66.5 4.9,66.5 13.4,57 21.8,66.5 15.5,66.5 23.9,75.9 15.5,75.9 
				25.6,87.2 			"/>
			<path class="st1" d="M36.9,31.9h4.2c0.2-0.4,0.3-0.8,0.3-1.2c0-1.6-1.3-2.8-2.8-2.8c-0.3,0-0.6,0.1-0.9,0.1"/>
			<path class="st1" d="M37.7,28c-0.5-2.4-2.6-4.1-5-4.1c-0.2,0-0.5,0-0.7,0.1"/>
			<path class="st1" d="M32,24c-1-4-5-6.4-9-5.4c-2.7,0.7-4.8,2.8-5.4,5.5"/>
			<path class="st1" d="M11.3,31.9"/>
			<path class="st1" d="M17.6,24.1c-2.4-1.5-5.7-0.8-7.2,1.6c-0.4,0.7-0.7,1.5-0.8,2.3"/>
			<path class="st1" d="M9.7,28.1c-0.4-0.2-0.7-0.2-1.1-0.2c-1.6,0-3,1.4-2.9,3c0,0.4,0.1,0.8,0.2,1.1h5"/>
			<line class="st1" x1="41.2" y1="31.9" x2="33.8" y2="31.9"/>
			<line class="st1" x1="17" y1="31.9" x2="13.8" y2="31.9"/>
			<path class="st1" d="M163.6,19.4h4.2c0.2-0.4,0.3-0.8,0.3-1.2c0-1.6-1.3-2.8-2.8-2.8c-0.3,0-0.6,0.1-0.9,0.1"/>
			<path class="st1" d="M164.4,15.4c-0.5-2.4-2.6-4.1-5-4.1c-0.2,0-0.4,0-0.7,0"/>
			<path class="st1" d="M158.7,11.4c-1-4-5-6.4-9-5.4c-2.7,0.7-4.8,2.8-5.4,5.5"/>
			<path class="st1" d="M138,19.4"/>
			<path class="st1" d="M144.3,11.6c-2.4-1.5-5.7-0.8-7.2,1.6c-0.4,0.7-0.7,1.5-0.8,2.3"/>
			<path class="st1" d="M136.4,15.5c-0.4-0.2-0.7-0.2-1.1-0.2c-1.6,0-3,1.4-2.9,3c0,0.4,0.1,0.8,0.2,1.1h5"/>
			<line class="st1" x1="167.9" y1="19.4" x2="160.5" y2="19.4"/>
			<line class="st1" x1="143.7" y1="19.4" x2="140.5" y2="19.4"/>
			<polyline class="st0" points="124.9,100.4 124.9,33.3 93.4,0.7 64.3,29.4 61.1,32.6 60.4,33.3 60.4,42.8 60.4,38 60.4,100.4 			
				"/>
			<line class="st0" x1="124.9" y1="33.3" x2="60.4" y2="33.3"/>
			<path class="st0" d="M114.5,28.1"/>
			<path class="st0" d="M93.2,5.9"/>
			<path class="st0" d="M93.2,5.9"/>
			<path class="st0" d="M70.7,28.1"/>
			<path class="st0" d="M70.7,28.1"/>
			<path class="st0" d="M114.5,28.1"/>
			<polyline class="st0" points="66.3,33.5 80.7,19 92.5,7.3 92.7,7 119,33.3 			"/>
			<line class="st0" x1="69.9" y1="29.9" x2="115.6" y2="29.9"/>
			<rect x="86.6" y="17.8" class="st0" width="13.2" height="9"/>
			<rect x="91.4" y="41" class="st0" width="28" height="20.6"/>
			<line class="st0" x1="97.7" y1="41" x2="97.7" y2="61.6"/>
			<line class="st0" x1="112.5" y1="41" x2="112.5" y2="61.6"/>
			<rect x="91.4" y="72.4" class="st0" width="28" height="20.6"/>
			<line class="st0" x1="97.7" y1="72.4" x2="97.7" y2="93"/>
			<line class="st0" x1="112.5" y1="72.4" x2="112.5" y2="93"/>
			<path class="st0" d="M83.5,100.4v-20c0,0,1-8.2-8.2-8.2"/>
			<path class="st0" d="M67.9,100.4v-20c0,0-1-8.2,8.2-8.2"/>
			<line class="st0" x1="80.1" y1="89.3" x2="80.1" y2="92"/>
			<polyline class="st0" points="106,13.7 106,6.4 102.6,6.4 102.6,10.1 			"/>
			<path class="st0" d="M70.2,59.7"/>
			<line class="st0" x1="92.5" y1="7.3" x2="80.7" y2="19"/>
			<polyline class="st0" points="92.5,17.8 86.6,17.8 86.6,23.8 			"/>
			<circle class="st0" cx="75.9" cy="48.9" r="7.8"/>
			<line class="st0" x1="152.2" y1="84.4" x2="152.2" y2="100.5"/>
			<line class="st0" x1="156.3" y1="100.5" x2="156.3" y2="84.4"/>
			<line class="st0" x1="152.2" y1="92" x2="147.2" y2="88"/>
			<polygon class="st0" points="140.2,84.2 152.1,70.9 142.1,70.9 152.1,59.7 144.6,59.7 154.7,48.5 164.7,59.7 157.2,59.7 
				167.2,70.9 157.2,70.9 169.2,84.2 			"/>
			<line class="st0" x1="187.3" y1="79.7" x2="187.3" y2="100.5"/>
			<line class="st0" x1="192.6" y1="100.5" x2="192.6" y2="79.7"/>
			<line class="st0" x1="187.3" y1="89.5" x2="180.9" y2="84.4"/>
			<polygon class="st0" points="171.7,79.4 187.2,62.1 174.3,62.1 187.2,47.7 177.5,47.7 190.5,33.1 203.5,47.7 193.8,47.7 
				206.7,62.1 193.8,62.1 209.3,79.4 			"/>
		</g>
	</g>
</g>
</svg>
