<?xml version="1.0" encoding="utf-8"?>
<!-- Generator: Adobe Illustrator 19.0.0, SVG Export Plug-In . SVG Version: 6.00 Build 0)  -->
<svg version="1.1" id="Layer_1" xmlns="http://www.w3.org/2000/svg" xmlns:xlink="http://www.w3.org/1999/xlink" x="0px" y="0px"
	 viewBox="0 0 300 300" style="enable-background:new 0 0 300 300;" xml:space="preserve">
<style type="text/css">
	.st0{fill:#00B491;}
	.st1{fill:#FFFFFF;}
</style>
<g id="XMLID_1_">
	<circle id="bg_46_" class="st0" cx="150" cy="150" r="150"/>
	<g id="crest_1_">
		<g id="XMLID_2_">
			<g id="circles__x28_outer_x29__1_">
				<path id="XMLID_265_" class="st1" d="M150,289.1c-76.7,0-139.1-62.4-139.1-139.1S73.3,10.9,150,10.9S289.1,73.3,289.1,150
					S226.7,289.1,150,289.1z M150,11.9c-76.2,0-138.1,62-138.1,138.1s62,138.1,138.1,138.1s138.1-62,138.1-138.1
					S226.2,11.9,150,11.9z"/>
				<path id="XMLID_262_" class="st1" d="M150,282.8c-73.2,0-132.8-59.6-132.8-132.8S76.8,17.2,150,17.2S282.8,76.8,282.8,150
					S223.2,282.8,150,282.8z M150,18.2C77.3,18.2,18.2,77.3,18.2,150S77.3,281.8,150,281.8S281.8,222.7,281.8,150
					S222.7,18.2,150,18.2z"/>
			</g>
			<g id="circles__x28_inner_x29__1_">
				<path id="XMLID_259_" class="st1" d="M150,229c-43.6,0-79-35.4-79-79s35.4-79,79-79s79,35.4,79,79S193.6,229,150,229z M150,71.9
					c-43.1,0-78.1,35-78.1,78.1s35,78.1,78.1,78.1s78.1-35,78.1-78.1S193.1,71.9,150,71.9z"/>
				<path id="XMLID_256_" class="st1" d="M150,224.4c-41,0-74.4-33.4-74.4-74.4S109,75.6,150,75.6s74.4,33.4,74.4,74.4
					S191,224.4,150,224.4z M150,76.5c-40.5,0-73.5,33-73.5,73.5s33,73.5,73.5,73.5s73.5-33,73.5-73.5S190.5,76.5,150,76.5z"/>
			</g>
			<g id="lines_2_">
				<rect id="XMLID_255_" x="89.9" y="149" class="st1" width="13.9" height="0.9"/>
				<rect id="XMLID_254_" x="196.2" y="149" class="st1" width="13.9" height="0.9"/>
			</g>
			<g id="icon_7_">
				<g id="XMLID_201_">
					<g id="XMLID_247_">
						<g id="XMLID_251_">
							<path id="XMLID_154_" class="st1" d="M122.9,155.3L122.9,155.3c0.4,0.9,1,1.7,1.6,2.4c0.7,0.6,1.5,1,2.2,1.3
								c1.6,0.5,3.2,0.1,4.4-0.8c-0.5-0.6-1.1-1.2-1.7-1.6c-0.6-0.5-1.4-0.8-2-1.1C126,154.8,124.3,154.7,122.9,155.3z"/>
						</g>
						<g id="XMLID_248_">
							<path id="XMLID_151_" class="st1" d="M132.1,157.4c1.3-1,2-2.3,2.4-3.5c0.2-0.6,0.3-1.3,0.3-1.8c0-0.6,0-1.2-0.3-1.7
								c-1.5,0.6-2.6,1.6-3.1,2.9c-0.3,0.7-0.3,1.3-0.2,2.1C131.3,156.1,131.6,156.8,132.1,157.4z"/>
						</g>
					</g>
					<g id="XMLID_240_">
						<g id="XMLID_244_">
							<path id="XMLID_77_" class="st1" d="M120.8,147.5c0.2,1,0.4,1.9,0.9,2.7c0.5,0.8,1.1,1.4,1.7,1.9c1.4,0.9,3,1,4.5,0.4
								c-0.6-1.5-1.5-2.7-2.8-3.7C123.9,147.9,122.4,147.3,120.8,147.5z"/>
						</g>
						<g id="XMLID_241_">
							<path id="XMLID_74_" class="st1" d="M129,152c1.5-0.6,2.6-1.7,3.3-2.7c0.4-0.6,0.7-1.1,0.8-1.7c0.1-0.6,0.3-1.1,0.2-1.7
								c-1.6,0.2-2.9,0.8-3.8,2C128.7,149,128.5,150.6,129,152z"/>
						</g>
					</g>
					<g id="XMLID_233_">
						<g id="XMLID_237_">
							<path id="XMLID_72_" class="st1" d="M121,139.3L121,139.3c-0.1,0.5-0.1,1-0.1,1.5c0,0.5,0.1,0.9,0.2,1.4
								c0.3,0.9,0.6,1.7,1.2,2.3c1.1,1.2,2.6,1.8,4.1,1.7c0-0.8-0.3-1.6-0.5-2.3c-0.3-0.7-0.7-1.4-1.1-2
								C123.9,140.6,122.6,139.5,121,139.3z"/>
						</g>
						<g id="XMLID_234_">
							<path id="XMLID_69_" class="st1" d="M127.6,146c1.6-0.1,3-0.9,4-1.7c0.5-0.4,1-0.9,1.3-1.4c0.1-0.2,0.3-0.5,0.4-0.8
								c0.1-0.3,0.2-0.5,0.2-0.8c-1.6-0.3-3,0-4.2,0.8c-0.5,0.4-1,1-1.3,1.6C127.6,144.5,127.6,145.2,127.6,146z"/>
						</g>
					</g>
					<g id="XMLID_226_">
						<g id="XMLID_230_">
							<path id="XMLID_66_" class="st1" d="M123.5,131.5L123.5,131.5c-0.9,1.8-0.9,3.8-0.2,5.3c0.7,1.5,2,2.5,3.5,2.8
								c0.2-0.8,0.2-1.6,0.1-2.3c0-0.8-0.2-1.5-0.5-2.3C125.9,133.5,124.9,132.2,123.5,131.5z"/>
						</g>
						<g id="XMLID_227_">
							<path id="XMLID_64_" class="st1" d="M127.9,139.7c1.6,0.3,3.1,0,4.3-0.5c1.2-0.5,2.1-1.3,2.6-2.3c-1.4-0.7-2.9-0.9-4.3-0.4
								c-0.6,0.3-1.2,0.7-1.7,1.2C128.4,138.3,128.1,139,127.9,139.7z"/>
						</g>
					</g>
					<g id="XMLID_223_">
						<path id="XMLID_61_" class="st1" d="M128.9,134.9c1.5-0.6,2.6-1.5,3.3-2.6c0.4-0.5,0.6-1.2,0.9-1.9c0.2-0.7,0.3-1.4,0.3-2.2
							c-0.8,0-1.5,0.2-2.2,0.6c-0.7,0.4-1.2,1-1.7,1.6C128.6,131.7,128.3,133.4,128.9,134.9z"/>
					</g>
					<g id="XMLID_216_">
						<g id="XMLID_220_">
							<path id="XMLID_58_" class="st1" d="M140.4,171.4L140.4,171.4c0.5,0.2,1,0.3,1.4,0.3c0.5,0,1,0,1.4,0c0.5,0,0.9-0.1,1.3-0.3
								c0.4-0.1,0.8-0.3,1.1-0.5c0.7-0.4,1.2-1,1.6-1.6c0.4-0.7,0.6-1.4,0.7-2.2c-0.8,0-1.6,0-2.3,0.2c-0.8,0.2-1.5,0.4-2.2,0.8
								c-0.3,0.2-0.7,0.4-1,0.6c-0.3,0.2-0.6,0.5-0.9,0.7C141.1,170,140.6,170.7,140.4,171.4z"/>
						</g>
						<g id="XMLID_217_">
							<path id="XMLID_56_" class="st1" d="M148,166c0.1-0.8,0-1.5-0.2-2.2c-0.2-0.7-0.5-1.4-0.8-1.9c-0.2-0.3-0.3-0.5-0.5-0.8
								c-0.2-0.2-0.4-0.5-0.6-0.7c-0.2-0.2-0.4-0.4-0.7-0.5c-0.2-0.1-0.5-0.3-0.8-0.4c-0.2,0.7-0.4,1.5-0.4,2.2
								c0,0.4,0.1,0.7,0.1,1.1c0.1,0.3,0.2,0.7,0.4,1c0.3,0.6,0.8,1.2,1.4,1.6C146.5,165.6,147.2,166,148,166z"/>
						</g>
					</g>
					<g id="XMLID_209_">
						<g id="XMLID_213_">
							<path id="XMLID_54_" class="st1" d="M133.1,167.8L133.1,167.8c0.8,0.6,1.8,0.9,2.6,1.1c0.9,0.2,1.8,0.1,2.6-0.1
								c1.6-0.4,2.7-1.5,3.3-3c-1.5-0.6-3.1-0.6-4.6-0.3C135.5,165.8,134,166.5,133.1,167.8z"/>
						</g>
						<g id="XMLID_210_">
							<path id="XMLID_52_" class="st1" d="M142,164.7c0.5-1.5,0.5-3,0.2-4.3c-0.2-0.6-0.4-1.2-0.7-1.7c-0.3-0.5-0.7-0.9-1.1-1.2
								c-0.9,1.3-1.3,2.8-1,4.1C139.5,163,140.5,164.2,142,164.7z"/>
						</g>
					</g>
					<g id="XMLID_202_">
						<g id="XMLID_206_">
							<path id="XMLID_50_" class="st1" d="M127.1,162.3L127.1,162.3c0.6,0.8,1.4,1.4,2.2,1.8c0.8,0.4,1.7,0.6,2.5,0.6
								c0.8,0,1.6-0.1,2.2-0.5c0.7-0.4,1.3-0.9,1.7-1.5c-0.7-0.5-1.3-0.8-2.1-1.1c-0.4-0.1-0.7-0.2-1.1-0.3
								c-0.4-0.1-0.7-0.2-1.1-0.2C130,161,128.3,161.3,127.1,162.3z"/>
						</g>
						<g id="XMLID_203_">
							<path id="XMLID_48_" class="st1" d="M136.5,161.8c0.5-0.6,0.8-1.3,1-2c0.2-0.7,0.3-1.4,0.4-2.1c0-0.7-0.1-1.3-0.2-1.8
								c-0.1-0.6-0.4-1.1-0.8-1.5c-1.2,1-2,2.3-2.1,3.7c0,0.3,0,0.7,0,1.1c0.1,0.3,0.2,0.7,0.3,1
								C135.4,160.7,135.9,161.3,136.5,161.8z"/>
						</g>
					</g>
				</g>
				<g id="XMLID_148_">
					<g id="XMLID_194_">
						<g id="XMLID_198_">
							<path id="XMLID_46_" class="st1" d="M176.2,155.3L176.2,155.3c-0.4,0.9-1,1.7-1.6,2.4c-0.7,0.6-1.5,1-2.2,1.3
								c-1.6,0.5-3.2,0.1-4.4-0.8c0.5-0.6,1.1-1.2,1.7-1.6c0.6-0.5,1.4-0.8,2-1.1C173.1,154.8,174.7,154.7,176.2,155.3z"/>
						</g>
						<g id="XMLID_195_">
							<path id="XMLID_44_" class="st1" d="M167,157.4c-1.3-1-2-2.3-2.4-3.5c-0.2-0.6-0.3-1.3-0.3-1.8c0-0.6,0-1.2,0.3-1.7
								c1.5,0.6,2.6,1.6,3.1,2.9c0.3,0.7,0.3,1.3,0.2,2.1C167.8,156.1,167.5,156.8,167,157.4z"/>
						</g>
					</g>
					<g id="XMLID_187_">
						<g id="XMLID_191_">
							<path id="XMLID_53_" class="st1" d="M178.2,147.5c-0.2,1-0.4,1.9-0.9,2.7c-0.5,0.8-1.1,1.4-1.7,1.9c-1.4,0.9-3,1-4.5,0.4
								c0.6-1.5,1.5-2.7,2.8-3.7C175.1,147.9,176.7,147.3,178.2,147.5z"/>
						</g>
						<g id="XMLID_188_">
							<path id="XMLID_55_" class="st1" d="M170,152c-1.5-0.6-2.6-1.7-3.3-2.7c-0.4-0.6-0.7-1.1-0.8-1.7c-0.1-0.6-0.3-1.1-0.2-1.7
								c1.6,0.2,2.9,0.8,3.8,2C170.3,149,170.6,150.6,170,152z"/>
						</g>
					</g>
					<g id="XMLID_180_">
						<g id="XMLID_184_">
							<path id="XMLID_57_" class="st1" d="M178,139.3L178,139.3c0.1,0.5,0.1,1,0.1,1.5c0,0.5-0.1,0.9-0.2,1.4
								c-0.3,0.9-0.6,1.7-1.2,2.3c-1.1,1.2-2.6,1.8-4.1,1.7c0-0.8,0.3-1.6,0.5-2.3c0.3-0.7,0.7-1.4,1.1-2
								C175.2,140.6,176.5,139.5,178,139.3z"/>
						</g>
						<g id="XMLID_181_">
							<path id="XMLID_59_" class="st1" d="M171.4,146c-1.6-0.1-3-0.9-4-1.7c-0.5-0.4-1-0.9-1.3-1.4c-0.1-0.2-0.3-0.5-0.4-0.8
								c-0.1-0.3-0.2-0.5-0.2-0.8c1.6-0.3,3,0,4.2,0.8c0.5,0.4,1,1,1.3,1.6C171.4,144.5,171.5,145.2,171.4,146z"/>
						</g>
					</g>
					<g id="XMLID_173_">
						<g id="XMLID_177_">
							<path id="XMLID_63_" class="st1" d="M175.5,131.5L175.5,131.5c0.9,1.8,0.9,3.8,0.2,5.3c-0.7,1.5-2,2.5-3.5,2.8
								c-0.2-0.8-0.2-1.6-0.1-2.3c0-0.8,0.2-1.5,0.5-2.3C173.2,133.5,174.1,132.2,175.5,131.5z"/>
						</g>
						<g id="XMLID_174_">
							<path id="XMLID_65_" class="st1" d="M171.1,139.7c-1.6,0.3-3.1,0-4.3-0.5c-1.2-0.5-2.1-1.3-2.6-2.3c1.4-0.7,2.9-0.9,4.3-0.4
								c0.6,0.3,1.2,0.7,1.7,1.2C170.6,138.3,170.9,139,171.1,139.7z"/>
						</g>
					</g>
					<g id="XMLID_170_">
						<path id="XMLID_67_" class="st1" d="M170.2,134.9c-1.5-0.6-2.6-1.5-3.3-2.6c-0.4-0.5-0.6-1.2-0.9-1.9
							c-0.2-0.7-0.3-1.4-0.3-2.2c0.8,0,1.5,0.2,2.2,0.6c0.7,0.4,1.2,1,1.7,1.6C170.5,131.7,170.8,133.4,170.2,134.9z"/>
					</g>
					<g id="XMLID_163_">
						<g id="XMLID_167_">
							<path id="XMLID_71_" class="st1" d="M158.7,171.4L158.7,171.4c-0.5,0.2-1,0.3-1.4,0.3c-0.5,0-1,0-1.4,0
								c-0.5,0-0.9-0.1-1.3-0.3c-0.4-0.1-0.8-0.3-1.1-0.5c-0.7-0.4-1.2-1-1.6-1.6c-0.4-0.7-0.6-1.4-0.7-2.2c0.8,0,1.6,0,2.3,0.2
								c0.8,0.2,1.5,0.4,2.2,0.8c0.3,0.2,0.7,0.4,1,0.6c0.3,0.2,0.6,0.5,0.9,0.7C158,170,158.4,170.7,158.7,171.4z"/>
						</g>
						<g id="XMLID_164_">
							<path id="XMLID_73_" class="st1" d="M151,166c-0.1-0.8,0-1.5,0.2-2.2c0.2-0.7,0.5-1.4,0.8-1.9c0.2-0.3,0.3-0.5,0.5-0.8
								c0.2-0.2,0.4-0.5,0.6-0.7c0.2-0.2,0.4-0.4,0.7-0.5c0.2-0.1,0.5-0.3,0.8-0.4c0.2,0.7,0.4,1.5,0.4,2.2c0,0.4-0.1,0.7-0.1,1.1
								c-0.1,0.3-0.2,0.7-0.4,1c-0.3,0.6-0.8,1.2-1.4,1.6C152.5,165.6,151.8,166,151,166z"/>
						</g>
					</g>
					<g id="XMLID_156_">
						<g id="XMLID_160_">
							<path id="XMLID_76_" class="st1" d="M165.9,167.8L165.9,167.8c-0.8,0.6-1.8,0.9-2.6,1.1c-0.9,0.2-1.8,0.1-2.6-0.1
								c-1.6-0.4-2.7-1.5-3.3-3c1.5-0.6,3.1-0.6,4.6-0.3C163.6,165.8,165,166.5,165.9,167.8z"/>
						</g>
						<g id="XMLID_157_">
							<path id="XMLID_78_" class="st1" d="M157.1,164.7c-0.5-1.5-0.5-3-0.2-4.3c0.2-0.6,0.4-1.2,0.7-1.7c0.3-0.5,0.7-0.9,1.1-1.2
								c0.9,1.3,1.3,2.8,1,4.1C159.5,163,158.5,164.2,157.1,164.7z"/>
						</g>
					</g>
					<g id="XMLID_149_">
						<g id="XMLID_153_">
							<path id="XMLID_152_" class="st1" d="M171.9,162.3L171.9,162.3c-0.6,0.8-1.4,1.4-2.2,1.8c-0.8,0.4-1.7,0.6-2.5,0.6
								c-0.8,0-1.6-0.1-2.2-0.5c-0.7-0.4-1.3-0.9-1.7-1.5c0.7-0.5,1.3-0.8,2.1-1.1c0.4-0.1,0.7-0.2,1.1-0.3c0.4-0.1,0.7-0.2,1.1-0.2
								C169.1,161,170.7,161.3,171.9,162.3z"/>
						</g>
						<g id="XMLID_150_">
							<path id="XMLID_155_" class="st1" d="M162.5,161.8c-0.5-0.6-0.8-1.3-1-2c-0.2-0.7-0.3-1.4-0.4-2.1c0-0.7,0.1-1.3,0.2-1.8
								c0.1-0.6,0.4-1.1,0.8-1.5c1.2,1,2,2.3,2.1,3.7c0,0.3,0,0.7,0,1.1c-0.1,0.3-0.2,0.7-0.3,1
								C163.6,160.7,163.2,161.3,162.5,161.8z"/>
						</g>
					</g>
				</g>
			</g>
			<g id="small_circles_1_">
				<path id="XMLID_145_" class="st1" d="M256.3,155.1c-2.8,0-5.1-2.3-5.1-5.1s2.3-5.1,5.1-5.1c2.8,0,5.1,2.3,5.1,5.1
					S259.1,155.1,256.3,155.1z M256.3,145.8c-2.3,0-4.2,1.9-4.2,4.2s1.9,4.2,4.2,4.2c2.3,0,4.2-1.9,4.2-4.2S258.6,145.8,256.3,145.8
					z"/>
				<path id="XMLID_142_" class="st1" d="M43.7,155.1c-2.8,0-5.1-2.3-5.1-5.1s2.3-5.1,5.1-5.1s5.1,2.3,5.1,5.1
					S46.5,155.1,43.7,155.1z M43.7,145.8c-2.3,0-4.2,1.9-4.2,4.2s1.9,4.2,4.2,4.2c2.3,0,4.2-1.9,4.2-4.2S46,145.8,43.7,145.8z"/>
			</g>
			<g id="XMLID_103_">
				<path id="XMLID_140_" class="st1" d="M81.6,233.3l-3.1,2.9l-8.8-8.1l0.5-0.5c0.2,0.1,0.4,0.3,0.7,0.5c0.3,0.2,0.5,0.3,0.6,0.3
					c0.2,0.1,0.4,0.1,0.6,0c0.2-0.1,0.3-0.2,0.5-0.4l7-7.6c0.2-0.2,0.3-0.3,0.3-0.5s0-0.4-0.1-0.6c-0.1-0.2-0.2-0.4-0.4-0.7
					c-0.2-0.3-0.3-0.5-0.5-0.6l0.5-0.5l8.2,7.5l-2.3,2.5l-0.6-0.5c0.2-0.5,0.4-1.1,0.5-1.8c0.1-0.7,0-1.3-0.3-1.6
					c-0.1-0.2-0.3-0.3-0.5-0.6c-0.2-0.2-0.4-0.4-0.7-0.7l-1.7-1.5l-3.9,4.2l1.2,1.1c0.4,0.4,0.7,0.6,0.9,0.7
					c0.2,0.1,0.5,0.1,0.8,0.1c0.2,0,0.5-0.1,0.8-0.3c0.3-0.2,0.6-0.3,0.8-0.5l0.6,0.5l-3.8,4.1l-0.6-0.5c0.2-0.3,0.4-0.6,0.5-0.9
					c0.2-0.3,0.2-0.6,0.3-0.8c0-0.3,0-0.6-0.2-0.9c-0.1-0.2-0.4-0.5-0.7-0.8l-1.2-1.1l-2.9,3.2c-0.3,0.3-0.5,0.6-0.6,0.8
					c-0.1,0.2-0.2,0.4-0.1,0.7c0,0.2,0.2,0.4,0.4,0.7c0.2,0.2,0.5,0.5,0.9,0.9c0.2,0.2,0.4,0.4,0.6,0.6c0.3,0.2,0.5,0.4,0.7,0.6
					c0.2,0.2,0.4,0.3,0.7,0.4c0.2,0.1,0.5,0.2,0.6,0.2c0.4,0,1-0.2,1.7-0.4s1.2-0.5,1.5-0.6L81.6,233.3z"/>
				<path id="XMLID_138_" class="st1" d="M89.1,237.9c0.1,0.4,0.1,0.7,0,1.1c-0.1,0.3-0.2,0.7-0.5,1.1c-0.5,0.7-1.3,1.2-2.2,1.2
					c-0.9,0.1-1.8-0.2-2.7-0.9c-0.5-0.3-0.8-0.7-1.1-1.2c-0.3-0.5-0.4-0.8-0.5-1.1l-0.6,0.4l-0.6-0.4l2-2.9l0.6,0.4
					c-0.1,0.2-0.2,0.6-0.3,0.9c-0.1,0.4-0.1,0.8,0,1.1c0,0.4,0.1,0.8,0.3,1.2c0.2,0.4,0.4,0.7,0.8,1c0.5,0.4,1,0.6,1.5,0.5
					c0.5,0,0.8-0.3,1.2-0.7c0.2-0.2,0.3-0.5,0.3-0.7c0-0.2,0-0.5-0.1-0.7c-0.1-0.3-0.2-0.5-0.4-0.8c-0.2-0.3-0.4-0.6-0.7-0.9
					c-0.2-0.3-0.4-0.6-0.6-0.9c-0.2-0.4-0.4-0.7-0.5-1.1c-0.1-0.4-0.1-0.7-0.1-1.1c0.1-0.4,0.2-0.8,0.5-1.1c0.5-0.7,1.1-1,2-1.1
					c0.8-0.1,1.6,0.2,2.5,0.8c0.3,0.2,0.6,0.5,0.9,0.8c0.3,0.3,0.5,0.6,0.6,0.9l0.5-0.3l0.6,0.4l-1.8,2.7l-0.6-0.4
					c0.3-0.7,0.4-1.3,0.3-2c-0.1-0.6-0.4-1.2-1-1.6c-0.4-0.3-0.9-0.5-1.3-0.4c-0.4,0-0.7,0.2-1,0.5c-0.2,0.2-0.3,0.5-0.3,0.7
					c0,0.2,0,0.5,0.1,0.7c0.1,0.2,0.2,0.5,0.4,0.8c0.2,0.3,0.4,0.6,0.7,1c0.3,0.4,0.5,0.8,0.7,1.1C88.9,237.2,89.1,237.6,89.1,237.9
					z"/>
				<path id="XMLID_136_" class="st1" d="M94.5,246.6c-0.5-0.1-0.9-0.2-1.3-0.3c-0.4-0.1-0.8-0.3-1.3-0.6c-0.7-0.4-1.1-0.9-1.2-1.5
					c-0.1-0.5,0.1-1.1,0.5-1.8l3.5-5.8l-1.5-0.9l0.5-0.8l1.6,1l1.6-2.6l1.6,1l-1.6,2.6l2.4,1.5l-0.5,0.8l-2.4-1.5l-2.9,4.8
					c-0.2,0.4-0.4,0.7-0.5,0.9s-0.2,0.5-0.2,0.7c0,0.2,0,0.4,0.2,0.6c0.1,0.2,0.4,0.4,0.7,0.6c0.1,0.1,0.4,0.2,0.7,0.4
					c0.3,0.1,0.5,0.2,0.7,0.3L94.5,246.6z"/>
				<path id="XMLID_133_" class="st1" d="M104.7,252.1c-0.3,0-0.6-0.1-0.9-0.1c-0.2,0-0.5-0.1-0.8-0.3c-0.5-0.2-0.8-0.5-1-0.9
					c-0.2-0.4-0.2-0.8-0.1-1.2l-0.1,0c-0.6,0.2-1.2,0.4-1.8,0.4c-0.6,0-1.2-0.2-1.8-0.5c-0.7-0.3-1.1-0.8-1.3-1.4
					c-0.2-0.6-0.2-1.3,0.2-1.9c0.2-0.3,0.4-0.6,0.6-0.9c0.2-0.2,0.5-0.4,0.8-0.5c0.2-0.1,0.5-0.2,0.8-0.2c0.3,0,0.6,0,0.9,0
					c0.3,0,1,0.1,1.9,0.3c1,0.1,1.6,0.2,2,0.2l0.4-0.9c0-0.1,0.1-0.2,0.2-0.5c0.1-0.2,0.1-0.5,0.1-0.7c0-0.3-0.1-0.6-0.2-0.8
					c-0.1-0.3-0.4-0.5-0.8-0.7c-0.3-0.1-0.6-0.2-0.8-0.2c-0.3,0-0.5,0-0.6,0c-0.1,0.1-0.1,0.3-0.2,0.6c-0.1,0.3-0.1,0.5-0.2,0.7
					c-0.1,0.2-0.3,0.4-0.6,0.4c-0.3,0.1-0.6,0-0.9-0.1c-0.3-0.2-0.5-0.4-0.5-0.7c0-0.3,0-0.6,0.1-0.8c0.1-0.3,0.4-0.5,0.7-0.6
					c0.3-0.2,0.7-0.3,1.1-0.3c0.4,0,0.8,0,1.2,0.1c0.4,0.1,0.9,0.2,1.2,0.4c0.5,0.3,0.9,0.5,1.3,0.8c0.3,0.3,0.6,0.6,0.8,1
					c0.2,0.4,0.3,0.8,0.2,1.3c0,0.5-0.2,1-0.5,1.6c-0.4,0.9-0.8,1.6-1.2,2.3c-0.4,0.7-0.7,1.4-1.1,2.2c-0.1,0.2-0.2,0.4-0.2,0.6
					c0,0.2,0.1,0.4,0.2,0.5c0.1,0.1,0.2,0.2,0.4,0.3s0.4,0.2,0.6,0.3L104.7,252.1z M103.9,245.8c-0.6-0.1-1.1-0.2-1.6-0.2
					c-0.5,0-0.9,0-1.3,0c-0.4,0.1-0.8,0.2-1.1,0.4c-0.3,0.2-0.6,0.5-0.8,0.9c-0.3,0.5-0.3,0.9-0.2,1.3c0.1,0.4,0.4,0.7,0.8,0.9
					c0.4,0.2,0.9,0.3,1.3,0.3s0.8-0.2,1.2-0.3L103.9,245.8z"/>
				<path id="XMLID_130_" class="st1" d="M118.1,252.1c-0.5,1.4-1.4,2.4-2.6,3.1c-1.2,0.6-2.4,0.7-3.6,0.3c-0.5-0.2-1-0.5-1.4-0.8
					c-0.4-0.3-0.8-0.7-1.2-1.2l-1.1,0.8l-0.5-0.3c0.2-0.5,0.4-1,0.7-1.7c0.3-0.7,0.5-1.3,0.7-1.9l3.4-9.3c0.1-0.2,0.1-0.4,0.1-0.7
					c0-0.3-0.1-0.5-0.2-0.6c-0.1-0.1-0.3-0.3-0.5-0.4c-0.3-0.1-0.5-0.3-0.6-0.3l0.2-0.6l3.5,1l0.1,0.2l-2.3,6.2l0.1,0
					c0.5-0.3,1.1-0.4,1.6-0.5s1,0,1.5,0.2c1.2,0.4,2,1.2,2.4,2.4S118.6,250.6,118.1,252.1z M116.1,251.4c0.2-0.5,0.3-1,0.4-1.5
					c0.1-0.5,0.1-1,0-1.4c-0.1-0.4-0.3-0.8-0.5-1.2c-0.3-0.4-0.6-0.6-1.1-0.8c-0.4-0.2-0.9-0.2-1.3-0.2c-0.4,0.1-0.8,0.2-1.2,0.4
					l-2,5.5c0,0.2,0,0.4,0,0.6c0,0.2,0.1,0.5,0.2,0.7c0.1,0.2,0.3,0.5,0.5,0.7c0.2,0.2,0.5,0.4,0.8,0.5c0.8,0.3,1.5,0.1,2.3-0.4
					C115,253.6,115.6,252.7,116.1,251.4z"/>
				<path id="XMLID_128_" class="st1" d="M123.4,258.6l-4.7-1.3l0.2-0.6c0.2,0,0.3,0.1,0.5,0.1c0.2,0,0.3,0,0.4,0
					c0.2,0,0.4-0.1,0.5-0.2c0.1-0.1,0.2-0.3,0.3-0.5l3-11.2c0.1-0.2,0.1-0.5,0-0.7c0-0.2-0.1-0.4-0.3-0.6c-0.1-0.1-0.3-0.2-0.6-0.4
					c-0.3-0.1-0.5-0.3-0.7-0.3l0.2-0.6l3.7,0.8l0.1,0.2l-3.5,13.2c-0.1,0.2-0.1,0.4,0,0.6c0,0.2,0.2,0.3,0.3,0.4
					c0.1,0.1,0.3,0.2,0.4,0.3c0.1,0.1,0.3,0.1,0.5,0.2L123.4,258.6z"/>
				<path id="XMLID_125_" class="st1" d="M130.1,260.1l-4.7-1l0.1-0.7c0.2,0,0.3,0,0.5,0.1c0.2,0,0.3,0,0.4,0c0.2,0,0.4-0.1,0.5-0.2
					c0.1-0.1,0.2-0.3,0.3-0.6l1.2-6c0-0.2,0-0.4,0-0.6c-0.1-0.2-0.2-0.4-0.3-0.5c-0.1-0.1-0.3-0.2-0.5-0.3c-0.2-0.1-0.4-0.2-0.6-0.2
					l0.1-0.7l3.5,0.5l0.1,0.2l-1.6,8c0,0.2,0,0.4,0,0.6c0.1,0.2,0.2,0.3,0.4,0.4c0.1,0.1,0.3,0.2,0.4,0.2c0.1,0.1,0.3,0.1,0.4,0.2
					L130.1,260.1z M131.7,246.1c-0.1,0.4-0.3,0.7-0.6,0.9c-0.3,0.2-0.6,0.3-1,0.2c-0.3-0.1-0.6-0.3-0.8-0.6c-0.2-0.3-0.3-0.6-0.2-1
					c0.1-0.4,0.3-0.7,0.6-0.9c0.3-0.2,0.6-0.3,1-0.2c0.4,0.1,0.7,0.3,0.9,0.6C131.7,245.4,131.8,245.7,131.7,246.1z"/>
				<path id="XMLID_123_" class="st1" d="M139.4,256.4c0.2,0.3,0.4,0.6,0.5,0.9c0.1,0.3,0.1,0.7,0.1,1.2c-0.1,0.9-0.6,1.6-1.3,2.1
					c-0.8,0.5-1.7,0.7-2.8,0.5c-0.6-0.1-1.1-0.2-1.6-0.5c-0.5-0.3-0.8-0.5-1-0.7l-0.3,0.6l-0.8-0.1l0.3-3.5l0.7,0.1
					c0,0.3,0.1,0.6,0.2,1c0.1,0.4,0.3,0.7,0.5,1c0.2,0.3,0.5,0.6,0.8,0.9c0.3,0.2,0.7,0.4,1.2,0.5c0.6,0.1,1.2,0,1.5-0.3
					c0.4-0.2,0.6-0.6,0.7-1.2c0-0.3,0-0.5-0.1-0.7c-0.1-0.2-0.2-0.4-0.4-0.6c-0.2-0.2-0.5-0.4-0.8-0.5c-0.3-0.2-0.6-0.3-1-0.5
					c-0.3-0.1-0.6-0.3-1-0.5c-0.4-0.2-0.7-0.4-0.9-0.7c-0.3-0.3-0.5-0.6-0.6-1c-0.1-0.4-0.2-0.8-0.1-1.2c0.1-0.8,0.5-1.5,1.2-1.9
					c0.7-0.5,1.5-0.7,2.5-0.5c0.4,0,0.8,0.1,1.2,0.3c0.4,0.2,0.7,0.3,0.9,0.5l0.3-0.5l0.7,0.1l-0.2,3.2l-0.7-0.1
					c-0.1-0.7-0.3-1.3-0.7-1.9c-0.4-0.5-0.9-0.8-1.6-0.9c-0.5-0.1-1,0-1.3,0.3c-0.3,0.2-0.5,0.6-0.6,0.9c0,0.3,0,0.6,0.1,0.8
					s0.2,0.4,0.4,0.6c0.2,0.2,0.4,0.3,0.7,0.5c0.3,0.2,0.6,0.3,1.1,0.5c0.4,0.2,0.8,0.4,1.2,0.6
					C138.9,255.9,139.2,256.2,139.4,256.4z"/>
				<path id="XMLID_121_" class="st1" d="M153.4,261.9l-4.9-0.1l0-0.7c0.2,0,0.3,0,0.5,0s0.3,0,0.5-0.1c0.2-0.1,0.3-0.2,0.4-0.3
					c0.1-0.2,0.1-0.3,0.1-0.6l0.1-5.1c0-0.7-0.1-1.3-0.5-1.6c-0.3-0.4-0.7-0.6-1.2-0.6c-0.4,0-0.7,0-1,0.1c-0.3,0.1-0.6,0.2-0.8,0.4
					c-0.2,0.2-0.4,0.3-0.5,0.5c-0.1,0.2-0.2,0.3-0.3,0.4l-0.1,5.7c0,0.2,0,0.4,0.1,0.6c0.1,0.2,0.2,0.3,0.4,0.4
					c0.1,0.1,0.3,0.1,0.5,0.2c0.2,0,0.3,0.1,0.5,0.1l0,0.7l-4.9-0.1l0-0.7c0.2,0,0.3,0,0.5,0c0.2,0,0.3,0,0.4-0.1
					c0.2-0.1,0.3-0.2,0.4-0.3c0.1-0.1,0.1-0.3,0.2-0.6l0.2-11.6c0-0.2,0-0.5-0.1-0.7c-0.1-0.2-0.2-0.4-0.4-0.5
					c-0.1-0.1-0.3-0.2-0.6-0.2c-0.3,0-0.6-0.1-0.7-0.1l0-0.6l3.7-0.2l0.1,0.2l-0.1,7l0,0c0.2-0.2,0.4-0.4,0.6-0.6
					c0.2-0.2,0.4-0.3,0.7-0.5c0.3-0.2,0.6-0.3,0.9-0.4c0.4-0.1,0.7-0.1,1.2-0.1c0.9,0,1.6,0.3,2,0.9c0.5,0.6,0.7,1.4,0.7,2.4
					l-0.1,5.2c0,0.2,0,0.4,0.1,0.6c0.1,0.1,0.2,0.3,0.4,0.3c0.2,0.1,0.3,0.1,0.4,0.1c0.1,0,0.3,0.1,0.5,0.1L153.4,261.9z"/>
				<path id="XMLID_118_" class="st1" d="M164.6,258.6c-0.3,0.8-0.8,1.5-1.5,2c-0.7,0.5-1.4,0.8-2.3,0.9c-0.8,0.1-1.5,0-2.1-0.2
					c-0.6-0.2-1.2-0.6-1.6-1c-0.4-0.4-0.8-1-1-1.6c-0.2-0.6-0.4-1.3-0.5-2c-0.1-0.6,0-1.3,0.1-1.9c0.1-0.6,0.4-1.2,0.7-1.8
					c0.3-0.5,0.8-0.9,1.3-1.3c0.5-0.3,1.2-0.5,1.9-0.6c0.7-0.1,1.4,0,1.9,0.2c0.5,0.2,1,0.5,1.3,0.8c0.3,0.3,0.6,0.8,0.8,1.3
					c0.2,0.5,0.3,1,0.4,1.6l0.1,0.7l-6.6,0.6c0.1,0.7,0.2,1.2,0.3,1.8c0.2,0.5,0.4,1,0.7,1.4c0.3,0.4,0.7,0.6,1.1,0.8
					c0.4,0.2,1,0.3,1.5,0.2c0.6-0.1,1.1-0.2,1.5-0.6c0.4-0.3,0.8-0.9,1.1-1.6L164.6,258.6z M162,255c0-0.4-0.1-0.8-0.2-1.2
					c-0.1-0.4-0.2-0.8-0.4-1c-0.2-0.3-0.4-0.5-0.7-0.7c-0.3-0.2-0.6-0.2-1.1-0.2c-0.7,0.1-1.3,0.4-1.7,1c-0.4,0.6-0.6,1.5-0.5,2.5
					L162,255z"/>
				<path id="XMLID_115_" class="st1" d="M178.1,258.2l-3.4,0.9l-0.2-0.1l-0.2-0.9l-0.1,0c-0.3,0.5-0.6,0.9-1.1,1.2
					c-0.5,0.3-1,0.6-1.5,0.7c-0.6,0.1-1.1,0.1-1.7,0c-0.6-0.1-1.1-0.4-1.6-0.8c-0.5-0.4-0.9-0.9-1.3-1.5c-0.4-0.6-0.6-1.3-0.8-2.1
					c-0.1-0.7-0.2-1.4,0-2.1c0.1-0.7,0.3-1.3,0.7-1.9c0.3-0.5,0.7-1,1.3-1.4c0.5-0.4,1.1-0.6,1.7-0.8c0.5-0.1,0.9-0.1,1.4-0.1
					c0.5,0,0.9,0.1,1.2,0.2l-0.7-3.4c-0.1-0.3-0.2-0.5-0.3-0.7c-0.1-0.2-0.3-0.4-0.5-0.4c-0.2-0.1-0.5-0.1-0.8-0.1
					c-0.3,0-0.7,0-1,0.1l-0.1-0.6l4-1l0.2,0.1l2.7,13.2c0,0.2,0.1,0.4,0.3,0.6c0.1,0.1,0.3,0.3,0.5,0.3c0.1,0.1,0.3,0.1,0.6,0
					c0.2,0,0.5-0.1,0.7-0.1L178.1,258.2z M174.1,257.2l-1.2-5.7c-0.1-0.2-0.2-0.3-0.4-0.5c-0.2-0.2-0.3-0.3-0.6-0.5
					c-0.2-0.1-0.5-0.2-0.8-0.3c-0.3-0.1-0.6,0-0.9,0c-0.4,0.1-0.7,0.3-1,0.5c-0.3,0.3-0.5,0.6-0.7,1.1c-0.2,0.4-0.3,0.9-0.3,1.5
					c0,0.6,0,1.2,0.2,1.9c0.1,0.6,0.3,1,0.5,1.5c0.2,0.4,0.5,0.8,0.8,1.2c0.3,0.3,0.7,0.6,1.1,0.7c0.4,0.2,0.9,0.2,1.4,0.1
					c0.5-0.1,0.9-0.3,1.2-0.6C173.7,257.9,173.9,257.6,174.1,257.2z"/>
				<path id="XMLID_113_" class="st1" d="M183.1,255.6c0.1,0.4,0.1,0.7-0.1,1c-0.2,0.3-0.5,0.6-0.8,0.7c-0.4,0.1-0.7,0.1-1.1-0.1
					c-0.3-0.2-0.6-0.4-0.7-0.8c-0.1-0.4-0.1-0.7,0.1-1.1c0.2-0.3,0.5-0.6,0.8-0.7c0.4-0.1,0.7-0.1,1.1,0.1
					C182.8,255,183,255.2,183.1,255.6z"/>
				<path id="XMLID_111_" class="st1" d="M200.8,249.7l-8.6,3.9l-0.6-1.3c0.1-0.3,0.2-0.6,0.4-1c0.2-0.4,0.4-0.8,0.7-1.2
					c0.2-0.3,0.4-0.6,0.6-0.9c0.3-0.4,0.5-0.7,0.9-1.2c0.4-0.5,0.6-0.9,0.8-1.2c0.2-0.3,0.3-0.7,0.4-1.1c0.1-0.3,0.1-0.5,0-0.9
					c0-0.3-0.2-0.8-0.4-1.3c-0.4-0.8-0.8-1.2-1.4-1.4c-0.6-0.2-1.2-0.1-1.8,0.2c-0.4,0.2-0.7,0.4-1,0.8c-0.3,0.3-0.5,0.7-0.5,1
					c0.1,0.2,0.3,0.4,0.5,0.6c0.2,0.2,0.3,0.5,0.5,0.7c0.1,0.2,0.1,0.5,0,0.8c-0.1,0.3-0.4,0.5-0.7,0.7c-0.3,0.1-0.6,0.1-0.9,0
					s-0.5-0.4-0.6-0.7c-0.2-0.3-0.2-0.7-0.2-1.1c0-0.4,0.2-0.8,0.4-1.3c0.2-0.4,0.5-0.8,0.9-1.2c0.4-0.4,0.9-0.7,1.5-1
					c1.3-0.6,2.4-0.8,3.4-0.5c1,0.2,1.7,0.8,2.1,1.7c0.2,0.4,0.3,0.9,0.4,1.3c0,0.4,0,0.9-0.2,1.3c-0.2,0.5-0.4,0.9-0.8,1.3
					c-0.3,0.4-0.9,1-1.6,1.8c-0.4,0.5-0.8,1-1.1,1.4c-0.3,0.5-0.6,0.9-0.8,1.3l7.1-3.2L200.8,249.7z"/>
				<path id="XMLID_108_" class="st1" d="M207,235.1c0.6,0.2,1.2,0.6,1.8,1c0.5,0.5,1,1.1,1.4,1.7c0.5,0.8,0.8,1.6,1,2.3
					c0.2,0.8,0.2,1.5,0,2.1c-0.1,0.7-0.4,1.3-0.8,1.8c-0.4,0.6-1,1-1.6,1.5c-0.7,0.5-1.5,0.7-2.2,0.9c-0.7,0.1-1.4,0.1-2-0.1
					c-0.7-0.2-1.3-0.6-1.8-1.1s-1-1.1-1.5-1.8c-0.4-0.7-0.7-1.4-0.9-2.1c-0.2-0.7-0.2-1.4-0.1-2.1c0.1-0.7,0.3-1.3,0.8-1.9
					c0.4-0.6,1-1.2,1.8-1.6c0.8-0.5,1.5-0.8,2.3-0.9C205.7,234.8,206.4,234.9,207,235.1z M208.3,239c-0.8-1.4-1.7-2.3-2.7-2.7
					s-1.8-0.4-2.6,0c-0.8,0.5-1.2,1.3-1.2,2.3c0,1,0.4,2.2,1.3,3.6c0.8,1.3,1.7,2.2,2.6,2.7c0.9,0.5,1.8,0.5,2.7,0
					c0.8-0.5,1.3-1.3,1.2-2.4C209.5,241.5,209.1,240.3,208.3,239z"/>
				<path id="XMLID_106_" class="st1" d="M221.5,236l-5.4,4.2l-0.4-0.6c0.2-0.1,0.4-0.4,0.7-0.6c0.3-0.3,0.5-0.5,0.6-0.7
					c0.1-0.2,0.2-0.4,0.2-0.6c0-0.2-0.1-0.4-0.3-0.6l-4.4-5.6l-2,1.5l-0.5-0.7l0.4-0.3c0.6-0.4,1-1,1.3-1.5c0.3-0.6,0.4-1.1,0.4-1.4
					l0.7-0.5c0.3,0.4,0.6,0.8,0.9,1.3c0.3,0.5,0.7,0.9,0.9,1.3l3.7,4.7c0.1,0.2,0.3,0.3,0.5,0.4c0.2,0.1,0.4,0.1,0.6,0
					c0.2,0,0.5-0.2,0.8-0.4c0.4-0.2,0.6-0.4,0.8-0.5L221.5,236z"/>
				<path id="XMLID_104_" class="st1" d="M226,225.5c0.6-0.1,1.1,0,1.7,0.2c0.6,0.2,1.2,0.6,1.8,1.2c1,1.1,1.5,2.3,1.4,3.6
					c-0.1,1.4-0.7,2.6-1.8,3.6c-0.9,0.8-1.8,1.3-2.8,1.5c-1,0.2-1.7,0-2.2-0.6c-0.2-0.2-0.4-0.5-0.4-0.8c-0.1-0.3,0-0.6,0.3-0.8
					c0.3-0.3,0.6-0.4,0.9-0.4c0.3,0,0.5,0.1,0.7,0.3c0.1,0.2,0.3,0.4,0.5,0.7c0.2,0.3,0.3,0.5,0.4,0.6c0.1,0,0.2,0,0.3,0
					c0.1,0,0.3-0.1,0.5-0.1c0.2-0.1,0.4-0.2,0.6-0.3c0.2-0.1,0.5-0.3,0.7-0.5c0.3-0.3,0.5-0.6,0.7-1c0.2-0.4,0.2-0.8,0.2-1.2
					c-0.1-0.5-0.2-0.9-0.4-1.4c-0.2-0.4-0.6-0.9-1.1-1.5c-0.7-0.7-1.4-1.1-2.2-1.2c-0.8-0.1-1.5,0.2-2.2,0.8
					c-0.4,0.4-0.7,0.8-0.9,1.3c-0.2,0.5-0.3,1-0.2,1.6l-0.7,0.3l-4.4-5.9l5.3-5l1.2,1.3l-4.7,4.4l2.6,3.5c0.1-0.4,0.2-0.8,0.4-1.3
					c0.2-0.5,0.5-0.9,1-1.4c0.4-0.3,0.8-0.6,1.3-0.9C224.9,225.7,225.4,225.5,226,225.5z"/>
			</g>
			<g id="XMLID_3_">
				<path id="XMLID_100_" class="st1" d="M73.8,95.9l-3.1,6.1c-2.8,0.3-5.3,0.6-7.4,0.9c-2.1,0.3-4.3,0.7-6.6,1.1l-1.2,2.3l7.2,3.7
					c0.4,0.2,0.7,0.3,1.1,0.3c0.3,0,0.7-0.1,1-0.4c0.2-0.2,0.4-0.5,0.7-0.9c0.3-0.4,0.6-0.8,0.7-1.2l1.1,0.6l-4.9,9.6l-1.1-0.6
					c0.1-0.3,0.3-0.7,0.5-1.2c0.2-0.5,0.3-0.9,0.3-1.1c0-0.4-0.1-0.7-0.3-1c-0.2-0.3-0.5-0.5-0.9-0.7l-16.5-8.4
					c-0.4-0.2-0.7-0.3-1.1-0.3c-0.3,0-0.7,0.1-1,0.4c-0.2,0.2-0.5,0.5-0.8,0.9c-0.3,0.4-0.5,0.7-0.7,1l-1.1-0.6l5.4-10.5
					c0.5-1,1.1-1.8,1.7-2.6s1.3-1.3,2.1-1.8c0.8-0.4,1.6-0.7,2.5-0.7c0.9,0,1.8,0.2,2.8,0.7c0.9,0.4,1.6,1,2.1,1.6
					c0.5,0.6,0.9,1.3,1.1,2.1c0.2,0.7,0.3,1.5,0.3,2.3s-0.1,1.7-0.3,2.7c2.1-0.4,3.8-0.7,5.2-0.9c1.4-0.2,3.1-0.5,5.1-0.9
					c0.9-0.1,1.6-0.3,2.1-0.6c0.5-0.2,0.9-0.5,1.3-0.8c0.3-0.2,0.6-0.5,0.9-0.9c0.3-0.4,0.5-0.7,0.7-1L73.8,95.9z M52.5,95.7
					c-1.4-0.7-2.7-0.9-3.9-0.5c-1.2,0.4-2.2,1.3-2.9,2.7l-1.4,2.7l9.8,5l1.1-2.1c0.8-1.5,0.9-3,0.5-4.4
					C55.2,97.6,54.2,96.5,52.5,95.7z"/>
				<path id="XMLID_98_" class="st1" d="M82.6,75.4l5.3,5.4L73.8,96.7l-1-0.8c0.2-0.3,0.5-0.7,0.8-1.2c0.3-0.5,0.5-0.8,0.6-1
					c0.1-0.4,0.1-0.8,0-1.1c-0.1-0.3-0.3-0.6-0.7-0.9L59.8,79.4c-0.3-0.3-0.6-0.4-0.9-0.6c-0.3-0.1-0.7-0.1-1.1,0.1
					c-0.3,0.1-0.7,0.4-1.2,0.7c-0.5,0.3-0.8,0.6-1,0.8l-1-0.8l13.1-14.8l4.6,4.1l-0.9,1c-0.8-0.4-1.9-0.7-3.2-0.8
					c-1.3-0.1-2.2,0.1-2.8,0.6c-0.3,0.2-0.6,0.6-1,0.9c-0.4,0.4-0.8,0.8-1.2,1.3l-2.7,3l7.6,6.7l1.9-2.2c0.6-0.7,1-1.3,1.1-1.7
					c0.2-0.4,0.2-0.9,0.1-1.4c-0.1-0.4-0.3-0.9-0.6-1.4c-0.3-0.5-0.6-1-1-1.4l0.9-1l7.5,6.6l-0.9,1c-0.5-0.3-1-0.7-1.6-0.9
					c-0.6-0.3-1.1-0.4-1.5-0.4c-0.6,0-1.1,0.1-1.5,0.3c-0.4,0.3-0.9,0.7-1.4,1.3l-1.9,2.2l5.7,5.1c0.6,0.5,1.1,0.9,1.5,1.1
					c0.4,0.2,0.8,0.3,1.2,0.2c0.4-0.1,0.8-0.3,1.2-0.7c0.4-0.4,0.9-0.9,1.6-1.7c0.3-0.3,0.6-0.7,1-1.2c0.4-0.5,0.8-0.9,1-1.3
					c0.3-0.4,0.5-0.8,0.7-1.2c0.2-0.4,0.3-0.8,0.3-1.1c-0.1-0.8-0.3-1.8-0.8-3c-0.5-1.2-0.9-2.1-1.2-2.6L82.6,75.4z"/>
				<path id="XMLID_96_" class="st1" d="M97.6,72.7c-0.4,0.7-0.8,1.4-1.2,2c-0.4,0.6-1,1.2-1.8,1.8c-1.2,0.9-2.2,1.3-3.2,1
					c-0.9-0.2-1.8-0.9-2.7-2l-7.4-9.5l-2.5,2l-1.1-1.4l2.6-2l-3.4-4.4l2.6-2l3.4,4.4l4-3.1l1.1,1.4l-4,3.1l6.1,7.9
					c0.5,0.6,0.9,1.1,1.2,1.4c0.3,0.4,0.7,0.6,1.1,0.8c0.4,0.2,0.8,0.2,1.2,0.1c0.4-0.1,0.9-0.3,1.4-0.7c0.2-0.2,0.6-0.5,1-0.9
					c0.4-0.4,0.7-0.7,0.8-0.9L97.6,72.7z"/>
				<path id="XMLID_93_" class="st1" d="M91.5,48.1c0.4,0.6,0.5,1.2,0.3,1.9c-0.1,0.7-0.5,1.2-1,1.5c-0.5,0.3-1.1,0.4-1.7,0.2
					c-0.6-0.2-1.1-0.5-1.4-1.1c-0.3-0.6-0.4-1.2-0.3-1.8c0.1-0.7,0.5-1.1,1-1.5c0.6-0.4,1.2-0.4,1.8-0.3
					C90.7,47.3,91.2,47.6,91.5,48.1z M106.3,68.4L99,72.9l-0.6-1c0.2-0.2,0.5-0.3,0.7-0.5c0.2-0.2,0.4-0.3,0.6-0.5
					c0.2-0.3,0.4-0.6,0.4-0.9c0-0.3-0.1-0.7-0.3-1L94,59.5c-0.2-0.3-0.5-0.6-0.8-0.8c-0.3-0.2-0.7-0.3-1-0.3c-0.3,0-0.6,0.1-1,0.2
					c-0.4,0.1-0.8,0.3-1.1,0.5l-0.6-1l5.2-3.6l0.3,0.1l7.5,12.4c0.2,0.4,0.5,0.6,0.7,0.8c0.3,0.2,0.6,0.2,1,0.1
					c0.3,0,0.5-0.1,0.8-0.2c0.2-0.1,0.5-0.2,0.8-0.3L106.3,68.4z"/>
				<path id="XMLID_90_" class="st1" d="M116.5,47c1,0.5,1.8,1.2,2.6,2.1c0.8,0.9,1.4,2,2,3.3c0.5,1.3,0.8,2.6,0.8,3.8
					c0,1.3-0.2,2.4-0.6,3.4c-0.4,1.1-1,2-1.8,2.8c-0.8,0.8-1.6,1.4-2.7,1.8c-1,0.4-1.9,0.6-2.6,0.6c-0.7,0-1.4,0-1.9-0.2l-0.1,0.1
					l2,5c0.2,0.4,0.4,0.7,0.6,0.9c0.3,0.2,0.6,0.3,1,0.3c0.3,0,0.7-0.1,1.3-0.2c0.5-0.1,1-0.2,1.3-0.3l0.4,1.1l-9.2,3.7l-0.4-1.1
					c0.3-0.2,0.7-0.3,1-0.5c0.3-0.2,0.6-0.3,0.8-0.5c0.3-0.2,0.4-0.5,0.5-0.9c0-0.3,0-0.7-0.2-1.1l-7-17.6c-0.1-0.3-0.3-0.6-0.6-0.9
					c-0.3-0.2-0.6-0.4-1-0.5c-0.3-0.1-0.6,0-1,0c-0.4,0.1-0.8,0.2-1.1,0.3l-0.4-1.1l5.5-2.6l0.3,0.1l0.7,1.9l0.1,0
					c0.3-0.9,0.8-1.7,1.5-2.5c0.7-0.8,1.4-1.4,2.3-1.7c1-0.4,2.1-0.6,3.1-0.5C114.7,46.2,115.6,46.5,116.5,47z M118.5,59.9
					c0.2-0.9,0.2-1.8,0-2.8c-0.2-1-0.5-2.1-0.9-3.2c-0.3-0.8-0.8-1.6-1.3-2.4c-0.5-0.8-1.1-1.4-1.7-1.9c-0.6-0.5-1.3-0.8-2.1-1
					c-0.8-0.2-1.6-0.1-2.5,0.3c-0.8,0.3-1.5,0.8-1.9,1.4c-0.4,0.6-0.8,1.2-1,1.9l3.9,9.8c0.2,0.3,0.5,0.5,0.9,0.7
					c0.4,0.2,0.7,0.4,1.1,0.5c0.5,0.1,0.9,0.2,1.4,0.2c0.5,0,1-0.1,1.6-0.3c0.6-0.2,1.2-0.7,1.6-1.2
					C118.1,61.4,118.4,60.7,118.5,59.9z"/>
				<path id="XMLID_88_" class="st1" d="M135.8,49.7c0.6,0.3,1,0.8,1.4,1.3c0.4,0.5,0.6,1.2,0.8,2c0.3,1.6,0,3.1-1.1,4.3
					c-1,1.3-2.5,2.1-4.4,2.4c-1,0.2-2,0.2-2.9,0c-0.9-0.2-1.6-0.4-2-0.7l-0.1,1.2l-1.3,0.3l-1.3-6l1.2-0.2c0.2,0.4,0.5,0.9,0.9,1.5
					c0.4,0.6,0.9,1,1.4,1.5c0.6,0.4,1.2,0.8,1.9,1c0.7,0.2,1.5,0.3,2.3,0.1c1.1-0.2,2-0.6,2.5-1.3c0.5-0.6,0.7-1.4,0.5-2.4
					c-0.1-0.5-0.3-0.9-0.5-1.2c-0.3-0.3-0.6-0.6-1-0.8c-0.4-0.2-1-0.3-1.6-0.5c-0.6-0.1-1.3-0.2-2-0.3c-0.6-0.1-1.2-0.2-2-0.3
					c-0.7-0.2-1.4-0.4-1.9-0.7c-0.6-0.3-1.1-0.7-1.6-1.3c-0.4-0.5-0.7-1.2-0.9-2c-0.3-1.4,0-2.7,0.9-3.9c0.9-1.2,2.2-2,4-2.3
					c0.7-0.1,1.4-0.2,2.2-0.1c0.7,0,1.4,0.1,1.9,0.3l0.2-1l1.3-0.2l1.3,5.6l-1.2,0.2c-0.5-1.2-1.2-2.1-2.2-2.8
					c-1-0.6-2.1-0.8-3.2-0.6c-1,0.2-1.7,0.6-2.1,1.2c-0.5,0.6-0.6,1.2-0.5,1.9c0.1,0.5,0.3,1,0.5,1.3c0.3,0.3,0.6,0.6,1,0.7
					c0.4,0.2,0.9,0.3,1.5,0.4c0.6,0.1,1.3,0.2,2.1,0.3c0.8,0.1,1.6,0.2,2.4,0.4C134.6,49.2,135.3,49.4,135.8,49.7z"/>
				<path id="XMLID_86_" class="st1" d="M151.7,56.7c-0.8,0.4-1.5,0.7-2.2,0.9c-0.7,0.3-1.5,0.4-2.5,0.4c-1.5,0.1-2.6-0.3-3.2-1
					c-0.6-0.7-1-1.8-1.1-3.1l-0.5-12L139,42l-0.1-1.7l3.3-0.1l-0.2-5.5l3.3-0.1l0.2,5.5l5.1-0.2l0.1,1.7l-5.1,0.2l0.4,9.9
					c0,0.7,0.1,1.4,0.2,1.9c0.1,0.5,0.2,0.9,0.4,1.3c0.2,0.3,0.5,0.6,0.9,0.8s0.9,0.2,1.6,0.2c0.3,0,0.7-0.1,1.3-0.1
					c0.6-0.1,1-0.2,1.2-0.3L151.7,56.7z"/>
				<path id="XMLID_83_" class="st1" d="M168.7,54.9c-0.9,1.3-2,2.3-3.3,3c-1.3,0.7-2.8,1-4.4,0.8c-1.4-0.2-2.6-0.5-3.7-1.2
					c-1-0.6-1.8-1.4-2.4-2.3c-0.6-0.9-1-2-1.2-3.2c-0.2-1.2-0.3-2.4-0.1-3.7c0.1-1.1,0.4-2.3,0.9-3.3c0.5-1.1,1.1-2,1.9-2.8
					c0.8-0.8,1.7-1.4,2.8-1.8c1.1-0.4,2.2-0.5,3.5-0.4c1.3,0.1,2.4,0.5,3.3,1c0.9,0.5,1.6,1.1,2.1,1.9c0.5,0.7,0.8,1.6,1,2.5
					s0.2,1.9,0.1,3l-0.1,1.2l-11.7-1.3c-0.1,1.2-0.1,2.2,0,3.2c0.1,1,0.4,1.8,0.8,2.6c0.4,0.7,0.9,1.4,1.7,1.8
					c0.7,0.5,1.6,0.8,2.6,0.9c1.1,0.1,2,0,2.8-0.4c0.8-0.4,1.7-1.2,2.5-2.5L168.7,54.9z M165.5,47.7c0.1-0.7,0.1-1.4,0.1-2.2
					c0-0.8-0.1-1.4-0.3-2c-0.2-0.6-0.5-1.1-1-1.5c-0.4-0.4-1-0.6-1.8-0.7c-1.3-0.1-2.4,0.3-3.3,1.2c-0.9,1-1.6,2.4-1.8,4.2
					L165.5,47.7z"/>
				<path id="XMLID_81_" class="st1" d="M186.6,48.2c-0.2,0.6-0.5,1.1-0.9,1.4c-0.4,0.4-0.9,0.5-1.5,0.3c-0.6-0.2-1.1-0.5-1.3-0.9
					c-0.2-0.4-0.3-0.9-0.2-1.3c0.1-0.3,0.2-0.5,0.3-0.7c0.1-0.2,0.2-0.4,0.3-0.6c-0.5-0.2-1.2-0.1-2.1,0.1c-0.9,0.2-1.7,0.7-2.4,1.3
					l-2.8,10c-0.1,0.4-0.1,0.8,0,1.1c0.1,0.3,0.3,0.6,0.6,0.8c0.3,0.2,0.6,0.4,1,0.6c0.4,0.2,0.8,0.3,1.2,0.5l-0.3,1.1l-9-2.6
					l0.3-1.1c0.3,0.1,0.6,0.1,0.8,0.2c0.3,0.1,0.5,0.1,0.8,0.1c0.4,0,0.6-0.1,0.9-0.3s0.4-0.5,0.5-0.9l3-10.6c0.1-0.4,0.1-0.7,0-1.1
					c-0.1-0.4-0.2-0.7-0.5-1c-0.2-0.2-0.4-0.4-0.7-0.5c-0.3-0.1-0.6-0.3-0.9-0.4l0.3-1.1l5.8,1.2l0.2,0.3l-0.7,2.4l0.1,0
					c1-0.7,2-1.2,3-1.5c1-0.2,1.9-0.3,2.6,0c0.7,0.2,1.3,0.6,1.6,1.2C186.8,46.7,186.8,47.4,186.6,48.2z"/>
				<path id="XMLID_79_" class="st1" d="M200.1,73.1c-1.3-0.8-2.4-1.9-3.2-3.1c-0.9-1.3-1.4-2.7-1.8-4.2c-0.3-1.5-0.3-3.2,0.1-4.9
					c0.3-1.7,1.1-3.4,2.1-5.2c1.1-1.7,2.4-3.1,3.8-4.2c1.4-1.1,2.9-1.8,4.5-2.2c1.6-0.4,3.1-0.5,4.8-0.3c1.6,0.2,3.1,0.8,4.6,1.7
					c1.1,0.7,1.9,1.4,2.6,2.2c0.7,0.8,1.3,1.7,1.8,2.7l1.3-0.6l1.2,0.8l-4.8,7.8l-1.2-0.8c0.3-0.9,0.6-1.8,0.8-2.9
					c0.2-1.1,0.3-2.1,0.3-3c0-1-0.3-1.9-0.7-2.7c-0.4-0.8-1.1-1.5-1.9-2c-1-0.6-2-1-3.2-1.1s-2.3,0.1-3.4,0.5
					c-1.1,0.5-2.2,1.2-3.4,2.3c-1.1,1.1-2.2,2.4-3.2,3.9c-0.9,1.4-1.5,2.8-1.9,4.1c-0.4,1.4-0.5,2.7-0.4,4c0.1,1.3,0.4,2.4,1,3.5
					c0.6,1.1,1.4,1.9,2.5,2.6c0.8,0.5,1.7,0.9,2.5,1c0.9,0.2,1.7,0.2,2.4,0.1c0.8-0.1,1.6-0.4,2.3-0.7c0.7-0.3,1.5-0.7,2.1-1.3
					l0.8,1.3c-2.2,1.6-4.4,2.4-6.4,2.4C204.1,74.9,202.1,74.3,200.1,73.1z"/>
				<path id="XMLID_70_" class="st1" d="M215.4,84.6l-6.4-5.8l0.8-0.9c0.2,0.2,0.5,0.3,0.7,0.5c0.3,0.2,0.5,0.3,0.7,0.4
					c0.3,0.1,0.6,0.2,0.9,0.1c0.3-0.1,0.6-0.3,0.9-0.6L226.9,63c0.3-0.3,0.5-0.7,0.6-1.1c0.1-0.4,0.1-0.8,0.1-1.2
					c-0.1-0.3-0.3-0.6-0.6-1.1c-0.3-0.5-0.6-0.8-0.9-1.1l0.8-0.9l5.2,4.2l0,0.4l-16.4,18.1c-0.3,0.3-0.5,0.6-0.5,0.9s0,0.6,0.1,1
					c0.1,0.3,0.2,0.5,0.4,0.7s0.3,0.4,0.6,0.7L215.4,84.6z"/>
				<path id="XMLID_62_" class="st1" d="M228.7,100l-3.9-4.3l0-0.4l1.8-1.4l-0.1-0.1c-0.4,0-0.9-0.1-1.4-0.2c-0.5-0.1-1-0.2-1.5-0.4
					c-0.6-0.2-1.1-0.5-1.6-0.8c-0.4-0.3-1-0.8-1.5-1.5c-1-1.2-1.3-2.5-1-3.8c0.3-1.3,1.2-2.5,2.7-3.8l6.7-5.3
					c0.3-0.3,0.6-0.6,0.7-0.9c0.1-0.3,0.2-0.7,0.2-1c0-0.3-0.1-0.5-0.3-0.8c-0.2-0.3-0.3-0.6-0.5-0.9l0.9-0.7l4,4.4l0,0.4l-9.7,7.7
					c-1,0.8-1.6,1.6-1.7,2.5s0,1.6,0.5,2.2c0.4,0.5,0.9,0.9,1.3,1.2s0.9,0.5,1.4,0.6c0.4,0.1,0.8,0.2,1.2,0.2c0.4,0,0.7,0,1,0
					l7.9-6.3c0.3-0.2,0.5-0.5,0.7-0.9c0.1-0.3,0.2-0.7,0.2-1c0-0.3-0.2-0.6-0.4-0.9c-0.2-0.4-0.5-0.7-0.8-1.2l0.9-0.7l4.4,4.8l0,0.4
					l-11,8.8c-0.3,0.3-0.5,0.5-0.7,0.8c-0.1,0.3-0.2,0.6-0.1,1c0,0.3,0.1,0.5,0.3,0.8c0.2,0.3,0.3,0.5,0.6,0.8L228.7,100z"/>
				<path id="XMLID_4_" class="st1" d="M244.9,113.2c-2.4,1.2-4.8,1.4-7.2,0.7c-2.4-0.7-4.1-2.1-5-4c-0.4-0.9-0.7-1.8-0.9-2.8
					c-0.1-1-0.2-2-0.1-2.9l-2.5-0.3l-0.3-1.1c0.8-0.3,1.8-0.8,2.9-1.3c1.1-0.5,2.2-1.1,3.3-1.6l15.8-7.8c0.4-0.2,0.7-0.4,1-0.8
					c0.3-0.3,0.4-0.7,0.5-1c0-0.3,0-0.7-0.2-1.2c-0.2-0.5-0.3-0.9-0.4-1.2l1-0.5l3.3,5.7l-0.1,0.3l-10.5,5.2l0,0.1
					c1,0.3,1.9,0.8,2.7,1.4c0.7,0.6,1.3,1.3,1.7,2.1c1,2,1,4,0.1,6.1C249.1,110.3,247.4,112,244.9,113.2z M243.1,109.9
					c0.8-0.4,1.6-0.9,2.3-1.5c0.7-0.6,1.3-1.2,1.8-1.9c0.4-0.7,0.7-1.4,0.8-2.2c0.1-0.8-0.1-1.6-0.5-2.4c-0.4-0.8-0.8-1.3-1.4-1.8
					c-0.6-0.4-1.2-0.7-2-0.9l-9.3,4.6c-0.2,0.2-0.5,0.5-0.7,0.8c-0.3,0.4-0.5,0.8-0.6,1.3c-0.1,0.5-0.2,1-0.2,1.5
					c0,0.5,0.2,1.1,0.5,1.6c0.7,1.3,1.8,2.1,3.5,2.2C238.9,111.4,240.9,111,243.1,109.9z"/>
			</g>
		</g>
	</g>
</g>
</svg>
