<?xml version="1.0" encoding="utf-8"?>
<!-- Generator: Adobe Illustrator 21.0.2, SVG Export Plug-In . SVG Version: 6.00 Build 0)  -->
<svg version="1.1" id="Layer_1" xmlns="http://www.w3.org/2000/svg" xmlns:xlink="http://www.w3.org/1999/xlink" x="0px" y="0px"
	 viewBox="0 0 1536 51.2" style="enable-background:new 0 0 1536 51.2;" xml:space="preserve">
<style type="text/css">
	.st0{fill:none;}
	.st1{fill:none;stroke:#DFE3E7;stroke-linecap:round;stroke-linejoin:round;}
	.st2{fill:url(#SVGID_1_);}
</style>
<pattern  y="51.2" width="552" height="339" patternUnits="userSpaceOnUse" id="a" viewBox="0 -339 552 339" style="overflow:visible;">
	<g>
		<rect y="-339" class="st0" width="552" height="339"/>
		<path class="st0" d="M0,0h552v-339H0V0z"/>
		<path class="st1" d="M551.5-330.5l-11-8l-11,8l-11-8l-11,8l-11-8l-11,8l-11-8l-11,8l-11-8l-11,8l-11-8l-11,8l-11-8l-11,8l-11-8
			l-11,8l-11-8l-11,8l-11-8l-11,8l-11-8l-11,8l-11-8l-11,8l-11-8l-11,8l-11-8l-11,8l-11-8l-11,8l-11-8l-11,8l-11-8l-11,8l-11-8
			l-11,8l-11-8l-11,8l-11-8l-11,8l-11-8l-11,8l-11-8l-11,8l-11-8l-11,8l-11-8l-11,8l-11-8l-11,8"/>
		<path class="st1" d="M551.5-320.5l-11-8l-11,8l-11-8l-11,8l-11-8l-11,8l-11-8l-11,8l-11-8l-11,8l-11-8l-11,8l-11-8l-11,8l-11-8
			l-11,8l-11-8l-11,8l-11-8l-11,8l-11-8l-11,8l-11-8l-11,8l-11-8l-11,8l-11-8l-11,8l-11-8l-11,8l-11-8l-11,8l-11-8l-11,8l-11-8
			l-11,8l-11-8l-11,8l-11-8l-11,8l-11-8l-11,8l-11-8l-11,8l-11-8l-11,8l-11-8l-11,8l-11-8l-11,8"/>
		<path class="st1" d="M551.5-310.5l-11-8l-11,8l-11-8l-11,8l-11-8l-11,8l-11-8l-11,8l-11-8l-11,8l-11-8l-11,8l-11-8l-11,8l-11-8
			l-11,8l-11-8l-11,8l-11-8l-11,8l-11-8l-11,8l-11-8l-11,8l-11-8l-11,8l-11-8l-11,8l-11-8l-11,8l-11-8l-11,8l-11-8l-11,8l-11-8
			l-11,8l-11-8l-11,8l-11-8l-11,8l-11-8l-11,8l-11-8l-11,8l-11-8l-11,8l-11-8l-11,8l-11-8l-11,8"/>
		<path class="st1" d="M551.5-300.5l-11-8l-11,8l-11-8l-11,8l-11-8l-11,8l-11-8l-11,8l-11-8l-11,8l-11-8l-11,8l-11-8l-11,8l-11-8
			l-11,8l-11-8l-11,8l-11-8l-11,8l-11-8l-11,8l-11-8l-11,8l-11-8l-11,8l-11-8l-11,8l-11-8l-11,8l-11-8l-11,8l-11-8l-11,8l-11-8
			l-11,8l-11-8l-11,8l-11-8l-11,8l-11-8l-11,8l-11-8l-11,8l-11-8l-11,8l-11-8l-11,8l-11-8l-11,8"/>
		<path class="st1" d="M551.5-290.5l-11-8l-11,8l-11-8l-11,8l-11-8l-11,8l-11-8l-11,8l-11-8l-11,8l-11-8l-11,8l-11-8l-11,8l-11-8
			l-11,8l-11-8l-11,8l-11-8l-11,8l-11-8l-11,8l-11-8l-11,8l-11-8l-11,8l-11-8l-11,8l-11-8l-11,8l-11-8l-11,8l-11-8l-11,8l-11-8
			l-11,8l-11-8l-11,8l-11-8l-11,8l-11-8l-11,8l-11-8l-11,8l-11-8l-11,8l-11-8l-11,8l-11-8l-11,8"/>
		<path class="st1" d="M551.5-280.5l-11-8l-11,8l-11-8l-11,8l-11-8l-11,8l-11-8l-11,8l-11-8l-11,8l-11-8l-11,8l-11-8l-11,8l-11-8
			l-11,8l-11-8l-11,8l-11-8l-11,8l-11-8l-11,8l-11-8l-11,8l-11-8l-11,8l-11-8l-11,8l-11-8l-11,8l-11-8l-11,8l-11-8l-11,8l-11-8
			l-11,8l-11-8l-11,8l-11-8l-11,8l-11-8l-11,8l-11-8l-11,8l-11-8l-11,8l-11-8l-11,8l-11-8l-11,8"/>
		<path class="st1" d="M551.5-270.5l-11-8l-11,8l-11-8l-11,8l-11-8l-11,8l-11-8l-11,8l-11-8l-11,8l-11-8l-11,8l-11-8l-11,8l-11-8
			l-11,8l-11-8l-11,8l-11-8l-11,8l-11-8l-11,8l-11-8l-11,8l-11-8l-11,8l-11-8l-11,8l-11-8l-11,8l-11-8l-11,8l-11-8l-11,8l-11-8
			l-11,8l-11-8l-11,8l-11-8l-11,8l-11-8l-11,8l-11-8l-11,8l-11-8l-11,8l-11-8l-11,8l-11-8l-11,8"/>
		<path class="st1" d="M551.5-260.5l-11-8l-11,8l-11-8l-11,8l-11-8l-11,8l-11-8l-11,8l-11-8l-11,8l-11-8l-11,8l-11-8l-11,8l-11-8
			l-11,8l-11-8l-11,8l-11-8l-11,8l-11-8l-11,8l-11-8l-11,8l-11-8l-11,8l-11-8l-11,8l-11-8l-11,8l-11-8l-11,8l-11-8l-11,8l-11-8
			l-11,8l-11-8l-11,8l-11-8l-11,8l-11-8l-11,8l-11-8l-11,8l-11-8l-11,8l-11-8l-11,8l-11-8l-11,8"/>
		<path class="st1" d="M551.5-250.5l-11-8l-11,8l-11-8l-11,8l-11-8l-11,8l-11-8l-11,8l-11-8l-11,8l-11-8l-11,8l-11-8l-11,8l-11-8
			l-11,8l-11-8l-11,8l-11-8l-11,8l-11-8l-11,8l-11-8l-11,8l-11-8l-11,8l-11-8l-11,8l-11-8l-11,8l-11-8l-11,8l-11-8l-11,8l-11-8
			l-11,8l-11-8l-11,8l-11-8l-11,8l-11-8l-11,8l-11-8l-11,8l-11-8l-11,8l-11-8l-11,8l-11-8l-11,8"/>
		<path class="st1" d="M551.5-240.5l-11-8l-11,8l-11-8l-11,8l-11-8l-11,8l-11-8l-11,8l-11-8l-11,8l-11-8l-11,8l-11-8l-11,8l-11-8
			l-11,8l-11-8l-11,8l-11-8l-11,8l-11-8l-11,8l-11-8l-11,8l-11-8l-11,8l-11-8l-11,8l-11-8l-11,8l-11-8l-11,8l-11-8l-11,8l-11-8
			l-11,8l-11-8l-11,8l-11-8l-11,8l-11-8l-11,8l-11-8l-11,8l-11-8l-11,8l-11-8l-11,8l-11-8l-11,8"/>
		<path class="st1" d="M551.5-230.5l-11-8l-11,8l-11-8l-11,8l-11-8l-11,8l-11-8l-11,8l-11-8l-11,8l-11-8l-11,8l-11-8l-11,8l-11-8
			l-11,8l-11-8l-11,8l-11-8l-11,8l-11-8l-11,8l-11-8l-11,8l-11-8l-11,8l-11-8l-11,8l-11-8l-11,8l-11-8l-11,8l-11-8l-11,8l-11-8
			l-11,8l-11-8l-11,8l-11-8l-11,8l-11-8l-11,8l-11-8l-11,8l-11-8l-11,8l-11-8l-11,8l-11-8l-11,8"/>
		<path class="st1" d="M551.5-220.5l-11-8l-11,8l-11-8l-11,8l-11-8l-11,8l-11-8l-11,8l-11-8l-11,8l-11-8l-11,8l-11-8l-11,8l-11-8
			l-11,8l-11-8l-11,8l-11-8l-11,8l-11-8l-11,8l-11-8l-11,8l-11-8l-11,8l-11-8l-11,8l-11-8l-11,8l-11-8l-11,8l-11-8l-11,8l-11-8
			l-11,8l-11-8l-11,8l-11-8l-11,8l-11-8l-11,8l-11-8l-11,8l-11-8l-11,8l-11-8l-11,8l-11-8l-11,8"/>
		<path class="st1" d="M551.5-210.5l-11-8l-11,8l-11-8l-11,8l-11-8l-11,8l-11-8l-11,8l-11-8l-11,8l-11-8l-11,8l-11-8l-11,8l-11-8
			l-11,8l-11-8l-11,8l-11-8l-11,8l-11-8l-11,8l-11-8l-11,8l-11-8l-11,8l-11-8l-11,8l-11-8l-11,8l-11-8l-11,8l-11-8l-11,8l-11-8
			l-11,8l-11-8l-11,8l-11-8l-11,8l-11-8l-11,8l-11-8l-11,8l-11-8l-11,8l-11-8l-11,8l-11-8l-11,8"/>
		<path class="st1" d="M551.5-200.5l-11-8l-11,8l-11-8l-11,8l-11-8l-11,8l-11-8l-11,8l-11-8l-11,8l-11-8l-11,8l-11-8l-11,8l-11-8
			l-11,8l-11-8l-11,8l-11-8l-11,8l-11-8l-11,8l-11-8l-11,8l-11-8l-11,8l-11-8l-11,8l-11-8l-11,8l-11-8l-11,8l-11-8l-11,8l-11-8
			l-11,8l-11-8l-11,8l-11-8l-11,8l-11-8l-11,8l-11-8l-11,8l-11-8l-11,8l-11-8l-11,8l-11-8l-11,8"/>
		<path class="st1" d="M551.5-190.5l-11-8l-11,8l-11-8l-11,8l-11-8l-11,8l-11-8l-11,8l-11-8l-11,8l-11-8l-11,8l-11-8l-11,8l-11-8
			l-11,8l-11-8l-11,8l-11-8l-11,8l-11-8l-11,8l-11-8l-11,8l-11-8l-11,8l-11-8l-11,8l-11-8l-11,8l-11-8l-11,8l-11-8l-11,8l-11-8
			l-11,8l-11-8l-11,8l-11-8l-11,8l-11-8l-11,8l-11-8l-11,8l-11-8l-11,8l-11-8l-11,8l-11-8l-11,8"/>
		<path class="st1" d="M551.5-180.5l-11-8l-11,8l-11-8l-11,8l-11-8l-11,8l-11-8l-11,8l-11-8l-11,8l-11-8l-11,8l-11-8l-11,8l-11-8
			l-11,8l-11-8l-11,8l-11-8l-11,8l-11-8l-11,8l-11-8l-11,8l-11-8l-11,8l-11-8l-11,8l-11-8l-11,8l-11-8l-11,8l-11-8l-11,8l-11-8
			l-11,8l-11-8l-11,8l-11-8l-11,8l-11-8l-11,8l-11-8l-11,8l-11-8l-11,8l-11-8l-11,8l-11-8l-11,8"/>
		<path class="st1" d="M551.5-170.5l-11-8l-11,8l-11-8l-11,8l-11-8l-11,8l-11-8l-11,8l-11-8l-11,8l-11-8l-11,8l-11-8l-11,8l-11-8
			l-11,8l-11-8l-11,8l-11-8l-11,8l-11-8l-11,8l-11-8l-11,8l-11-8l-11,8l-11-8l-11,8l-11-8l-11,8l-11-8l-11,8l-11-8l-11,8l-11-8
			l-11,8l-11-8l-11,8l-11-8l-11,8l-11-8l-11,8l-11-8l-11,8l-11-8l-11,8l-11-8l-11,8l-11-8l-11,8"/>
		<path class="st1" d="M551.5-160.5l-11-8l-11,8l-11-8l-11,8l-11-8l-11,8l-11-8l-11,8l-11-8l-11,8l-11-8l-11,8l-11-8l-11,8l-11-8
			l-11,8l-11-8l-11,8l-11-8l-11,8l-11-8l-11,8l-11-8l-11,8l-11-8l-11,8l-11-8l-11,8l-11-8l-11,8l-11-8l-11,8l-11-8l-11,8l-11-8
			l-11,8l-11-8l-11,8l-11-8l-11,8l-11-8l-11,8l-11-8l-11,8l-11-8l-11,8l-11-8l-11,8l-11-8l-11,8"/>
		<path class="st1" d="M551.5-150.5l-11-8l-11,8l-11-8l-11,8l-11-8l-11,8l-11-8l-11,8l-11-8l-11,8l-11-8l-11,8l-11-8l-11,8l-11-8
			l-11,8l-11-8l-11,8l-11-8l-11,8l-11-8l-11,8l-11-8l-11,8l-11-8l-11,8l-11-8l-11,8l-11-8l-11,8l-11-8l-11,8l-11-8l-11,8l-11-8
			l-11,8l-11-8l-11,8l-11-8l-11,8l-11-8l-11,8l-11-8l-11,8l-11-8l-11,8l-11-8l-11,8l-11-8l-11,8"/>
		<path class="st1" d="M551.5-140.5l-11-8l-11,8l-11-8l-11,8l-11-8l-11,8l-11-8l-11,8l-11-8l-11,8l-11-8l-11,8l-11-8l-11,8l-11-8
			l-11,8l-11-8l-11,8l-11-8l-11,8l-11-8l-11,8l-11-8l-11,8l-11-8l-11,8l-11-8l-11,8l-11-8l-11,8l-11-8l-11,8l-11-8l-11,8l-11-8
			l-11,8l-11-8l-11,8l-11-8l-11,8l-11-8l-11,8l-11-8l-11,8l-11-8l-11,8l-11-8l-11,8l-11-8l-11,8"/>
		<path class="st1" d="M551.5-130.5l-11-8l-11,8l-11-8l-11,8l-11-8l-11,8l-11-8l-11,8l-11-8l-11,8l-11-8l-11,8l-11-8l-11,8l-11-8
			l-11,8l-11-8l-11,8l-11-8l-11,8l-11-8l-11,8l-11-8l-11,8l-11-8l-11,8l-11-8l-11,8l-11-8l-11,8l-11-8l-11,8l-11-8l-11,8l-11-8
			l-11,8l-11-8l-11,8l-11-8l-11,8l-11-8l-11,8l-11-8l-11,8l-11-8l-11,8l-11-8l-11,8l-11-8l-11,8"/>
		<path class="st1" d="M551.5-120.5l-11-8l-11,8l-11-8l-11,8l-11-8l-11,8l-11-8l-11,8l-11-8l-11,8l-11-8l-11,8l-11-8l-11,8l-11-8
			l-11,8l-11-8l-11,8l-11-8l-11,8l-11-8l-11,8l-11-8l-11,8l-11-8l-11,8l-11-8l-11,8l-11-8l-11,8l-11-8l-11,8l-11-8l-11,8l-11-8
			l-11,8l-11-8l-11,8l-11-8l-11,8l-11-8l-11,8l-11-8l-11,8l-11-8l-11,8l-11-8l-11,8l-11-8l-11,8"/>
		<path class="st1" d="M551.5-110.5l-11-8l-11,8l-11-8l-11,8l-11-8l-11,8l-11-8l-11,8l-11-8l-11,8l-11-8l-11,8l-11-8l-11,8l-11-8
			l-11,8l-11-8l-11,8l-11-8l-11,8l-11-8l-11,8l-11-8l-11,8l-11-8l-11,8l-11-8l-11,8l-11-8l-11,8l-11-8l-11,8l-11-8l-11,8l-11-8
			l-11,8l-11-8l-11,8l-11-8l-11,8l-11-8l-11,8l-11-8l-11,8l-11-8l-11,8l-11-8l-11,8l-11-8l-11,8"/>
		<path class="st1" d="M551.5-100.5l-11-8l-11,8l-11-8l-11,8l-11-8l-11,8l-11-8l-11,8l-11-8l-11,8l-11-8l-11,8l-11-8l-11,8l-11-8
			l-11,8l-11-8l-11,8l-11-8l-11,8l-11-8l-11,8l-11-8l-11,8l-11-8l-11,8l-11-8l-11,8l-11-8l-11,8l-11-8l-11,8l-11-8l-11,8l-11-8
			l-11,8l-11-8l-11,8l-11-8l-11,8l-11-8l-11,8l-11-8l-11,8l-11-8l-11,8l-11-8l-11,8l-11-8l-11,8"/>
		<path class="st1" d="M551.5-90.5l-11-8l-11,8l-11-8l-11,8l-11-8l-11,8l-11-8l-11,8l-11-8l-11,8l-11-8l-11,8l-11-8l-11,8l-11-8
			l-11,8l-11-8l-11,8l-11-8l-11,8l-11-8l-11,8l-11-8l-11,8l-11-8l-11,8l-11-8l-11,8l-11-8l-11,8l-11-8l-11,8l-11-8l-11,8l-11-8
			l-11,8l-11-8l-11,8l-11-8l-11,8l-11-8l-11,8l-11-8l-11,8l-11-8l-11,8l-11-8l-11,8l-11-8l-11,8"/>
		<path class="st1" d="M551.5-80.5l-11-8l-11,8l-11-8l-11,8l-11-8l-11,8l-11-8l-11,8l-11-8l-11,8l-11-8l-11,8l-11-8l-11,8l-11-8
			l-11,8l-11-8l-11,8l-11-8l-11,8l-11-8l-11,8l-11-8l-11,8l-11-8l-11,8l-11-8l-11,8l-11-8l-11,8l-11-8l-11,8l-11-8l-11,8l-11-8
			l-11,8l-11-8l-11,8l-11-8l-11,8l-11-8l-11,8l-11-8l-11,8l-11-8l-11,8l-11-8l-11,8l-11-8l-11,8"/>
		<path class="st1" d="M551.5-70.5l-11-8l-11,8l-11-8l-11,8l-11-8l-11,8l-11-8l-11,8l-11-8l-11,8l-11-8l-11,8l-11-8l-11,8l-11-8
			l-11,8l-11-8l-11,8l-11-8l-11,8l-11-8l-11,8l-11-8l-11,8l-11-8l-11,8l-11-8l-11,8l-11-8l-11,8l-11-8l-11,8l-11-8l-11,8l-11-8
			l-11,8l-11-8l-11,8l-11-8l-11,8l-11-8l-11,8l-11-8l-11,8l-11-8l-11,8l-11-8l-11,8l-11-8l-11,8"/>
		<path class="st1" d="M551.5-60.5l-11-8l-11,8l-11-8l-11,8l-11-8l-11,8l-11-8l-11,8l-11-8l-11,8l-11-8l-11,8l-11-8l-11,8l-11-8
			l-11,8l-11-8l-11,8l-11-8l-11,8l-11-8l-11,8l-11-8l-11,8l-11-8l-11,8l-11-8l-11,8l-11-8l-11,8l-11-8l-11,8l-11-8l-11,8l-11-8
			l-11,8l-11-8l-11,8l-11-8l-11,8l-11-8l-11,8l-11-8l-11,8l-11-8l-11,8l-11-8l-11,8l-11-8l-11,8"/>
		<path class="st1" d="M551.5-50.5l-11-8l-11,8l-11-8l-11,8l-11-8l-11,8l-11-8l-11,8l-11-8l-11,8l-11-8l-11,8l-11-8l-11,8l-11-8
			l-11,8l-11-8l-11,8l-11-8l-11,8l-11-8l-11,8l-11-8l-11,8l-11-8l-11,8l-11-8l-11,8l-11-8l-11,8l-11-8l-11,8l-11-8l-11,8l-11-8
			l-11,8l-11-8l-11,8l-11-8l-11,8l-11-8l-11,8l-11-8l-11,8l-11-8l-11,8l-11-8l-11,8l-11-8l-11,8"/>
		<path class="st1" d="M551.5-40.5l-11-8l-11,8l-11-8l-11,8l-11-8l-11,8l-11-8l-11,8l-11-8l-11,8l-11-8l-11,8l-11-8l-11,8l-11-8
			l-11,8l-11-8l-11,8l-11-8l-11,8l-11-8l-11,8l-11-8l-11,8l-11-8l-11,8l-11-8l-11,8l-11-8l-11,8l-11-8l-11,8l-11-8l-11,8l-11-8
			l-11,8l-11-8l-11,8l-11-8l-11,8l-11-8l-11,8l-11-8l-11,8l-11-8l-11,8l-11-8l-11,8l-11-8l-11,8"/>
		<path class="st1" d="M551.5-30.5l-11-8l-11,8l-11-8l-11,8l-11-8l-11,8l-11-8l-11,8l-11-8l-11,8l-11-8l-11,8l-11-8l-11,8l-11-8
			l-11,8l-11-8l-11,8l-11-8l-11,8l-11-8l-11,8l-11-8l-11,8l-11-8l-11,8l-11-8l-11,8l-11-8l-11,8l-11-8l-11,8l-11-8l-11,8l-11-8
			l-11,8l-11-8l-11,8l-11-8l-11,8l-11-8l-11,8l-11-8l-11,8l-11-8l-11,8l-11-8l-11,8l-11-8l-11,8"/>
		<path class="st1" d="M551.5-20.5l-11-8l-11,8l-11-8l-11,8l-11-8l-11,8l-11-8l-11,8l-11-8l-11,8l-11-8l-11,8l-11-8l-11,8l-11-8
			l-11,8l-11-8l-11,8l-11-8l-11,8l-11-8l-11,8l-11-8l-11,8l-11-8l-11,8l-11-8l-11,8l-11-8l-11,8l-11-8l-11,8l-11-8l-11,8l-11-8
			l-11,8l-11-8l-11,8l-11-8l-11,8l-11-8l-11,8l-11-8l-11,8l-11-8l-11,8l-11-8l-11,8l-11-8l-11,8"/>
		<path class="st1" d="M551.5-10.5l-11-8l-11,8l-11-8l-11,8l-11-8l-11,8l-11-8l-11,8l-11-8l-11,8l-11-8l-11,8l-11-8l-11,8l-11-8
			l-11,8l-11-8l-11,8l-11-8l-11,8l-11-8l-11,8l-11-8l-11,8l-11-8l-11,8l-11-8l-11,8l-11-8l-11,8l-11-8l-11,8l-11-8l-11,8l-11-8
			l-11,8l-11-8l-11,8l-11-8l-11,8l-11-8l-11,8l-11-8l-11,8l-11-8l-11,8l-11-8l-11,8l-11-8l-11,8"/>
		<path class="st1" d="M551.5-0.5l-11-8l-11,8l-11-8l-11,8l-11-8l-11,8l-11-8l-11,8l-11-8l-11,8l-11-8l-11,8l-11-8l-11,8l-11-8
			l-11,8l-11-8l-11,8l-11-8l-11,8l-11-8l-11,8l-11-8l-11,8l-11-8l-11,8l-11-8l-11,8l-11-8l-11,8l-11-8l-11,8l-11-8l-11,8l-11-8
			l-11,8l-11-8l-11,8l-11-8l-11,8l-11-8l-11,8l-11-8l-11,8l-11-8l-11,8l-11-8l-11,8l-11-8l-11,8"/>
	</g>
</pattern>
<pattern  id="SVGID_1_" xlink:href="#a" patternTransform="matrix(-1.28 0 0 1.28 -17651.373 2706.9109)">
</pattern>
<path class="st2" d="M0.5,0.5h1535v50.2H0.5V0.5z"/>
</svg>
