<?xml version="1.0" encoding="utf-8"?>
<!-- Generator: Adobe Illustrator 22.1.0, SVG Export Plug-In . SVG Version: 6.00 Build 0)  -->
<svg version="1.1" id="Слой_1" xmlns="http://www.w3.org/2000/svg" xmlns:xlink="http://www.w3.org/1999/xlink" x="0px" y="0px"
	 viewBox="0 0 35 37" style="enable-background:new 0 0 35 37;" xml:space="preserve">
<style type="text/css">
	.st0{fill-rule:evenodd;clip-rule:evenodd;fill:#E0E3E6;}
</style>
<g id="icon_35_">
	<path class="st0" d="M22.9,7.5c1.1,0,2.1,0,3.2,0c0.1,0,0.3,0,0.4,0V2c-0.6-0.1-1.2-0.1-1.7-0.2c-1.1,0-2.2-0.1-3.2-0.1
		c-1.7,0-3.2,0.4-4.6,1.4c-1.6,1.1-2.4,2.7-2.8,4.6C14,8.5,14,9.3,14,10.1c0,1.2,0,2.5,0,3.7v0.5H8.7v6.1h5.2v15.4h6.4V20.4h5.2
		c0.3-2,0.5-4.1,0.8-6.1c-0.4,0-0.8,0-1.2,0c-1.5,0-4.9,0-4.9,0s0-3,0.1-4.3C20.4,8.1,21.4,7.6,22.9,7.5z"/>
</g>
</svg>
