<?xml version="1.0" encoding="utf-8"?>
<!-- Generator: Adobe Illustrator 22.1.0, SVG Export Plug-In . SVG Version: 6.00 Build 0)  -->
<svg version="1.1" id="Слой_1" xmlns="http://www.w3.org/2000/svg" xmlns:xlink="http://www.w3.org/1999/xlink" x="0px" y="0px"
	 viewBox="0 0 35 37" style="enable-background:new 0 0 35 37;" xml:space="preserve">
<style type="text/css">
	.st0{fill:#E0E3E6;}
</style>
<g id="icon_54_">
	<g>
		<g>
			<path class="st0" d="M17.8,15.5c0,0.1,0,0.2,0,0.2c0,1.8,0,5.8,0,5.8s7.6,0,8,0c0,0.6-0.7,3-2.9,4.5c-1.3,0.9-2.8,1.3-4.4,1.4
				c-1.1,0.1-2.2,0-3.3-0.4C11.9,26,9.4,23,9,19.3c-0.1-0.9,0-1.8,0.2-2.7c1-4.4,5.1-7.6,9.9-6.9c2.1,0.3,3.3,1.2,4.4,2.1
				c1.5-1.5,2.9-2.9,4.4-4.4c-0.4-0.3-1.2-1.1-2.7-2c-2.2-1.3-4.6-1.9-7.1-1.9c-0.5,0-1,0-1.4,0c-0.8,0-1.7,0.2-2.5,0.4
				c-3.2,0.8-5.9,2.5-8.1,5.1c-2,2.5-3.1,5.4-3.3,8.6c-0.1,1.4,0,2.7,0.3,4c0.8,3.7,2.8,6.7,5.9,9c2.4,1.7,5.1,2.7,8,2.8
				c1.7,0.1,3.3-0.1,4.9-0.5c3-0.8,5.5-2.4,7.4-4.9c2.7-3.6,3.4-8.2,2.6-12.6C27.1,15.5,22.5,15.5,17.8,15.5z"/>
		</g>
	</g>
</g>
</svg>
