<?xml version="1.0" encoding="utf-8"?>
<!-- Generator: Adobe Illustrator 22.1.0, SVG Export Plug-In . SVG Version: 6.00 Build 0)  -->
<svg version="1.1" id="Слой_1" xmlns="http://www.w3.org/2000/svg" xmlns:xlink="http://www.w3.org/1999/xlink" x="0px" y="0px"
	 viewBox="0 0 35 37" style="enable-background:new 0 0 35 37;" xml:space="preserve">
<style type="text/css">
	.st0{fill-rule:evenodd;clip-rule:evenodd;fill:#E0E3E6;}
</style>
<g>
	<path class="st0" d="M27.6,3.8H7c-2.6,0-4.7,2.1-4.7,4.7v20.6c0,2.6,2.1,4.7,4.7,4.7h20.6c2.6,0,4.7-2.1,4.7-4.7V8.5
		C32.3,5.9,30.2,3.8,27.6,3.8z M23.7,7.9c0-0.5,0.4-0.8,0.8-0.8h3.6c0.5,0,0.8,0.4,0.8,0.8v3.6c0,0.5-0.4,0.8-0.8,0.8h-3.6
		c-0.5,0-0.8-0.4-0.8-0.8V7.9z M11.7,16.6c0.9-2.2,3-3.8,5.5-3.8c2.5,0,4.7,1.6,5.5,3.8c0.3,0.7,0.4,1.4,0.4,2.2
		c0,3.3-2.7,5.9-5.9,5.9c-3.3,0-5.9-2.7-5.9-5.9C11.3,18,11.5,17.3,11.7,16.6z M29.1,29.1c0,0.8-0.7,1.5-1.5,1.5H7
		c-0.8,0-1.5-0.7-1.5-1.5V16.6h3c-0.2,0.7-0.3,1.4-0.3,2.2c0,5,4.1,9.1,9.1,9.1c5,0,9.1-4.1,9.1-9.1c0-0.7-0.1-1.5-0.3-2.2h3V29.1z"
		/>
</g>
</svg>
