<?xml version="1.0" encoding="utf-8"?>
<!-- Generator: Adobe Illustrator 22.1.0, SVG Export Plug-In . SVG Version: 6.00 Build 0)  -->
<svg version="1.1" id="Слой_1" xmlns="http://www.w3.org/2000/svg" xmlns:xlink="http://www.w3.org/1999/xlink" x="0px" y="0px"
	 viewBox="0 0 35 37" style="enable-background:new 0 0 35 37;" xml:space="preserve">
<style type="text/css">
	.st0{fill:#E0E3E6;}
</style>
<g id="icon_51_">
	<g>
		<g>
			<path class="st0" d="M2.8,13.3H9v20H2.8V13.3z M5.9,3.3c2,0,3.6,1.6,3.6,3.6c0,2-1.6,3.6-3.6,3.6c-2,0-3.6-1.6-3.6-3.6
				C2.3,4.9,3.9,3.3,5.9,3.3"/>
		</g>
		<g>
			<path class="st0" d="M12.9,13.3h6V16H19c0.8-1.6,2.9-3.2,5.9-3.2c6.3,0,7.5,4.1,7.5,9.5v11h-6.2v-9.7c0-2.3,0-5.3-3.2-5.3
				c-3.2,0-3.7,2.5-3.7,5.1v9.9h-6.2V13.3z"/>
		</g>
	</g>
</g>
</svg>
