<?xml version="1.0" encoding="utf-8"?>
<!-- Generator: Adobe Illustrator 22.1.0, SVG Export Plug-In . SVG Version: 6.00 Build 0)  -->
<svg version="1.1" id="Слой_1" xmlns="http://www.w3.org/2000/svg" xmlns:xlink="http://www.w3.org/1999/xlink" x="0px" y="0px"
	 viewBox="0 0 35 37" style="enable-background:new 0 0 35 37;" xml:space="preserve">
<style type="text/css">
	.st0{fill-rule:evenodd;clip-rule:evenodd;fill:#E0E3E6;}
</style>
<g id="icon_10_">
	<g>
		<path class="st0" d="M15.3,23.9c0,0.1-0.1,0.2-0.1,0.3c-1.3,5.2-1.5,6.3-2.8,8.7c-0.6,1.1-1.4,2.2-2.2,3.3
			c-0.1,0.1-0.2,0.3-0.4,0.2c-0.2,0-0.2-0.2-0.2-0.4c-0.2-1.6-0.3-3.2-0.3-4.7c0.1-2.1,0.3-2.8,3-14c0-0.2,0-0.3-0.1-0.5
			c-0.6-1.7-0.8-3.5-0.2-5.2c1.2-3.8,5.5-4.1,6.3-1c0.5,2-0.8,4.5-1.7,8.3c-0.8,3.1,2.9,5.3,6,3.1c2.9-2.1,4-7.1,3.8-10.7
			C26,4.2,18.3,2.6,13.3,4.9c-5.7,2.6-7,9.6-4.4,12.9c0.3,0.4,0.6,0.7,0.5,1.1c-0.2,0.6-0.3,1.3-0.5,1.9c-0.1,0.5-0.5,0.6-1,0.5
			c-0.9-0.4-1.7-1-2.4-1.8c-2.2-2.7-2.8-8,0.1-12.5c3.2-5,9.1-7,14.5-6.4c6.5,0.7,10.5,5.1,11.3,10.2c0.3,2.3,0.1,7.9-3.1,11.9
			c-3.7,4.6-9.7,4.9-12.4,2.1C15.7,24.4,15.5,24.2,15.3,23.9z"/>
	</g>
</g>
</svg>
