<?xml version="1.0" encoding="utf-8"?>
<!-- Generator: Adobe Illustrator 22.1.0, SVG Export Plug-In . SVG Version: 6.00 Build 0)  -->
<svg version="1.1" id="Слой_1" xmlns="http://www.w3.org/2000/svg" xmlns:xlink="http://www.w3.org/1999/xlink" x="0px" y="0px"
	 viewBox="0 0 35 37" style="enable-background:new 0 0 35 37;" xml:space="preserve">
<style type="text/css">
	.st0{fill-rule:evenodd;clip-rule:evenodd;fill:#E0E3E6;}
</style>
<g id="icon_36_">
	<path class="st0" d="M11.5,24.9c-3.2-0.1-5.2-2.4-5.7-4.3c0.9,0.2,1.8,0.1,2.6-0.1c0,0,0,0,0.1,0c-1.7-0.4-3.1-1.3-4-2.8
		c-0.6-1-0.9-2.1-0.9-3.3c0.9,0.5,1.8,0.7,2.7,0.7c-1.3-0.9-2.2-2.2-2.5-3.7C3.5,9.8,3.7,8.3,4.5,6.9c3.3,3.9,7.6,6.1,12.7,6.4
		c0-0.2-0.1-0.5-0.1-0.7c-0.2-1.4,0.1-2.8,0.9-4c1-1.5,2.4-2.5,4.2-2.8c2.1-0.3,3.9,0.3,5.4,1.7c0.1,0.1,0.2,0.1,0.3,0.1
		c1.3-0.3,2.5-0.7,3.6-1.4c0,0,0.1,0,0.1,0c0,0,0,0,0,0c-0.5,1.4-1.4,2.5-2.6,3.4c1.2-0.1,2.3-0.4,3.4-0.9c0,0,0,0,0,0
		C32.2,9,32,9.3,31.7,9.6c-0.7,0.8-1.4,1.5-2.2,2.1c-0.1,0.1-0.1,0.1-0.1,0.2c0,0.9,0,1.8-0.1,2.7c-0.2,1.9-0.8,3.7-1.6,5.5
		c-0.8,1.8-1.9,3.4-3.3,4.9c-2.3,2.4-5.2,4-8.5,4.7c-1.1,0.2-2.3,0.4-3.4,0.4c-3.6,0.1-6.8-0.8-9.9-2.6c0,0-0.1-0.1-0.1-0.1
		c2.2,0.2,4.2,0,6.2-0.8C9.7,26.2,10.6,25.6,11.5,24.9z"/>
</g>
</svg>
