<?xml version="1.0" encoding="utf-8"?>
<!-- Generator: Adobe Illustrator 22.1.0, SVG Export Plug-In . SVG Version: 6.00 Build 0)  -->
<svg version="1.1" id="Слой_1" xmlns="http://www.w3.org/2000/svg" xmlns:xlink="http://www.w3.org/1999/xlink" x="0px" y="0px"
	 viewBox="0 0 35 37" style="enable-background:new 0 0 35 37;" xml:space="preserve">
<style type="text/css">
	.st0{fill-rule:evenodd;clip-rule:evenodd;fill:#E0E3E6;}
</style>
<g id="icon_12_">
	<g>
		<path class="st0" d="M3.7,29.4c-1.3-0.4-2.1-1.3-2.6-2.5c-1.1-3.1-1.5-16.1,0.7-18.7c0.7-0.9,1.7-1.4,2.8-1.5
			c5.9-0.6,24-0.5,26.1,0.2c1.2,0.4,2.1,1.2,2.6,2.5c1.2,3.2,1.3,14.9-0.2,18c-0.4,0.8-1,1.4-1.8,1.9C29.1,30.4,6.6,30.4,3.7,29.4z
			 M13,23.3c3.5-1.8,7-3.6,10.6-5.5c-3.5-1.9-7-3.7-10.6-5.5C13,16,13,19.6,13,23.3z"/>
	</g>
</g>
</svg>
