<svg xmlns="http://www.w3.org/2000/svg" viewBox="0 0 10.79 20.67"><defs><style>.cls-1{fill:#2c4c61;fill-rule:evenodd;}</style></defs><title>facebook</title><g id="Layer_2" data-name="Layer 2"><g id="Layer_1-2" data-name="Layer 1"><path class="cls-1" d="M8.6,3.49c.64,0,1.28,0,1.92,0h.26V.15c-.34,0-.7-.08-1.06-.1-.66,0-1.31-.06-2,0A4.83,4.83,0,0,0,5,.86,4.17,4.17,0,0,0,3.3,3.64a9.77,9.77,0,0,0-.12,1.43c0,.75,0,1.49,0,2.24V7.6H0v3.72H3.17v9.35H7V11.33H10.2c.16-1.24.32-2.46.49-3.74H7S7,5.75,7,4.95C7.08,3.85,7.73,3.52,8.6,3.49Z"/></g></g></svg>