<svg xmlns="http://www.w3.org/2000/svg" viewBox="0 0 25.6 16.21"><defs><style>.cls-1{fill:#2c4c61;}</style></defs><title>google</title><g id="Layer_2" data-name="Layer 2"><g id="Layer_1-2" data-name="Layer 1"><path class="cls-1" d="M8.09,6.48s0,.09,0,.13c0,1,0,3.13,0,3.13h4.34a3.69,3.69,0,0,1-1.59,2.44,4.65,4.65,0,0,1-2.36.76,4.75,4.75,0,0,1-1.76-.2A4.88,4.88,0,0,1,3.38,8.51,4.63,4.63,0,0,1,3.48,7,4.79,4.79,0,0,1,8.81,3.31a4.37,4.37,0,0,1,2.38,1.15L13.55,2.1A9.89,9.89,0,0,0,12.11,1,7.72,7.72,0,0,0,8.27,0C8,0,7.75,0,7.49,0A6.34,6.34,0,0,0,6.16.23,8,8,0,0,0,1.81,3,8,8,0,0,0,0,7.63,7.66,7.66,0,0,0,.19,9.82a8,8,0,0,0,3.17,4.84,7.92,7.92,0,0,0,4.33,1.53,8.61,8.61,0,0,0,2.66-.26,7.06,7.06,0,0,0,4-2.62,8.69,8.69,0,0,0,1.39-6.83Z"/><polygon class="cls-1" points="25.52 6.58 22.77 6.58 22.77 3.84 22.77 3.75 22.69 3.75 20.64 3.75 20.56 3.75 20.56 3.84 20.56 6.58 17.81 6.58 17.73 6.58 17.73 6.66 17.73 8.71 17.73 8.8 17.81 8.8 20.56 8.8 20.56 11.54 20.56 11.62 20.64 11.62 22.69 11.62 22.77 11.62 22.77 11.54 22.77 8.8 25.52 8.8 25.6 8.8 25.6 8.71 25.6 6.66 25.6 6.58 25.52 6.58"/></g></g></svg>