<svg viewBox="0 0 25.6 16.21" xmlns="http://www.w3.org/2000/svg"><g fill="#c0c8ce"><path d="m8.09 6.48s0 .09 0 .13v3.13h4.34a3.69 3.69 0 0 1 -1.59 2.44 4.65 4.65 0 0 1 -2.36.76 4.75 4.75 0 0 1 -1.76-.2 4.88 4.88 0 0 1 -3.34-4.23 4.63 4.63 0 0 1 .1-1.51 4.79 4.79 0 0 1 5.33-3.69 4.37 4.37 0 0 1 2.38 1.15l2.36-2.36a9.89 9.89 0 0 0 -1.44-1.1 7.72 7.72 0 0 0 -3.84-1c-.27 0-.52 0-.78 0a6.34 6.34 0 0 0 -1.33.23 8 8 0 0 0 -4.35 2.77 8 8 0 0 0 -1.81 4.63 7.66 7.66 0 0 0 .19 2.19 8 8 0 0 0 3.17 4.84 7.92 7.92 0 0 0 4.33 1.53 8.61 8.61 0 0 0 2.66-.26 7.06 7.06 0 0 0 4-2.62 8.69 8.69 0 0 0 1.39-6.83z"/><path d="m25.52 6.58h-2.75v-2.74-.09h-.08-2.05-.08v.09 2.74h-2.75-.08v.08 2.05.09h.08 2.75v2.74.08h.08 2.05.08v-.08-2.74h2.75.08v-.09-2.05-.08z"/></g></svg>