<svg xmlns="http://www.w3.org/2000/svg" viewBox="0 0 18.84 18.84"><defs><style>.cls-1{fill:#2c4c61;fill-rule:evenodd;}</style></defs><title>instagram</title><g id="Layer_2" data-name="Layer 2"><g id="Layer_1-2" data-name="Layer 1"><path class="cls-1" d="M15.89,0H2.94A3,3,0,0,0,0,2.95V15.89a3,3,0,0,0,2.94,2.95H15.89a3,3,0,0,0,2.95-2.95V2.95A3,3,0,0,0,15.89,0ZM13.45,2.6A.52.52,0,0,1,14,2.07h2.27a.53.53,0,0,1,.53.52V4.87a.53.53,0,0,1-.53.52H14a.52.52,0,0,1-.53-.52ZM5.95,8.06a3.73,3.73,0,0,1,6.94,0,3.69,3.69,0,0,1,.26,1.36,3.73,3.73,0,1,1-7.46,0A3.69,3.69,0,0,1,5.95,8.06Zm10.9,7.83a1,1,0,0,1-1,1H2.94a1,1,0,0,1-.95-1V8.06H3.85A5.73,5.73,0,1,0,15.14,9.42,5.68,5.68,0,0,0,15,8.06h1.86Z"/></g></g></svg>