<svg viewBox="0 0 38.4 38.4" xmlns="http://www.w3.org/2000/svg"><path d="m32.39 0h-26.39a6 6 0 0 0 -6 6v26.4a6 6 0 0 0 6 6h26.39a6 6 0 0 0 6-6v-26.4a6 6 0 0 0 -6-6zm-5 5.29a1.07 1.07 0 0 1 1.07-1.07h4.64a1.07 1.07 0 0 1 1.1 1.07v4.64a1.07 1.07 0 0 1 -1.07 1.07h-4.64a1.07 1.07 0 0 1 -1.07-1.07zm-15.27 11.14a7.6 7.6 0 0 1 14.16 0 7.52 7.52 0 0 1 .53 2.77 7.6 7.6 0 1 1 -15.21 0 7.52 7.52 0 0 1 .52-2.77zm22.21 16a1.94 1.94 0 0 1 -1.94 1.94h-26.39a1.94 1.94 0 0 1 -1.93-1.97v-16h3.79a11.67 11.67 0 1 0 23 2.77 11.59 11.59 0 0 0 -.33-2.77h3.79z" fill="#b7e1d8" fill-rule="evenodd"/></svg>