<svg viewBox="0 0 18.84 18.84" xmlns="http://www.w3.org/2000/svg"><path d="m15.89 0h-12.95a3 3 0 0 0 -2.94 2.95v12.94a3 3 0 0 0 2.94 2.95h12.95a3 3 0 0 0 2.95-2.95v-12.94a3 3 0 0 0 -2.95-2.95zm-2.44 2.6a.52.52 0 0 1 .55-.53h2.27a.53.53 0 0 1 .53.52v2.28a.53.53 0 0 1 -.53.52h-2.27a.52.52 0 0 1 -.53-.52zm-7.5 5.46a3.73 3.73 0 0 1 6.94 0 3.69 3.69 0 0 1 .26 1.36 3.73 3.73 0 1 1 -7.46 0 3.69 3.69 0 0 1 .26-1.36zm10.9 7.83a1 1 0 0 1 -1 1h-12.91a1 1 0 0 1 -.95-1v-7.83h1.86a5.73 5.73 0 1 0 11.29 1.36 5.68 5.68 0 0 0 -.14-1.36h1.86z" fill="#c0c8ce" fill-rule="evenodd"/></svg>