<svg viewBox="0 0 16 20.66" xmlns="http://www.w3.org/2000/svg"><path d="m6.69 13.48v.16c-.76 3-.84 3.63-1.62 5a15.4 15.4 0 0 1 -1.25 1.87c-.05.07-.1.15-.21.13s-.12-.13-.14-.22a16 16 0 0 1 -.16-2.72c0-1.19.19-1.6 1.72-8a.44.44 0 0 0 0-.27 4.53 4.53 0 0 1 -.12-3c.61-2.23 3.09-2.43 3.53-.58.27 1.15-.44 2.59-.98 4.76-.46 1.79 1.65 3.06 3.45 1.75s2.3-4.09 2.18-6.14c-.24-4.08-4.71-5-7.55-3.65-3.25 1.51-3.99 5.54-2.54 7.43.19.23.33.38.27.62s-.18.74-.28 1.11a.39.39 0 0 1 -.58.26 3.33 3.33 0 0 1 -1.36-1 6.44 6.44 0 0 1 0-7.19 8.63 8.63 0 0 1 8.39-3.74 7.05 7.05 0 0 1 6.49 5.83 9.7 9.7 0 0 1 -1.78 6.82c-2.15 2.62-5.54 2.79-7.15 1.18-.09-.12-.19-.26-.31-.41z" fill="#c0c8ce" fill-rule="evenodd"/></svg>