<svg xmlns="http://www.w3.org/2000/svg" viewBox="0 0 16 20.66"><defs><style>.cls-1{fill:#2c4c61;fill-rule:evenodd;}</style></defs><title>pinterest</title><g id="Layer_2" data-name="Layer 2"><g id="Layer_1-2" data-name="Layer 1"><path class="cls-1" d="M6.69,13.48l0,.16c-.76,3-.84,3.63-1.62,5a15.4,15.4,0,0,1-1.25,1.87c-.05.07-.1.15-.21.13s-.12-.13-.14-.22a16,16,0,0,1-.16-2.72c0-1.19.19-1.6,1.72-8a.44.44,0,0,0,0-.27,4.53,4.53,0,0,1-.12-3C5.52,4.2,8,4,8.44,5.85,8.71,7,8,8.44,7.46,10.61,7,12.4,9.11,13.67,10.91,12.36s2.3-4.09,2.18-6.14c-.24-4.08-4.71-5-7.55-3.65C2.29,4.08,1.55,8.11,3,10c.19.23.33.38.27.62s-.18.74-.28,1.11a.39.39,0,0,1-.58.26,3.33,3.33,0,0,1-1.36-1,6.44,6.44,0,0,1,0-7.19A8.63,8.63,0,0,1,9.44.06a7.05,7.05,0,0,1,6.49,5.83,9.7,9.7,0,0,1-1.78,6.82C12,15.33,8.61,15.5,7,13.89,6.91,13.77,6.81,13.63,6.69,13.48Z"/></g></g></svg>