<svg viewBox="0 0 21.12 17.19" xmlns="http://www.w3.org/2000/svg"><path d="m6.41 13.45a4.35 4.35 0 0 1 -4-3 4.3 4.3 0 0 0 1.86-.06h.06a4.33 4.33 0 0 1 -2.82-2 4.21 4.21 0 0 1 -.67-2.33 4.28 4.28 0 0 0 1.93.53 4.36 4.36 0 0 1 -1.77-2.64 4.3 4.3 0 0 1 .45-3.15 12.42 12.42 0 0 0 9 4.54c0-.17-.05-.32-.07-.48a4.21 4.21 0 0 1 .62-2.86 4.17 4.17 0 0 1 2.94-2 4.23 4.23 0 0 1 3.8 1.21.22.22 0 0 0 .23.07 8.73 8.73 0 0 0 2.52-1h.06a4.44 4.44 0 0 1 -1.86 2.42 8.33 8.33 0 0 0 2.42-.65c-.17.22-.33.44-.5.65a8.52 8.52 0 0 1 -1.61 1.52.15.15 0 0 0 -.07.14 12 12 0 0 1 -.08 1.93 12.77 12.77 0 0 1 -1.12 3.86 12.48 12.48 0 0 1 -2.35 3.42 11.6 11.6 0 0 1 -6 3.32 13 13 0 0 1 -2.38.29 12.26 12.26 0 0 1 -6.9-1.86l-.1-.07a8.77 8.77 0 0 0 4.34-.6 8.63 8.63 0 0 0 2.07-1.2z" fill="#c0c8ce" fill-rule="evenodd"/></svg>