<svg xmlns="http://www.w3.org/2000/svg" viewBox="0 0 21.12 17.19"><defs><style>.cls-1{fill:#2c4c61;fill-rule:evenodd;}</style></defs><title>tweeter</title><g id="Layer_2" data-name="Layer 2"><g id="Layer_1-2" data-name="Layer 1"><path class="cls-1" d="M6.41,13.45a4.35,4.35,0,0,1-4-3,4.3,4.3,0,0,0,1.86-.06l.06,0a4.33,4.33,0,0,1-2.82-2A4.21,4.21,0,0,1,.84,6.06a4.28,4.28,0,0,0,1.93.53A4.36,4.36,0,0,1,1,3.95,4.3,4.3,0,0,1,1.45.8a12.42,12.42,0,0,0,9,4.54c0-.17-.05-.32-.07-.48A4.21,4.21,0,0,1,11,2a4.17,4.17,0,0,1,2.94-2,4.23,4.23,0,0,1,3.8,1.21.22.22,0,0,0,.23.07,8.73,8.73,0,0,0,2.52-1l.06,0h0A4.44,4.44,0,0,1,18.69,2.7a8.33,8.33,0,0,0,2.42-.65l0,0c-.17.22-.33.44-.5.65A8.52,8.52,0,0,1,19,4.22a.15.15,0,0,0-.07.14,12,12,0,0,1-.08,1.93,12.77,12.77,0,0,1-1.12,3.86,12.48,12.48,0,0,1-2.35,3.42,11.6,11.6,0,0,1-6,3.32A13,13,0,0,1,7,17.18,12.26,12.26,0,0,1,.1,15.32L0,15.25a8.77,8.77,0,0,0,4.34-.6A8.63,8.63,0,0,0,6.41,13.45Z"/></g></g></svg>