<svg viewBox="0 0 44.04 35.84" xmlns="http://www.w3.org/2000/svg"><path d="m13.36 28a9.07 9.07 0 0 1 -8.42-6.28 9 9 0 0 0 3.88-.12l.13-.06a9 9 0 0 1 -5.88-4.15 8.78 8.78 0 0 1 -1.33-4.81 8.92 8.92 0 0 0 4 1.1 9.09 9.09 0 0 1 -3.74-5.45 9 9 0 0 1 1-6.55 25.9 25.9 0 0 0 18.67 9.46c-.05-.36-.11-.67-.15-1a8.78 8.78 0 0 1 1.32-5.92 8.7 8.7 0 0 1 6.16-4.08 8.82 8.82 0 0 1 7.92 2.52.46.46 0 0 0 .48.14 18.21 18.21 0 0 0 5.26-2l.12-.06h.06a9.26 9.26 0 0 1 -3.84 4.9 17.37 17.37 0 0 0 5-1.36c-.34.45-.68.92-1 1.36a17.76 17.76 0 0 1 -3.29 3.13.31.31 0 0 0 -.15.28 25.07 25.07 0 0 1 -.17 4 26.64 26.64 0 0 1 -2.33 8.06 26 26 0 0 1 -4.89 7.13 24.18 24.18 0 0 1 -12.44 6.93 27 27 0 0 1 -5 .6 25.55 25.55 0 0 1 -14.52-3.83l-.21-.14a18.29 18.29 0 0 0 9.05-1.25 18 18 0 0 0 4.31-2.55z" fill="#b7e1d8" fill-rule="evenodd"/></svg>