<svg xmlns="http://www.w3.org/2000/svg" viewBox="0 0 21.38 14.98"><defs><style>.cls-1{fill:#2c4c61;fill-rule:evenodd;}</style></defs><title>youtube</title><g id="Layer_2" data-name="Layer 2"><g id="Layer_1-2" data-name="Layer 1"><path class="cls-1" d="M2.2,14.54A2.48,2.48,0,0,1,.56,12.95C-.15,11-.36,2.82,1,1.21a2.65,2.65,0,0,1,1.79-1C6.48-.13,17.87-.08,19.18.4A2.57,2.57,0,0,1,20.8,1.95c.78,2,.8,9.37-.1,11.31a2.5,2.5,0,0,1-1.16,1.17C18.16,15.15,4,15.14,2.2,14.54Zm5.86-3.83,6.64-3.44L8.06,3.81Z"/></g></g></svg>